<svg xmlns="http://www.w3.org/2000/svg" width="682.667" height="682.667" version="1.0" viewBox="0 0 512 512"><path d="m50.3 132.8-7.2 5.7v44c-.1 30.5.2 44.4 1 45.2.6.6 13.6 6.6 29 13.4C98.8 252.5 101 253.7 101 256c.1 2.3.1 2.4 1.5.7 1.3-1.8 2.2-1.5 16.9 5 8.6 3.7 15.6 7.1 15.6 7.4 0 .4-20.7 10.1-46 21.5l-46 20.9v12.2l9.5 6.7 9.5 6.7 6.5-3.2c3.6-1.8 8.7-3.4 11.4-3.7 4.4-.4 5-.2 5.6 1.9.4 1.3.7 4.7.7 7.7-.1 12.8-12.7 29-31.3 40.4-5.2 3.2-10 6.1-10.6 6.5-.9.6-1.1 2.5-.6 6.6l.6 5.7 9.4 6.6 9.5 6.6 3.6-1.5c2.1-.8 45.5-20.8 96.5-44.5l92.8-43 91.7 42.5c50.4 23.4 93.8 43.4 96.4 44.5l4.7 2 9.5-6.6c8.3-5.8 9.6-7.1 9.6-9.5 0-1.6.3-4.2.6-5.8.5-2.8.2-3.2-7.4-7.5-21.7-12.7-35.2-29-35.5-43.1 0-2.8.3-6.3.7-7.6.7-2.1 1.2-2.3 5.7-1.9 2.7.3 7.8 1.9 11.4 3.7l6.5 3.2 9.5-6.6 9.5-6.6v-12.4l-46-20.9c-25.3-11.5-45.7-21.3-45.3-21.7.5-.4 20.2-9.4 43.8-19.9 23.7-10.5 44-19.8 45.2-20.6l2.3-1.4-.1-44.3v-44.2l-6.4-5.5c-3.5-3-6.8-5.6-7.4-5.8-.5-.2-7 1.8-14.3 4.3l-13.4 4.6 5.3 16c6.6 19.5 12.3 41.7 12.6 48.2l.2 4.9-23.5 10.5c-36 16.1-117.9 53.4-132.4 60.2-7.1 3.4-15.2 6.8-17.9 7.6-5.7 1.7-23.8 2-30.2.5-2.2-.5-14.8-5.9-28-12.1-13.2-6.1-38.6-17.8-56.5-26-32-14.5-32.5-14.8-32.2-17.5.3-2.4 3.7-12.9 5.6-17.5.6-1.2-1.5-2.4-10.2-5.7-6-2.3-11.4-4.2-12-4.2-1 0-2.6 4.5-5.9 16.6l-.8 3.2L84 213l-17.5-7.8.1-4.8c.2-6.7 11.4-53.6 14.9-62.6.5-1.2.1-2-1.1-2.4-1.1-.4-6.3-2.4-11.8-4.5-5.4-2.2-10.1-3.9-10.5-3.8-.3 0-3.8 2.6-7.8 5.7"/></svg>