<svg xmlns="http://www.w3.org/2000/svg" width="512" height="512"><path fill="#2B2D42" d="M255 24c4.06 1.353 5.347 4.092 7.625 7.5 11.842 17.026 28.537 26.831 46.073 37.172C328.306 80.303 342.816 93.092 349 116c4.29 18.682 2.383 43.095-7.086 60.031-2.153 4.818-2.153 4.818-2.914 9.969 1.116 1.944 2.477 3.318 4.039 4.923 11.741 12.31 9.506 29.102 9.178 44.898-.076 4.27-.082 8.54-.097 12.812-.037 8.061-.135 16.12-.256 24.18-.135 9.188-.2 18.375-.26 27.563-.125 18.876-.336 37.75-.604 56.624l1.72-.026c2.61-.034 5.218-.055 7.827-.076l2.706-.04c12.381-.075 21.661 3.377 30.645 11.954 7.168 7.5 10.255 16.639 10.2 26.926l-.01 3.233-.026 3.341-.013 3.4A2576 2576 0 0 1 404 414l1.795.166C417.42 415.331 424.973 419.36 433 428c13.283 16.86 7 39.699 7 60H72c0-52.386 0-52.386 11.59-64.687 7.02-6.607 15.075-8.48 24.41-9.313l-.063-1.997c-.837-30.313-.837-30.313 8.376-41.23 7.553-7.937 15.809-13.354 27.09-13.887l2.46.016 2.686.01 2.763.026 2.823.013q3.433.018 6.865.049l-.034-2.358c-.265-18.999-.464-37.998-.588-56.999-.061-9.189-.145-18.376-.283-27.565q-.182-12.023-.224-24.047a743 743 0 0 0-.14-12.713c-.642-32.046-.642-32.046 9.23-42.395l1.644-1.69c1.764-1.927 2.405-2.65 2.36-5.29-.83-3.421-2.16-6.627-3.875-9.693-6.32-12.287-7.534-26.213-7.59-39.812l-.019-3.494c.26-17.53 6.467-33.14 18.519-45.944 7.253-6.546 15.436-11.506 23.813-16.437C224.26 56.477 241.663 44.005 255 24"/><path fill="#E5D4B1" d="m150.245 356.853 2.832-.011q4.698-.015 9.398-.019l6.736-.02q11.066-.028 22.133-.041l7.626-.013a34887 34887 0 0 1 39.96-.044l2.065-.002c11.03-.008 22.059-.033 33.088-.066q17.01-.049 34.02-.054c6.36-.002 12.72-.011 19.08-.036q8.983-.035 17.966-.018 3.285 0 6.572-.02c16.344-.096 29.794.481 42.177 12.303 7.168 7.5 10.255 16.639 10.2 26.926l-.01 3.233-.026 3.341-.013 3.4q-.018 4.145-.049 8.288l1.795.166C417.42 415.331 424.973 419.36 433 428c13.283 16.86 7 39.699 7 60H72c0-52.386 0-52.386 11.59-64.688 7.02-6.606 15.075-8.48 24.41-9.312l-.063-1.997c-.837-30.313-.837-30.313 8.375-41.23 9.886-10.389 19.766-13.923 33.933-13.92"/><path fill="#EADDC4" d="M178 357h156v58H178z"/><path fill="#DFCA9F" d="M430.8 425.633c7.836 8.433 9.518 16.676 9.395 27.894l-.006 2.66c-.01 3.25-.038 6.5-.064 9.75L440 488h-79v-73l20.375-.562 6.369-.186 5.092-.13 2.593-.082c14.206-.34 24.809 1.478 35.372 11.593M108.882 413.978l2.89.062 2.998.081 2.784.063c3.42.078 6.84.166 10.258.254L151 415v73H72l-.25-21.875-.11-6.843q-.018-2.73-.03-5.462l-.063-2.789c-.006-11.169 4.494-19.706 12.043-27.718 6.806-6.406 16.002-9.56 25.292-9.335"/><path fill="#202232" d="M253 27v3Zm-2 3 1 2c-9.066 13.7-19.766 24.438-33.187 33.813Q214.402 68.9 210 72l-1.995 1.403c-15.803 11.267-25.04 25.71-28.497 45.097-2.746 21.115.097 41.645 7.637 61.434.955 3.425.856 4.699-.145 8.066a203 203 0 0 1-4 6.318c-4.644 7.661-5.126 14.801-5 23.592q-.012 2.309-.033 4.617a885 885 0 0 0 .02 12.393c.022 4.335-.002 8.67-.02 13.005-.028 8.188-.016 16.375.011 24.563.03 9.33.013 18.66-.007 27.99-.04 19.175-.025 38.348.029 57.522q-3.97.04-7.937.063l-2.288.025A183 183 0 0 1 162 358c-1.786-1.786-1.17-4.436-1.201-6.852l-.057-3.857-.046-4.271-.059-4.47c-.174-13.662-.267-27.326-.34-40.989a3399 3399 0 0 0-.297-30.263c-.099-7.103-.15-14.205-.17-21.308a753 753 0 0 0-.13-12.703c-.61-32.008-.61-32.008 9.263-42.362l1.644-1.69c1.763-1.928 2.403-2.652 2.357-5.293-.828-3.42-2.16-6.626-3.874-9.692-6.32-12.287-7.534-26.213-7.59-39.812l-.019-3.494c.26-17.53 6.467-33.14 18.519-45.944 7.253-6.546 15.436-11.506 23.813-16.437C221.79 57.937 238.413 47.066 251 30M259 29c3.484 3.415 6.723 6.95 9.938 10.625 10.747 11.8 23.468 19.554 37.145 27.527C326.847 79.269 342.46 91.772 349 116c4.29 18.682 2.383 43.095-7.086 60.031-2.153 4.818-2.153 4.818-2.914 9.969 1.115 1.944 2.476 3.319 4.037 4.925 11.73 12.303 9.526 29.073 9.213 44.863-.072 4.267-.076 8.535-.087 12.803-.029 7.145-.1 14.288-.203 21.432-.145 10.09-.216 20.178-.27 30.268-.077 13.507-.177 27.015-.357 40.521q-.03 2.19-.052 4.382-.034 2.977-.08 5.954l-.044 3.371C351 357 351 357 350 358c-2.697.073-5.367.092-8.062.063l-2.3-.014q-2.818-.02-5.638-.049l.01-2.394q.111-28.925.065-57.848c-.014-9.326-.011-18.65.031-27.976q.057-12.2.01-24.402c-.016-4.301-.017-8.602.02-12.903.036-4.062.028-8.12-.012-12.182q-.011-2.219.026-4.436c.15-9.476-1.628-16.152-7.03-23.912-3.086-4.438-3.086-4.438-3.305-7.685.49-2.258 1.233-4.16 2.185-6.262a165 165 0 0 0 1.219-4.395q.95-3.3 1.926-6.591c3.03-10.568 4.224-20.908 4.168-31.889l-.015-3.454c-.24-17.248-4.64-31.913-15.298-45.671l-1.742-2.422c-2.927-3.342-6.24-5.787-9.82-8.39l-2.16-1.595a1551 1551 0 0 0-12.153-8.843C278.868 55.125 267.548 45.086 259 31z"/><path fill="#F8C101" d="M273 116v1l-3.367.262c-11.498 1.028-20.912 2.882-29.098 11.707-7.224 9.558-8.546 19.362-7.535 31.031 3.005 11.296 8.658 18 18.535 23.836 8.249 3.895 20.407 3.616 29.031 1.14 8.196-3.788 14.765-9.687 18.434-18.038l1-2.938c1.92 4.957-.526 9.02-2.414 13.672-5.955 12.496-15.847 19.33-28.316 24.45-11.287 3.033-24.8 1.827-35.063-3.599-6.202-3.665-10.941-7.727-15.207-13.523l-1.43-1.934c-6.977-10.26-7.98-21.976-6.57-34.066 3.106-13.197 10.947-22.5 22-30 12.758-7.337 26.298-7.376 40-3"/><path fill="#FAD101" d="M273 116v1l-3.367.262c-11.498 1.028-20.912 2.882-29.098 11.707-5.537 7.327-7.677 14.349-7.722 23.406l-.043 3.898c.064 3.694.064 3.694 1.304 6.891 1.076 3.297 1.36 4.664-.074 7.836-2.457 1.699-4.663 3.006-7.312 4.313l-2.053 1.087c-3.516 1.805-5.619 2.6-9.635 2.6-5.18-11.794-6.266-24.821-1.937-37.062 5.304-11.795 14.514-21.372 26.66-26.196 11.63-3.79 21.689-3.443 33.277.258"/><path fill="#E4EDF0" d="m215.192 275.729 2.632.012 2.77-.01c3.031-.01 6.062-.003 9.094.003l6.3-.005q6.607-.005 13.214.01c5.657.012 11.313.005 16.97-.007q6.505-.009 13.011 0 3.129.003 6.258-.005c2.912-.005 5.823.003 8.735.014l2.632-.012c5.963.042 5.963.042 8.192 2.271l-1 6h-96l-1-6c2.647-2.647 4.59-2.245 8.192-2.271"/><path fill="#E7F0F3" d="m215.068 292.853 2.643.002 2.769-.01a3267 3267 0 0 1 9.11-.013l6.304-.01q6.616-.009 13.233-.007c5.664 0 11.328-.014 16.992-.031q6.512-.015 13.025-.013 3.134 0 6.267-.013c2.916-.01 5.832-.007 8.749 0 .87-.007 1.74-.012 2.637-.018 5.975.032 5.975.032 8.203 2.26-.556 4.556-.556 4.556-2 6-2.911.106-5.799.147-8.71.145l-2.77.01q-4.554.013-9.11.013l-6.304.01q-6.616.009-13.233.007c-5.664 0-11.328.014-16.992.031q-6.512.015-13.025.013-3.134 0-6.267.013c-2.916.01-5.832.007-8.749 0-.87.007-1.74.012-2.637.018-5.975-.032-5.975-.032-8.203-2.26.76-6.234 1.972-6.114 8.068-6.147"/><path fill="#EAF3F6" d="m215.068 259.853 2.643.002 2.769-.01a3267 3267 0 0 1 9.11-.013l6.304-.01q6.616-.009 13.233-.007c5.664 0 11.328-.014 16.992-.031q6.512-.015 13.025-.013 3.134 0 6.267-.013c2.916-.01 5.832-.007 8.749 0 .87-.007 1.74-.012 2.637-.018 5.975.032 5.975.032 8.203 2.26-.556 4.556-.556 4.556-2 6-2.911.106-5.799.147-8.71.145l-2.77.01q-4.554.013-9.11.013l-6.304.01q-6.616.009-13.233.007c-5.664 0-11.328.014-16.992.031q-6.512.015-13.025.013-3.134 0-6.267.013c-2.916.01-5.832.007-8.749 0-.87.007-1.74.012-2.637.018-5.975-.032-5.975-.032-8.203-2.26.76-6.234 1.972-6.114 8.068-6.147"/><path fill="#F0C604" d="m292 128 1.125 1.875c2.361 2.676 4.476 3.219 7.875 4.125l-1.5 1.625c-1.875 2.969-1.735 4.928-1.5 8.375l-5.957-.879c-2.246-.26-2.246-.26-5.043.879l.188-2.75c-.205-3.54-.834-4.7-3.188-7.25 1-1 1-1 3.563-1.062L290 133z"/><path fill="#E3B208" d="m295 137 3 1v6l-7-2c1.75-3.875 1.75-3.875 4-5"/></svg>