<svg xmlns="http://www.w3.org/2000/svg" width="512" height="512"><path fill="#020101" d="M218.115 6.991c10.986 7.337 19.273 17.996 22.363 31.022 1.77 9.136 2.377 16.868-2.29 25.237-3.878 4.874-8.089 8.387-14.36 9.121-7.618.141-13.084-.062-18.828-5.371-5.066-5.466-6.329-10.208-7.34-17.441-.725-2.812-1.322-3.875-3.66-5.559-3.93-.5-6.1-.6-9.438 1.625-2.034 3.092-2.168 4.739-1.562 8.375 2.713 3.174 5.645 5.075 9.25 7.125C201.816 67.133 208.164 76.044 211 87c.218 2.387.329 4.768.438 7.163.253 7.982.253 7.982 3.996 14.774 2.512 1.844 4.974 3.424 7.73 4.87C225 115 225 115 226.906 116.97c6.999 6.96 13.811 7.258 23.218 7.32l2.805-.027c2.806-.013 5.594.08 8.398.182 9.668.133 16.377-.63 23.688-7.336a194 194 0 0 0 4.61-4.757c2.41-2.371 4.927-4.352 8.374-4.352l1-10-2.125-1.25c-14.013-8.53-22.513-18.998-26.434-35.035-2.258-13.891-.003-27.76 7.559-39.715 8.431-11.119 19.267-18.973 33-22 15.463-1.314 29.489.134 42 10l2.082 1.555c10.066 8.044 15.38 19.45 17.52 31.965.84 7.605.64 13.925-3.602 20.48-3.844 4.271-8.137 7.674-13.953 8.336-8.052.095-13.74-.334-19.758-5.926-4.304-4.965-5.45-10.172-6.55-16.555-.768-2.966-1.253-4.118-3.739-5.855-3.93-.5-6.1-.6-9.438 1.625-2.034 3.092-2.168 4.739-1.562 8.375 2.598 3.025 5.252 4.832 8.75 6.687 9.501 5.584 15.56 14.078 18.96 24.489 1.408 5.576 1.6 11.173 1.75 16.906 1.015 5.49 5.896 8.072 10.225 11.117C356 115 356 115 357.833 117.037c5.637 5.806 10.738 6.706 18.495 6.893 3.976.047 7.946.005 11.922-.055 3.964-.018 7.927-.015 11.89-.008l2.88-.001c18.022.083 33.695 4.234 47.105 16.821 9.805 10.5 14.473 23.318 19.75 36.438l2.5 6.136q2.564 6.287 5.116 12.578c3.432 8.445 6.935 16.86 10.439 25.275q2.617 6.302 5.222 12.609a2196 2196 0 0 0 6.514 15.6q1.217 2.885 2.422 5.774 1.418 3.394 2.867 6.777c4.061 9.782 4.061 9.782 3.045 15.126-4.11 5.227-9.242 7.148-15.305 9.574l-3.022 1.242q-3.156 1.294-6.319 2.569a1610 1610 0 0 0-9.631 3.93l-6.153 2.51-2.892 1.18c-4.846 1.951-9.621 3.679-14.678 4.995l.034 1.675c.11 5.758.186 11.517.24 17.276q.039 3.223.103 6.446c.06 3.09.09 6.18.111 9.271l.078 2.905c.002 4.647-.06 6.747-2.909 10.573C445 353 445 353 442 353v19l6 2c2.242 2.956 2.254 5.712 2.267 9.345l.026 3.284-.002 3.588.02 3.79q.023 5.14.024 10.283.001 3.213.01 6.426.028 11.212.026 22.426c-.002 6.965.02 13.93.051 20.896q.038 8.975.036 17.949c0 3.572.005 7.144.026 10.716.023 3.984.014 7.967.002 11.951l.034 3.582-.026 3.292.004 2.853c-.671 3.53-1.968 5.082-4.498 7.619-2.929.627-2.929.627-6.416.63l-1.954.021c-2.17.019-4.34.001-6.51-.016a1765 1765 0 0 0-4.704.024c-4.316.02-8.632.01-12.948-.005-4.652-.012-9.303.006-13.955.02-9.116.022-18.231.017-27.347.002a9839 9839 0 0 0-22.219-.007l-3.19.002-6.417.005c-20.07.015-40.14-.002-60.21-.029a19624 19624 0 0 0-51.694.005 28491 28491 0 0 1-66.383.017l-3.178-.002c-7.4-.005-14.8.003-22.2.014q-13.522.022-27.044-.016c-4.602-.013-9.203-.018-13.805-.002q-6.314.021-12.628-.02a395 395 0 0 0-4.578.01c-2.07.015-4.136 0-6.204-.024l-3.487-.002C66 512 66 512 63.629 509.698c-2.206-3.654-2.172-6.9-2.11-11.044l-.01-2.537c-.007-2.804.015-5.607.037-8.411q.001-3.015-.002-6.032c-.001-5.458.023-10.916.05-16.375.025-5.704.028-11.408.033-17.112.012-10.802.045-21.603.085-32.405.045-12.297.067-24.595.087-36.892.042-25.297.112-50.593.201-75.89l-1.786-.585c-4.184-1.38-8.33-2.786-12.41-4.452l-2.76-1.123-2.88-1.184-3.034-1.243q-3.15-1.294-6.297-2.592a2897 2897 0 0 0-9.657-3.95l-6.137-2.527-2.917-1.184-2.702-1.123-2.373-.975C6.869 280.932 5.52 279.922 4 278c-1.08-7.557 1.844-13.53 4.812-20.375l1.37-3.309c3.415-8.048 3.415-8.048 6.818-10.316l2.937-.137c3.045-.53 3.045-.53 4.235-2.373 1.076-2.064 1.969-4.14 2.828-6.303l.98-2.197c1.82-4.098 1.82-4.098 1.27-8.377L28 223c-1.897-3.795-1.478-7.462-.254-11.399 1.09-2.817 2.255-5.59 3.453-8.363l1.31-3.112c1.38-3.276 2.78-6.545 4.178-9.814l2.764-6.537c2.1-4.971 4.214-9.937 6.333-14.9 1.732-4.096 3.417-8.21 5.099-12.326 5.983-13.65 17.581-22.887 30.867-28.799 9.779-3.547 19.823-3.89 30.11-3.848l2.917.002c4.005.006 8.008.015 12.012.092 13.625.7 13.625.7 25.258-5.316q1.98-2.337 3.953-4.68c2.597-1.918 5.252-3.653 7.969-5.395 3.032-2.396 3.822-4.388 4.468-8.148-.195-2.644-.195-2.644-2.562-4.195L163 94.687c-11.27-6.733-18.802-16.232-22.938-28.812-3.39-14.666-1.581-29.667 6.125-42.625C162.124.119 193.558-8.364 218.115 6.991"/><path fill="#F3D7A4" d="M240.75 139.688q2.085.037 4.172.068 5.04.087 10.078.244l.524 2.77c1.392 6.964 2.847 13.281 6.226 19.542l1.058 2.03c2.862 5.344 6.057 10.202 10.192 14.658l1.71 1.906c2.385 2.374 4.05 3.974 7.474 4.305 2.461-.173 2.461-.173 5.816-1.211 1.57-3.139 1.352-5.539 1-9-2.313-2.73-2.313-2.73-5-5-1.164-2.145-1.164-2.145-2-4l2.273-.664c8.199-2.54 15.694-5.568 22.043-11.5 4.828-4.502 8.374-6.498 15.059-6.961 7.546.394 11.432 3.464 16.715 8.508 6.453 5.803 14.461 8.992 22.91 10.617-8.39 10.757-19.643 16.489-33 19-3.689.316-7.383.365-11.084.39-4.38.116-4.38.116-7.932 2.458-1.423 3.113-1.012 4.93.016 8.152 2.516 2.695 4.056 3.007 7.766 3.469q2.242.05 4.484.031l2.409-.015c8.38-.241 15.603-2.396 23.341-5.485l3.242-1.281c14.76-6.594 26.667-19.86 32.758-34.719 2.054-5.928 3.802-11.842 5-18 37.001-1.034 37.001-1.034 50.895 11.742 9.934 10.433 14.44 26.029 19.793 39.133q1.237 3.018 2.478 6.035 2.59 6.305 5.175 12.612c3.967 9.672 7.965 19.33 11.96 28.99q3.009 7.277 6.015 14.554l1.046 2.529q.93 2.25 1.852 4.5a381 381 0 0 0 2.016 4.776C490 267 490 267 490 270a14942 14942 0 0 1-11.414 4.907l-3.869 1.664c-6.133 2.64-12.27 5.275-18.444 7.82l-2.307.954C452 286 452 286 449 286l-.011-3.472a8444 8444 0 0 0-.173-32.358c-.04-5.546-.072-11.091-.087-16.637-.015-5.35-.05-10.698-.097-16.048a893 893 0 0 1-.024-6.13c-.002-2.857-.03-5.712-.062-8.57l.015-2.573c-.032-4.55-.032-4.55-2.439-8.234-2.677-1.234-4.207-1.488-7.122-.978-2.792 2.154-3.883 3.339-4.503 6.852l-.005 3.366-.034 3.87.024 4.24q-.008 2.235-.02 4.47c-.02 4.045-.012 8.09 0 12.136.01 4.234.001 8.468-.005 12.701q-.01 10.666.022 21.334c.021 8.22.014 16.438-.008 24.658q-.026 10.586-.01 21.172c.006 4.215.007 8.43-.006 12.645q-.017 5.946.02 11.89.007 2.182-.006 4.363c-.01 1.986.006 3.972.023 5.958l.005 3.367c.623 3.685 1.888 5.35 4.503 7.978l3 1v20l-5 2c-2.16 3.24-2.255 4.138-2.278 7.878l-.034 3.04-.007 3.346-.03 3.576c-.031 3.828-.048 7.656-.065 11.484l-.054 7.08c-.063 8.761-.109 17.522-.157 26.284L434 497H209l-.184-65.957a408450 408450 0 0 0-.188-62.907l-.009-2.742q-.065-21.933-.124-43.868-.06-22.497-.132-44.996-.045-13.89-.078-27.781-.024-9.516-.058-19.032-.02-5.496-.03-10.992-.014-5.95-.039-11.9l-.003-3.533-.016-3.206-.008-2.777c-.039-2.47-.039-2.47-1.131-5.309l-3.75-.687-2.11-.387c-2.199-.06-2.199-.06-4.24 1.024-2.97 3.204-2.47 6.779-2.446 10.928l-.031 2.75c-.03 3.003-.031 6.005-.032 9.009q-.023 3.12-.05 6.242c-.044 5.48-.064 10.959-.08 16.438-.019 5.59-.06 11.18-.1 16.77-.076 10.972-.126 21.942-.161 32.913q-5.952-2.369-11.902-4.742l-3.37-1.34A647 647 0 0 1 153 270c.707-5.031 2.707-9.46 4.656-14.11l1.135-2.736q1.85-4.454 3.709-8.904l2.575-6.198q2.65-6.379 5.306-12.755a5936 5936 0 0 0 7.38-17.828l3.36-8.133 2.093-5.079c3.607-8.752 7.274-17.473 11.09-26.136l.991-2.264c5.463-12.292 13.7-19.762 26.214-24.838 6.341-1.85 12.699-1.54 19.241-1.332"/><path fill="#E3979C" d="m101.148 139.805 1.993.008c2.078.011 4.156.036 6.234.062q2.127.016 4.254.027 5.186.035 10.371.098l.365 2.182c2.973 17.149 10.71 33.292 25.198 43.65 5.581 3.682 11.25 6.653 17.437 9.168-2.12 6.725-4.654 13.213-7.387 19.71a7293.683 7293.683 0 0 1-5.3 12.664l-2.647 6.333-1.313 3.139q-1.297 3.103-2.59 6.21c-2.023 4.848-4.077 9.678-6.226 14.472l-1.151 2.606a282 282 0 0 1-2.154 4.748C136.167 269.58 135.389 272.9 137 278c1.91 1.823 1.91 1.823 4.645 2.855l3.295 1.47q2.029.843 4.06 1.675l5.095 2.14c5.847 2.433 11.718 4.805 17.593 7.173q4.572 1.846 9.142 3.7 2.827 1.145 5.656 2.283l2.552 1.033 2.252.908C193 302 193 302 194 303c.098 2.504.13 4.98.12 7.485l.003 2.403c.002 2.678-.004 5.356-.01 8.034l.001 5.734q-.001 7.81-.013 15.62c-.006 5.434-.006 10.869-.008 16.303q-.005 15.45-.021 30.897-.018 20.867-.024 41.735c-.01 21.93-.03 43.86-.048 65.789H78l-.012-27.66c-.017-29.184-.058-58.37-.115-87.555l-.026-13.594-.005-2.733a26611 26611 0 0 1-.038-43.855q-.005-22.49-.065-44.979a7651 7651 0 0 1-.023-27.767q.008-9.513-.035-19.026c-.015-3.663-.022-7.324-.008-10.987.016-3.966-.007-7.932-.034-11.898l.033-3.525c.05-6.118.05-6.118-3.013-11.175C71.276 190.66 69.532 190.9 66 192c-3.048 3.048-2.308 6.581-2.319 10.672l-.03 2.72c-.031 2.976-.048 5.952-.065 8.928l-.059 6.18c-.051 5.428-.09 10.857-.128 16.285-.04 5.537-.091 11.073-.141 16.61A17415 17415 0 0 0 63 286c-3.408-.514-6.581-1.057-9.786-2.335l-2.052-.81-2.15-.875-2.254-.908a1172 1172 0 0 1-4.682-1.91 781 781 0 0 0-7.195-2.883q-2.28-.929-4.557-1.861l-2.18-.856c-4.885-2.044-4.885-2.044-6.164-4.603.03-2.966 1.195-5.107 2.457-7.772 2.008-4.61 3.5-8.09 2.563-13.187a111 111 0 0 0-4-5c1.089-2.983 2.255-5.929 3.438-8.875l.927-2.55 1.006-2.442.873-2.254c2.146-2.297 3.124-2.213 6.169-2.658 3.37-.595 3.37-.595 5.934-2.694 1.071-2.025 1.895-4.039 2.68-6.191l.956-2.353c1.018-2.524 1.985-5.065 2.955-7.608q1.04-2.61 2.091-5.214c1.715-4.268 3.396-8.549 5.064-12.836a947 947 0 0 1 5.247-13.137 355 355 0 0 0 2.302-5.79c4.554-11.308 12.25-20.228 23.268-25.539 5.247-2.157 9.532-3.103 15.238-3.054"/><path fill="#F0CA85" d="m357.73 224.369 1.988-.022c2.157-.017 4.312.003 6.47.024q2.257 0 4.516-.007 4.725-.003 9.451.04c4.032.033 8.063.027 12.095.008 3.107-.01 6.215-.001 9.322.014q2.23.008 4.459-.002c2.08-.005 4.159.015 6.239.043l3.58.018c3.777.617 5.44 1.868 8.15 4.515 1.613 3.226 1.12 6.747 1.098 10.29l-.005 2.48c-.005 2.618-.018 5.236-.03 7.855q-.009 2.66-.014 5.32A5988 5988 0 0 1 425 268l9-3 .011 3.08q.056 14.367.173 28.735c.04 4.925.072 9.849.087 14.774.015 4.753.05 9.505.097 14.258q.023 2.719.024 5.438c.002 2.54.03 5.08.062 7.62l-.015 2.27c.072 3.607.473 5.685 2.408 8.768 2.063 2.264 2.063 2.264 5.153 3.057v20l-5 2c-2.16 3.24-2.255 4.138-2.278 7.878l-.034 3.04-.007 3.346-.03 3.576c-.031 3.828-.048 7.656-.065 11.484l-.054 7.08c-.063 8.761-.109 17.522-.157 26.284L434 497H209v-12l5.918-.011q27.63-.056 55.262-.173c9.47-.04 18.94-.072 28.41-.087q12.387-.019 24.774-.084c4.369-.022 8.737-.038 13.106-.037q6.18 0 12.361-.05 2.257-.012 4.513-.004c14.355.047 26.573-2.896 37.344-12.741 6.633-6.937 10.542-16.654 10.59-26.191l.034-3.824.007-4.157.03-4.406c.028-3.977.043-7.954.056-11.93.015-4.16.042-8.32.068-12.48q.068-11.81.116-23.62c.039-8.964.088-17.929.138-26.894q.154-27.656.273-55.311l-1.82.641c-.796.275-1.593.55-2.415.832l-2.382.828c-3.621 1.062-7.068 1.192-10.82 1.137l-2.239-.026c-10.298-.317-17.859-4.405-25.324-11.412-11.086-11.876-11.255-25.744-11.35-41.047a541 541 0 0 0-.082-5.906 608 608 0 0 1-.091-8.547l-.07-2.658.01-2.498-.025-2.182c1.77-6.297 6.376-7.788 12.338-7.793"/><path fill="#E07F85" d="m160 289 7.672 2.87 2.18.814a476 476 0 0 1 15.585 6.128l2.213.905c5.223 2.156 5.223 2.156 6.35 3.283.098 2.504.13 4.98.12 7.485l.003 2.403c.002 2.678-.004 5.356-.01 8.034l.001 5.734q-.001 7.81-.013 15.62-.007 8.152-.008 16.303-.005 15.45-.021 30.897-.018 20.867-.024 41.735c-.01 21.93-.03 43.86-.048 65.789H78v-12l4.2-.028c5.198-.04 10.396-.106 15.594-.18q3.358-.042 6.717-.063c16.789-.112 32.201-.216 45.196-12.319 7.258-7.81 10.421-16.675 10.413-27.2l.003-2.03q0-3.354-.01-6.71l.001-4.82q-.001-6.535-.013-13.071-.007-6.832-.008-13.666-.004-12.935-.021-25.87-.016-14.729-.022-29.456-.016-30.294-.05-60.587"/><path fill="#030302" d="m357.73 224.369 1.988-.022c2.157-.017 4.312.003 6.47.024q2.257 0 4.516-.007 4.725-.003 9.451.04c4.032.033 8.063.027 12.095.008 3.107-.01 6.215-.001 9.322.014q2.23.008 4.459-.002c2.08-.005 4.159.015 6.239.043l3.58.018c3.833.627 5.503 1.698 8.15 4.515.628 2.198.628 2.198.631 4.61l.038 2.753-.04 2.957.007 3.073a578 578 0 0 1-.04 6.44c-.033 3.26-.02 6.517 0 9.776q-.01 3.138-.03 6.274l.015 2.92c-.193 11.336-4.633 20.047-12.429 28.107-9.42 8.822-19.37 10.588-31.879 10.363-10.16-.448-18.212-5.851-25.027-13.152-9.509-11.797-9.507-24.766-9.596-39.168a541 541 0 0 0-.082-5.906 608 608 0 0 1-.091-8.547l-.07-2.658.01-2.498-.025-2.182c1.77-6.297 6.376-7.788 12.338-7.793"/><path fill="#CC8D7D" d="M339 19c8.62 5.292 13.23 11.955 17.375 21 1.128 5.414 1.946 10.816-1 15.688C353 57 353 57 349.875 56.938 347 56 347 56 345 53a89 89 0 0 1-.812-5.187c-1.19-6.975-3.59-11.667-9.063-16.188C329.007 28.444 322.848 26.941 316 28c-7.285 2.366-12.348 6.222-16 13-2.284 6.88-1.97 14.78.938 21.375C303.898 67.611 307.895 70.06 313 73c6.419 4.053 9.792 8.115 13 15l1 2c.094 1.785.183 3.571.239 5.358.277 8.056.673 16.056 6.3 22.369 1.75 1.557 3.55 2.92 5.461 4.273q1.908 1.435 3.813 2.875l2.011 1.48c2.488 1.881 4.89 3.855 7.301 5.832 6.93 5.519 12.107 7.31 20.875 7.813-.508 4.318-1.197 8.033-3 12-10.47.776-18.124-3.446-26-10l-2.121-2.03c-6.719-6.11-11.923-7.296-20.879-7.032l-3.51.054c-6.205.283-10.73.64-15.428 5.07A1439 1439 0 0 0 298 143c-8.084 6.098-14.752 9.418-25 9-2.417-4.23-3.348-7.123-3-12l2.195-.332 2.93-.48 2.883-.458c6.244-1.524 10.585-4.836 15.305-9.042 3.75-3.287 7.386-6.255 11.687-8.813 4.737-3.105 7.433-6.38 9-11.875.765-7.53 1.45-14.516-3-21v-2l-2.223-.832c-9.796-4.12-16.443-10.802-21.015-20.273-3.35-8.332-3.172-20.676.199-28.946 5.193-9.741 12.53-16.075 22.797-20.031C320.422 13.182 330.043 14.663 339 19"/><path fill="#ECC783" d="M413 140c11.372 1.46 21.746 5.926 29 15 5.95 8.467 9.497 18.022 13.313 27.563q1.575 3.893 3.154 7.785 1.095 2.7 2.186 5.4c3.673 9.084 7.427 18.135 11.19 27.182q2.671 6.43 5.337 12.863 2.713 6.547 5.438 13.088a4511 4511 0 0 1 3.945 9.494l1.103 2.627C490 266.658 490 266.658 490 270a14942 14942 0 0 1-11.414 4.907l-3.869 1.664c-6.133 2.64-12.27 5.275-18.444 7.82l-2.307.954C452 286 452 286 449 286l-.011-3.472a8444 8444 0 0 0-.173-32.358c-.04-5.546-.072-11.091-.087-16.637-.015-5.35-.05-10.698-.097-16.048a893 893 0 0 1-.024-6.13c-.002-2.857-.03-5.712-.062-8.57l.015-2.573c-.033-4.55-.033-4.55-2.439-8.238-2.648-1.216-4.237-1.407-7.122-.974a83 83 0 0 0-4 3l-1.258-3.215c-5.163-13.09-10.632-26.04-16.168-38.974l-.915-2.144q-.862-2.018-1.729-4.033C413 141.112 413 141.112 413 140"/><path fill="#CB8D7D" d="M208.113 19.219C216.55 25.115 223.521 32.85 226 43c.658 4.766.966 8.498-1.687 12.625-2.78 1.653-4.138 2.026-7.313 1.375-2.785-2.961-3.386-5.27-3.812-9.25-1.108-6.752-3.79-11.175-9.254-15.316C197.989 28.59 193.064 27.239 186 28c-7.165 1.786-12.01 4.757-16 11-3.662 6.714-3.918 12.453-1.812 19.625 2.917 7.802 7.338 10.814 14.312 14.82C189.244 77.64 194.012 83.237 196 91c.34 3.778.505 7.547.68 11.336.594 6.8 2.46 12.373 7.632 16.977q1.818 1.38 3.688 2.687l2.008 1.473A280 280 0 0 0 215 127c-2.039 4.078-6.867 5.614-11 7-4.453.301-8.806-.097-13.25-.437-10.913-.48-10.913-.48-20.243 4.523-2.103 2.065-4.042 4.246-5.981 6.464-5.06 4.808-13.048 7.551-19.901 7.575L141 152c-1.305-4.16-2.12-7.65-2-12l2.16-.297c10.742-1.677 16.841-6.364 24.899-13.238a127 127 0 0 1 7.441-5.778c4.694-3.466 7.671-7.108 9.5-12.687.39-3.607.39-3.607.375-7.437l.086-3.872c-.634-5.08-2.537-8.161-6.54-11.343l-2.171-1.285c-10.184-6.45-17.089-13.577-20.242-25.43-1.88-9.748-.269-18.369 4.847-26.89 11.162-15.74 31.123-22.694 48.758-12.524"/><path fill="#E17F85" d="M136 173c5 5 5 5 7.113 7.176 7.088 6.886 14.998 10.777 23.887 14.824-2.127 6.751-4.676 13.26-7.422 19.781l-1.282 3.068a7159 7159 0 0 1-4.046 9.651l-3.992 9.538q-1.296 3.098-2.593 6.193c-3.59 8.575-7.14 17.167-10.665 25.769l-1-2-2.5-.687c-9.063-3.399-14.505-9.838-18.465-18.399-4.396-11.222-1.823-21.226 2.715-31.914l1.472-3.603A957 957 0 0 1 124 201l1.699-4.021A2346 2346 0 0 1 136 173"/><path fill="#F3DF65" d="M361 240h48l.313 16.438.137 5.13c.142 9.056-.486 16.044-6.858 22.96-6.43 5.904-12.82 7.163-21.299 6.949-6.834-.99-12.16-4.562-16.293-10.04-3.246-5.578-4.291-9.704-4.195-16.144l.006-1.95c.01-2.386.038-4.77.064-7.156z"/><path fill="#EDC884" d="M329 148c3.38 2.157 6.205 4.629 9.09 7.383 6.453 5.803 14.461 8.992 22.91 10.617-8.39 10.757-19.643 16.489-33 19-3.689.316-7.383.365-11.084.39-4.454.097-4.454.097-7.928 2.65L308 190c-6.83-.38-12.184-2.36-18-6-1-2-1-2-.75-5.312-.318-4.694-1.807-5.655-5.25-8.688-1.164-2.145-1.164-2.145-2-4l2.273-.664c8.199-2.54 15.694-5.568 22.043-11.5 6.919-6.451 13.359-8.136 22.684-5.836"/><path fill="#D6606A" d="m188 148-1.504 3.121C181.64 161.28 177.186 171.548 173 182c-8.268-2.515-16.06-7.659-22-14v-2l2.273-.664c10.68-3.309 18.675-7.799 26.524-15.797 2.858-1.997 4.793-1.822 8.203-1.539"/><path fill="#F3D7A3" d="M450 230c3.954 3.954 6.233 9.6 6.438 15.188-.458 3.99-1.274 6.446-3.438 9.812l-3 2z"/></svg>