<svg xmlns="http://www.w3.org/2000/svg" width="512" height="512"><path fill="#020101" d="M192.547 22.508C200.024 27.903 206.036 35.85 208 45c.216 3.352.185 6.648 0 10l3.367-.14c11.677-.349 19.63.52 28.883 8.265 7.974 7.636 12.57 16.087 13.063 27.188-.302 10.383-4.811 19.523-9.313 28.687l2.2.68c3.417 1.611 5.159 3.589 7.613 6.445l2.394 2.758L258 131c3.386-2.84 6.685-5.685 9.813-8.812C270 120 270 120 272 119c-1.504-4.717-3.115-9.285-5.125-13.812-3.89-9.716-3.688-19.471.125-29.188 5.033-9.509 12.917-16.59 23.027-20.355 6.231-1.351 12.638-.928 18.973-.645l-.25-3.875c0-8.723 4.22-16.889 10.152-23.125 7.881-7.535 16.95-11.354 27.93-11.148 9.709.664 19.595 4.762 26.168 12.148 2.49 3.577 4.78 7.25 7 11l1.363-1.172C391.28 30.8 401.348 28.674 414 30c10.294 2.293 17.659 7.383 23.346 16.16 3.427 5.886 6.122 12.131 8.904 18.34l2.061 4.547c3.942 8.715 7.801 17.466 11.63 26.23l1.237 2.828q3 6.862 5.97 13.739l2.184 5.027.992 2.319c1.573 3.607 3.098 6.783 5.676 9.81l1-1c5.796-.467 5.796-.467 8 0 4.022 4.58 5.62 10.363 7.688 16l1.33 3.627c9.66 26.816 18 55.406 18.22 84.1l.025 3.103q.02 3.25.032 6.5.018 3.257.062 6.515c.646 47.222-16.998 87.959-46.857 123.905l-1.333 1.636c-2.305 2.743-4.543 4.98-7.487 7.032-5.03 3.71-8.157 6.659-9.298 13.038-.799 8.844-.723 17.673-.382 26.544l3.07-.105q2.027-.043 4.055-.082l2.016-.077c4.742-.07 7.843.764 11.859 3.264 6.621 6.922 7.315 12.29 7.336 21.488l.02 3.083q.015 3.223.015 6.447c.004 3.273.04 6.544.078 9.816q.009 3.14.012 6.28l.043 2.942c-.04 6.155-.983 10.81-4.504 15.944-5.044 4.915-9.719 6.248-16.66 6.267l-1.988.014c-2.19.013-4.381.011-6.572.01q-2.361.009-4.722.02c-4.27.018-8.541.022-12.812.024q-4.005.001-8.01.01-13.98.028-27.96.026c-8.68-.002-17.358.02-26.037.051q-11.188.038-22.375.036c-4.452 0-8.903.005-13.354.026q-6.284.029-12.566.005-2.3-.003-4.6.015c-16.566.122-16.566.122-23.184-6.285l-1.098-1.719-1.152-1.719c-1.704-3.336-2.038-6.53-2.071-10.239l-.03-2.65-.012-2.845-.017-2.952q-.014-3.091-.02-6.183c-.01-3.137-.04-6.272-.072-9.408q-.01-3.01-.016-6.02l-.038-2.82c.023-6.55.726-12.502 5.085-17.723l1.781-1.378 1.781-1.434c3.926-2.579 7.904-2.246 12.406-2.192l2.127.014q2.594.02 5.186.049c.086-6.814.1-13.626.067-20.44q-.005-3.474.04-6.946c.632-12.914.632-12.914-2.986-24.951-2.249-2.218-4.5-3.916-7.121-5.663-1.64-1.748-1.64-1.748-3.004-3.484l-1.292-1.623-1.267-1.643-1.39-1.799c-13.678-17.97-19.454-35.476-19.235-57.951l.02-4.341c.044-7.128.196-14.233.668-21.346l.098-2.062c.153-3.208.351-6.366.772-9.552 3.512-27-9.009-49.42-20.37-73.199-12.697 19.045-24.704 45.869-21.387 68.953 1.566 12.321 1.619 24.928 1.682 37.334q.017 2.344.062 4.687C239.89 324.678 227.66 344.969 209 366l-2.62 1.984c-3.561 4.513-3.108 8.625-3.087 14.223l-.046 3.274c-.043 3.444-.052 6.887-.06 10.332a3624 3624 0 0 1-.076 7.013c-.063 5.725-.097 11.45-.111 17.174l3.29-.14q2.167-.057 4.335-.11l2.16-.102c5.227-.095 8.044.946 12.215 4.352 5.942 6.438 6.317 12.074 6.336 20.488l.02 3.083q.015 3.223.015 6.447c.004 3.273.04 6.544.078 9.816q.009 3.14.012 6.28l.043 2.942c-.046 6.956-1.304 12.703-6.32 17.784l-1.746 1.098-1.754 1.152c-3.741 2.022-6.898 2.04-11.072 2.05l-1.973.01q-3.277.01-6.556.011l-4.696.015q-6.385.019-12.77.024-3.989.005-7.978.012-12.484.02-24.968.027-14.406.007-28.814.05-11.138.034-22.275.034-6.651 0-13.302.025-6.26.023-12.519.01-2.293-.002-4.587.013c-2.093.013-4.185.007-6.278-.004l-3.544.005c-5.158-.572-9.004-2.3-13.102-5.56-5.162-6.452-5.702-12.984-5.648-20.937l-.01-2.868q-.002-2.985.017-5.97c.016-3.028 0-6.055-.02-9.084q.004-2.914.013-5.828l-.019-2.715c.071-6.43.844-12.39 5.17-17.469l1.81-1.378 1.816-1.434c3.777-2.63 7.303-2.241 11.746-2.192l2.285.014q2.795.02 5.59.049c1.61-17.992 1.61-17.992-3.645-34.5-2.632-2.765-5.607-5.035-8.713-7.244-2.522-1.93-4.372-4.271-6.33-6.756l-2.148-2.723L47 366l-2.352-2.871C11.912 322.338.036 271.593 5.25 220.152c2.715-23.801 9.102-46.925 16.875-69.527l.947-2.753C29.364 130.091 29.364 130.091 34 127c2.958.302 5.334.667 8 2 6.077-13.062 12.1-26.142 17.938-39.312l1.476-3.323A2685 2685 0 0 0 68.56 70.13q1.73-3.954 3.473-7.903c.816-1.859 1.622-3.722 2.427-5.586C79.965 44.186 85.539 37.533 97.5 31.125c8.887-2.98 20.901-2.438 29.34 1.586C130.45 34.866 133.778 37.3 137 40l1.652-2.633C143.223 30.3 147.3 24.88 155 21l1.945-.98c11.656-5.374 24.682-3.977 35.602 2.488"/><path fill="#F7B89F" d="M356.375 32c4.93 2.824 7.785 6.137 10.625 11l1.473 2.223c3.068 5.392 3.665 9.757 3.311 15.816-.695 12.818 2.563 21.903 8.091 33.274q1.22 2.62 2.428 5.247a1237 1237 0 0 0 5.091 10.882c2.645 5.61 5.186 11.262 7.704 16.93l1.239 2.783 2.42 5.442a2922 2922 0 0 0 5.645 12.606l.974 2.179c2.464 5.505 2.464 5.505 5.624 10.618 3.043.667 3.043.667 6 0 2.284-2.773 2.284-2.773 1.842-5.685-1.024-4.03-2.566-7.589-4.315-11.35l-1.076-2.363q-1.149-2.523-2.307-5.04c-2.054-4.467-4.083-8.945-6.113-13.421l-1.262-2.78c-4.385-9.678-8.624-19.418-12.832-29.174l-1.05-2.43q-1.464-3.387-2.922-6.777l-.872-2.02c-3.247-7.573-4.679-14.647-2.257-22.76 3.285-7.266 7.999-11.291 15.164-14.575 7.08-1.475 13.514-.89 20 2.375 4.715 3.46 7.342 6.702 9.797 12.043l1.006 2.098A577 577 0 0 1 433 66l1.103 2.38a1727 1727 0 0 1 8.147 17.933l2.501 5.557q2.475 5.5 4.945 11.005a2808 2808 0 0 0 5.297 11.721q1.312 2.89 2.617 5.784 1.536 3.404 3.088 6.8l1.345 3 1.157 2.554C464 135 464 135 464 139c-1.504 1.64-1.504 1.64-3.562 3.25-14.408 11.973-23.77 29.18-26.192 47.785-1.305 15.72 1.623 30.634 4.754 45.965l-3.445 1.766c-23.146 12.162-38.947 28.69-46.84 54.025-3.227 10.92-3.897 21.077-3.902 32.459l-.038 3.777c-.049 11.628-.049 11.628 2.225 22.973 2.77 2.315 2.77 2.315 5.625 1.688 2.31-.462 2.31-.462 3.375-1.688.04-2.976.017-5.931-.043-8.906l-.064-5.637c-.037-2.953-.08-5.905-.14-8.858-.305-15.68.331-31.01 8.06-45.099l1.049-1.994c2.857-5.293 6.086-10.047 10.138-14.506l1.98-2.258c9.045-9.72 20.433-15.781 33.02-19.742h2c.266-5.393-.63-9.765-2.375-14.812q-.694-2.142-1.379-4.286l-.66-2.059c-5.575-17.55-3.521-36.53 4.101-53.093 5.016-9.387 11.98-17.184 20.313-23.75l2.043-1.687C476 143 476 143 479 143c7.117 20.453 13.914 40.689 18 62l.526 2.538c4.835 23.73 4.993 51.85-.526 75.462l-.602 2.638c-7.964 33.92-24.86 60.77-48.816 85.708a426 426 0 0 0-6.832 7.341l-2.078 2.262c-9.1 11.161-4.187 23.049-4.672 39.051H327l-1-53c-6.657-7.4-6.657-7.4-13.437-14.687-8.457-9.434-15.649-20.205-19.563-32.313l-.96-2.941c-4.84-18.088-2.191-38.238-.752-56.686q.278-3.709.481-7.422c.161-2.755.39-5.442.685-8.179 1.26-15.433-5.195-27.81-11.579-41.522a2706 2706 0 0 1-3.172-7.02 3680 3680 0 0 0-6.054-13.356c-2.19-4.833-4.337-9.676-6.348-14.585l-1.339-3.26c-2.248-7.078-2.32-14.17 1.1-20.841A77 77 0 0 1 268 140l1.715-2.293c3.326-4.113 4.993-5.81 10.285-6.707q3.943 8.716 7.875 17.438l1.208 2.676c4.712 10.452 9.388 20.92 13.98 31.425l1.231 2.817q2.943 6.734 5.866 13.476l2.145 4.922.957 2.224c1.979 4.528 4.218 8.77 6.738 13.022 2.917.167 2.917.167 6 0l2-2c-.268-5.895-2.337-10.633-4.77-15.945l-1.176-2.628c-1.28-2.854-2.574-5.703-3.866-8.552q-1.35-3-2.697-6.002a8591 8591 0 0 0-5.637-12.526c-4.127-9.165-8.197-18.356-12.271-27.545q-3.014-6.795-6.032-13.587l-1.133-2.552q-2.954-6.648-5.963-13.272l-1.256-2.768a1657 1657 0 0 0-2.385-5.226l-1.075-2.367-.947-2.072c-2.435-6.019-2.89-12.931-1.179-19.208 2.916-6.576 8.472-11.546 14.887-14.687 4.01-1.218 7.381-1.538 11.5-1.063l2.227.117c2.841.479 4.438 1.169 6.773 2.883 2.878 4.174 4.829 8.657 6.832 13.302 1.252 2.89 2.55 5.757 3.856 8.624 3.122 6.877 6.189 13.778 9.25 20.682q3.013 6.787 6.03 13.572 3.898 8.764 7.789 17.532 3.012 6.786 6.034 13.568a4133 4133 0 0 1 3.75 8.47l2.443 5.496 1.136 2.584 1.059 2.37.923 2.085c.889 1.904.889 1.904 2.898 3.715 2.5.333 2.5.333 5 0 2.24-1.838 2.24-1.838 2.359-4.561-.483-4.63-2.167-8.26-4.101-12.462l-1.197-2.672c-1.302-2.898-2.619-5.789-3.936-8.68q-1.368-3.036-2.732-6.072-3.504-7.781-7.032-15.55c-3.257-7.185-6.496-14.377-9.736-21.57l-2.246-4.982c-4.9-10.863-9.737-21.751-14.442-32.701l-1.5-3.48-1.347-3.16-1.16-2.72c-2.544-6.54-2.94-12.55-.243-19.077C325.718 38.124 330.17 34.549 336 31c6.705-2.235 13.938-1.91 20.375 1M183.5 31.563c6.207 3.774 10.425 9.52 12.5 16.437 1.335 9.508-2.007 16.913-5.937 25.313q-.951 2.091-1.896 4.186-2.014 4.455-4.058 8.896a1341 1341 0 0 0-6.261 13.882l-1.05 2.354-2.111 4.74c-1.777 3.981-3.563 7.96-5.347 11.938a9172 9172 0 0 0-13.153 29.504l-1.02 2.297-.99 2.23-.96 2.159q-.908 2.046-1.812 4.094a399 399 0 0 1-3.747 8.266l-1.123 2.399-.937 1.946c-1.047 3.146-.405 5.634.402 8.796l6 1c3.665-5.53 6.59-11.14 9.23-17.219l1.177-2.664q1.896-4.306 3.78-8.617 2.002-4.544 4.008-9.087l2.735-6.203c4.552-10.324 9.178-20.614 13.82-30.898q1.605-3.555 3.206-7.11 1.018-2.25 2.044-4.498A264 264 0 0 0 197.01 84l1.02-2.484a171 171 0 0 0 1.842-4.698c2.079-5.006 4.277-7.025 9.256-9.18 5.985-2.042 12.353-1.097 18.063 1.396C233.585 72.446 237.556 77.197 240 84c2.546 11.139-2.758 20.627-7.343 30.434-1.91 4.11-3.773 8.24-5.63 12.375l-3.317 7.388a4545 4545 0 0 1-3.472 7.702c-6.513 14.424-12.893 28.905-19.224 43.41l-1.077 2.463a2168 2168 0 0 0-2.058 4.726c-1.52 3.486-3.072 6.94-4.76 10.348l-1.697 3.455-1.497 2.93c-1.115 3.338-.814 5.398.075 8.769 1.108 1.311 1.108 1.311 3.875 1.375L197 219c2.955-4.064 4.836-8.84 6.887-13.41l1.134-2.51q1.837-4.07 3.667-8.143l2.544-5.641a6051 6051 0 0 0 18.778-42.097l.957-2.163q.871-1.97 1.739-3.94A227 227 0 0 1 238 130c3.72 2.042 6.424 4.214 9.25 7.375l2.078 2.273c1.824 2.566 2.408 4.234 2.672 7.352l-1 3c-.095 1.748-.13 3.5-.125 5.25l-.008 2.766c.023 3.01.023 3.01.943 5.919.83 5.796-2.308 10.953-4.638 16.096l-1.53 3.485a1389 1389 0 0 1-4.06 9.125c-1.377 3.077-2.735 6.162-4.094 9.246a3402 3402 0 0 1-6.02 13.564l-1.301 2.943a171 171 0 0 1-2.154 4.645c-2.01 4.244-2.376 7.733-2.341 12.406l.006 2.096q.01 2.187.04 4.372c.032 2.185.042 4.37.048 6.556.041 7.424.367 14.776.998 22.176.423 6.008.498 12.017.531 18.038q.017 2.187.062 4.373c.513 25.538-9.79 44.78-27.021 63.397C180.279 378.322 190.96 369.136 190 420H83l-1-34c-5.66-7.367-5.66-7.367-11.875-13.875-4.316-4.224-8.167-8.648-11.922-13.375a150 150 0 0 0-4.344-5.187C24.426 319.683 14.853 274.773 17 231c.593-8.062 1.677-16.028 3-24l.422-2.585C23.972 183.339 30.707 163.039 38 143c6.27 0 11.742 6.615 16.125 10.75 12.071 12.48 18.319 28.924 18.125 46.125l-.023 2.675c-.131 7.97-1.195 15.084-3.508 22.712l-.697 2.304a246 246 0 0 1-1.433 4.51c-1.853 5.52-1.853 5.52-.589 10.924 2.368 1.22 4.515 2.113 7 3 20.172 8.86 34.245 21.366 43 42 5.775 15.034 7.756 32.294 5.5 48.313-.662 4.883-.794 9.764-.5 14.687 1.184 1.416 1.184 1.416 4.563 1.063L129 352c7.236-12.06 4.728-41.262 1.375-54.687A140 140 0 0 0 128 290l-.666-1.95C118.542 262.58 101.382 247.864 78 236l.813-4.062.542-2.782q.675-3.291 1.446-6.562c5.084-22.553 2.322-45.299-10.07-65.082C65.634 150.115 60.061 143.56 53 138c2.003-6.408 4.423-12.513 7.176-18.633l1.218-2.736q1.954-4.381 3.919-8.756l2.707-6.053q2.039-4.56 4.084-9.12a2664 2664 0 0 0 7.159-16.09 3008 3008 0 0 1 3.803-8.581 839 839 0 0 0 1.715-3.898c4.223-9.654 7.566-16.666 17.473-21.215 6.276-2.098 12.334-1.75 18.496.582 5.563 2.807 9.686 7.303 12.414 12.879.95 2.979 1.207 5.495 1.274 8.621l.12 3.063c-1.643 11.587-8.132 22.887-12.945 33.474q-1.793 3.951-3.578 7.906a11094 11094 0 0 1-9.027 19.948q-1.759 3.876-3.506 7.757a1376 1376 0 0 1-3.06 6.755l-1.352 3.011-1.16 2.561c-1.05 2.852-1.607 5.505-1.93 8.525 1 2 1 2 3 3 2.5.583 2.5.583 5 0 3.212-3.43 4.804-7.763 6.633-12.023l1.06-2.431q1.72-3.958 3.432-7.921 2.42-5.565 4.848-11.129l1.25-2.87a1934 1934 0 0 1 8.71-19.653l1.19-2.646q2.275-5.064 4.563-10.123 1.568-3.47 3.13-6.942l.939-2.062c2.117-4.715 3.466-8.25 3.061-13.403-.744-13.364 1.214-23.604 10.098-34.047 7.459-6.834 19.347-8.351 28.586-4.187"/><path fill="#177C95" d="m308.3 431.619 1.945-.014c2.154-.012 4.307-.003 6.46.007q2.313-.007 4.627-.016c4.192-.014 8.384-.008 12.576.001 4.383.008 8.766 0 13.149-.004q11.04-.007 22.082.016c8.516.016 17.031.01 25.547-.006q10.957-.02 21.916-.007 6.548.008 13.097-.005 6.156-.013 12.312.015 2.262.006 4.524-.004c2.055-.008 4.11.002 6.164.017l3.488.003C459 432 459 432 460.87 433.396c1.485 2.108 1.516 3.458 1.534 6.028.02 1.336.02 1.336.038 2.7l-.008 2.907.015 2.993q.01 3.132-.003 6.264c-.008 3.2.02 6.399.052 9.599q.003 3.04-.002 6.082l.034 2.907-.028 2.7v2.375C462 480 462 480 460.364 481.604c-3.07 1.812-5.146 1.773-8.704 1.777l-3.95.026-4.33-.019q-2.281.007-4.564.016c-4.13.014-8.26.008-12.39-.001-4.32-.008-8.642 0-12.963.004a8001 8001 0 0 1-21.77-.016c-8.39-.016-16.781-.01-25.172.006q-10.805.02-21.608.007c-4.303-.004-8.605-.005-12.908.005q-6.067.013-12.135-.015-2.228-.006-4.455.004a577 577 0 0 1-6.077-.017l-3.437-.003c-3.22-.42-4.603-1.123-6.902-3.378-.501-2.049-.501-2.049-.502-4.424l-.028-2.7.034-2.907-.005-2.993q.003-3.132.034-6.264c.03-3.2.021-6.398.008-9.599q.01-3.04.025-6.082l-.008-2.907.038-2.7.016-2.375c1.023-5.407 4.868-5.425 9.689-5.43"/><path fill="#177B94" d="m64.3 431.619 1.945-.014c2.154-.012 4.307-.003 6.46.007q2.314-.007 4.627-.016c4.192-.014 8.384-.008 12.576.001 4.383.008 8.766 0 13.149-.004q11.04-.007 22.082.016c8.516.016 17.031.01 25.547-.006q10.957-.02 21.916-.007 6.548.008 13.097-.005 6.156-.013 12.312.015 2.262.006 4.524-.004c2.055-.008 4.11.002 6.164.017l3.488.003C215 432 215 432 216.87 433.396c1.485 2.108 1.516 3.458 1.534 6.028.02 1.336.02 1.336.038 2.7l-.008 2.907.015 2.993q.01 3.132-.003 6.264c-.008 3.2.02 6.399.052 9.599q.003 3.04-.002 6.082l.034 2.907-.028 2.7v2.375C218 480 218 480 216.364 481.604c-3.068 1.811-5.147 1.776-8.704 1.784l-3.95.03-4.33-.014-4.564.02c-4.13.019-8.26.018-12.39.012-3.447-.003-6.894.003-10.34.009q-12.197.02-24.392.001c-8.391-.011-16.782.003-25.173.03q-10.805.032-21.608.022c-4.303-.003-8.605 0-12.908.017q-6.068.022-12.135-.008-2.227-.005-4.455.01c-2.026.013-4.052 0-6.077-.016h-3.437c-3.545-.612-4.72-1.697-6.902-4.501-.501-2.131-.501-2.131-.502-4.446l-.028-2.639.034-2.825-.005-2.92q.004-3.053.034-6.106c.03-3.119.021-6.236.008-9.355q.01-2.965.025-5.932l-.008-2.831.038-2.63.016-2.312c1.04-5.372 4.903-5.38 9.689-5.385"/><path fill="#040303" d="M123.948 201.708c2.205.909 4.38 1.868 6.552 2.855l2.401 1.086C155.664 216.121 174.453 230.72 188 252l1.758 2.652c1.807 3.416 1.208 5.692.242 9.348-3 2-3 2-5.438 1.938-5.115-1.872-7.634-7.538-10.5-11.938-14.243-20.945-35.705-33.063-58.902-41.992C113 211 113 211 112 209c-.313-2.937-.313-2.937 0-6 3.495-4.167 7.223-3.01 11.948-1.292"/><path fill="#040302" d="M403 201c2 2 2 2 2.438 5.438-.145 1.175-.29 2.35-.438 3.562-4.053 3.028-8.934 4.769-13.562 6.75-23.203 10.175-40.08 24.06-53.516 45.578C336 265 336 265 333 266.125c-3-.125-3-.125-5.437-1.687C326 262 326 262 326.223 259.164c4.524-18.414 26.104-35.54 41.39-44.811C392.21 200.411 392.21 200.411 403 201"/></svg>