<svg xmlns="http://www.w3.org/2000/svg" width="512" height="512"><path fill="#A3C8FE" d="M317.773 88.32c2.464 2.176 4.851 4.41 7.227 6.68l2.227 2c19.23 17.94 32.978 47.231 33.893 73.44.129 8.188.048 16.373-.12 24.56l1.767.12c9.683.833 18.598 5.418 24.94 12.892 6.494 8.49 10.17 18.397 9.668 29.176-1.501 11.259-5.838 21.158-14.543 28.687-8.063 5.709-15.943 8.763-25.832 8.125l-.562 3.5c-6.012 26.884-26.153 51.326-48.438 66.5-11.107 7-11.107 7-14 7v15l3.785-.063c4.712-.074 9.423-.12 14.135-.157q3.038-.03 6.074-.082c22.679-.381 41.86 3.129 59.006 19.302 17.307 18.03 19.157 39.658 19.168 63.34l.01 4.968q.009 5.173.007 10.346c0 4.417.014 8.834.031 13.251q.015 5.115.013 10.23 0 2.445.013 4.889c.01 2.27.007 4.54 0 6.812l.005 3.91c-.237 3.122-.783 4.583-2.247 7.254a380165 380165 0 0 1-132.391.055H258.8q-22.54.008-45.083.022-23.11.014-46.223.017-14.272.002-28.546.014-9.773.007-19.547.006-5.648-.002-11.295.005-6.11.007-12.217.001l-3.646.01-3.279-.007-2.852.001C84 510 84 510 83 509a197 197 0 0 1-.177-7.97l-.02-2.533q-.028-4.176-.041-8.352l-.013-2.887q-.03-7.581-.044-15.162c-.011-5.192-.045-10.384-.085-15.577-.027-4.012-.035-8.025-.038-12.038a792 792 0 0 0-.035-5.734C82.369 419.319 85.934 403.053 99 388l1.957-2.281C111.052 374.782 125.292 367.963 140 366c3.404-.132 6.804-.117 10.21-.098l2.935.005c3.076.005 6.153.018 9.23.03q3.139.009 6.277.014 7.674.017 15.348.049v-15l-6-2c-27.92-15.801-47.81-42.513-57-73v-2l-3.75.313c-9.95-.063-18.073-5.11-25.055-11.844C84.185 253.46 81.163 243.915 81 232c.685-11.054 5.572-20.677 13.664-28.21 6.928-5.307 13.746-7.985 22.336-8.79l-.048-2.117c-.74-38.025 8.53-68.71 35.048-96.883l1.598-1.793c42.293-45.538 118.338-44.235 164.175-5.887"/><path fill="#F8CECE" d="M309.098 92.598c17.544 14.521 30.359 31.082 37.777 52.84l.83 2.414c4.402 13.751 5.757 27.547 5.658 41.89q0 2.318.002 4.634 0 4.812-.029 9.624c-.022 4.054-.023 8.106-.017 12.16.05 41.507-4.704 76.771-34.882 107.84-6.802 6.808-14.136 12.166-22.437 17l-3.355 1.957c-26.739 14.388-58.635 16.83-87.596 8.144-29.248-9.497-53.154-29.419-67.236-56.788-2.817-5.708-5.136-11.54-7.188-17.563l-.723-2.108c-4.092-12.699-4.214-25.341-4.203-38.537l-.013-5.76q-.01-6.011-.002-12.024c.006-5.097-.01-10.193-.034-15.29-.015-3.96-.016-7.922-.013-11.883q0-2.815-.015-5.632c-.054-11.246.626-21.579 3.378-32.516l.566-2.278C133.738 135.257 141.903 121.304 152 109l1.734-2.195C158.47 101.054 164.112 96.527 170 92l2.367-1.844c40.372-29.905 97.486-28.375 136.73 2.442"/><path fill="#3863CC" d="M317.773 88.32c2.464 2.176 4.851 4.41 7.227 6.68l2.227 2c19.23 17.94 32.978 47.231 33.893 73.44.129 8.188.048 16.373-.12 24.56l1.767.12c9.683.833 18.598 5.418 24.94 12.892 6.494 8.49 10.17 18.397 9.668 29.176-1.501 11.259-5.838 21.158-14.543 28.687-8.063 5.709-15.943 8.763-25.832 8.125l-.562 3.5c-6.012 26.884-26.153 51.326-48.438 66.5-11.107 7-11.107 7-14 7v15l3.785-.063c4.712-.074 9.423-.12 14.135-.157q3.038-.03 6.074-.082c22.679-.381 41.86 3.129 59.006 19.302 17.307 18.03 19.157 39.658 19.168 63.34l.01 4.968q.009 5.173.007 10.346c0 4.417.014 8.834.031 13.251q.015 5.115.013 10.23 0 2.445.013 4.889c.01 2.27.007 4.54 0 6.812l.005 3.91c-.237 3.122-.783 4.583-2.247 7.254a380165 380165 0 0 1-132.391.055H258.8q-22.54.008-45.083.022-23.11.014-46.223.017-14.272.002-28.546.014-9.773.007-19.547.006-5.648-.002-11.295.005-6.11.007-12.217.001l-3.646.01-3.279-.007-2.852.001C84 510 84 510 83 509a197 197 0 0 1-.177-7.97l-.02-2.533q-.028-4.176-.041-8.352l-.013-2.887q-.03-7.581-.044-15.162c-.011-5.192-.045-10.384-.085-15.577-.027-4.012-.035-8.025-.038-12.038a792 792 0 0 0-.035-5.734C82.369 419.319 85.934 403.053 99 388l1.957-2.281C111.052 374.782 125.292 367.963 140 366c3.404-.132 6.804-.117 10.21-.098l2.935.005c3.076.005 6.153.018 9.23.03q3.139.009 6.277.014 7.674.017 15.348.049v-15l-6-2c-27.92-15.801-47.81-42.513-57-73v-2l-3.75.313c-9.95-.063-18.073-5.11-25.055-11.844C84.185 253.46 81.163 243.915 81 232c.685-11.054 5.572-20.677 13.664-28.21 6.928-5.307 13.746-7.985 22.336-8.79l-.048-2.117c-.74-38.025 8.53-68.71 35.048-96.883l1.598-1.793c42.293-45.538 118.338-44.235 164.175-5.887M164 97l-2.062 1.629C141.759 114.86 129.052 142.778 126 168c-.141 2.874-.157 5.742-.161 8.619l-.015 2.526q-.021 4.113-.027 8.226l-.009 2.862q-.022 7.508-.028 15.014c-.006 5.127-.03 10.253-.058 15.38-.019 3.979-.024 7.957-.026 11.936q-.004 2.831-.024 5.662c-.097 14.963 1.02 29.159 6.473 43.275l.905 2.385c4.992 12.697 11.72 24.047 20.97 34.115l1.339 1.467c21.075 22.843 49.317 35.12 80.212 36.717 31.068.598 60.095-10.493 82.615-31.83 24.062-23.569 34.539-53.676 34.995-87.056.024-2.874.035-5.748.042-8.622l.009-2.31q.022-6.05.028-12.1c.006-4.11.03-8.219.058-12.329.02-3.211.024-6.423.026-9.634q.004-2.27.024-4.538c.119-14.511-1.73-28.541-6.473-42.327l-.903-2.654C341.48 130.134 334.857 119.08 326 109l-2.008-2.441C306.16 85.535 279.44 72.3 252.21 69.18 219.39 66.495 188.855 75.047 164 97m-60 298c-23.493 29.678-13 73.216-13 107h296c5.71-60.153 5.71-60.153-16.652-110.68-10.648-10.524-23.196-16.55-38.268-16.547l-2.924.032-3.06.008c-3.198.011-6.397.036-9.596.062q-3.27.016-6.54.027-7.98.034-15.96.098l-.13 2.2c-1.252 20.717-4.019 37.067-19.722 51.988-12.738 10.746-27.527 13.165-43.725 12.087-5.65-.641-10.444-2.632-15.423-5.275l-2.727-1.387c-14.165-7.81-21.382-20.24-25.8-35.427-.554-2.56-.688-4.99-.79-7.608l-.126-3.105-.12-3.223-.13-3.27q-.159-3.99-.307-7.98-8.774-.149-17.548-.22-2.975-.03-5.949-.082C138.325 373.3 120.371 377.505 104 395"/><path fill="#F8CECE" d="M193 356c5.321.84 10.184 2.275 15.293 3.965 9.889 2.761 19.395 3.422 29.644 3.41l2.052.001c13.168-.025 25.99-1.23 38.359-6.013C282 356 282 356 285 356q.112 7.788.165 15.576.022 2.642.061 5.283c.212 14.61-.512 26.821-9.226 39.141l-1.336 1.93c-7.17 9.325-18.343 14.127-29.664 16.07-12.99 1.077-24.83-1.625-35-10-9.812-8.583-15.212-18.062-17-31-.128-2.894-.117-5.783-.098-8.68l.005-2.463c.005-2.577.018-5.155.03-7.732q.008-2.632.014-5.266.017-6.43.049-12.859"/><path fill="#3863CC" d="M419.258 4.617C425.855 9.854 429.787 15.572 431 24c.263 7.537-1.582 13.838-6.38 19.68-6.696 6.575-15.23 8.822-23.933 11.695a2253 2253 0 0 0-4.728 1.613c-3.98 1.358-7.967 2.69-11.959 4.012l-3 1c-4.13.45-6.161.65-9.5-1.937-3.469-7.083.33-15.276 2.73-22.303q.788-2.265 1.588-4.526a527 527 0 0 0 2.35-6.884c3.315-9.607 6.644-17.617 15.894-22.85 7.734-2.966 17.972-3.316 25.196 1.117"/><path fill="#3862CC" d="M416 76c2.813 2.438 2.813 2.438 5 5l1.688 1.875c3.82 6.187 3.662 12.237 2.312 19.125-1.952 5.857-6.04 9.525-11 13-7.342 2.963-14.069 2.287-21.543.172l-2.094-.577a713 713 0 0 1-4.343-1.22 594 594 0 0 0-6.635-1.824 2105 2105 0 0 1-4.24-1.192l-1.992-.534c-4.032-1.174-6.555-2.496-9.153-5.825-.562-2.937-.562-2.937 0-6 7.22-7.99 16.565-14.217 25.563-20.062l1.767-1.158c7.9-5.028 16.411-5.246 24.67-.78"/><path fill="#3762CC" d="M347.375 8.688C353.04 11.989 356.42 15.989 359 22c1.21 7.918.726 14.6-3.887 21.227L353 46l-2.895 3.96A523 523 0 0 1 341 62l-1.378 1.779c-2.142 2.682-3.346 4.118-6.622 5.346-3.99-.166-5.169-1.351-8-4.125-1.394-3.125-1.394-3.125-2.457-6.785l-.584-1.989a353 353 0 0 1-1.181-4.168c-.584-2.097-1.2-4.181-1.823-6.267-2.586-8.917-5.133-18.168-1.392-27.103 6.114-10.56 18.457-15.322 29.812-10"/><path fill="#F6CDCE" d="m117 204 .031 1.862q.165 9.661.341 19.323.065 3.598.125 7.196.089 5.194.187 10.389l.05 3.208A235 235 0 0 0 119 266c-8.952-.332-15.743-4.276-21.875-10.75-6.014-7.536-7.952-15.116-7.629-24.719 1.33-9.32 6.112-16.152 13.336-21.972 4.954-3.562 8.11-4.693 14.168-4.559"/><path fill="#F7CECE" d="M361 204c10.145 1.17 15.658 4.681 22.3 12.629 5.384 7.512 5.882 16.376 4.7 25.371-2.67 8.507-7.502 15.15-15 20-4.554 2.146-8.925 4-14 4l.208-1.753c.757-6.872 1.002-13.69 1.108-20.599l.063-3.454q.096-5.41.183-10.819l.131-7.379q.16-8.998.307-17.996"/><path fill="#3963CC" d="M182 212c4.719 1.692 7.206 3.86 10 8 1.504 4.51 1.266 8.961 1.313 13.688l.087 2.935c.056 6.341-.75 11.095-4.4 16.377-4.11 3.86-8.273 4.347-13.715 4.285-4.44-.554-7.19-3.076-10.097-6.285-3.119-5.252-2.445-11.462-2.5-17.375l-.088-3.117c-.052-6.19.238-9.816 4.4-14.508 4.788-4.231 8.856-4.905 15-4M305 212c4.607 2.218 8.025 5.23 10 10 .56 4.01.513 7.957.438 12l.021 3.234c-.045 5.625-.194 9.967-3.459 14.766-4.697 4.345-8.476 5.381-14.719 5.27-3.698-.437-5.577-1.755-8.281-4.27-4.194-6.032-4.646-11.822-4.562-19l-.073-2.867c.014-6.632 1.39-10.996 5.635-16.133 4.276-3.91 9.492-3.787 15-3"/><path fill="#A2C7FE" d="M412.246 10.988c4.267 2.53 7.638 5.07 9.442 9.825.884 6.189.338 10.656-2.688 16.187-3.683 3.457-7.547 5.23-12.25 6.875l-2.08.752a762 762 0 0 1-4.384 1.564c-2.352.832-4.698 1.679-7.044 2.528l-4.617 1.656-2.216.796C381.234 53 381.234 53 379 53a241 241 0 0 1 6.938-22.312l1.013-2.877c2.576-7.114 4.91-13.489 12.065-17.112 4.556-1.605 8.785-1.667 13.23.29"/><path fill="#A1C6FD" d="M343 16c3.652 1.87 5.735 4.603 8 8 .913 4.843.458 8.87-2.16 13.063A150 150 0 0 1 345.938 41l-1.511 2.084A356 356 0 0 1 340 49l-2.29 3.031A275 275 0 0 1 333 58c-3.01-4.515-4.152-9.514-5.687-14.687l-1.01-3.225C324.47 33.919 323.476 29.304 325 23c4.688-7.189 9.842-8.165 18-7M408 82c4.126 1.742 6.733 4.138 9 8 .863 4.715.459 8.082-1.687 12.375-3.61 4.098-5.67 5.503-11.204 5.914-6.183-.079-11.812-1.96-17.671-3.789l-3.346-1.012Q379.04 102.261 375 101c1.355-4.065 4.106-5.486 7.5-7.812l1.928-1.336q1.911-1.321 3.827-2.635a131 131 0 0 0 4.358-3.205C397.685 82.237 401.67 80.766 408 82"/><path fill="#3F66CC" d="m203 184.125 2 .875 1 5c-10.002 10.513-23.769 15.638-38.059 16.176q-2.157.047-4.316.074l-2.056.03c-3.935-.028-7.094-.376-10.569-2.28-.937-2.5-.937-2.5-1-5 2-2 2-2 5.781-2.125q2.36.054 4.719.125c14.295.184 26.506-2.656 37.809-11.906C200 184 200 184 203 184.125M274 184c3.765.433 6.055 1.501 9.063 3.75 7.994 5.557 17.114 9.487 26.949 9.277l2.795-.037q2.898-.053 5.797-.117l2.783-.033 2.538-.051C326 197 326 197 328 199c-.062 2.5-.062 2.5-1 5-8.264 4.609-21.673 2.702-30.437.375-9.454-3.107-17.302-7.598-24.563-14.375.875-4.875.875-4.875 2-6"/><path fill="#3C65CC" d="m258 298 1.855 1.086A34.5 34.5 0 0 1 266 304c.188 2.563.188 2.563 0 5-1 1-1 1-3.125 1.375-3.57-.466-5.277-1.865-8.031-4.086-5.009-3.502-9.745-3.654-15.656-3.664l-2.33-.074c-6.757-.034-11.781 1.987-17.046 6.199-2.381 1.643-3.98 1.556-6.812 1.25-1-1-1-1-1.277-3.371.277-2.629.277-2.629 1.71-4.29A139 139 0 0 1 220 298l1.867-1.27c10.095-5.736 26.37-4.483 36.133 1.27"/></svg>