<svg xmlns="http://www.w3.org/2000/svg" width="512" height="512"><path fill="#FEE176" d="M226.5 36.688c4.143 3.832 7.183 7.006 7.738 12.8l.075 2.825.113 2.8c-.887 6.014-5.338 9.996-9.426 14.2-26.48 28.204-38.926 65.582-38.25 103.898 1.061 32.043 13.868 62.344 34.25 86.789l1.288 1.55c23.228 27.554 58.553 43.914 94.117 47.252 36.341 2.78 74.359-7.21 102.595-30.802a477 477 0 0 0 7.676-6.918c6-5.375 10.726-9.487 19.133-9.363 5.111.656 9.02 3.08 12.566 6.719 4.096 6.459 4.014 11.204 2.625 18.562-1.682 6.762-3.822 13.384-6 20l-.675 2.099c-8.525 26.118-23.883 49.508-42.302 69.655a110 110 0 0 0-4.586 5.433c-3.18 3.671-6.732 6.683-10.437 9.813l-2.95 2.574C370.696 416.87 338.379 437.204 307 441l.5 2.875c2.334 17.2-2.671 33.47-12.86 47.336-9.273 10.78-21.676 18.044-35.64 20.789-2.785.178-5.466.275-8.246.26-.79.005-1.581.008-2.396.012-2.628.01-5.256.007-7.884.003l-5.68.015c-5.128.014-10.256.014-15.384.012q-6.434 0-12.867.008-15.186.016-30.373.006c-10.425-.006-20.85.006-31.274.027q-13.45.026-26.9.02c-5.348-.001-10.696.001-16.044.015q-7.55.018-15.1-.002-2.759-.004-5.518.009c-13.04.054-24.681-.92-36.459-7.072l-2.055-1.058c-16.84-8.93-29.02-23.459-34.695-41.63-6.214-20.35-3.53-40.649 6.332-59.395C24.114 386.807 39.745 375.316 58 370c8.1-1.94 15.885-2.251 24.188-2.125l3.462.027q4.176.036 8.35.098l-2.309-3.156C84.74 355.237 78.438 345.54 73 335l-1.144-2.21c-14.92-29.196-22.333-61.173-22.168-93.915l.005-2.304c.051-12.719.82-25.07 3.307-37.571l.504-2.595C57.486 176.533 64.428 157.834 74 140l1.45-2.863C82.483 123.53 91.841 111.395 102 100l1.375-1.562c21.372-24.233 87.377-78.986 123.125-61.75"/><path fill="#F7F0EE" d="M214.535 331.64c1.893 1.386 3.68 2.838 5.465 4.36l1.71 1.281C236.823 349.042 245.078 368.575 248 387c.054 2 .075 4.001 0 6l3.09-.098c12.996.325 28.629 7.001 38.043 16.032 11.734 12.986 19.902 28.482 19.14 46.464-1.781 16.95-8.362 32.18-21.273 43.602-10.831 8.17-22.57 13.332-36.246 13.26l-2.396.012c-2.628.01-5.256.007-7.884.003l-5.68.015c-5.128.014-10.256.014-15.384.012q-6.434 0-12.867.008-15.186.016-30.373.006c-10.425-.006-20.85.006-31.274.027q-13.45.026-26.9.02c-5.348-.001-10.696.001-16.044.015q-7.55.018-15.1-.002-2.759-.004-5.518.009c-13.04.054-24.681-.92-36.459-7.072l-2.055-1.058c-16.84-8.93-29.02-23.459-34.695-41.63-6.214-20.35-3.53-40.649 6.332-59.395C24.114 386.807 39.745 375.316 58 370c8.52-2.023 16.96-2.408 25.688-2.625l3.896-.117q4.708-.141 9.416-.258l1.215-2.676c9.183-19.629 24.499-34.63 45.035-42.199 24.759-8.47 49.481-4.595 71.285 9.516"/><path fill="#FED15B" d="M226.5 36.688c5.549 5.132 6.744 7.974 7.5 15.312l-3.559 1.766C213.66 62.248 199.097 72.614 185 85l-2.332 1.96C177.95 90.949 173.974 95.283 170 100l-2.46 2.766c-7.781 8.811-14.266 18.308-20.54 28.234l-2.148 3.348c-9.9 16.305-17.557 35.057-21.852 53.652l-.68 2.73c-7.173 29.612-7.636 63.64-.32 93.27l.551 2.372c2.415 10.253 5.935 19.992 9.946 29.726l1.026 2.55.935 2.256c.638 2.467.488 3.743-.458 6.096-2.371 1.824-2.371 1.824-5.437 3.688-14.9 9.579-23.661 21.78-31.563 37.312h-3c-1.3-1.307-1.3-1.307-2.602-3.156l-1.471-2.074-1.552-2.27-1.616-2.336C81.669 350.7 77.14 343.025 73 335l-1.144-2.21c-14.92-29.196-22.333-61.173-22.168-93.915l.005-2.304c.051-12.719.82-25.07 3.307-37.571l.504-2.595C57.486 176.533 64.428 157.834 74 140c.478-.945.956-1.89 1.45-2.863C82.483 123.53 91.841 111.395 102 100l1.375-1.562c21.372-24.233 87.377-78.986 123.125-61.75"/><path fill="#F7F1EE" d="M429.75 104.125c9.004 6.156 15.018 13.88 19.25 23.875l3.918.078c17.73.508 31.256 3.404 43.957 16.734C505.459 155.291 507.963 167.808 507 181c-1.872 12.692-7.896 23.047-18 31-11.73 7.265-22.807 9.308-36.523 9.275l-3.316.015c-3.584.014-7.167.013-10.75.01l-7.535.014q-7.876.01-15.753.002c-6.04-.006-12.08.006-18.12.027-5.848.02-11.696.023-17.544.02q-3.707 0-7.414.015c-3.464.013-6.928.006-10.392-.006l-3.048.023c-12.37-.09-23.944-3.069-33.293-11.458-8.21-8.688-10.642-18.809-10.523-30.332.626-10.692 5.262-19.193 13.086-26.417 7.53-6.138 14.536-7.973 24.125-9.188l.41-2.824c2.532-14.997 8.505-26.667 20.93-35.918 17.36-11.31 38.637-11.546 56.41-1.133"/><path fill="#FFE076" d="m315.375-.375 2.273-.086C321.082.212 322.53 1.511 325 4c2.153 3.485 3.85 7.193 5.605 10.889 2.169 4.363 3.642 7.284 8.395 9.111 3.002.69 6.012 1.146 9.063 1.563q2.392.336 4.785.69l2.125.292c2.301.517 4.021 1.21 6.027 2.455 2.218 3.77 3.164 5.957 2.477 10.32-1.847 4.603-4.37 7.07-7.977 10.368a595 595 0 0 0-3.531 3.324l-1.58 1.452c-1.595 1.764-2.52 3.322-3.389 5.536.178 2.633.458 5.094.875 7.688q.302 2.155.594 4.312l.285 2.09c1.207 9.372 1.207 9.372-1.629 13.91-3.236 3.046-5.5 3.341-9.945 3.285-4.392-.574-7.844-3.14-11.535-5.441-4.576-2.686-8.338-3.89-13.645-2.844-2.654 1.074-5.01 2.492-7.437 4-5.769 3.308-9.776 5.423-16.563 4-3.342-2.367-4.717-3.831-5.684-7.82-.325-3.27-.041-5.725.622-8.93C284.43 66.159 284.43 66.159 284 58c-1.912-2.75-1.912-2.75-5-5a304 304 0 0 1-4.687-4.562l-2.325-2.254c-2.693-2.959-3.846-5.099-4.363-9.059.496-4.13 1.575-6.045 4.375-9.125 3.97-1.45 7.758-1.963 11.938-2.602l2.143-.354q2.138-.352 4.283-.64c3.368-.548 5.359-1.144 7.866-3.498 2.61-4.286 4.735-8.745 6.858-13.287l1.01-2.1.89-1.903c2.119-3.385 4.678-3.928 8.387-3.991"/><path fill="#FFE176" d="M458 402c4.028 4.307 6.38 9.39 8.912 14.648 2.12 4.18 3.693 6.61 8.088 8.352 3.985.797 8.012 1.22 12.05 1.64 4.303.556 6.49.997 9.977 3.75 2.554 3.378 3.046 5.378 2.973 9.61-2.277 5.544-5.546 8.577-10.098 12.375-4.065 3.473-6.228 6.322-6.902 11.625.308 2.768.308 2.768.938 5.625 2.603 14.768 2.603 14.768 0 19.172-2.722 2.633-4.984 3.207-8.688 3.566-5.414-.126-9.13-2.73-13.605-5.52-4.578-2.686-8.336-3.887-13.645-2.843-2.673 1.073-5.059 2.479-7.5 4-5.45 3.396-9.01 4.629-15.5 4-4.377-2.266-4.377-2.266-6-5-1.37-7.166.482-14.692 1.855-21.738.21-4.744-1.479-7.641-4.503-11.203l-1.727-1.622-1.848-1.769L411 449c-6.823-6.671-6.823-6.671-7.375-10.812.49-4.17 1.55-6.08 4.375-9.188 3.97-1.45 7.758-1.963 11.938-2.602l2.143-.354q2.138-.351 4.283-.64c3.392-.552 5.36-1.14 7.866-3.533 2.51-4.07 4.698-8.257 6.858-12.52 3.814-7.377 3.814-7.377 7.662-9.163 3.495-.292 6.002.536 9.25 1.812"/><path fill="#FFD15B" d="M320 0c3.218 1.81 4.6 2.908 5.871 6.375C326 9 326 9 324.411 11.113l-2.349 2.2c-11.527 12.049-15.405 26.566-15.442 42.855.158 7.078 1.854 13.231 4.38 19.832a798 798 0 0 1 2 6 489 489 0 0 1-7.437 4.5l-2.084 1.3c-5.083 2.98-9.575 4.301-15.479 3.2-3.342-2.367-4.717-3.831-5.684-7.82-.325-3.27-.041-5.725.622-8.93C284.43 66.159 284.43 66.159 284 58c-1.912-2.75-1.912-2.75-5-5a304 304 0 0 1-4.687-4.562l-2.325-2.254c-2.693-2.959-3.846-5.099-4.363-9.059.496-4.13 1.575-6.045 4.375-9.125 3.97-1.45 7.758-1.963 11.938-2.602l2.143-.354q2.138-.352 4.283-.64c3.368-.548 5.359-1.144 7.866-3.498 2.61-4.286 4.735-8.745 6.858-13.287l1.01-2.1.89-1.903C309.977-1.157 315.052-.704 320 0M458 402c2.438 2.375 2.438 2.375 4 5v4a191 191 0 0 1-5 4c-1.64 2.17-3.123 4.27-4.562 6.563l-1.184 1.867c-7.882 12.799-10.939 28.719-7.43 43.511.968 3.394 2.02 6.725 3.176 10.059l2 6a561 561 0 0 1-7.5 4.5c-.696.43-1.392.859-2.11 1.3-5.085 2.968-8.502 3.83-14.39 3.2-4.377-2.266-4.377-2.266-6-5-1.37-7.166.482-14.692 1.855-21.738.21-4.744-1.479-7.641-4.503-11.203l-1.727-1.622-1.848-1.769L411 449c-6.823-6.671-6.823-6.671-7.375-10.812.49-4.17 1.55-6.08 4.375-9.188 3.97-1.45 7.758-1.963 11.938-2.602l2.143-.354q2.138-.351 4.283-.64c3.392-.552 5.36-1.14 7.866-3.533 2.51-4.07 4.698-8.257 6.858-12.52 3.814-7.377 3.814-7.377 7.662-9.163 3.495-.292 6.002.536 9.25 1.812"/></svg>