<svg xmlns="http://www.w3.org/2000/svg" width="512" height="512"><path fill="#010101" d="M306.734 3.383c5.8 4.14 9.017 9.621 10.266 16.617.738 7.504-.862 14.14-5.695 20.086-8.183 7.851-20.64 9.045-31.366 11.558q-3.496.824-6.99 1.659l-4.472 1.052-2.096.502C263.12 55.614 260.375 56 257 56v52h79l11 33 17 1c4.317 12.746 8.53 25.516 12.5 38.375l1.06 3.42.971 3.166.862 2.806C380 192 380 192 380 194h-31l-1 14h3v22h14v-22h46v22h44v-33h47v96h10c.33 9.949-.91 19.697-2.004 29.567l-.645 5.94q-.874 8.034-1.76 16.066-.925 8.419-1.84 16.838-1.543 14.132-3.095 28.263-2.187 19.918-4.36 39.838a116921 116921 0 0 1-7.34 67.045l-.251 2.3-.238 2.155-.202 1.835c-.376 3.057-.83 6.104-1.265 9.153H311l-1-7q-13.458.056-26.914.184c-4.167.04-8.333.072-12.5.087-4.027.015-8.053.05-12.08.097q-2.295.022-4.59.024c-10.739-.016-10.739-.016-20.73 3.56-8.49 4.07-18.432 3.34-27.619 3.323q-2.306.007-4.61.015c-4.15.013-8.299.014-12.448.012q-5.214 0-10.428.008-12.314.016-24.626.006c-8.439-.006-16.878.006-25.316.027a7583 7583 0 0 1-21.815.02c-4.332-.001-8.663.001-12.994.015q-6.115.018-12.231-.002-2.229-.004-4.459.009C63.68 512.452 52.07 511.13 41 504l-3-1.625c-11.141-8.82-17.232-20.494-19-34.375l-2.184-.25c-6.017-1.602-10.723-6.927-14.351-11.82C-1.108 449.194-.935 441.4 0 434c1.661-4.837 4.18-8.77 7-13l-1.812-2.062C-.678 411.06-1.056 403.696 0 394c2.122-7.419 6.632-12.743 13-17 3.5-1.437 3.5-1.437 6-2l.043-2.062C20.013 353.213 28.824 335.43 42 321l1.996-2.207c14.31-15.059 36.334-25.286 57.201-25.853q3.599-.017 7.198.013l2.515.01q3.045.016 6.09.037l-.228-3.133q-1.067-14.694-2.119-29.39-.54-7.553-1.09-15.105-.531-7.305-1.05-14.608-.198-2.772-.402-5.542c-.766-10.442-1.26-20.745-1.111-31.222H87c2.302-9.838 5.231-19.409 8.298-29.03q1.253-3.935 2.495-7.872l1.59-5.012.751-2.374c1.75-5.48 1.75-5.48 2.866-7.712l17-1 11-33h79V20c5.504-1.835 10.705-3.52 16.289-4.901l2.024-.504q3.262-.809 6.527-1.607l2.277-.56q5.959-1.464 11.92-2.918c4.078-.994 8.153-2.003 12.227-3.016 3.16-.782 6.322-1.554 9.485-2.324q2.254-.55 4.505-1.113c21.333-5.322 21.333-5.322 31.48.326"/><path fill="#020100" d="M455 197h47v96h10c.33 9.949-.91 19.697-2.004 29.567l-.645 5.94q-.874 8.034-1.76 16.066-.925 8.419-1.84 16.838-1.543 14.132-3.095 28.263-2.187 19.918-4.36 39.838a116921 116921 0 0 1-7.34 67.045l-.251 2.3-.238 2.155-.202 1.835c-.376 3.057-.83 6.104-1.265 9.153H311c-.581-4.067-1.119-7.923-1.414-11.984-.807-10.106-1.91-20.184-2.961-30.266l-.34-3.265c-1.3-12.485-2.644-24.954-4.265-37.402-1.31-10.133-2.319-20.296-3.347-30.462-.998-9.854-2.024-19.706-3.048-29.558l-.318-3.061a6374 6374 0 0 0-3.74-35.178l-.353-3.221q-.84-7.668-1.69-15.333l-.606-5.504-.283-2.525c-.378-3.444-.635-6.771-.635-10.241h18v-86h45v22h14v-22h46v22h44z"/><path fill="#00E4FE" d="M126 193h223l-1 15h-42v86h-18l.855 5.191c1.466 9.547 2.439 19.144 3.457 28.747l.655 6.095 1.014 9.465q1.144 10.69 2.316 21.377c1.957 17.87 3.888 35.74 5.703 53.625a6462 6462 0 0 0 4.625 43.938l.316 2.93c1.133 10.482 2.313 20.95 3.705 31.402C311 500 311 500 311 505h-70c5.22-5.22 5.22-5.22 8.313-7.437 6.99-5.938 11.242-15.287 13.5-24 1.457-4.947 3.112-6.619 7.562-9.188l2.922-1.59c4.843-3.198 7.575-8.268 9.328-13.734 1.658-9.069.441-16.344-4.625-24.051l-2-2c.283-3.966 2.842-6.796 5-10 3.11-6.507 3.206-13.944 1.16-20.824-2.74-6.023-6.652-10.504-12.16-14.176l-2.625-.605C265 376 265 376 264.309 374.18c-.539-2.49-.94-4.973-1.309-7.493-4.23-24.142-16.871-42.694-36.379-57.493-14.812-10.176-31.453-14.441-49.187-14.61-1.275-.018-2.55-.038-3.863-.058-3.358-.05-6.717-.09-10.076-.128-3.439-.04-6.878-.091-10.317-.141Q143.089 294.115 133 294c-3.228-33.729-3.228-33.729-3.709-46.77-.194-5.153-.717-10.063-1.291-15.23z"/><path fill="#F04F1D" d="M305 309h19q3.698 10.403 7.38 20.811 1.709 4.835 3.427 9.665 1.975 5.56 3.94 11.126l1.243 3.485 1.152 3.275 1.016 2.866C343 363 343 363 344 369l111-1 21-59h19c-.686 12.873-1.949 25.628-3.375 38.438l-.681 6.199a2635 2635 0 0 1-3.924 33.747c-.905 7.425-1.666 14.86-2.395 22.303a3608 3608 0 0 1-3.8 36.69l-.633 5.867c-1.571 14.61-3.37 29.173-5.192 43.756H325c-2.342-18.734-2.342-18.734-3.184-25.73l-.302-2.516c-2.182-18.157-4.26-36.316-6.085-54.513-.81-8.033-1.648-16.063-2.483-24.093l-.64-6.153a5645 5645 0 0 0-3.74-35.1l-.352-3.207a7861 7861 0 0 0-1.69-15.242l-.606-5.485-.283-2.493-.255-2.326-.224-1.997c-.197-2.708-.156-5.43-.156-8.145"/><path fill="#FCD7A7" d="m106.904 308.855 2.58-.01q4.19-.013 8.38-.013l5.872-.01q6.144-.009 12.288-.007c5.225 0 10.45-.014 15.675-.031q6.062-.015 12.125-.013 2.887 0 5.775-.013c12.648-.046 24.603-.007 36.339 5.304l2.05.917c6.724 3.139 12.371 7.184 18.012 12.021l2.2 1.86c9.678 8.898 15.849 20.758 19.8 33.14l.625 1.867c.585 3.329.375 6.753.375 10.133H35c0-17.633 9.258-32.833 21.238-45.336 14.15-13.57 31.252-19.82 50.666-19.81"/><path fill="#3EC1FB" d="M126 193h223l-1 15h-42v86h-18l.855 5.191c1.466 9.547 2.439 19.144 3.457 28.747l.655 6.095 1.014 9.465q1.144 10.69 2.316 21.377c1.957 17.87 3.888 35.74 5.703 53.625a6462 6462 0 0 0 4.625 43.938l.316 2.93c1.133 10.482 2.313 20.95 3.705 31.402C311 500 311 500 311 505h-70c5.22-5.22 5.22-5.22 8.313-7.437 6.99-5.938 11.242-15.287 13.5-24 1.457-4.947 3.112-6.619 7.562-9.188l2.922-1.59c4.843-3.198 7.575-8.268 9.328-13.734 1.658-9.069.441-16.344-4.625-24.051l-2-2c.283-3.966 2.842-6.796 5-10 3.11-6.507 3.206-13.944 1.16-20.824-2.74-6.023-6.652-10.504-12.16-14.176l-2.625-.605C265 376 265 376 264.309 374.18c-.539-2.49-.94-4.973-1.309-7.493-4.23-24.142-16.871-42.694-36.379-57.493-14.812-10.176-31.453-14.441-49.187-14.61-1.275-.018-2.55-.038-3.863-.058-3.358-.05-6.717-.09-10.076-.128-3.439-.04-6.878-.091-10.317-.141Q143.089 294.116 133 294l-1-13q11.282-.112 22.565-.165 3.827-.022 7.654-.061c17.96-.18 35.173-.293 51.969 6.851l2.53 1.052c26.012 11.18 44.814 32.53 55.582 58.467 2.409 6.386 3.913 13.023 3.7 19.856l2.438.938C281 369 281 369 282 370c.102-6.42-.26-12.616-.988-18.992l-.312-2.837c-.333-3.016-.673-6.031-1.012-9.046l-.689-6.229q-1.365-12.345-2.771-24.685-.328-2.87-.653-5.74-.374-3.296-.762-6.59l-.333-2.908-.284-2.43c-.244-3.172-.196-6.361-.196-9.543h19v-75H127z"/><path fill="#AFBDC4" d="M345 399h110c-1.865 22.377-4.406 44.695-7 67h-96c-2.718-22.29-5.278-44.611-7-67"/><path fill="#66DD19" d="m33.482 388.619 2.909-.014c3.218-.012 6.435-.003 9.654.007q3.459-.007 6.918-.016c6.267-.014 12.533-.008 18.8.001 6.554.008 13.108 0 19.662-.004 11.714-.007 23.428.003 35.142.019q15.926.018 31.852-.003 18.5-.025 36.997-.013 9.79.008 19.581-.005a4345 4345 0 0 1 18.411.015q3.38.006 6.76-.004c3.075-.008 6.149.002 9.223.017l2.707-.02c6.283.06 10.524 1.21 15.277 5.589 2.11 3.652 2.415 6.741 1.625 10.812-2.277 4.47-4.46 6.914-9 9-3.187.438-6.346.413-9.558.394l-2.933.019c-3.246.017-6.491.012-9.737.007q-3.489.01-6.978.026c-6.32.022-12.64.025-18.96.023q-7.911.002-15.821.017c-13.151.02-26.302.021-39.452.014-11.42-.006-22.838.015-34.257.048q-17.59.052-35.182.044c-6.583-.002-13.166.004-19.749.028-6.19.023-12.379.02-18.569 0q-3.408-.005-6.818.016c-3.1.019-6.2.006-9.3-.015-1.353.02-1.353.02-2.732.038-4.292-.06-7.078-.318-10.473-3.08-3.377-3.51-4.318-5.114-4.856-9.954.45-4.349 1.577-6.298 4.375-9.625 4.58-3.68 8.871-3.423 14.482-3.381"/><path fill="#020101" d="M328 384h144c-1.208 13.283-2.435 26.54-3.91 39.793l-.522 4.727q-.54 4.868-1.082 9.737-.693 6.236-1.378 12.474-.534 4.842-1.074 9.684-.255 2.302-.508 4.606-.35 3.19-.71 6.378l-.405 3.655C462 478 462 478 461 481H338l-5-48c-1.036-9.587-2.078-19.173-3.138-28.757q-.473-4.287-.944-8.575l-.284-2.546c-.335-3.057-.634-6.044-.634-9.122m17 15c1.722 22.389 4.282 44.71 7 67h96c2.594-22.305 5.135-44.623 7-67z"/><path fill="#FCD7A7" d="M146 461c2.169 1.196 2.169 1.196 4.328 2.695l2.426 1.672 2.496 1.758 2.45 1.688c4.974 3.454 9.65 7.074 14.186 11.093 2.09 1.363 2.09 1.363 4.532.596 2.536-1.475 4.413-3.193 6.529-5.203 10.939-9.702 25.233-7.38 38.928-6.924q3.951.075 7.902.137c6.41.11 12.816.276 19.223.488-2.25 9.357-5.665 15.794-13.582 21.613L233 492l-1.651.993c-7.404 3.903-14.957 3.564-23.099 3.509q-2.375.005-4.748.016c-4.277.014-8.554.003-12.83-.014-4.489-.014-8.977-.007-13.465-.003q-11.303.002-22.605-.034c-8.697-.027-17.393-.029-26.089-.017q-12.577.014-25.156-.01-5.34-.007-10.679 0-6.294.006-12.588-.028-2.302-.008-4.603 0c-13.05.037-22.623-1.675-32.178-11.076C39.173 480.796 35 475.325 35 469a1042 1042 0 0 1 21.806-.622c3.38-.062 6.754-.145 10.131-.283 16.036-.607 27.95-.667 40.401 10.306L110 481c2.65-1.272 5.085-2.652 7.504-4.32l1.98-1.363 2.079-1.442 2.147-1.474c3.259-2.246 6.482-4.515 9.61-6.94l2.868-2.211 2.48-1.984c3.003-1.63 4.095-1.188 7.332-.266"/><path fill="#FEFEFE" d="M114 158h239l6 20H109c1-8 1-8 5-20"/><path fill="#D8D7DA" d="M142 124h183c5 15 5 15 5 19H137c1-7 1-7 5-19"/><path fill="#AFEE5F" d="M15 401h254c-.952 5.711-1.221 7.113-5 11-2.823 1.692-4.901 2.251-8.177 2.26l-2.514.021-2.747-.007-2.93.016c-3.25.015-6.498.016-9.747.016q-3.489.012-6.977.026c-6.324.022-12.649.03-18.973.035q-5.925.006-11.848.017c-10.936.02-21.872.036-32.808.04h-2.12l-4.255.001h-2.133l-2.137.001c-11.425.004-22.85.03-34.276.068q-17.597.057-35.195.058c-6.587 0-13.173.01-19.76.038q-9.29.038-18.58.012-3.413-.003-6.824.02c-3.103.021-6.204.01-9.307-.007l-2.733.04c-4.287-.058-7.083-.312-10.479-3.065C15.852 407.801 15 406.28 15 401"/><path fill="#FDC377" d="m37 359 1 2h208l1-2c1.886 5.657 2 8.475 2 15H35c0-6.525.114-9.343 2-15"/><path fill="#FAD543" d="M299.563 17.563c2.026 3.436 2.057 5.511 1.437 9.437-4.215 5.917-9.785 6.556-16.625 7.938l-3.426.738q-3.602.776-7.208 1.532c-3.804.805-7.597 1.65-11.39 2.507-9.91 2.238-9.91 2.238-14.163 3.183l-2.895.646C243 44 243 44 241 44v65h-15V32c5.352-1.784 10.213-3.393 15.633-4.613l3.66-.836 3.832-.863c10.544-2.397 21.03-4.934 31.428-7.91 13.35-3.666 13.35-3.666 19.01-.215"/><path fill="#ECC93F" d="M380 223h16v131h-16z"/><path fill="#F6A708" d="M127 429h97a344 344 0 0 1-11.562 8.875l-1.926 1.413c-8.015 5.848-16.15 11.53-24.32 17.16a98 98 0 0 0-4.165 3.112c-4.355 3.412-4.355 3.412-7.554 3.545-3.358-1.5-6.147-3.553-9.036-5.793q-1.989-1.5-3.984-2.996l-2.158-1.62c-4.145-3.063-8.378-6-12.607-8.946l-2.458-1.714-2.406-1.677-2.366-1.65a1139 1139 0 0 0-5.288-3.652l-2.775-1.916-2.548-1.75L127 430z"/><path fill="#FDD844" d="M411 245h15v109h-15z"/><path fill="#FDD743" d="M351 245h15v109h-11c-5.259-10.895-4.51-21.691-4.39-33.512q.01-3.272.017-6.544c.015-5.71.054-11.419.098-17.128.041-5.84.06-11.678.08-17.517.042-11.433.11-22.866.195-34.299"/><path fill="#FAD543" d="M441 245h15c.252 9.634.452 19.267.57 28.904.056 4.478.133 8.955.26 13.432.677 24.473-1.621 44.22-11.83 66.664h-4z"/><path fill="#FBD743" d="M471 212h15v82h-15z"/><path fill="#F8FEFF" d="M150 208h80v15h-80z"/><path fill="#FEFEFE" d="M142 124h183l1 6H141z"/><path fill="#FAD543" d="M321 223h15v75l-2-4h-13z"/><path fill="#F7A808" d="M63 429c39.216-2.32 39.216-2.32 50.072 7.143a114 114 0 0 1 3.35 3.3c2.487 2.455 5.271 4.318 8.14 6.307q2.22 1.623 4.438 3.25c-2.034 4.72-5.194 6.56-9.375 9.313l-2.04 1.416-1.983 1.322-1.803 1.208c-2.391.985-3.407.673-5.799-.259-2.02-1.208-2.02-1.208-4.168-2.738l-2.433-1.719-2.587-1.856-2.676-1.898a2628 2628 0 0 1-5.468-3.89 1334 1334 0 0 0-7.484-5.286L78.75 441.5l-2.016-1.415a595 595 0 0 1-10.218-7.366l-2.038-1.502L63 430z"/><path fill="#01E4FF" d="M292 459h2q.86 8.38 1.709 16.76.29 2.85.582 5.698.42 4.102.834 8.206l.265 2.558.243 2.425.215 2.113c.186 2.74.152 5.493.152 8.24h-37c1.512-2.52 3.03-5.043 4.684-7.473 3.29-4.86 5.673-9.166 7.253-14.84 1.59-5.335 3.64-7.764 8.258-10.796C283 471 283 471 285 471l.844-1.734a101 101 0 0 1 3.656-6.516l1.281-2.14z"/><path fill="#FA6E41" d="M37 429c3.769 2.041 6.837 4.69 10.089 7.462 4.87 3.919 10.166 7.31 15.321 10.84l2.54 1.757 2.291 1.572C69 452 69 452 70 454c-6.583.127-13.167.214-19.751.275q-3.358.038-6.716.102c-3.222.061-6.443.09-9.666.111l-3.021.078c-4.568.002-7.807-.018-11.44-2.98-3.288-3.534-4.247-5.156-4.781-9.961.45-4.349 1.577-6.298 4.375-9.625 5.694-4.084 11.228-4.277 18-3"/><path fill="#FB6E41" d="M259 429c3.93 1.405 6.477 3.297 9 6.688 1.322 4.379 1.34 7.927 0 12.312-2.565 3.24-4.087 4.696-8 6a71 71 0 0 1-4.38.114h-2.668l-2.87-.016-2.947-.005a4072 4072 0 0 1-9.322-.03q-3.16-.009-6.319-.014A8420 8420 0 0 1 216 454c2.708-2.779 5.307-5.41 8.531-7.578l1.938-1.317 2.031-1.355a3790 3790 0 0 0 6.434-4.325 154 154 0 0 0 5.687-4.14c11.065-8.328 11.065-8.328 18.379-6.285"/><path fill="#F7BE73" d="M35 469a1042 1042 0 0 1 21.806-.622c3.38-.062 6.754-.145 10.131-.283 15.965-.604 27.966-.685 40.401 10.209C110 481 110 481 110 482l-69 1c-6-11-6-11-6-14M221.813 468.438q3.957.067 7.916.123c6.425.098 12.848.248 19.271.439-2.067 9.383-2.067 9.383-5 13-2.942.601-2.942.601-6.583.568l-2.01.002a403 403 0 0 1-6.575-.082q-2.28-.014-4.56-.021c-4.001-.02-8-.068-12-.124-4.082-.05-8.164-.074-12.247-.099-8.008-.053-16.017-.139-24.025-.244l1.861-1.854a259 259 0 0 0 4.36-4.486c11.334-9.869 25.395-7.646 39.592-7.223"/><path fill="#FBC075" d="M143.368 460.236c2.769.804 4.6 1.82 6.96 3.46l2.426 1.671 2.496 1.758 2.45 1.688c5.563 3.863 11.144 7.788 16.3 12.187v1h-62c3.323-3.323 5.727-5.692 9.469-8.191l2.48-1.674 2.551-1.697q2.517-1.687 5.031-3.38l2.375-1.586c2.281-1.545 2.281-1.545 4.875-3.937C141 460 141 460 143.368 460.235"/><path fill="#FAD543" d="M159.136 441.546h3.093l3.318.063 3.413.018c3.597.022 7.193.072 10.79.123q3.659.03 7.316.055 8.968.067 17.934.195c-2.771 2.85-5.44 5.5-8.742 7.719l-2.043 1.386-2.09 1.395q-2.06 1.39-4.117 2.781l-2.03 1.352a76 76 0 0 0-3.87 2.86c-4.424 3.468-4.424 3.468-7.585 3.648-3.674-1.661-6.711-3.94-9.898-6.391l-3.836-2.89-1.886-1.432c-2.93-2.198-5.914-4.312-8.903-6.428 2.959-3.475 4.569-4.5 9.136-4.454"/><path fill="#FAA908" d="M455 286h1c1.508 25.09-.685 44.928-11 68h-4c-2.739-25.19 4.522-44.991 14-68"/><path fill="#DF9D0E" d="M351 245h15v109h-11c-4.683-10.15-4.472-19.258-4.25-30.187q.03-2.599.055-5.198c.043-4.205.112-8.41.195-12.615 6.558 9.837 8.93 21.9 13 33l1-93h-14z"/><path fill="#FC8E17" d="M18 433c3.604 1.313 6.531 2.895 9.652 5.117 1.29.91 1.29.91 2.604 1.84l2.682 1.918q2.637 1.872 5.277 3.742l2.495 1.777c1.951 1.368 3.92 2.69 5.919 3.989L49 453v1c-4.208.146-8.415.234-12.625.313l-3.605.126c-9.89.139-9.89.139-13.52-2.841-3.133-3.617-4.126-5.236-4.562-10.036C15.016 437.824 15.819 436 18 433"/><path fill="#FD8E17" d="M264 434h3c2.545 4.64 2.419 9.012 1 14-2.565 3.24-4.087 4.696-8 6-1.7.082-3.403.107-5.105.098l-2.979-.01-3.103-.026-3.14-.013q-3.836-.018-7.673-.049c4.486-4.939 9.764-8.494 15.25-12.25q2.727-1.882 5.453-3.766l2.427-1.665c1.793-1.185 1.793-1.185 2.87-2.319"/><path fill="#F8D342" d="M82 442c8.413-1.094 15.065-1.347 22.197 3.739a193 193 0 0 1 7.16 5.9c2.42 2.004 4.996 3.671 7.643 5.361-3.192 3.557-5.15 5.66-10 6-2.077-.985-2.077-.985-4.11-2.535l-2.288-1.705-2.352-1.822q-2.303-1.74-4.61-3.473l-2.29-1.743c-3.142-2.303-6.407-4.39-9.706-6.458L82 444z"/><path fill="#E2A618" d="M411 245h15v109h-15v-13h14v-95h-14z"/><path fill="#F5FEFF" d="M245 208h20v15h-20z"/><path fill="#FEFEFE" d="M393 425h15v15h-15z"/><path fill="#FDFDFD" d="M363 425h15v15h-15z"/><path fill="#FEFEFD" d="M150 334h15v15h-15z"/><path fill="#FEFDFC" d="M119 334h15v15h-15zM180 325h15v15h-15z"/><path fill="#FFFEFD" d="M89 325h15v15H89z"/><path fill="#FEFEFE" d="M423 425h14v15h-14z"/><path fill="#F3A508" d="M321 281h15v17l-2-4h-13z"/><path fill="#F5A508" d="M471 281h15v13h-15z"/><path fill="#F9A909" d="M226 96h15v13h-15z"/><path fill="#FAAA09" d="M381 341h14v13h-14z"/></svg>