<svg xmlns="http://www.w3.org/2000/svg" width="512" height="512"><path fill="#020201" d="m237.2-.336 4.445-.02q4.65-.017 9.297-.015c3.936 0 7.87-.027 11.806-.061 3.06-.023 6.121-.026 9.182-.025q2.174-.004 4.347-.027c17.606-.172 32.446 4.887 45.436 16.965 10.72 10.563 17.256 25.22 17.527 40.294.036 7.825-.654 14.75-2.584 22.37-.805 3.016-.805 3.016-.656 6.855 1.39 1.466 1.39 1.466 3.25 2.688 5.214 4.251 7.282 8.79 8.164 15.43.373 8.349-1.186 15.178-6.871 21.503-8.028 7.139-16.357 7.56-26.543 7.379l-.25 3.75c-1.792 15.658-9.683 28.462-20.75 39.25l-2 1c-.47 3.046-.47 3.046-.625 6.563l-.227 3.628L290 190l1.844-.14c14.002-.577 29.212 4.048 41.031 11.515 3.712 1.93 5.149 1.478 9.125.625l-.875-3.629c-4.37-18.825-5.317-37.479 4.988-54.715 10.47-14.739 24.007-24.731 41.938-28.225 5.478-.8 10.962-.757 16.488-.767l3.878-.02q4.046-.017 8.093-.015 4.099 0 8.198-.04c23.517-.232 44.121.61 62.292 17.411 13.072 13.817 17.754 29.724 17.309 48.344-.25 5.245-1.27 10.045-2.75 15.09-.588 2.698-.593 4.03.441 6.566a282 282 0 0 0 5 5c5.44 7.555 5.731 13.837 5 23-2.248 7.891-8.12 12.9-15 17-3.702 1.295-7.361 1.099-11.25 1.063l-3.828-.028L479 248l-.078 1.766c-1.056 15.259-7.91 29.582-18.922 40.234-.713.51-1.426 1.02-2.16 1.547-2.1 1.365-2.1 1.365-2.59 4.14L455 298l1.73.078c16.472 1.152 30.377 7.88 41.723 19.832 10.7 12.464 14.018 26.062 13.98 42.235l.016 4.022q.014 4.192-.003 8.383c-.011 3.54.009 7.079.038 10.619.019 2.765.018 5.53.012 8.296 0 1.926.017 3.852.034 5.778-.143 18.348-6.88 34.107-19.702 47.097A72.3 72.3 0 0 1 480 454l-2.285 1.39c-4.51 2.5-8.75 3.896-13.765 4.919-7.982 1.58-7.982 1.58-13.887 6.941l-1.536 2.39c-12.788 19.755-45.113 26.504-66.425 31.141-34.756 7.125-70.015 11.321-105.516 11.422l-4.6.021c-4.87.02-9.74.025-14.611.026l-2.513.001c-24.73.007-49.288-.179-73.862-3.251l-2.226-.271C85.296 497.3 85.296 497.3 60 466l-2-3a90 90 0 0 0-7.375-1.812C34.427 457.476 20.869 448.472 11 435c-1.581-2.587-3.002-5.234-4.375-7.937l-.975-1.915C.743 414.914-.46 405.086-.434 393.82l-.015-4.03q-.013-4.197.003-8.395c.011-3.549-.009-7.097-.038-10.646-.018-2.77-.018-5.539-.012-8.309 0-1.932-.017-3.864-.034-5.796.125-16.046 5.615-29.674 16.593-41.394C27.66 304.24 41.08 299.001 57 298c-1.109-4.767-2.666-6.622-6.427-9.628C41.09 280.1 35.29 266.07 33 254c-.027-2-.031-4 0-6l-2.781.105c-9.163.203-16.724.095-23.832-6.488-5.795-6.758-7.152-13.571-6.809-22.34C.503 212.096 3.645 207.791 9 203l2-2c-.166-2.518-.166-2.518-.812-5.312l-.583-2.864a186 186 0 0 0-1.164-5.113c-2.825-17.356.681-33.71 10.305-48.371C29.212 125.262 44.05 117.95 61 115c4.652-.386 9.27-.422 13.938-.398l3.886-.01q4.04-.005 8.077.017c3.412.017 6.824.007 10.236-.01 3.308-.014 6.617-.005 9.926.003l3.65-.019c18.18.149 33.768 5.7 46.662 18.597 12.058 12.955 17.14 28.043 16.96 45.57-.44 7.877-2.492 15.606-4.335 23.25 4.698 1.356 7.24.771 11.507-1.554l1.993-1.133c7.33-3.927 14.37-6.432 22.5-8.313l2.531-.594c2.8-.46 5.445-.503 8.281-.469l2.958.028L222 190c.405-7.993.405-7.993-2.602-15.07q-2.067-1.651-4.207-3.207C205.103 163.793 200.222 149.159 198 137v-4l-1.906.07c-9.131.193-16.954-.931-24.094-7.07-6.462-7.976-8.022-14.787-7-25 1.645-5.267 3.825-9.414 8.375-12.625L176 86c0-3.062-.255-5.103-1-8-4.128-16.513-3.09-33.221 5.188-48.312C189.355 15.176 202.51 4.543 219.38.43c5.88-.967 11.875-.76 17.818-.767M149 248l-.848 3.7c-3.929 16.427-9.749 28.72-22.422 40.39-2.066 1.851-2.066 1.851-1.73 4.91l3.297.113c10.027.421 19.13 1.696 28.703 4.887v-54zm207 0v54l15-4c3.243-.381 6.213-.683 9.438-.75l2.251-.09c1.77-.068 3.54-.117 5.311-.16-.51-4.103-2.558-5.687-5.562-8.375C371.103 277.599 366.056 263.28 363 248z"/><path fill="#FAD56F" d="M227 207c2.168 1.493 3.193 2.835 4.586 5.05 3.659 5.045 11.413 8.75 17.414 9.95 11.814.947 21.813-1.245 31-9a76 76 0 0 0 2.188-3.375c3.448-3.218 4.752-3.081 9.375-3.187 11.352.52 21.17 3.872 31.437 8.562l2.273.895c1.914.855 1.914.855 4.727 3.105.537 2.191.628 4.227.7 6.48.633 5.308 3.536 10.756 7.3 14.52 1.191 3.356 1.12 6.61 1.114 10.146v3.76l-.016 4.047-.005 4.153q-.006 5.455-.024 10.91-.014 5.57-.02 11.14Q339.033 295.08 339 306h-25c-.09-7.832-.164-15.665-.207-23.498-.021-3.637-.05-7.274-.095-10.912q-.063-5.27-.078-10.543c-.01-1.984-.042-3.969-.073-5.954-.002-7.023.394-11.325 4.453-17.093-.803-3.38-3.161-5.378-5.625-7.75l-1.914-1.86L309 227c-3.007 1.057-3.953 1.925-5.668 4.68l-1.52 3.195-1.542 3.18c-2.247 5.213-2.428 9.868-2.447 15.502l-.02 2.613q-.028 4.278-.041 8.557l-.013 2.96q-.03 7.758-.044 15.518c-.011 5.326-.046 10.651-.085 15.977-.027 4.11-.035 8.22-.038 12.329a840 840 0 0 1-.035 5.886c-.424 15.993-.424 15.993 6.418 30.04 5.994 4.749 10.339 6.658 18.035 7.563v11c-7.56.178-14.883-.04-22.405-.716-30.608-2.697-61.449-1.69-92.072.279-5.86.371-11.653.53-17.523.437v-11l2.344-.41c7.322-1.514 13.066-3.435 17.656-9.59 3.35-6.116 4.588-11.274 4.518-18.2l.02-2.64c.018-2.854.007-5.706-.007-8.558l.012-6.004q.008-6.276-.022-12.552c-.022-5.338-.01-10.676.015-16.014.014-4.13.01-8.26 0-12.39q-.005-2.95.01-5.901c.05-13.734-.656-24.628-9.546-35.741-3.215 1.408-5.322 3.103-7.75 5.625l-1.86 1.914L194 236c1.344 3.484 1.344 3.484 3.056 6.794 1.226 2.866 1.184 5.144 1.171 8.26v3.7l-.032 3.98-.008 4.086c-.008 3.577-.028 7.155-.05 10.732-.02 3.653-.03 7.306-.04 10.96-.02 7.163-.056 14.325-.097 21.488h-25q-.07-11.996-.104-23.992-.014-5.571-.047-11.142-.032-5.377-.039-10.756-.004-2.05-.021-4.1a769 769 0 0 1-.016-5.751l-.014-3.304c.353-4.327 1.542-7.081 4.241-10.455 2.33-3.19 2.187-6 2.375-9.875.573-4.34 1.033-6.083 4.297-9.07 3.576-2.302 7.389-3.978 11.328-5.555l1.967-.812c9.6-3.836 19.73-6.08 30.033-4.188"/><path fill="#CE9D75" d="M392 395v1l-2.947.028c-3.659.04-7.317.107-10.975.18q-2.361.041-4.722.063c-13.512.129-24.02 1.437-34.188 11.217-6.084 7.049-8.504 14.7-8.383 23.86.833 10.277 6.784 18.048 13.215 25.652-27.605 4.113-55.123 5.348-82.985 5.26-3.652-.01-7.304-.004-10.955.008-15.166.04-30.273-.23-45.412-1.182l-3.89-.244c-10.997-.755-21.875-2.113-32.758-3.842l1.196-1.333c3.156-3.588 5.852-7.056 8.117-11.292l1.488-2.727c3.322-7.336 3.128-15.554.762-23.148-3.72-9.213-10.253-15.55-19.204-19.66-4.962-1.766-9.84-2.03-15.066-2.156l-2.198-.063q-3.454-.097-6.907-.183l-4.702-.131q-5.742-.16-11.486-.307c2.231-2.231 3.133-2.449 6.137-3.113l2.642-.587 2.909-.613 3.043-.65c19.497-4.048 39.41-7.464 59.269-9.037l3.248-.269C258.523 376.856 332.946 374.251 392 395"/><path fill="#E4E7EB" d="M139 314c2.4.546 4.659 1.226 7 2l-2 3.125c-3.258 6.54-3.208 14.356-1.34 21.344 2.538 5.713 7.033 9.866 12.574 12.656 3.508 1.11 6.93 1.332 10.578 1.5l2.1.117c1.696.094 3.392.177 5.088.258v14l-8.14 1.018-3.36.42-15.066 1.883-2.215.277L141 373c.438-4.557.85-7.577 4-11-1.392-3.13-3.026-5.323-5.437-7.75l-1.81-1.86c-1.772-1.7-1.772-1.7-4.753-1.39-6.213 8-8.258 16.12-9 26-3.854 1.329-7.725 2.48-11.659 3.547-11.299 3.122-22.918 7.183-32.74 13.7C75.319 396.81 70.837 396.35 66 396l-.028-2.503a1019 1019 0 0 0-.18-9.338 599 599 0 0 1-.085-5.971c-.26-10.33-1.782-18.274-8.707-26.188v-2c-4.86 2.503-8.279 6.086-12 10l.813 1.563L47 364l1.613 2.848c2.472 5.826 1.697 12.392 1.575 18.59l-.042 3.95c-.035 3.205-.089 6.408-.146 9.612l-12 6c-.396 3.915-.396 3.915 1.61 6.176l2.14 2.137 2.11 2.175c1.953 1.708 1.953 1.708 3.968 1.43 2.33-.948 2.33-.948 5.081-2.457 5.097-2.171 10.259-1.834 15.712-1.754l3.333.013c3.495.017 6.989.054 10.484.092q3.564.024 7.13.042c5.811.03 11.621.089 17.432.146v33c-6.796.07-13.59.129-20.386.165q-3.462.022-6.925.061c-3.331.037-6.662.054-9.994.067-1.02.015-2.04.03-3.091.047-14.02.003-26.333-5.48-36.538-15.082-10.141-11.081-13.692-23.297-13.632-38.035l-.02-3.903q-.014-4.062.01-8.125a677 677 0 0 0-.042-10.31c-.027-3.325-.017-6.65-.01-9.975l-.041-3.685c.13-12.09 3.87-21.35 12.274-30.034C35.89 320.526 44.053 316.036 54 315l3.875-.562c2.787.026 3.836.319 5.992 2.136l1.883 2.051c6.216 6.757 13.245 10.498 22.448 11.137 9.518.222 17.028-2.18 24.802-7.762 1.763-2.193 1.763-2.193 3.188-4.437 4.818-6.438 15.649-4.5 22.812-3.563"/><path fill="#EECEB2" d="M223 69c4.095.5 7.41 2.014 11.125 3.75 5.802 2.603 11.662 4.462 17.813 6.063l2.4.625a96 96 0 0 0 20.69 2.878l3.896.127 4.014.12 4.095.13q4.983.159 9.967.307c.128 7.291.215 14.583.275 21.875q.038 3.712.102 7.425c.33 19.217-.267 33.757-13.877 48.388C275.595 168 275.595 168 273 168l.063 2.583q.102 4.765.157 9.532.03 2.059.082 4.118c.049 1.978.069 3.956.089 5.935l.063 3.602c-.63 4.476-2.697 6.864-6.208 9.593-5.635 2.958-10.95 3.708-17.246 2.637-4.714-1.961-8.332-4.61-11-9-.34-3.116-.34-3.116-.293-6.734l.03-3.926q.037-2.045.076-4.09.022-2.068.04-4.137.054-5.057.147-10.113l-2.324-.879c-9.74-4.08-16.02-14.699-19.985-24.05-1.423-4.264-1.83-8.358-1.916-12.836l-.068-3.44a2443 2443 0 0 1-.167-15.513 607 607 0 0 0-.123-8.173c-.085-3.939-.112-7.877-.136-11.816l-.1-3.672c.014-5.994.283-9.758 4.301-14.39A82 82 0 0 1 222 70zM389 184l3.594 1.61c10.358 4.55 20.34 8.016 31.406 10.39l1.805.53c2.867.614 5.604.635 8.535.68l3.72.087q3.872.078 7.743.133l3.724.093 3.399.06c3.408.462 5.324 1.384 8.074 3.417 1.197 2.395 1.14 3.908 1.161 6.582l.03 2.885.012 3.13.017 3.223q.014 3.385.02 6.772c.01 3.432.04 6.864.072 10.297q.01 3.291.016 6.584l.038 3.088c-.02 6.365-.94 11.555-3.366 17.439l-.848 2.098c-3.14 7.431-8.975 14.057-15.91 18.086-2.254 1.562-3.106 2.289-3.798 4.972-.143 2.594-.119 5.123-.007 7.719.383 9.772.383 9.772-3.289 14.137-3.975 4.094-7.79 6.11-13.523 6.426-6.024-.224-10.391-2.453-14.84-6.407-2.67-4.533-2.215-8.69-2.035-13.844l.055-2.966q.07-3.611.195-7.221l-2.191-.75c-8.783-3.909-14.61-11.892-18.809-20.25l-.992-1.941c-5.058-10.766-3.451-24.447-3.578-36.018a567 567 0 0 0-.164-7.82c-.104-3.78-.148-7.557-.18-11.338l-.131-3.505c.015-6.607.862-9.917 5.602-14.683A112 112 0 0 1 389 184M58 184c3.795 1.128 7.262 2.591 10.813 4.313 4.895 2.266 9.834 3.924 15 5.437l2.173.638c6.2 1.764 12.118 2.72 18.584 2.858l3.715.1q3.852.091 7.703.172l3.707.103 3.376.076c2.885.298 4.54.696 6.929 2.303 2.09 3.135 2.252 3.853 2.259 7.42l.019 2.702-.012 2.917.005 3.017q.002 3.165-.01 6.33c-.01 3.206 0 6.412.012 9.618q0 3.08-.007 6.16l.012 2.88c-.101 14.609-4.947 26.242-15.094 36.886C110.78 284 110.78 284 107 284l.063 1.848c.084 2.78.136 5.56.187 8.34l.102 2.908c.098 7.124.098 7.124-2.102 10.935-4.364 3.819-9.485 6.118-15.312 6.531-6.04-.862-9.753-3.538-14.157-7.617-2.93-4.845-2.152-10.023-1.918-15.552.045-5.065.045-5.065-2.548-9.213-2.049-1.51-4.148-2.849-6.315-4.18-8.17-7.51-14.49-17.52-15.167-28.787l-.058-3.07-.068-3.5q-.107-7.894-.167-15.788a629 629 0 0 0-.123-8.319c-.085-4.008-.112-8.015-.136-12.024l-.1-3.738c.014-6.043.248-9.885 4.301-14.556A81 81 0 0 1 57 185z"/><path fill="#B1DA7D" d="M392 314c2.996 1.96 4.367 3.697 6.309 6.668 3.475 4.792 9.96 7.259 15.691 8.332 11.224.79 20.343-.322 29.273-7.437 1.942-1.688 1.942-1.688 4.164-4.438 3.187-2.642 4.864-2.792 8.907-2.543 13.276 2.09 22.9 7.525 31.64 17.625 5.214 7.225 8.171 15.744 8.114 24.656l-.008 2.423-.027 3.026L496 372h-33c1.125-6.75 1.125-6.75 4-10-1.388-3.129-3.011-5.282-5.437-7.687l-1.81-1.825c-1.791-1.708-1.791-1.708-4.753-2.488l-.84 1.684q-1.2 2.397-2.414 4.789l-1.308 2.59-1.317 2.597c-1.977 4.127-2.299 7.436-2.437 11.977l-.127 3.935-.12 4.115-.13 4.15q-.16 5.081-.307 10.163c-6.618.417-10.87.14-16.625-3.5-9.271-5.484-19.396-8.427-29.624-11.631-3.933-1.242-7.842-2.554-11.751-3.869l-.262-2.492c-.98-7.788-2.842-13.727-6.738-20.508a312 312 0 0 1-2-4c-4.86 2.503-8.279 6.086-12 10 .996 2.013 1.997 3.994 3.125 5.938 1.05 2.475.936 4.397.875 7.062a1569 1569 0 0 1-32-4v-14l6.438-.25c8.19-.612 14.356-1.975 20-8.187 5.471-6.72 5.367-14.237 4.562-22.563-1.027-3.076-2.238-5.247-4-8 7.366-3.8 18.009-3.507 26-2"/><path fill="#636B76" d="m75.195 131.629 3.834-.027q4.007-.023 8.013-.028a849 849 0 0 0 10.145-.088c3.273-.038 6.547-.039 9.82-.045l3.617-.059c11.995.063 23.006 3.319 32.126 11.329 8.788 8.94 14.244 18.79 14.75 31.476-.238 8.161-2.395 15.968-4.5 23.813-2.793.293-2.793.293-6 0-2.033-2.27-3.306-4.676-4.8-7.324-3.846-4.68-8.218-7.266-14.263-8.097-3.465-.152-6.907-.169-10.374-.142-20-.286-36.693-4.292-53.845-14.846C60.414 165.599 58.987 165 55 165c-2.958 2.102-5.395 4.793-7.937 7.375l-2.131 2.059C38.285 181.099 33.622 188.459 33 198h-4c-4.501-13.805-7.104-27.856-.477-41.426 6.782-11.822 15.771-19.58 28.804-23.6 5.892-1.449 11.833-1.318 17.868-1.345M404.387 131.664l3.92-.02q4.098-.017 8.197-.015c3.468 0 6.936-.027 10.404-.061 3.347-.028 6.694-.027 10.041-.029l3.723-.043c11.935.062 21.936 3.037 31.328 10.504.615.478 1.23.956 1.863 1.45 6.734 5.927 12.759 17.023 13.375 26.034.26 10.194-1.072 18.807-4.238 28.516-2.809.266-2.809.266-6 0-1.723-1.828-1.723-1.828-3.062-4.25-3.373-5.594-6.724-8.603-12.938-10.75-2.552-.328-2.552-.328-5.21-.344l-3-.084-3.165-.072c-23.059-.794-42.466-5.037-61.625-18.5-10.163 4.652-18.538 15.326-23.082 25.281-.978 2.897-1.504 5.694-1.918 8.719h-4c-4.178-15.743-6.775-29.72 1.543-44.797 6.854-10.35 16.134-17.416 28.164-20.772 5.157-.97 10.45-.758 15.68-.767"/><path fill="#CE9C69" d="M80 462c34.148-.961 34.148-.961 50.567 4.29 15.468 4.514 31.892 6.166 47.87 7.897l2.18.24c5.456.588 10.916 1.098 16.383 1.573l3.058.267c18.432 1.57 36.76 2.095 55.255 2.046l4.069-.004c22.313-.029 44.43-.88 66.618-3.309l3.349-.356c6.578-.72 13.113-1.628 19.651-2.644l3.556-.54c18.056-2.694 18.056-2.694 35.694-7.272 13.799-4.313 29.475-2.59 43.75-2.188v2c-11.22 6.545-22.614 11.127-35 15l-2.477.789C366.216 488.646 336.461 491.858 307 494l-3.438.267c-9.282.683-18.515.88-27.82.866l-4.56.003q-4.747.002-9.495-.006-5.985-.006-11.97.004c-21.017.026-42 .024-62.905-2.447-1.128-.13-2.256-.262-3.418-.397C147.506 488.008 111.718 482.119 80 464z"/><path fill="#EDCDB2" d="M462 388h34c0 17.89-3.017 31.697-15.586 44.813-6.832 6.19-14.742 9.373-23.414 12.187l-3 1c-2.99.112-5.959.168-8.95.177l-2.775.02q-4.552.028-9.103.041l-3.141.013q-8.23.03-16.461.044c-5.664.011-11.327.046-16.991.085-4.358.026-8.716.035-13.074.038q-3.132.008-6.263.035c-2.925.025-5.85.024-8.774.017l-2.602.039c-5.78-.05-9.104-1.196-13.866-4.509-4.648-4.892-5.367-9.19-5.281-15.754.596-4.76 3.445-7.51 6.906-10.558 4.44-3.155 8.208-2.843 13.503-2.85l2.868-.014q4.713-.021 9.426-.027l6.54-.017q6.864-.015 13.73-.02c5.862-.006 11.724-.03 17.586-.058 4.506-.019 9.011-.024 13.517-.026q3.24-.004 6.483-.024c3.025-.017 6.05-.015 9.076-.008l2.702-.028c5.103.034 8.472.662 12.944 3.384 1.987 1.093 1.987 1.093 4 1 2.475-1.867 2.475-1.867 4.75-4.437l2.422-2.56L475 408c-.713-3.232-.713-3.232-3.723-4.605l-3.34-1.582-3.347-1.606L462 399z"/><path fill="#B07745" d="m229.101 16.807 3.816-.049q2.068-.017 4.138-.031l2.115-.017q5.557-.039 11.113-.06 4.566-.02 9.13-.082c3.693-.05 7.385-.074 11.079-.081q2.094-.01 4.187-.046c13.125-.215 24.028 2.614 34.098 11.325 8.893 8.939 13 19.16 13.473 31.671-.054 7.07-1.062 16.187-4.25 22.563h-4l-.043-2.64C313.515 68.32 311.244 57.86 303 50c-6.92-5.125-13.515-7.122-22-8v16l7 1c2.215 1.375 2.215 1.375 3.937 3l1.778 1.625C295 65 295 65 295 66c-25.504.574-46.768-.857-68.293-15.559-2.482-1.643-2.482-1.643-4.628-1.25-4.332 1.686-7.352 5.57-10.579 8.809-.76.73-1.519 1.462-2.3 2.215C202.468 66.92 198.808 73.498 198 83h-4c-4.268-14.843-6.582-29.555.477-44.027 7.37-12.268 19.859-21.995 34.624-22.166"/><path fill="#EECEB2" d="m124 413 13.563-.187 4.236-.083c13.388-.09 13.388-.09 18.943 4.805 4.059 5.472 5.003 8.706 4.258 15.465-1.556 5.57-4.445 9.059-9.365 11.997-5.621 2.14-11.714 1.503-17.635 1.315L124 446z"/><path fill="#E9C9AE" d="M314 322q6.615-.186 13.232-.275 2.247-.038 4.493-.102c14.96-.424 14.96-.424 20.977 3.952C354 327 354 327 355.312 330.5c-.312 3.5-.312 3.5-2.388 6.177-3.608 2.867-5.453 2.966-10.018 2.987l-2.027.015q-2.115.005-4.226-.027c-2.148-.027-4.29 0-6.438.032q-2.061-.005-4.121-.02l-3.76-.017c-4.293-.833-5.777-2.133-8.334-5.647-.488-3.113-.488-3.113-.312-6.312l.136-3.239zM182.5 321.688q2.257.037 4.516.068c3.662.055 7.323.14 10.984.244.136 1.894.232 3.79.313 5.688l.175 3.199c-.665 4.24-2.058 5.594-5.488 8.113-3.334.647-3.334.647-7.094.664l-2.027.015q-2.114.005-4.226-.027c-2.148-.027-4.29 0-6.438.032q-2.061-.005-4.121-.02l-3.76-.017c-4.222-.82-5.727-2.286-8.334-5.647-.312-3.5-.312-3.5 1-7 6.33-6.947 15.961-5.56 24.5-5.312"/><path fill="#060505" d="M246.145 127.172c1.855.828 1.855.828 3.667 2.39 3.182 2.091 5.456 1.83 9.188 1.438 2.677-1.372 2.677-1.372 5-3 1.816-.906 1.816-.906 4-1 2.578 2.09 2.578 2.09 5.25 4.938l2.703 2.84L278 137c-2.125 5.196-6.26 7.336-11 10-8.276 3.251-15.558 2.793-23.625-.71-3.636-1.975-6.39-4.435-9.375-7.29 1.466-3.348 3.337-5.693 5.875-8.312l2.055-2.176C244 127 244 127 246.145 127.172"/><path fill="#040403" d="m410 242 6 4c3.41.697 6.573.595 10 0 2.967-1.837 2.967-1.837 5-4h2c1.621 1.645 1.621 1.645 3.438 3.813 2.107 2.498 4.214 4.911 6.562 7.187-1.472 3.834-3.419 5.178-6.937 7.188l-2.653 1.542c-6.694 3.527-15.212 3.552-22.379 1.364-5.285-2.483-8.7-5.32-12.031-10.094z"/><path fill="#040303" d="M79 242a56.5 56.5 0 0 1 7 4c2.307.392 2.307.392 4.813.375l2.519.086c3.477-.415 3.477-.415 8.668-4.461l11 11c-3.959 5.675-8.368 8.882-15 11-9.072 1.278-17.398-.037-24.95-5.379-1.4-1.147-2.735-2.375-4.05-3.621 1.396-3.186 3.046-5.24 5.563-7.625 2.577-2.42 2.577-2.42 4.437-5.375"/><path fill="#EDCEB2" d="M33 215v16c-11.341.493-11.341.493-14.36-1.766-1.73-2.357-2.185-3.359-2.14-6.234l-.031-2c2.16-8.13 9.889-6.289 16.531-6"/><path fill="#EECEB2" d="M479 215c11.342-.493 11.342-.493 14.355 1.766 2.193 2.979 2.303 4.731 2.075 8.328C495 227 495 227 493.187 229.5c-4.811 2.264-8.9 1.755-14.187 1.5z"/><path fill="#ECCCB1" d="M198 99v16c-11.354.494-11.354.494-14.355-1.8-1.645-2.2-1.645-2.2-2.208-5.638.563-3.562.563-3.562 2.375-6.5 4.791-3.1 8.549-2.402 14.188-2.062"/><path fill="#ECCDB1" d="M314 99c10.903-.436 10.903-.436 15 3 1.546 3.092 1.294 5.594 1 9-1.629 2.21-1.629 2.21-4 4-4.066.527-7.881.18-12 0z"/><path fill="#EDCDB2" d="M363 215v16c-10.088.608-10.088.608-14.187-2.125-2.151-3.411-2.555-4.92-1.813-8.875 3.077-7.077 9.332-5.362 16-5"/><path fill="#EDCEB2" d="M149 215c10.088-.608 10.088-.608 14.188 2.125 2.159 3.425 2.638 4.909 1.812 8.875-1.812 2.875-1.812 2.875-5 5-3.771.418-7.185.23-11 0z"/></svg>