<svg xmlns="http://www.w3.org/2000/svg" width="512" height="512"><path fill="#020202" d="M289 10c6.469 5.135 14.239 11.477 18 19 2.105.765 4.236 1.461 6.375 2.125 13.087 4.425 21.954 12.557 28.156 24.93 4.41 10.076 5.813 19.113 5.719 30.07l-.014 3.351c-.079 7.156-.585 14-1.724 21.067-.906 6.119-1.18 12.284-1.512 18.457l1.766.008c10.158.479 19.126 5.067 26.488 12.015 7.63 8.638 11.712 19.487 11.746 30.977-.76 12.176-5.76 23.837-15 32-7.87 5.74-16.156 9.628-26 9l-.262 1.95c-2.685 17.269-11.72 36.805-25.335 48.411-1.813 2.118-1.802 3.306-1.837 6.069l-.034 2.642.03 2.803.023 2.864c.249 10.614 2.3 19.49 9.048 27.968 1.296 1.522 1.296 1.522 3.367 1.293 1.25-1.577 2.424-3.215 3.563-4.875C344.597 283.868 344.597 283.868 354 281c7.75-.835 14.548 1.656 21.875 4l1.943.615c38.017 12.06 38.017 12.06 46.475 26.526C425 314 425 314 425 318l3.5.625c18.955 4.281 47.395 14.597 58.5 31.375 3.15 5.73 3.53 11.306 1.895 17.57-3.339 9.068-10.074 16.233-16.539 23.216l-1.66 1.831-1.5 1.613c-2.134 3.159-2.288 6.034-1.823 9.77l.707 3.372.789 3.847.433 2.044q.673 3.198 1.323 6.403a3456 3456 0 0 0 3.766 18.203q1.164 5.578 2.292 11.164.43 2.105.879 4.205c2.806 13.132 5.311 26.997-1.734 39.145-7.6 10.881-17.887 17.098-30.828 19.617-5.326.42-10.634.41-15.972.388q-2.402.006-4.804.016c-4.376.014-8.752.01-13.127.003-4.73-.005-9.458.008-14.187.018-9.254.017-18.508.018-27.763.013q-11.285-.006-22.57.002l-3.248.003-6.533.004c-20.409.014-40.817.009-61.226-.003-18.66-.01-37.32.003-55.98.027q-28.762.037-57.524.027-16.139-.007-32.277.017-13.738.022-27.476-.002c-4.67-.009-9.339-.011-14.009.004q-6.42.02-12.84-.01-2.315-.005-4.63.01c-14.775.093-26.324-2.996-37.521-12.892L31 497l-1.527-1.703c-6.772-8.146-7.838-16.306-6.916-26.6.806-6.722 2.11-13.335 3.427-19.97l.902-4.612q.941-4.805 1.896-9.606c.806-4.057 1.597-8.118 2.383-12.179q.925-4.755 1.869-9.508.443-2.242.875-4.484c4.502-23.26 12.07-43.488 32.25-57.652 16.827-11.215 36.214-17.09 55.54-22.354l2.639-.72c4.39-1.193 8.785-2.373 13.186-3.53 25.16-6.315 25.16-6.315 44.226-22.766 4.561-8.452 5.676-16.728 5.938-26.191l.132-2.702c.006-3.691-.037-6.356-2.267-9.394a83 83 0 0 0-3.733-3.442C169.603 248.935 161.215 228.796 160 213l-2.812.25c-9.737-.04-19.193-5.577-26.125-12.062-8.484-9.069-12.635-20.15-12.31-32.52 1.065-11.532 5.474-22.004 14.005-30.004C140.203 133.14 148.857 129.42 158 128c.576-7.481.049-13.825-2.375-20.875C152.988 99.437 151.678 92.136 151 84l-.219-2.562c-.758-18.698 6.215-37.532 18.531-51.5 6.473-6.11 14.83-9.924 22.688-13.938l2.18-1.127C222.41.417 260.688-9.494 289 10"/><path fill="#FBCFA2" d="M319.438 82.625c9.761 9.048 13.912 21.292 14.687 34.51.224 6.202.232 12.409.246 18.615l.027 6.072q.024 6.348.028 12.698c.005 5.371.043 10.741.088 16.112.03 4.18.037 8.36.038 12.54q.006 2.967.038 5.932c.241 24.526-5.638 46.557-22.59 64.896l-1.773 1.98c-11.85 12.6-27.652 19.346-44.227 23.02l-2.355.582c-22.348 3.532-43.214-2.756-61.52-15.457-16.541-12.777-29.287-31.278-32.46-52.344a129 129 0 0 1-.34-6.86c-.034-.91-.066-1.822-.1-2.762-.467-15.141-.412-30.302-.41-45.449 0-4.579-.014-9.158-.031-13.736q-.015-5.354-.013-10.707 0-2.534-.013-5.066c-.103-24.52-.103-24.52 7.242-34.201 6.162-5.929 12.532-9.123 21.063-9.437 9.267.179 18.287 2.109 27.345 3.956a99.4 99.4 0 0 0 17.772 1.684l2.336.017q2.444.015 4.886.02c2.432.01 4.862.04 7.293.073 13.625.093 26.734-1.312 39.618-6 7.822-2.636 15.408-4.336 23.125-.688"/><path fill="#FACFA2" d="m304 273 .262 3.48c1.236 14.38 4.271 28.487 15.176 38.832L321 317c-1.314 12.775-18.672 26.076-28.086 33.867-42.228 34.172-103.58 66.971-159.414 66.195l-2.594-.027L129 417l-.148-3.21-.227-4.165c-.03-.699-.062-1.397-.094-2.117-.126-4.21-.126-4.21-2.531-7.508-2.542-.25-2.542-.25-5 0-2.179 2.179-1.187 7.353-1.205 10.385l-.03 2.986q-.047 4.91-.081 9.82l-.063 6.79q-.083 8.954-.153 17.907-.077 9.129-.161 18.258-.162 17.928-.307 35.854-11.475.141-22.951.207c-3.553.021-7.107.05-10.66.095-4.096.052-8.191.071-12.287.089l-3.821.062c-7.62.002-13.471-.988-20.281-4.453l-2.734-1.387C39.86 492.48 35.434 487.301 33 480c-.457-6.547.25-12.775 1.504-19.187l.48-2.572c.517-2.749 1.047-5.495 1.578-8.241q.55-2.874 1.098-5.749a4289 4289 0 0 1 2.805-14.492q.761-3.93 1.504-7.863 1.097-5.792 2.238-11.575.41-2.092.805-4.188C47.56 392.658 51.612 380.297 61 370l1.988-2.266c18.877-20.291 48.448-25.637 74.117-32.687 31.564-8.143 31.564-8.143 54.325-30.004 5.041-9.77 6.436-20.255 7.57-31.043 4.018 1.517 7.755 3.391 11.563 5.375 21.765 11.03 45.135 12.364 68.437 5.625 6.917-2.374 18.669-12 25-12"/><path fill="#F3F7F7" d="M422 329c6.717.49 12.173 1.858 18.375 4.438l2.59 1.06c6.25 2.617 12.333 5.51 18.348 8.627l2.331 1.197C469.717 347.567 475.14 351.21 479 357c.93 6.644-1.245 10.747-5 16a221 221 0 0 1-18.415 20.386c-1.607 1.636-3.07 3.34-4.522 5.114-2.671 3.168-5.59 5.819-8.747 8.496-2.216 1.918-4.359 3.901-6.496 5.907-6.595 6.166-13.54 11.759-20.82 17.097l-1.91 1.41C399.66 441.278 385.48 449.77 371 458v6c3.83 1.054 5.72 1.077 9.195-.852l2.39-1.31 2.54-1.463 2.658-1.5c22.192-12.743 42.155-28.758 61.049-45.926 2.663-2.394 5.393-4.685 8.168-6.949 3.198 11.669 5.335 23.566 7.625 35.438l1.234 6.357q1.354 6.968 2.7 13.938.477 2.448.982 4.891c1.342 6.946 1.256 13.465-2.338 19.665-1.812 2.578-3.838 4.635-6.203 6.711l-2.25 2.063c-6.835 4.815-13.915 7.063-22.253 7.06l-3.335.006-3.646-.009-3.886.003q-5.337.002-10.672-.007-5.755-.005-11.511-.002-9.972 0-19.942-.008-14.415-.011-28.832-.012-23.39-.004-46.778-.019-22.72-.014-45.442-.02h-2.829l-14.05-.005Q187.285 502.034 129 502v-20l5.438-.113c87.683-2.169 169.622-28.84 234.773-89.317a281 281 0 0 1 7.101-6.32c5.635-4.901 10.764-10.186 15.625-15.852a419 419 0 0 1 4.75-5.421c5.629-6.375 10.889-12.916 15.813-19.852l1.491-2.088c3.14-4.502 5.656-9.077 8.009-14.037"/><path fill="#F2F6F6" d="m364.625 292.75 2.188.56c4.866 1.271 9.54 2.754 14.187 4.69-6.61 18.393-22.707 34.24-36 48l-1.517 1.583c-5.59 5.82-11.38 11.163-17.694 16.187-2.837 2.269-5.59 4.619-8.351 6.98C292.125 391.822 263.157 407.938 234 423v6c4.38 1.32 6.472.688 10.48-1.402l3.24-1.675 3.468-1.86 3.608-1.908C273.67 412.09 291.794 400.705 309 388l1.691-1.236C318 381.419 325.058 375.81 332 370l1.6-1.323c13.357-11.052 25.778-22.936 36.4-36.677l2.414-2.969c6.82-8.47 12.258-17.565 17.586-27.031 9.07 1.398 18.699 6.576 24.438 13.813 1.208 4.7.451 8.422-1.684 12.66-12.503 20.358-30.358 41.573-48.734 56.816-2.579 2.184-5.001 4.516-7.457 6.836C294.648 449.41 211.752 473.144 129 472v-45l9.75-1.125c30.926-3.91 60.764-12.259 89.25-24.875l2.486-1.097c27.183-12.125 53.441-28.424 75.24-48.805 1.262-1.164 2.54-2.312 3.88-3.386 4.79-3.875 8.207-8.164 11.707-13.212l1.698-2.4c1.67-2.36 3.33-4.73 4.989-7.1 24.93-35.316 24.93-35.316 36.625-32.25"/><path fill="#986532" d="M288.25 22.188c3.113 2.88 5.41 6.075 7.813 9.562 3.232 4.6 5.415 6.632 10.937 8.25 10.776 3.682 18.597 8.81 24.492 18.777C335.927 68.255 337.796 78.56 337 89l-1.625-2.062L333 84l-1.355-1.75c-4.941-6.146-10.266-9.603-18.211-10.559-7.099-.305-12.803.837-19.434 3.121-26.86 9.144-54.598 7.377-81.937 1.5-12.179-2.496-23.48-2.38-34.375 4.063C171.813 84.338 168.033 89.286 164 95h-1c-3.7-16.763-1.325-33.685 7.328-48.441 5.756-8.808 12.479-13.795 21.761-18.57 1.894-.98 3.764-1.997 5.634-3.02C225 10.352 261.767.619 288.25 22.187"/><path fill="#F9C48C" d="M159 139v23l-10 1-2 1c-.25 2.416-.25 2.416 0 5 3.659 2.77 3.659 2.77 12 3v31c-10.345-2.069-17.172-4.644-23.715-12.973-5.114-8.067-6.42-16.626-5.285-26.027 2.143-8.976 7.387-15.841 15.063-20.875C149.686 140.469 153.614 139 159 139M344 139c11.094 2.465 18.508 5.447 25 15 4.73 8.173 5.36 16.836 3.34 25.992-2.97 9.285-8.264 15.321-16.738 20-3.726 1.443-7.702 2.141-11.602 3.008v-31l10-1c1.356-1.125 1.356-1.125 1.063-4.062L355 164l-11-2z"/><path fill="#040403" d="M224 207c4.46.19 7.789 1.315 11.875 3.063 10.875 4.077 22.565 2.833 33.293-1.09A39.5 39.5 0 0 1 278 207c1.938 1.125 1.938 1.125 3 3 .063 2.438.063 2.438-1 5-10.941 8.258-24.754 9.41-38 8-7.465-1.19-15.034-3.012-20-9-.5-2.687-.5-2.687 0-5z"/><path fill="#070504" d="M225.238 139.8c2.712 1.847 4.768 3.583 6.762 6.2.5 3.188.5 3.188 0 6-3 2-3 2-5.312 1.938C224 153 224 153 221.25 150.438c-3.179-2.788-5.771-3.213-9.945-3.016-3.53.885-5.78 2.985-8.516 5.3C201 154 201 154 198.125 154 196 153 196 153 194 151c-.125-2.75-.125-2.75 1-6 8.173-8.231 19.911-11.17 30.238-5.2"/><path fill="#060504" d="M302.871 140.516c2.319 1.616 3.657 3.078 5.129 5.484.375 3.125.375 3.125 0 6-3 2-3 2-4.988 1.785-2.157-.842-3.457-1.838-5.2-3.347-3.506-2.563-6.22-3.222-10.542-3.016-3.504.892-5.763 3-8.48 5.3C277 154 277 154 274.124 154 272 153 272 153 270 151c.091-3.375.916-4.892 3-7.562 9.573-7.779 19.012-8.57 29.871-2.922"/><path fill="#090806" d="M213.563 156.188C216 157 216 157 218 159c.3 2.68.3 2.68.313 5.875l.05 3.18c-.398 3.232-1.193 4.575-3.363 6.945-2.375-.312-2.375-.312-5-1-2.298-3.447-2.298-4.933-2.312-9l-.051-3.187c.363-2.813.363-2.813 1.722-4.7C211 156 211 156 213.562 156.188"/><path fill="#070604" d="M290.563 156.188C293 157 293 157 295 159c.3 2.68.3 2.68.313 5.875l.05 3.18c-.398 3.232-1.193 4.575-3.363 6.945-2.375-.312-2.375-.312-5-1-2.298-3.447-2.298-4.933-2.312-9l-.051-3.187c.363-2.813.363-2.813 1.722-4.7C288 156 288 156 290.563 156.188"/></svg>