<svg xmlns="http://www.w3.org/2000/svg" width="512" height="512"><path fill="#FE5957" d="m135.188 39.563 2.16.009c36.329.227 71.175 14.32 97.173 39.926C240.729 85.818 246.174 92.556 251 100l1.836-2.457c23.508-31.201 54.933-50.95 93.78-57.15 5.831-.677 11.647-.727 17.51-.709 2.108.003 4.215-.02 6.323-.045 12.776-.06 25.234 1.774 37.363 5.923l2.22.753C427.921 52.695 443.266 63.007 457 76l2.496 2.3c30.074 28.667 41.348 70.74 43.692 110.915.067 2.95-.024 5.838-.188 8.785l-.125 2.28c-2.12 35.51-13.49 66.704-33.875 95.72 4.244 5.086 8.7 9.785 13.445 14.402l4.262 4.198q3.316 3.263 6.649 6.51c2.164 2.108 4.315 4.23 6.464 6.355l2.002 1.93c7.2 7.159 10.356 14.372 10.615 24.543l.14 2.11c.185 8.957-4.56 17.094-10.458 23.582a314 314 0 0 1-4.444 4.44l-2.466 2.488c-2.665 2.68-5.35 5.339-8.037 7.997a7160 7160 0 0 0-5.62 5.622 3354 3354 0 0 1-11.771 11.715 3142 3142 0 0 0-13.534 13.497 4773 4773 0 0 1-13.096 13.074 2658 2658 0 0 0-5.535 5.528c-2.582 2.582-5.176 5.15-7.773 7.716l-2.271 2.286c-6.49 6.361-13.722 11.372-22.385 14.32l-2.644.925c-13.417 4.02-28.057 2.371-40.668-3.425-11.811-6.482-20.804-16.592-30.014-26.22-1.7-1.772-3.416-3.529-5.134-5.284l-1.566-1.663c-1.607-1.688-1.607-1.688-4.161-3.646-3.19.133-4.818 1.443-7.125 3.563C311 435 311 435 309 435l.176 1.793.137 2.394.175 2.356c-1.148 5.777-7.862 9.409-12.425 12.707l-1.98 1.436C277.946 468.009 263.708 475.687 242 474c-14.307-2.543-25.475-11.15-36.734-19.766-4.316-3.295-8.722-6.454-13.141-9.609-8.521-6.111-16.806-12.5-25.042-18.988q-2.926-2.299-5.868-4.578a515 515 0 0 1-18.596-15.141 320 320 0 0 0-9.806-8.043c-4.244-3.36-8.243-6.936-12.239-10.586-2.669-2.373-5.414-4.616-8.199-6.851-4-3.235-7.691-6.59-11.23-10.32-1.785-1.763-3.596-3.366-5.504-4.99-5.882-5.107-11.327-10.665-16.823-16.18a2553 2553 0 0 0-5.64-5.634C67.24 337.38 61.402 331.434 56 325l-2.562-2.922C41.342 308.045 29.835 293.33 21 277l-1.049-1.935C12.284 260.73 6.587 245.879 3 230l-.91-3.828C-2.606 203.83-2.566 176.158 3 154l.602-2.488C10.571 123.362 22.985 99.16 43 78l2.285-2.445C54.31 66.175 54.31 66.175 60 64c3.512.113 5.875.437 9 2 2.417-1.227 2.417-1.227 5-2.937C78.8 60 78.8 60 81 60l-.25-3.25C81 53 81 53 82.5 50.957c3.352-2.624 6.723-3.74 10.75-5.02l2.14-.736c13.067-4.276 26.127-5.763 39.798-5.639"/><path fill="#FDCAA7" d="M273 201c3.11 0 5.082.23 8 1l2.223.438c2.279.595 3.891 1.142 5.777 2.562.629 1.953.629 1.953.938 4.25.475 3.508.475 3.508 2.6 6.217l2.078 1.391c7.587 5.588 13.966 12.488 20.583 19.162l4.571 4.584q4.903 4.918 9.797 9.843 7.748 7.792 15.51 15.57 19.268 19.322 38.514 38.663 14.969 15.047 29.96 30.071a9212 9212 0 0 1 15.399 15.472q4.792 4.82 9.598 9.628 2.22 2.225 4.43 4.457c8.877 8.964 17.041 17.104 29.022 21.692-8.962 10.875-19.266 20.647-29.182 30.642q-3.81 3.845-7.593 7.716c-3.07 3.143-6.16 6.267-9.26 9.38a469 469 0 0 0-3.482 3.55c-10.207 10.5-20.823 18.525-36.108 19.024-18.111-.298-30.25-13.738-42.149-25.698l-4.04-4.024q-5.444-5.427-10.871-10.872c-3.806-3.813-7.619-7.62-11.43-11.426a17561 17561 0 0 1-19.18-19.196q-11.047-11.07-22.118-22.113a15934 15934 0 0 1-19.061-19.053 8304 8304 0 0 0-11.354-11.349 4144 4144 0 0 1-10.672-10.687 1349 1349 0 0 0-3.897-3.893c-15.702-15.63-27.233-30.195-27.978-53.251.3-16.386 6.342-30.032 17.75-41.687 12.473-11.82 26.159-16.054 43.031-16.391 4.38-.819 5.633-2.472 8.594-5.672"/><path fill="#030101" d="m135.188 39.563 2.16.009c36.329.227 71.175 14.32 97.173 39.926C240.729 85.818 246.174 92.556 251 100l1.836-2.457c23.508-31.201 54.933-50.95 93.78-57.15 5.831-.677 11.647-.727 17.51-.709 2.108.003 4.215-.02 6.323-.045 12.776-.06 25.234 1.774 37.363 5.923l2.22.753C427.921 52.695 443.266 63.007 457 76l2.496 2.3c30.074 28.667 41.348 70.74 43.692 110.915.067 2.95-.024 5.838-.188 8.785l-.125 2.28c-2.12 35.51-13.49 66.704-33.875 95.72 4.244 5.086 8.7 9.785 13.445 14.402l4.262 4.198q3.316 3.263 6.649 6.51c2.164 2.108 4.315 4.23 6.464 6.355l2.002 1.93c7.2 7.159 10.356 14.372 10.615 24.543l.14 2.11c.185 8.957-4.56 17.094-10.458 23.582a314 314 0 0 1-4.444 4.44l-2.466 2.488c-2.665 2.68-5.35 5.339-8.037 7.997a7160 7160 0 0 0-5.62 5.622 3354 3354 0 0 1-11.771 11.715 3142 3142 0 0 0-13.534 13.497 4773 4773 0 0 1-13.096 13.074 2658 2658 0 0 0-5.535 5.528c-2.582 2.582-5.176 5.15-7.773 7.716l-2.271 2.286c-6.49 6.361-13.722 11.372-22.385 14.32l-2.644.925c-13.417 4.02-28.057 2.371-40.668-3.425-10.366-5.684-18.54-14.185-26.78-22.513a1469 1469 0 0 0-5.37-5.39l-3.487-3.504-1.585-1.588a153 153 0 0 1-7.693-8.365c-4.566-5.232-9.497-10.083-14.434-14.961l-3.122-3.098q-3.341-3.316-6.685-6.628a6991 6991 0 0 1-10.595-10.523l-1.813-1.804-3.668-3.649c-8.203-8.16-16.41-16.317-24.633-24.458a6757 6757 0 0 1-16.661-16.554 2301 2301 0 0 0-8.795-8.726q-4.156-4.1-8.28-8.23a467 467 0 0 0-3.016-2.982c-15.184-14.881-26.255-33.739-26.639-55.423.048-21.093 6.623-39.056 21.381-54.417 14.977-14.619 34.18-21.25 54.793-21.629 4.142.812 5.655 2.324 8.207 5.629.063 3.625.063 3.625-1 7-3.33 3.434-6.3 3.355-10.937 3.438-16.317.66-29.616 7.135-41.063 18.562l-1.75 1.715c-10.382 11.058-13.85 25.954-13.46 40.691 1.407 23.996 17.523 39.217 33.6 55.26l3.918 3.932q5.262 5.28 10.537 10.548 4.419 4.42 8.834 8.843 10.42 10.436 20.852 20.858 10.731 10.724 21.44 21.467 9.234 9.26 18.485 18.506 5.509 5.505 11.007 11.021 5.164 5.183 10.35 10.347 1.89 1.888 3.775 3.784c10.941 11.009 22.163 21.973 38.662 22.403 17.067-.867 27.729-10.482 39.047-22.086q1.99-2.007 3.984-4.01a2331 2331 0 0 0 10.357-10.505c3.529-3.59 7.075-7.164 10.62-10.739A6553 6553 0 0 0 471 387l-1.984-.926c-5.439-2.727-10.003-5.713-14.462-9.865l-1.546-1.44c-6.863-6.44-13.483-13.13-20.12-19.8l-4.435-4.443q-4.738-4.75-9.472-9.5a20360 20360 0 0 0-14.993-15.029 83863 83863 0 0 1-42.605-42.71q-11.79-11.826-23.588-23.64-7.453-7.463-14.892-14.936a7543 7543 0 0 0-9.264-9.28 2423 2423 0 0 1-4.282-4.3 2103 2103 0 0 0-5.863-5.871l-1.694-1.714c-2.732-2.714-5.44-5.055-8.632-7.218C290 214 290 214 288.812 210.5c.188-3.5.188-3.5 1.75-6.437C293 202 293 202 295.688 201.313c13.518 2.805 25.834 19.058 35.19 28.483l3.07 3.078a7386 7386 0 0 1 6.521 6.55q5.152 5.177 10.313 10.348a39923 39923 0 0 1 29.294 29.399q8.117 8.154 16.245 16.297a6356 6356 0 0 1 10.255 10.299q3.172 3.188 6.353 6.368 1.476 1.48 2.948 2.966 2.003 2.018 4.016 4.025l2.271 2.28c1.684 1.812 1.684 1.812 3.837 1.594 1.403-1.309 1.403-1.309 2.875-3.125l1.895-2.238L433 315l2.637-2.98C455.504 289.504 473.734 263.588 481 234l.483-1.865a655 655 0 0 0 1.642-6.51l.519-2.036c8.979-37.629.42-80.84-19.644-113.589-18.758-27.836-44.523-45.321-77-53-29.472-4.962-58.203 1.686-84 16l-2.914 1.61c-16.622 9.904-28.751 23.612-38.516 40.148-2.234 3.19-4.08 4.973-7.972 5.676-3.917.006-6.806-.038-10.348-1.809-2.673-3.119-4.615-6.427-6.66-9.98-2.512-4.18-5.476-7.902-8.59-11.645l-1.988-2.434c-18.205-21.332-47.346-34.95-74.95-38.253-19.568-1.345-37.202-.215-55.66 6.699C91.735 64.077 88.8 64.286 85 64c-2.437-1.562-2.437-1.562-4-4-.533-3.734-.79-5.942 1.516-9.027 3.339-2.652 6.702-3.755 10.734-5.035l2.14-.737c13.067-4.276 26.127-5.763 39.798-5.639"/><path fill="#010000" d="M67 65c2.015 2.278 2.029 4.18 2.504 7.188-.74 5.599-3.838 7.646-8.004 11.187a1749 1749 0 0 0-4.445 3.992l-2.15 1.913C37.096 105.355 26.944 128.211 21 151l-.895 2.977c-3.72 12.424-4.294 24.699-4.355 37.585l-.028 3.656c.169 48.72 25.291 89.455 57.645 123.938a235 235 0 0 1 5.832 6.559c4.359 5.002 9.038 9.668 13.739 14.348l2.591 2.603c4.403 4.396 8.868 8.642 13.588 12.696 3.154 2.743 6.162 5.638 9.195 8.513 5.12 4.814 10.33 9.406 15.825 13.793 3.465 2.822 6.816 5.761 10.176 8.707 6.49 5.668 13.165 11.039 19.984 16.304a618 618 0 0 1 4.953 3.887c15.63 12.378 31.492 24.459 47.746 36.007 1.904 1.356 3.8 2.723 5.695 4.091C233.597 454.468 243.303 459.415 257 458c14.734-3.311 27.586-14.296 39.04-23.64 1.96-1.36 1.96-1.36 5.21-1.985 3.327.756 5.239 1.262 7.75 3.625.85 5.27.85 5.27 0 8-3.502 4.04-7.628 7.135-11.937 10.25l-1.98 1.436C277.946 468.009 263.708 475.687 242 474c-14.307-2.543-25.475-11.15-36.734-19.766-4.316-3.295-8.722-6.454-13.141-9.609-8.521-6.111-16.806-12.5-25.042-18.988q-2.926-2.299-5.868-4.578a515 515 0 0 1-18.596-15.141 320 320 0 0 0-9.806-8.043c-4.244-3.36-8.243-6.936-12.239-10.586-2.669-2.373-5.414-4.616-8.199-6.851-4-3.235-7.691-6.59-11.23-10.32-1.785-1.763-3.596-3.366-5.504-4.99-5.882-5.107-11.327-10.665-16.823-16.18a2553 2553 0 0 0-5.64-5.634C67.24 337.38 61.402 331.434 56 325l-2.562-2.922C41.342 308.045 29.835 293.33 21 277l-1.049-1.935C12.284 260.73 6.587 245.879 3 230l-.91-3.828C-2.606 203.83-2.566 176.158 3 154l.602-2.488C10.571 123.362 22.985 99.16 43 78l2.285-2.445C58.29 62.038 58.29 62.038 67 65"/><path fill="#EC364A" d="M371 55c31.693.089 58.476 15.539 80.406 37.398C469.57 111.648 480.413 137.178 485 163l.517 2.82c1.403 8.21 1.797 16.172 1.733 24.493l-.02 3.864c-.1 9.102-.57 17.856-2.23 26.823l-.342 2.042C478.87 257.01 459.312 285.61 437 311l-2.094 2.395q-1.73 1.977-3.469 3.949c-1.88 2.166-3.671 4.396-5.437 6.656-2.932-1.321-4.987-2.746-7.234-5.04l-1.739-1.757-1.777-1.828-1.824-1.852Q411.207 311.268 409 309l2.313-3.062 1.656-2.22c1.08-1.445 2.16-2.89 3.25-4.327 29.122-38.483 42.75-82.096 37.062-130.477-1.633-11.635-4.093-22.926-8.281-33.914l-.843-2.255C438.145 116.911 430.11 102.834 419 90l-2.145-2.547C404.332 72.978 388.348 63.557 371 56z"/><path fill="#040302" d="m363.625 319.688 2.414-.114c9.499 1.366 15.425 7.172 21.922 13.793l2.765 2.765q2.878 2.88 5.732 5.785c2.431 2.47 4.88 4.922 7.334 7.37 2.356 2.351 4.7 4.716 7.044 7.08l2.651 2.652c5.882 5.997 9.94 10.613 9.95 19.356l.06 3.21c-1.146 7.881-5.688 13.21-11.204 18.653l-1.95 1.962a799 799 0 0 1-4.078 4.056 770 770 0 0 0-6.181 6.207 2850 2850 0 0 1-3.979 3.963l-1.84 1.865c-5.584 5.464-10.742 8.137-18.765 8.147l-3.219.058c-8.615-1.302-14.167-7.929-20.047-13.828l-2.773-2.758q-2.891-2.879-5.769-5.772c-2.448-2.46-4.911-4.903-7.38-7.342-2.369-2.346-4.722-4.706-7.078-7.066l-2.67-2.636c-6.02-6.09-9.944-11.014-10.127-19.906l-.128-2.833c2.062-10.01 9.863-17.133 16.903-24.034 1.6-1.57 3.18-3.159 4.759-4.75 15.612-15.58 15.612-15.58 25.654-15.884"/><path fill="#FEDEC6" d="M363.933 334.18c4.786 1.28 7.59 4.405 11.067 7.82l1.973 1.852c4.307 4.045 8.518 8.191 12.73 12.336a618 618 0 0 0 4.637 4.494c2.26 2.169 4.493 4.363 6.722 6.564l2.112 1.996c3.032 3.045 5.26 5.408 5.625 9.811-.476 4.857-3.267 7.57-6.643 10.853l-1.826 1.85q-1.912 1.92-3.853 3.81c-1.972 1.929-3.897 3.896-5.82 5.871a1261 1261 0 0 1-3.75 3.72c-.858.88-.858.88-1.732 1.78-3.03 2.893-4.852 3.988-9.027 4.957-5.929-.493-9.545-5.291-13.425-9.355l-2.582-2.609a1123 1123 0 0 1-8.079-8.305 4042 4042 0 0 0-5.501-5.586 1768 1768 0 0 1-12.014-12.318c-1.98-2.203-2.505-3.47-2.993-6.413.649-4.813 3.196-6.922 6.579-10.238l1.907-1.925a518 518 0 0 1 4.02-3.988 501 501 0 0 0 6.104-6.141q1.95-1.944 3.906-3.883l1.829-1.865c2.646-2.56 4.45-4.086 8.034-5.089"/><path fill="#FD9E75" d="M458 309c4.92 4.138 9.604 8.42 14.176 12.938l1.973 1.948q2.046 2.026 4.087 4.054 2.083 2.067 4.18 4.12c2.034 1.99 4.054 3.995 6.072 6.002l1.891 1.838c4.628 4.652 6.312 8.363 7.058 14.975-.16 4.956-2.205 8.454-5.437 12.125-3.631 3.197-7.163 5.272-12.062 5.5-8.605-1.093-12.986-4.981-18.84-11.012l-2.19-2.206a1566 1566 0 0 1-6.846-6.97l-4.673-4.728Q441.679 341.808 436 336c1.618-3.408 3.478-5.795 6.063-8.562 4.215-4.591 8.18-9.335 12.09-14.188C456 311 456 311 458 309"/><path fill="#EB364A" d="M302 409c4.521 3.718 8.774 7.64 12.938 11.75l1.505 1.466c1.225 1.222 2.396 2.5 3.557 3.784v2c-2.23 2.016-2.23 2.016-5.187 4.25l-2.918 2.266C309 436 309 436 306.512 435.234L304 434c-3.257-.637-5.194-.468-8.08 1.208-2.428 1.717-4.77 3.515-7.108 5.354q-2.55 1.939-5.105 3.872l-2.466 1.878C270.504 454.401 259.836 460.459 246 459c-2.753-.514-5.313-1.189-8-2l3-2c12.17-8.395 23.964-17.227 35.688-26.232a855 855 0 0 1 9-6.768c8.474-6.123 8.474-6.123 16.312-13"/><path fill="#BE8459" d="M458 309c6.033 4.984 11.518 10.42 17 16-1.504 4.597-4.126 8.034-7.125 11.75l-1.476 1.854A273 273 0 0 1 454 353c-6.41-5.271-12.186-11.091-18-17 1.5-3.448 3.504-5.824 6.063-8.562 4.215-4.591 8.18-9.335 12.09-14.188C456 311 456 311 458 309"/><path fill="#090706" d="M297.5 333.438c3.475.781 5.082 1.943 7.5 4.562 1.28 4.142 1.485 6.051-.5 9.938-2.5 2.062-2.5 2.062-5.937 2.687-4.474-.785-5.93-1.956-8.563-5.625-.625-3-.625-3 0-6 2.291-3.012 3.76-4.721 7.5-5.562"/><path fill="#070605" d="M343 294c3.077 2.13 3.858 3.257 4.563 6.938-.769 4.184-2.101 5.631-5.563 8.062-4.292.15-6.22-.337-9.5-3.125-1.988-3.81-1.709-5.795-.5-9.875 3.199-3.937 6.385-3.236 11-2"/><path fill="#080605" d="M305 277c3.421 2.475 4.795 3.883 5.563 8.063C310 288 310 288 308.438 290.375c-3.413 2.275-5.414 2.26-9.438 1.625-3.421-2.475-4.795-3.883-5.562-8.062.562-2.938.562-2.938 2.125-5.313 3.412-2.275 5.413-2.26 9.437-1.625"/><path fill="#070605" d="M321 314c2.938 1.5 2.938 1.5 5 4 .712 2.825.716 5.175 0 8-2.125 2.563-2.125 2.563-5 4-3.56 0-5.41-.612-8.375-2.562-2.459-3.688-2.113-6.046-1.625-10.438 2.172-4.088 5.801-3.507 10-3"/><path fill="#060504" d="M281.5 297c3.817 1.09 5.326 1.695 7.5 5 .568 3.975.623 6.065-1.625 9.438-3.132 2.06-4.69 2.239-8.375 1.562-2.875-2.062-2.875-2.062-5-5-.634-4.016-.602-6.037 1.563-9.5C278 297 278 297 281.5 297"/></svg>