<svg xmlns="http://www.w3.org/2000/svg" width="512" height="512"><path fill="#010101" d="M257.934 2.18c4.29 1.703 7.293 5.043 10.5 8.27 2.433 2.408 4.957 4.716 7.468 7.042a565 565 0 0 1 17.953 17.395 110 110 0 0 0 5.957 5.426c3.76 3.21 7.215 6.675 10.688 10.187 3.985 4.03 8.009 7.89 12.336 11.555 3.625 3.258 7.015 6.756 10.422 10.24 3.419 3.473 6.95 6.642 10.742 9.705l.044-2.583q.093-4.767.218-9.532.051-2.059.084-4.118c.034-1.978.088-3.957.142-5.935l.08-3.602c.474-3.543 1.24-5.425 3.432-8.23 2.806-1.703 4.904-2.251 8.168-2.26l2.493-.022 2.71.007 2.874-.015a1820 1820 0 0 1 9.407-.01l6.539-.014q6.853-.01 13.706-.002c5.856.006 11.711-.01 17.567-.034 4.501-.015 9.002-.016 13.504-.013q3.237 0 6.476-.015c3.02-.013 6.037-.006 9.056.006l2.703-.023c4.761.04 7.925.306 11.797 3.395 3.6 4.834 2.333 11.928 2.316 17.699-.003 2.228.02 4.454.045 6.682q.004 2.136.002 4.271l.01 3.906c-.402 3.711-.959 5.605-3.373 8.442l-5 1v20l5 1c3.304 3.883 3.322 7.14 3.163 12.107l-.107 4.332-.073 2.305c-.118 4.072-.148 8.145-.194 12.219-.065 5.165-.155 10.326-.334 15.488-1.541 20.157-1.541 20.157 5.227 38.277 3.42 3.527 7.144 6.323 11.297 8.93 2.956 1.963 5.168 4.312 7.584 6.905 2.647 2.683 5.314 5.248 8.187 7.687 5.91 5.05 11.297 10.69 16.739 16.235a124 124 0 0 0 3.89 3.702C511 242 511 242 511.687 245.813c-.204 3.46-1.103 5.148-3.5 7.625A136 136 0 0 1 504 257l-2.422 2.016a638 638 0 0 1-5.453 4.433c-4.263 3.448-8.393 7.055-12.53 10.653-4.096 3.544-6.628 5.53-12.232 5.52-5.147-1.354-8.753-5.91-12.363-9.622l-3-3-1 165h51c5 3 5 3 6 4 .115 2.126.16 4.255.177 6.384l.02 2.02c.02 2.216.031 4.431.041 6.647l.013 2.289q.03 5.997.044 11.996c.011 4.133.046 8.265.085 12.398.026 3.175.035 6.35.038 9.525q.008 2.285.035 4.57c.025 2.133.024 4.265.017 6.399l.018 3.678c-.61 3.868-1.353 4.781-4.488 7.094-2.91.392-5.442.538-8.352.503l-2.59.018c-2.882.015-5.763 0-8.646-.013q-3.12.007-6.238.019c-5.73.017-11.46.008-17.19-.004-6.173-.01-12.346.005-18.519.016-11.4.017-22.799.015-34.198.004q-15.795-.015-31.59-.008l-2.115.001-8.498.004c-26.586.012-53.17.001-79.756-.02q-35.447-.029-70.894.001a62546 62546 0 0 1-88.09.014h-2.11q-15.788-.006-31.575.01-17.946.018-35.893-.013c-6.108-.01-12.217-.015-18.326-.001q-8.379.017-16.757-.016a872 872 0 0 0-6.081.007c-2.744.012-5.486 0-8.23-.019l-2.415.029c-3.526-.049-5.553-.248-8.428-2.37-2.12-3.036-2.01-5.22-2.01-8.902l-.017-2.027a478 478 0 0 1 .022-6.612q0-2.301-.005-4.602 0-4.818.034-9.636c.029-4.118.026-8.236.013-12.354-.007-3.167.001-6.333.014-9.5q.006-2.277 0-4.556a546 546 0 0 1 .036-6.362l.016-3.658C0 436 0 436 1.338 434.15c3.162-2.186 5.968-2.272 9.684-2.263h3.094l3.333.016 3.418.005c3.607.005 7.214.018 10.82.03q3.666.009 7.33.014 8.992.017 17.983.049l-.013-3.155q-.061-14.72-.09-29.443a6246 6246 0 0 0-.048-15.136q-.032-7.305-.039-14.608-.004-2.786-.021-5.573c-.015-2.602-.017-5.204-.016-7.806l-.022-2.326c.03-7.515.03-7.515 2.249-10.953l6-2v-19l-5-2c-4.14-4.507-3.476-10.217-3.512-15.988l-.054-3.207a1649 1649 0 0 1-.121-10.118q-.05-3.435-.104-6.869Q56.083 275.41 56 267l-2.082 2.117-2.73 2.758-2.708 2.742c-3.022 2.904-4.834 4.256-8.98 5.07-5.974-.184-9.71-4.437-13.921-8.266-2.273-2.046-4.608-4.015-6.94-5.993C1.049 250.478 1.049 250.478.626 246.25.477 244.203.477 244.203 1 242c1.61-1.804 3.227-3.369 5-5a780 780 0 0 0 4.145-4.18l4.668-4.695c.768-.777 1.537-1.555 2.33-2.355 4.2-4.218 8.48-8.246 12.992-12.126 2.927-2.58 5.64-5.355 8.365-8.144 3.388-3.43 6.752-6.823 10.438-9.937C52.843 192.254 56.403 188.635 60 185c4.166-4.21 8.353-8.272 12.879-12.098 3.598-3.227 6.946-6.708 10.344-10.144a168 168 0 0 1 10.62-9.82c3.003-2.698 5.82-5.568 8.657-8.438 3.988-4.033 8.015-7.894 12.344-11.562 3.002-2.698 5.819-5.568 8.656-8.438 3.988-4.033 8.015-7.894 12.344-11.562 3.002-2.698 5.819-5.568 8.656-8.438 3.988-4.033 8.015-7.894 12.344-11.562 3.002-2.698 5.819-5.568 8.656-8.438 3.988-4.033 8.015-7.894 12.344-11.562 3.002-2.698 5.819-5.568 8.656-8.438 3.988-4.033 8.015-7.894 12.344-11.562 3.002-2.698 5.819-5.568 8.656-8.438 3.988-4.033 8.015-7.894 12.344-11.562 3.002-2.698 5.818-5.569 8.656-8.438 4.077-4.118 8.16-8.147 12.61-11.867a79 79 0 0 0 4.093-3.828c7.444-7.267 7.444-7.267 12.73-6.625"/><path fill="#E4E5EA" d="M255 75c4.099 1.61 6.762 4.578 9.75 7.688 3.282 3.352 6.533 6.662 10.125 9.687 3.923 3.332 7.507 6.97 11.125 10.625 5.345 5.415 5.345 5.415 11 10.5 4.56 3.852 8.672 8.148 12.867 12.387 2.962 2.981 5.92 5.899 9.133 8.613 4.56 3.852 8.672 8.148 12.867 12.387 2.962 2.981 5.92 5.899 9.133 8.613 4.56 3.852 8.672 8.148 12.867 12.387 2.962 2.981 5.92 5.899 9.133 8.613 4.56 3.852 8.672 8.148 12.867 12.387 2.962 2.981 5.92 5.899 9.133 8.613 4.56 3.852 8.672 8.148 12.867 12.387 2.962 2.981 5.92 5.899 9.133 8.613 4.553 3.847 8.66 8.136 12.85 12.37 3.641 3.664 7.328 7.202 11.306 10.505L433 243l1.467 1.2c3.124 2.767 4.412 4.207 5.271 8.412q.036 2.048-.016 4.095l.015 2.292c.01 2.525-.023 5.048-.056 7.573q-.002 2.72.003 5.44c.002 4.918-.034 9.834-.076 14.751-.037 5.141-.04 10.282-.048 15.423-.018 9.732-.068 19.464-.128 29.197-.067 11.08-.1 22.161-.13 33.242-.063 22.792-.168 45.584-.302 68.375l-2.615.007q-31.471.089-62.943.229-15.219.07-30.438.11-13.263.034-26.524.103-7.025.037-14.05.049-6.607.01-13.215.056-2.43.014-4.858.011c-2.207-.002-4.412.015-6.618.036l-3.746.014c-2.971.14-2.971.14-4.89 1.752-1.624 2.404-1.504 4.323-1.535 7.206l-.06 3.457-.02 3.732-.054 3.82c-.045 3.35-.077 6.698-.104 10.047-.03 3.419-.076 6.837-.121 10.256-.085 6.705-.152 13.41-.209 20.115h-22l-.018-8.104q-.085-37.724-.218-75.447-.07-19.395-.11-38.792a16528 16528 0 0 0-.103-33.802q-.037-8.952-.049-17.906-.01-8.42-.056-16.84-.014-3.097-.011-6.193c.002-2.81-.015-5.62-.036-8.431l.014-2.497c.058-4.143.058-4.143-1.786-7.697-2.333-1.851-4.024-1.663-6.979-1.658l-3.365-.017-3.693.028-3.888-.007c-3.521-.005-7.041.009-10.562.026-3.682.015-7.364.014-11.046.015q-9.276.006-18.552.04c-7.94.03-15.88.04-23.82.044-6.822.004-13.644.017-20.467.03q-3.291.007-6.584.01c-4.087.006-8.174.021-12.26.037l-3.694.003-3.365.018-2.93.009c-2.565.032-2.565.032-5.422 1.131-1.487 3.998-1.153 8.28-1.158 12.491l-.015 2.622c-.016 2.903-.024 5.807-.032 8.71l-.03 6.238q-.04 8.475-.068 16.952-.035 8.854-.076 17.709-.074 16.77-.138 33.542-.076 19.092-.16 38.183-.17 39.277-.323 78.553h-8l-.011-2.061c-.042-7.073-.111-14.145-.197-21.218q-.042-3.96-.063-7.92c-.021-3.794-.068-7.586-.12-11.38l-.003-3.582-.06-3.336-.027-2.934c-.709-3.508-1.533-4.57-4.519-6.569-3.08-.615-6.116-.696-9.25-.75l-2.547-.09A460 460 0 0 0 73 433l-.018-3.283q-.086-15.295-.218-30.592c-.044-5.243-.084-10.485-.11-15.728a3137 3137 0 0 0-.117-15.173q-.025-2.897-.035-5.795c-.01-2.7-.037-5.401-.07-8.102l.005-2.433c-.047-4.147-.047-4.147-1.714-7.852-1.985-1.316-1.985-1.316-5.723-2.042v-21l5-2c2.29-1.854 2.29-1.854 2.198-4.741l-.07-3.538-.057-4.007-.041-2.152c-.064-3.774-.07-7.549-.085-11.324a856 856 0 0 0-.168-14.39c-.082-3.88-.105-7.758-.09-11.639q-.006-2.206-.08-4.408c-.203-6.374-.232-12.217 4.017-17.342 2.915-3.094 6.074-5.787 9.376-8.459q1.941-1.684 3.875-3.375l1.867-1.586c3.206-2.895 6.22-5.97 9.258-9.039 4.145-4.188 8.31-8.227 12.813-12.031 3.185-2.867 6.173-5.923 9.187-8.969 4.145-4.188 8.31-8.227 12.813-12.031 3.185-2.867 6.173-5.923 9.187-8.969 4.145-4.188 8.31-8.227 12.813-12.031 3.185-2.867 6.173-5.923 9.187-8.969 4.145-4.188 8.31-8.227 12.813-12.031 3.185-2.867 6.173-5.923 9.187-8.969 4.145-4.188 8.31-8.227 12.813-12.031 3.185-2.867 6.173-5.923 9.187-8.969 4.145-4.188 8.31-8.227 12.813-12.031 3.836-3.453 7.411-7.175 11.041-10.843 3.65-3.674 7.37-7.18 11.326-10.528 3.443-3.022 6.62-6.322 9.82-9.598"/><path fill="#C87422" d="M120 291h110v203H120z"/><path fill="#010100" d="m277.066 275.499 3.768-.03 4.127.03q2.175-.006 4.351-.017c3.939-.014 7.876-.003 11.814.014 4.122.013 8.244.007 12.365.003q10.385-.002 20.769.034c8.001.027 16.002.029 24.004.017q11.547-.014 23.094.01 4.913.007 9.827 0 5.787-.006 11.575.028 2.123.008 4.246 0c1.934-.005 3.867.009 5.801.024l3.278.008c3.354.437 5.238 1.333 7.915 3.38 1.01 3.032 1.135 5.09 1.154 8.262l.026 3.306.013 3.627.025 3.82c.026 4.18.041 8.36.055 12.54l.017 4.319q.033 8.98.051 17.963.023 12.87.107 25.738.056 9.051.063 18.102a1354 1354 0 0 0 .048 10.81c.036 4.02.032 8.04.024 12.06l.05 3.614-.025 3.323.01 2.879c-.89 3.796-2.56 5.284-5.618 7.637-2.931.626-2.931.626-6.231.628l-3.802.039-4.149-.036q-2.193.008-4.387.022c-3.964.018-7.929.005-11.894-.014-4.15-.017-8.3-.008-12.45-.003-6.968.005-13.936-.011-20.904-.04a3949 3949 0 0 0-24.17-.014c-7.75.016-15.502.01-23.253-.008q-4.948-.01-9.896.002-5.824.01-11.65-.032-2.137-.01-4.276 0c-1.944.009-3.89-.01-5.834-.03l-3.299-.008c-3.55-.64-4.72-1.585-6.805-4.506-.503-2.558-.503-2.558-.508-5.503l-.034-3.39.024-3.707-.02-3.913c-.019-3.54-.012-7.078 0-10.617.01-3.705.001-7.41-.005-11.114q-.01-9.33.022-18.662c.021-7.191.014-14.382-.008-21.574q-.026-9.263-.01-18.525c.006-3.688.007-7.375-.006-11.063-.014-4.111.005-8.221.027-12.332l-.024-3.706.034-3.39.005-2.946c1.181-6.004 4.98-7.058 10.569-7.06"/><path fill="#E74655" d="M256.344 21.836c3.997 1.752 6.508 4.642 9.469 7.789q1.88 1.943 3.765 3.879l1.807 1.864c1.814 1.833 3.702 3.536 5.678 5.194 4.306 3.64 8.199 7.675 12.16 11.68 2.844 2.864 5.696 5.647 8.777 8.258 4.324 3.665 8.24 7.715 12.223 11.742 2.843 2.864 5.696 5.647 8.777 8.258 4.324 3.665 8.24 7.715 12.223 11.742 2.843 2.864 5.696 5.647 8.777 8.258 4.324 3.665 8.24 7.715 12.223 11.742 2.843 2.864 5.696 5.647 8.777 8.258 4.324 3.665 8.24 7.715 12.223 11.742 2.843 2.864 5.696 5.647 8.777 8.258 4.324 3.665 8.24 7.715 12.223 11.742 2.843 2.864 5.696 5.647 8.777 8.258 4.324 3.665 8.24 7.715 12.223 11.742 2.843 2.864 5.696 5.647 8.777 8.258 4.324 3.665 8.24 7.715 12.223 11.742 2.843 2.864 5.696 5.647 8.777 8.258 4.324 3.665 8.24 7.715 12.223 11.742 2.843 2.864 5.696 5.647 8.777 8.258 4.315 3.657 8.229 7.694 12.194 11.72 3.665 3.702 7.433 7.165 11.513 10.413C491 244 491 244 491 247c-1.222 1.41-1.222 1.41-2.922 2.848l-1.86 1.584-1.968 1.63-1.922 1.643c-3.005 2.533-5.746 4.628-9.328 6.295a311 311 0 0 1-16.625-15.625c-3.328-3.366-6.628-6.695-10.25-9.75-4.107-3.477-7.842-7.305-11.625-11.125-4.323-4.365-8.647-8.606-13.348-12.566-3.832-3.443-7.397-7.16-11.02-10.821-2.962-2.981-5.92-5.899-9.132-8.613-4.56-3.852-8.672-8.148-12.867-12.387-2.962-2.981-5.92-5.899-9.133-8.613-4.56-3.852-8.672-8.148-12.867-12.387-2.962-2.981-5.92-5.899-9.133-8.613-4.56-3.852-8.672-8.148-12.867-12.387-2.962-2.981-5.92-5.899-9.133-8.613-4.56-3.852-8.672-8.148-12.867-12.387-2.962-2.981-5.92-5.899-9.133-8.613-4.56-3.852-8.672-8.148-12.867-12.387-2.962-2.981-5.92-5.899-9.133-8.613-3.887-3.284-7.423-6.886-11-10.5-4.318-4.359-8.63-8.656-13.336-12.602a71 71 0 0 1-3.266-2.921c-2.343-2.176-4.163-3.416-7.273-4.227-4.921 1.181-7.547 4.282-11.125 7.75a1032 1032 0 0 1-3.46 3.195 598 598 0 0 0-20.142 19.438 111 111 0 0 1-6.21 5.68c-3.942 3.356-7.55 7.01-11.188 10.687-4.145 4.188-8.31 8.227-12.812 12.031-3.186 2.867-6.174 5.923-9.188 8.969-4.145 4.188-8.31 8.227-12.812 12.031-3.186 2.867-6.174 5.923-9.188 8.969-4.145 4.188-8.31 8.227-12.812 12.031-3.186 2.867-6.174 5.923-9.188 8.969-4.145 4.188-8.31 8.227-12.812 12.031-3.186 2.867-6.174 5.923-9.188 8.969-4.145 4.188-8.31 8.227-12.812 12.031-3.186 2.867-6.174 5.923-9.188 8.969-7.281 7.357-7.281 7.357-10.937 10.438-4.09 3.452-7.8 7.263-11.563 11.062-4.317 4.36-8.629 8.602-13.332 12.547-3.924 3.535-7.576 7.36-11.246 11.156l-1.75 1.785-1.56 1.61c-1.756 1.528-3.497 2.45-5.612 3.402a3177 3177 0 0 1-6.187-5.187l-1.752-1.463A136 136 0 0 1 20 245c3.425-3.521 6.879-6.945 10.625-10.125 3.814-3.28 7.34-6.8 10.875-10.375 3.988-4.033 8.015-7.894 12.344-11.562 3.002-2.698 5.819-5.568 8.656-8.438 3.988-4.033 8.015-7.894 12.344-11.562 3.002-2.698 5.819-5.568 8.656-8.438 3.988-4.033 8.015-7.894 12.344-11.562 3.002-2.698 5.819-5.568 8.656-8.438 3.988-4.033 8.015-7.894 12.344-11.562 3.002-2.698 5.819-5.568 8.656-8.438 3.988-4.033 8.015-7.894 12.344-11.562 3.002-2.698 5.819-5.568 8.656-8.438 3.988-4.033 8.015-7.894 12.344-11.562 3.002-2.698 5.819-5.568 8.656-8.438 3.988-4.033 8.015-7.894 12.344-11.562 3.002-2.698 5.819-5.568 8.656-8.438 3.988-4.033 8.015-7.894 12.344-11.562 3.002-2.698 5.819-5.568 8.656-8.438 3.988-4.033 8.015-7.894 12.344-11.562 3.605-3.24 6.963-6.726 10.37-10.171 3.5-3.525 7.073-6.874 10.884-10.064 3.132-2.804 5.916-5.955 8.726-9.078C254 22 254 22 256.344 21.835"/><path fill="#83BF0C" d="M282 448h215v46H282z"/><path fill="#9ED6EF" d="M282 329h128v73H282z"/><path fill="#9DB0B6" d="M361 62h80l1 24 1 3 6 2v20l-6 3c-1.333 2.667-1.162 4.749-1.205 7.735l-.06 3.64-.051 3.945-.063 4.027q-.082 5.303-.153 10.604-.077 5.409-.161 10.819-.162 10.614-.307 21.23a1001472626.012 1001472626.012 0 0 0-5.173-4.398c-2.72-2.386-5.24-4.95-7.764-7.54-3.243-3.286-6.476-6.512-10-9.5-3.723-3.162-7.132-6.592-10.563-10.062-3.41-3.45-6.796-6.861-10.5-10-4.323-3.663-8.238-7.712-12.218-11.738-2.886-2.906-5.787-5.729-8.907-8.387-5.2-4.529-10-9.5-14.875-14.375z"/><path fill="#020203" d="M254.047 143.742c12.215-.624 21.688 3.06 30.953 11.008 8.399 8.226 13.126 17.155 13.431 29.012.034 13.265-3.012 23.45-12.431 33.238-2.546 2.211-5.188 4.143-8 6l-2.375 1.688c-10.388 5.194-21.72 6.076-32.875 2.75-11.495-4.363-20.642-12.242-25.926-23.383L216 202l-1.086-2.656c-1.177-4.306-1.244-8.277-1.226-12.719l-.05-2.46c-.008-10.522 4.565-19.863 11.589-27.626 8.575-8.194 17.122-11.807 28.82-12.797"/><path fill="#83BE0C" d="M15 448h66v46H15z"/><path fill="#C77322" d="M282 291h128v23H282z"/><path fill="#40363F" d="M267.438 161.25c7.592 4.354 12.747 9.304 15.562 17.75.716 8.37.253 15.627-4 23-2.437 2.875-2.437 2.875-5 5l-2.25 2.125c-6.46 4.405-14.007 6.142-21.75 4.875-9.406-3.332-15.457-9.211-20-18-2.2-6.573-2.295-15.242.75-21.5A76 76 0 0 1 233 171l1.625-2.625c8.813-8.813 21.202-12.808 32.813-7.125"/><path fill="#040200" d="m204.063 383.438 3.298-.034c7.975.074 7.975.074 10.95 2.413C220 388 220 388 220.5 391.5c-.586 4.103-1.291 4.997-4.5 7.5-2.686.518-2.686.518-5.719.531l-3.324.016-3.457-.047-3.457.047-3.324-.016-3.033-.013c-3.395-.655-4.583-1.822-6.686-4.518-.736-3.842-.402-5.401 1.781-8.656 4.878-3.552 9.403-3.036 15.281-2.906"/></svg>