<svg xmlns="http://www.w3.org/2000/svg" width="512" height="512"><path fill="#F4C99D" d="M287.357 52.647c6.036 3.09 11.774 6.73 17.546 10.284 13.539 8.314 27.93 13.908 42.784 19.393 2.511.93 5.016 1.873 7.522 2.817 12.552 4.679 23.492 7.209 36.979 6.984l3.173-.027q3.82-.035 7.639-.098l.562-1.865.77-2.451c.37-1.202.37-1.202.75-2.428 1.484-3.645 3.627-5.207 6.918-7.256 5.708-1.688 11.179-2.439 17.102-2.852l2.545-.193q2.644-.198 5.29-.388c2.688-.192 5.375-.394 8.063-.598l5.164-.383 2.415-.18c4.151-.295 8.256-.468 12.421-.406 1.254 2.508 1.291 4.489 1.5 7.292l.259 3.402.272 3.751.296 3.938q.402 5.358.794 10.718.414 5.616.832 11.231.702 9.447 1.395 18.893.8 10.89 1.614 21.778.783 10.492 1.555 20.987.33 4.453.662 8.907.464 6.246.919 12.493l.278 3.696c.504 6.986.74 13.91.624 20.914-10.81 1.411-21.66 2.384-32.532 3.156q-2.145.156-4.288.33c-2.042.163-4.085.304-6.13.44l-3.603.263c-5.441-.298-9.244-2.143-13.322-5.689C414 217 414 217 413 214c-25.057 2.868-44.687 8.465-67.008 20.293-6.781 3.591-13.617 6.998-20.617 10.144l-2.474 1.125C317.39 248 317.39 248 314 248l.977 2.129c1.742 4.887 1.585 9.753 1.023 14.871-2.16 4.479-4.93 7.182-9 10-4.841 1.614-10.186 1.977-15.07.281-3.873-2.079-6.666-4.537-8.93-8.281a162 162 0 0 1-1-7l-2.516.7c-13.662 3.615-27.553 5.969-41.484 8.3l-3.719.637c-4.416.489-8.78.508-13.218.488l-2.592.012c-3.995-.006-7.745-.143-11.678-.86-4.662-.34-6.579.774-10.543 3.16-6.462 3.585-11.9 4.93-19.25 3.563-6.053-2.014-9.854-6.524-13.121-11.816-1.129-2.805-1.144-5.104-1.129-8.122l-.016-3.09c.27-3.025.994-5.23 2.266-7.972l-3.437 1.937c-6.13 3.022-11.634 3.88-18.25 1.938-5.342-2.06-8.88-4.75-12.125-9.563-2.811-7.84-2.674-13.782.812-21.312l-1.61.84-2.14 1.097-2.11 1.09c-5.43 2.468-11.034 3.027-16.706 1.102-5.972-2.714-9.172-5.447-12.434-11.129-1.978-5.934-2.008-12.639.625-18.375 3.204-6.217 9.843-9.688 15.75-12.938l1.941-1.087q2.338-1.307 4.684-2.6l-1.977-.516c-8.247-2.286-13.608-4.799-18.023-12.484-1.827-5.481-2.113-11.863-.164-17.355 5.232-9.077 15.668-13.898 24.414-18.958l3.258-1.916c1.034-.6 2.067-1.202 3.133-1.822l2.829-1.646c4.991-2.57 9.993-2.959 15.53-2.303 5.359 1.76 9.356 4.672 13 9v2q5.949-1.01 11.896-2.026l4.035-.687c9.193-1.549 9.193-1.549 18.319-3.443 3.098-.697 5.603-1.047 8.75-.844v-2l-2.75.25c-9.74-.06-18.383-4.622-25.25-11.25-4.29-4.361-5.912-8.51-6.172-14.645.293-4.01 1.283-5.53 4.172-8.355 8.092-4.68 16.747-7.947 25.523-11.082q1.913-.694 3.827-1.39 5-1.814 10.005-3.614a5909 5909 0 0 0 15.852-5.729l3.875-1.405c9.464-3.43 18.82-7.071 28.056-11.078 9.188-3.91 16.152-4.241 25.219-.055"/><path fill="#ECC187" d="M465 73c1.254 2.508 1.291 4.489 1.5 7.292l.259 3.402.272 3.751.296 3.938q.402 5.358.794 10.718.414 5.616.832 11.231.702 9.447 1.395 18.893.8 10.89 1.614 21.778.783 10.492 1.555 20.987.33 4.453.662 8.907.464 6.246.919 12.493l.278 3.696c.504 6.986.74 13.91.624 20.914-10.81 1.411-21.66 2.384-32.532 3.156q-2.145.156-4.288.33c-2.042.163-4.085.304-6.13.44l-3.603.263c-5.441-.298-9.244-2.143-13.322-5.689C414 217 414 217 413 214c-25.057 2.868-44.687 8.465-67.008 20.293-6.781 3.591-13.617 6.998-20.617 10.144l-2.474 1.125C317.39 248 317.39 248 314 248l.977 2.129c1.742 4.887 1.585 9.753 1.023 14.871-2.16 4.479-4.93 7.182-9 10-4.841 1.614-10.186 1.977-15.07.281-4.538-2.436-7.64-5.702-9.93-10.281a85 85 0 0 1-.187-5.312l-.043-2.864c.242-2.968.99-5.133 2.23-7.824l-2.875 1.5c-4.65 1.972-9.147 2.263-14.125 1.5-3.24-1.735-5.423-3.423-8-6-2.61.13-2.61.13-5.562.75l-3.258.602c-3.4.693-6.78 1.438-10.145 2.28-2.375.43-4.627.427-7.035.368l-.078-2.527c-.52-10.304-2.289-17.522-9.848-24.77C222 221 222 221 222.234 218.602a236 236 0 0 1 2.328-7.477c2.37-7.917 1.64-14.554-1.562-22.125-2.304-3.693-4.926-6.926-8-10 .305-2.743 1.032-5.085 1.988-7.672 1.146-3.77 1.645-7.42 1.95-11.328.08-.686.16-1.372.244-2.078.308-3.993-.081-6.29-2.616-9.297L214 146c-1.877-3.754-1.52-7.912-1-12 1.922-5.068 5.072-8.99 9.984-11.371 4.85-1.513 9.534-1.591 14.293.254 4.727 2.658 8.062 5.883 9.723 11.117.872 5.746.159 10.036-3 15a465 465 0 0 1-4 5l2.484.918 3.266 1.27 3.234 1.23c4.479 2.35 7.176 5.894 9.016 10.582.786 5.614.242 10.245-3 15-1.915 1.841-3.873 3.393-6 5l1.977.297c7.005 1.198 11.459 2.937 16.398 8.266 2.3 4.865 2.42 9.144 1.625 14.437-1.077 2.692-2.304 4.615-4 7 2.833.044 2.833.044 4.98-.176 6.276-.389 10.257 1.06 15.02 5.176 2.979 3.666 4.202 6.414 5 11q7.538-3.358 15.063-6.75l2.27-1.023c9.6-4.335 19.016-8.853 28.292-13.852 12.74-6.795 24.853-10.687 39.145-12.77 7.055-1.143 10.799-3.282 15.105-9.167 2.956-9.032.927-19.735.199-29.088q-.257-3.327-.504-6.655c-.411-5.506-.831-11.01-1.252-16.516q-.536-7.005-1.057-14.012-.244-3.241-.499-6.482A279 279 0 0 1 386 93l17-1 1.125-4.187c1.613-4.772 3.514-7.098 7.875-9.813 5.708-1.688 11.179-2.439 17.102-2.852l2.545-.193q2.644-.198 5.29-.388c2.688-.192 5.375-.394 8.063-.598l5.164-.383 2.415-.18c4.151-.295 8.256-.468 12.421-.406"/><path fill="#F0C588" d="M157 123c3 2.625 3 2.625 5 5v2l2.36-.473c12.53-2.18 28.463-3.893 39.738 3.102L206 134l3.313 2.188c3.077 3.22 4.701 6.373 6.511 10.41 1.062 2.441 1.062 2.441 2.828 4.257 2.008 3.195 1.516 5.683 1.223 9.395l-.158 2.027c-.469 5.066-1.786 9.07-3.717 13.723.387 3.303 1.609 4.95 3.875 7.313 4.954 5.548 6.797 11.506 7.375 18.875-.27 4.104-1.211 7.497-2.496 11.382L224 216l-.8 2.566c-.46 2.49-.46 2.49 1.128 4.391l1.922 1.856c6.61 7.098 7.084 13.046 6.855 22.625L233 250l2.048-.475c3.065-.705 6.133-1.396 9.202-2.088l3.223-.748 3.105-.693c.943-.215 1.885-.43 2.857-.65 4.097-.552 5.913.158 9.19 2.654l2.375 2c4.675 2.338 11.227 1.412 16.125 0l2.875-1-2 11c-14.466 4.02-29.204 6.524-44 9l-3.719.637c-4.416.489-8.78.508-13.219.488l-2.591.012c-3.995-.006-7.745-.143-11.678-.86-4.662-.34-6.579.774-10.543 3.16-6.462 3.585-11.9 4.93-19.25 3.563-6.053-2.014-9.854-6.524-13.121-11.816-1.129-2.805-1.144-5.104-1.129-8.122l-.016-3.09c.27-3.025.994-5.23 2.266-7.972l-3.437 1.938c-6.13 3.02-11.634 3.88-18.25 1.937-5.342-2.06-8.88-4.75-12.125-9.562-2.811-7.84-2.674-13.783.812-21.313l-1.61.84-2.14 1.097-2.11 1.09c-5.43 2.468-11.034 3.027-16.706 1.102-5.972-2.714-9.172-5.447-12.434-11.129-1.978-5.934-2.008-12.639.625-18.375 3.204-6.217 9.843-9.688 15.75-12.937A916.987 916.987 0 0 1 120 176l-1.977-.517c-8.247-2.286-13.608-4.799-18.023-12.484-1.827-5.481-2.113-11.863-.164-17.355 5.232-9.077 15.668-13.898 24.414-18.958l3.258-1.916c1.034-.6 2.067-1.202 3.133-1.822l2.829-1.646c7.934-4.087 16.231-3.238 23.53 1.697"/><path fill="#EDC287" d="M287.357 52.647c6.036 3.09 11.774 6.73 17.546 10.284 13.126 8.06 27.098 13.558 41.472 18.944l4 1.508Q355.186 85.196 360 87c-.553 4.698-1.478 8.814-3.145 13.238l-1.302 3.487-1.365 3.587-1.33 3.553C345.113 131.471 345.113 131.471 341 137l-1.687 2.5c-7.114 7.69-18.094 12.75-28.54 13.703-13.917.272-24.413-5.542-34.39-14.84-6.949-6.683-12.49-14.274-17.742-22.332-2.347-2.906-4.337-3.805-7.98-4.437-5.67-.205-9.53.57-14.598 3.156-13.9 6.992-29.261 8.927-44.188 4.625-7.682-2.76-14.51-7.48-18.996-14.422-2.295-5.099-2.601-9.976-.691-15.203 7.425-7.26 18.73-10.4 28.335-13.832q1.913-.694 3.827-1.39 5-1.814 10.005-3.614a5909 5909 0 0 0 15.852-5.729l3.875-1.405c9.464-3.43 18.82-7.071 28.056-11.078 9.188-3.91 16.152-4.241 25.219-.055"/><path fill="#C16100" d="M113.313 272.125c5.092 3.553 8.505 7.73 9.687 13.875-.141 3.365-.513 6.668-1 10l1.813-1.437c4.417-3.156 8.964-3.039 14.187-2.563 5.36 1.787 9.193 5.127 12 10 1.029 3.64 1.606 7.242 2 11l1.469-.875c5.181-2.87 8.614-3.782 14.531-3.125 6.778 2.068 9.931 5.257 13.313 11.375.95 3.63.814 6.877.687 10.625l2.813-1.937c5.083-3.29 9.289-3.61 15.187-3.063 4.948 1.713 8.304 4.527 11 9 1.205 2.95 2.16 5.927 3 9l2.813-2c4.903-2.77 9.7-2.913 15.187-2 4.147 1.661 7.07 3.853 9.875 7.313 1.47 3.513 2.305 6.966 3.125 10.687l2.813-1.937c4.66-3.016 8.715-3.765 14.187-3.063 5.217 1.736 9.157 4.19 12 9 .862 2.662 1.44 5.249 2 8l1.563-2.75c2.455-3.599 5.286-5.88 9.437-7.25 6.88-1.099 11.823-.279 17.54 3.71C306 365 306 365 307 367l.48-2.012c1.872-7.083 4.04-10.694 10.27-14.8 5.005-1.83 9.56-2.218 14.605-.286 1.922.956 3.79 2.019 5.645 3.098l-1-2c-1.838-5.515-1.714-10.028.688-15.25 2.486-4.487 5.406-7.115 10.312-8.75 6.229-.508 11.72-.734 17 3 4.872 5.278 6.473 9.367 6.316 16.465-.646 5.182-3.075 8.413-6.941 11.91-3.811 2.608-6.062 2.812-10.687 2.875l-3.426.078c-3.54-.356-5.395-1.284-8.262-3.328l.484 1.727c1.122 4.944 1.057 9.651-.546 14.46-2.757 4.002-6.21 7.93-10.954 9.465-6.095 1.068-10.528.23-15.984-2.652a115 115 0 0 1-4-4c-.988 3.185-1.964 6.373-2.937 9.563l-.842 2.712-.81 2.666-.747 2.428c-1.973 7.813-1.119 13.002 1.117 20.604l.886 3.155c.931 3.315 1.88 6.625 2.833 9.935a2281 2281 0 0 1 3.719 13.097l.887 3.021c2.57 9.15 2.57 9.15.894 13.819-1.514 2.344-1.514 2.344-4 4-2.933.565-5.802.537-8.781.496l-2.578.005q-2.692-.004-5.386-.034c-2.746-.03-5.49-.021-8.235-.008q-2.62-.01-5.239-.025l-2.484.008c-3.163-.052-5.845-.255-8.783-1.47-2.39-3.114-2.656-6.171-2.514-9.972.655-3.787 1.696-7.422 2.781-11.105l.886-3.159c.93-3.312 1.88-6.618 2.833-9.923.952-3.317 1.9-6.635 2.833-9.956q.87-3.094 1.773-6.177l.798-2.833.716-2.477c.676-4.218-.752-8.018-2.03-12.015l-.81-2.548-.842-2.62-.854-2.677q-1.038-3.255-2.084-6.51l-2.332 2.883c-3.085 3.814-6.048 5.766-11.027 6.433-6.115.288-9.722-.676-14.641-4.316-4.107-3.992-5.455-8.626-7-14l-2.437 1.938c-4.559 3.003-9.362 3.616-14.708 2.69-5.39-1.659-9.033-4.754-11.855-9.628-.983-2.973-1.592-5.898-2-9l-2.312 1.938C201.07 361.48 196.62 361.646 191 361c-5.854-1.797-9.086-4.522-12-10-1.005-3.015-1.103-5.042-1.062-8.187l.027-2.731L178 338l-2.812 2.438c-3.993 3.46-7.63 3.924-12.778 3.832-4.894-.548-8.66-2.345-11.984-6-3.38-4.851-4.277-9.425-4.426-15.27l-3.437 2c-5.728 2.848-10.718 2.948-16.75.938-4.47-3.079-8.08-6.74-9.813-11.938a119 119 0 0 1-.062-5.687l.027-3.012L116 303l-3.062 1.5c-5.165 2.182-9.223 2.062-14.563.313C93.53 302.21 90.092 299.125 88 294c-.766-5.817-.799-11.539 2.617-16.496 6.367-6.924 13.873-8.375 22.695-5.379M150 314l1 2Z"/><path fill="#46A275" d="M465 73c1.254 2.508 1.291 4.489 1.5 7.292l.259 3.402.272 3.751.296 3.938q.402 5.358.794 10.718.414 5.616.832 11.231.702 9.447 1.395 18.893.8 10.89 1.614 21.778.783 10.492 1.555 20.987.33 4.453.662 8.907.464 6.246.919 12.493l.278 3.696c.504 6.986.74 13.91.624 20.914-10.81 1.411-21.66 2.384-32.532 3.156q-2.145.156-4.288.33c-2.042.163-4.085.304-6.13.44l-3.603.263c-5.366-.294-9.186-2.124-13.26-5.564-4.478-5.374-4.618-10.726-5.003-17.457l-.186-2.88c-.195-3.033-.378-6.067-.56-9.1q-.283-4.535-.571-9.068-.18-2.816-.348-5.633c-.322-5.2-.847-10.321-1.519-15.487-.116-1.55-.214-3.103-.281-4.656l-.114-2.41-.21-4.868c-.176-3.734-.404-7.421-.899-11.129-.524-4.155-.759-8.256-.933-12.437-.242-5.621-.609-11.197-1.211-16.793-.11-1.062-.218-2.124-.33-3.219a325 325 0 0 0-.713-6.215c-.662-6.484-.12-10.877 3.691-16.273 5.737-6.056 14.215-6.302 22.102-6.852l2.545-.193q2.644-.198 5.29-.388c2.688-.192 5.375-.394 8.063-.598l7.58-.563c4.15-.295 8.255-.468 12.42-.406"/><path fill="#C16100" d="M120.25 69.5c4.409 2.434 6.528 6.1 8.75 10.5l1.625-2.187c3.769-4.463 7.522-8.334 13.574-9.086 6.558-.268 10.879.816 15.801 5.273 4.11 4.47 4.682 9.346 4.453 15.277-.92 5.525-3.601 9.323-8.016 12.66-5.058 2.205-10.126 3.202-15.527 1.344-5.486-2.534-8.666-5.483-11.16-11.094L129 90l-.664 1.61c-2.27 5.056-4.29 7.705-9.336 10.39-5.635 1.878-10.182 1.671-15.437-.937-3.304-1.804-3.304-1.804-4.563-3.063l-.227 1.941C97.791 106.403 96.21 110.851 91 115c-5.22 3.02-10.078 3.317-16 3l1.938 2.25c3.37 4.493 3.44 8.164 3.062 13.75-1.821 6.106-4.862 9.481-10 13-2.937 1.375-2.937 1.375-5 2l2.313 1.625c3.834 3.389 5.428 6.076 6.007 11.219.23 6.206.077 10.402-4.32 15.156-2.817 2.535-5.538 4.461-9 6l2.75 1.625c4.266 2.834 6.638 6.538 8.25 11.375.422 5.486-.395 9.15-3 14-2.687 2.938-2.687 2.938-5 5l1.758.629c5.89 2.323 9.764 5.018 13.242 10.371 1.597 4.79 1.913 9.583.105 14.367-.964 1.915-2.027 3.78-3.105 5.633l2.195.297c5.77.892 10.391 1.612 14.805 5.703 3.834 5.3 4.96 10.554 4 17-1.814 5.442-5.383 8.778-10 12-5.152 1.717-9.506 1.438-14.625-.062-4.434-2.546-8.386-5.916-10.023-10.918-1.089-6.253-.713-10.59 2.648-16.02l2-2c-.808-.11-1.616-.22-2.45-.332l-3.237-.48-3.2-.458c-4.814-1.13-7.4-2.78-10.363-6.73-2.7-4.627-3.43-8.709-2.75-14 1.775-5.335 4.264-8.843 9-12l-1.793-.516c-6.097-1.87-10.286-3.701-14.02-9.109-1.99-5.658-1.988-10.926-.124-16.625 3.32-4.713 7.121-8.664 12.937-9.75l-1.645-1.137c-5.356-3.831-8.552-6.59-10.167-13.175-.302-5.925.682-9.96 3.937-14.938 3.345-3.2 6.646-4.966 10.875-6.75l-2.312-2.125c-3.916-4.188-5.841-7.634-6.063-13.375.21-5.021 1.412-8.523 5.027-12.164 4.455-3.974 7.457-5.477 13.535-5.398l2.731.027L68 113l-1.937-2.375C63.256 106.385 62.817 102.007 63 97c1.64-6.151 4.98-9.395 10-13 3.944-1.972 8.702-1.455 13-1 2.707 1.062 4.608 2.3 7 4l.375-2.16c1.444-6.706 3.292-10.327 8.688-14.598 5.465-3.504 12.355-3.254 18.187-.742"/><path fill="#F5E4AD" d="M155.14 121.66c4.374 3.151 7.951 6.917 8.86 12.34.166 1.933.265 3.873.313 5.813l.113 3.019c-.562 4.18-2.171 6.623-4.426 10.168l1.721-1.102c20.119-12.689 20.119-12.689 29.611-11.62 5.97 1.617 9.915 4.301 13.668 9.222 3.075 5.493 2.818 11.406 2 17.5-2.134 7.396-9.46 11.672-15.84 15.246q-2.045 1.102-4.097 2.191c-15.317 8.324-30.132 17.533-45 26.625l-2.2 1.345c-3.02 1.848-6.037 3.7-9.047 5.566l-2.691 1.652-2.18 1.352c-4.352 2.29-9.108 2.742-13.945 2.023-7.078-2.402-11.292-5.54-15-12-1.978-5.934-2.008-12.639.625-18.375 3.204-6.217 9.843-9.688 15.75-12.937A916.988 916.988 0 0 1 120 176l-1.977-.517c-8.247-2.286-13.608-4.799-18.023-12.484-1.827-5.481-2.113-11.863-.164-17.355 5.232-9.077 15.668-13.898 24.414-18.958l3.258-1.916c1.034-.6 2.067-1.202 3.133-1.822l2.829-1.646c7.01-3.611 14.805-3.502 21.67.357"/><path fill="#845300" d="M362.438 328.188c4.034 2.853 6.632 6.291 8.562 10.812.978 6.792.064 11.508-4 17-4.596 4.158-7.16 5.166-13.312 5.25l-3.426.078c-3.54-.356-5.395-1.284-8.262-3.328l.484 1.727c1.122 4.944 1.057 9.651-.546 14.46-2.757 4.002-6.21 7.93-10.954 9.465-6.095 1.068-10.528.23-15.984-2.652a115 115 0 0 1-4-4c-.988 3.185-1.964 6.373-2.937 9.563l-.842 2.712-.81 2.666-.747 2.428c-1.973 7.813-1.119 13.002 1.117 20.604l.886 3.155c.931 3.315 1.88 6.625 2.833 9.935a2281 2281 0 0 1 3.719 13.097l.887 3.021c2.57 9.15 2.57 9.15.894 13.819-1.514 2.344-1.514 2.344-4 4-2.933.565-5.802.537-8.781.496l-2.578.005q-2.692-.004-5.386-.034c-2.746-.03-5.49-.021-8.235-.008q-2.62-.01-5.239-.025l-2.484.008c-3.163-.052-5.845-.255-8.783-1.47-2.39-3.114-2.656-6.171-2.514-9.972.655-3.787 1.696-7.422 2.781-11.105l.886-3.159c.93-3.312 1.88-6.618 2.833-9.923.952-3.317 1.9-6.635 2.833-9.956q.87-3.094 1.773-6.177l.798-2.833.716-2.477c.639-3.984-.598-7.521-1.811-11.296l-.674-2.166q-.693-2.206-1.406-4.406c-1.754-5.699-2.748-11.017-1.03-16.893 2.77-5.212 5.494-8.673 11.301-10.609 6.908-.781 11.787-.304 17.54 3.71C306 365 306 365 307 367l.48-2.012c1.872-7.083 4.04-10.694 10.27-14.8 5.005-1.83 9.56-2.218 14.605-.286 1.922.956 3.79 2.019 5.645 3.098l-1-2c-1.838-5.515-1.714-10.028.688-15.25 5.19-9.37 15.13-10.886 24.75-7.562"/><path fill="#F3C89B" d="M237.277 122.883c4.727 2.658 8.062 5.883 9.723 11.117.872 5.746.159 10.036-3 15a465 465 0 0 1-4 5l2.484.918 3.266 1.27 3.234 1.23c4.479 2.35 7.176 5.894 9.016 10.582.786 5.614.242 10.245-3 15-1.915 1.841-3.873 3.393-6 5l1.977.297c7.005 1.198 11.459 2.937 16.398 8.266 2.3 4.865 2.42 9.144 1.625 14.437-1.077 2.692-2.304 4.615-4 7 2.833.044 2.833.044 4.98-.176 6.316-.391 10.2 1.096 15.02 5.176 3.704 3.796 4.297 6.857 4.5 12-.184 5.118-.93 8.14-4.5 12-5.03 4.539-8.886 5.341-15.488 5.293-4.586-.535-7.36-3.142-10.512-6.293-2.61.13-2.61.13-5.562.75l-3.258.602c-3.4.693-6.78 1.438-10.145 2.28-2.375.43-4.627.427-7.035.368l-.078-2.527c-.52-10.304-2.289-17.522-9.848-24.77C222 221 222 221 222.234 218.602a236 236 0 0 1 2.328-7.477c2.37-7.917 1.64-14.554-1.562-22.125-2.304-3.693-4.926-6.926-8-10 .305-2.743 1.032-5.085 1.988-7.672 1.146-3.77 1.645-7.42 1.95-11.328l.244-2.078c.308-3.993-.081-6.29-2.616-9.297L214 146c-1.877-3.754-1.52-7.912-1-12 1.922-5.068 5.072-8.99 9.984-11.371 4.85-1.513 9.534-1.591 14.293.254"/><path fill="#F4D38A" d="M203.438 184.188c5.046 3.569 9.532 7.683 11.07 13.847 1.036 6.43-.015 11.289-3.674 16.684-4.089 5.07-8.643 7.785-14.397 10.719q-2.687 1.423-5.37 2.855l-2.629 1.392c-7.25 3.91-14.16 8.362-20.875 13.127-6.312 4.455-11.69 7.396-19.563 7.188-6.164-1.14-10.642-3.538-15-8-3.843-5.698-4.406-11.779-3.762-18.48 2.096-8.087 8.702-11.457 15.438-15.454q2.66-1.536 5.324-3.066l6.48-3.785a1613 1613 0 0 1 16.391-9.41 270 270 0 0 0 6.367-3.793l3.157-1.926 2.803-1.749c5.963-2.846 12.134-2.259 18.24-.15"/><path fill="#F5F0D0" d="M155.14 121.66c4.373 3.15 7.953 6.918 8.86 12.34.465 5.468.77 10.335-1.562 15.375-6.622 7.131-14.21 11.63-22.625 16.375l-3.561 2.035c-14.976 8.536-14.976 8.536-22.717 6.598-6.54-2.223-10.177-5.349-13.535-11.383-1.827-5.481-2.113-11.863-.164-17.355 5.232-9.077 15.668-13.898 24.414-18.958l3.258-1.916c1.034-.6 2.067-1.202 3.133-1.822l2.829-1.646c7.01-3.611 14.805-3.502 21.67.357"/><path fill="#B06100" d="M362.438 328.188c4.034 2.853 6.632 6.291 8.562 10.812.978 6.792.064 11.508-4 17-4.596 4.158-7.16 5.166-13.312 5.25l-3.426.078c-3.54-.356-5.395-1.284-8.262-3.328l.484 1.727c1.122 4.944 1.057 9.651-.546 14.46-2.757 4.002-6.21 7.93-10.954 9.465-6.063 1.063-10.619.372-15.984-2.652-4.937-4.593-6.754-8.043-7.312-14.75.079-4.731 1.542-8.43 4.312-12.25 5.081-4.044 9.215-5.332 15.57-5.3 4.03.498 6.944 2.272 10.43 4.3l-1-2c-1.838-5.515-1.714-10.028.688-15.25 5.19-9.37 15.13-10.886 24.75-7.562M266.25 354.688c4.395 2.498 6.923 4.844 8.57 9.761 1.46 6.015 1.376 10.173-1.543 15.676-2.622 3.85-6.07 6.059-10.277 7.875-6.792.978-11.508.064-17-4-4.487-4.123-5.544-9.095-6-15 .996-5.182 3.381-10.115 7.758-13.266 6.333-3.526 11.853-4.059 18.492-1.046"/><path fill="#B06100" d="M359.07 291.719c4.538 2.436 7.64 5.702 9.93 10.281.752 6.979.704 12.691-3.594 18.445-3.99 4.412-8.156 5.207-13.91 5.618-5.2-.13-8.512-2.188-12.308-5.563-3.767-4.305-5.238-7.797-5.188-13.5.983-6.257 3.344-10.008 8.281-13.906 4.788-3.047 11.496-3.213 16.79-1.375M335.5 267.688c7.263 6.718 7.263 6.718 7.738 11.921.25 10.54.25 10.54-4.238 15.391-5.484 4.831-8.805 5.35-16.016 5.281-5.223-.492-7.758-2.987-11.234-6.656-3.227-4.841-4.262-8.777-3.281-14.605 1.335-5.076 3.46-8.15 7.531-11.457 6.095-3.041 13.482-2.777 19.5.125"/><path fill="#B06200" d="M306.125 242.766c4.55 2.471 8.224 5.28 9.875 10.234.49 5.565.768 10.407-1.687 15.5-3.733 4.035-6.898 7.136-12.547 7.738-6.232.184-9.723-.507-14.766-4.238-4.614-5.1-5.415-8.34-5.344-15.105.699-5.882 3.798-9.423 7.969-13.395 5.31-2.36 10.963-2.73 16.5-.734"/><path fill="#C16302" d="M237.277 122.883c4.727 2.658 8.062 5.883 9.723 11.117.866 5.705.222 10.11-3 15-4.294 5.106-7.917 6.725-14.5 7.313-5.787-.517-9.056-2.582-12.812-6.875-3.526-4.303-4.1-7.222-4.028-12.766.647-5.088 3.111-8.67 6.88-12.055 5.328-3.611 11.773-4.046 17.737-1.734"/><path fill="#B16302" d="M279.21 218.918c4.476 2.57 7.692 5.274 9.79 10.082.743 5.63.802 10.337-1.687 15.5-3.747 4.05-6.914 7.143-12.583 7.738-5.811.17-9.19-.238-13.73-4.238-4.708-5.217-5.421-9.344-5.34-16.207.62-5.09 3.078-7.907 6.914-11.106 5.154-3.46 10.866-4.165 16.637-1.769"/><path fill="#B06302" d="M263.234 192.531c3.533 2.939 5.47 5.424 6.141 10.051.225 5.148-.017 9.587-2.988 13.914-3.868 4.194-8.131 6.761-13.887 7.129-5.982-.352-10.478-3.408-14.437-7.75-2.816-4.969-2.635-10.33-2.063-15.875 2.365-4.819 5.757-8.658 10.813-10.75 6.788-.776 10.764-.728 16.421 3.281"/><path fill="#C16302" d="M249.25 157.5c4.39 2.502 6.957 5.794 8.75 10.5.992 5.638.262 10.215-3 15-5.67 5.58-9.81 6.529-17.652 6.477-5.304-.755-8.177-3.286-11.348-7.477-2.239-4.385-2.875-9.134-2-14 2.066-5.072 5.081-8.96 10.05-11.375 5.246-1.682 10.156-1.253 15.2.875"/></svg>