<?xml version="1.0" encoding="UTF-8"?>
<svg id="Layer_1" data-name="Layer 1" xmlns="http://www.w3.org/2000/svg" viewBox="0 0 634 256.47">
  <defs>
    <style>
      .cls-1 {
        fill: #177c52;
      }
    </style>
  </defs>
  <path class="cls-1" d="M286.73,44.6l3.19,1.59q.01,2.32.03,4.7c.09,14.58.21,29.16.35,43.74.07,7.5.13,14.99.18,22.49.04,7.23.11,14.46.19,21.69.03,2.76.04,5.53.05,8.29.02,3.86.06,7.72.11,11.58q0,1.73,0,3.49.01,3.51.7,8.28c5.96,3.97,8.88,3.52,16,3.4,1.13-.02,2.27-.03,3.44-.05,3.75-.05,7.5-.13,11.25-.21,2.6-.04,5.2-.08,7.8-.12,6.84-.11,13.69-.23,20.53-.36,6.98-.13,13.97-.24,20.95-.35,13.7-.22,27.4-.47,41.1-.72q.4-5.44,0-11.15c-6.17-4.11-11.35-3.66-18.5-3.68-2.77-.04-5.54-.08-8.32-.12-4.36-.05-8.72-.08-13.09-.11-4.22-.03-8.43-.1-12.65-.16-1.29,0-2.59,0-3.92,0-9.35-.16-16.08-1.98-23.25-8.4-8.62-10.02-11.91-17.97-11.57-31.29,1.32-10.81,6.94-17.66,15.18-24.37,6.94-4.78,11.76-5.52,20.29-5.45,1.05,0,2.1,0,3.19.01,3.34.02,6.69.06,10.03.1,2.27.02,4.55.03,6.82.04,5.56.04,11.12.09,16.68.16v-14.34h3.19c.56,1.23,1.12,2.46,1.7,3.73,7.04,14.86,14.45,25.89,28.57,34.5v1.59c-.89.01-1.77.03-2.69.04-9.23.14-18.45.3-27.67.47-3.44.06-6.89.12-10.33.17-4.95.07-9.89.17-14.84.26-1.54.02-3.09.04-4.68.06-1.43.03-2.87.06-4.35.1q-1.89.03-3.83.06-3.78.26-8.07,3.63-.66,3.98,0,7.96c4.87,4.87,10.56,3.66,17.1,3.68,2.85.04,5.7.08,8.55.12,4.5.05,8.99.08,13.49.11,4.34.03,8.67.1,13.01.16q2,0,4.04,0c10.05.17,16.59,2.41,24.46,8.97,8.6,10.19,11.17,18.5,10.67,31.93-1.32,11.4-8.13,17.71-16.64,24.72-6.36,4.24-12.75,3.84-20.1,3.87q-1.88.02-3.8.03c-4.15.03-8.31.05-12.46.07-1.42,0-2.84.01-4.31.02-7.52.03-15.05.06-22.57.07-7.75.02-15.51.07-23.26.14-5.98.04-11.95.05-17.93.06-2.86,0-5.71.03-8.57.06-4.01.04-8.02.04-12.03.03-1.17.02-2.34.04-3.54.06-10.08-.1-18.61-3.27-25.84-10.42-.72-1.07-1.45-2.13-2.2-3.23q-1.13-1.6-2.28-3.24c-3.46-5.83-3.59-10.64-3.57-17.27,0-1.95,0-3.89,0-5.89,0-2.1.02-4.2.02-6.37,0-2.17,0-4.34,0-6.52,0-5.71.02-11.42.04-17.13.02-5.83.02-11.66.03-17.49.02-11.44.04-22.87.08-34.31h-14.34c4.74-3.7,9.67-6.78,14.83-9.86,10.05-6.33,16.85-13.78,23.4-23.6Z"/>
  <path class="cls-1" d="M172.04,98.76h3.19v76.46h12.74c-3.59,3.59-6.93,5.19-11.45,7.47-11.43,6.14-18.73,13.18-25.19,24.39h-3.19v-70.09c-3.68.53-7.36,1.05-11.15,1.59-3.94,5.9-3.74,10.6-3.85,17.44-.03,1.23-.06,2.46-.09,3.73-.1,3.93-.17,7.86-.24,11.78-.06,2.66-.12,5.33-.19,7.99-.15,6.53-.29,13.06-.41,19.59-12.03.15-24.07.26-36.1.33-5.59.03-11.18.08-16.77.15-6.44.08-12.87.11-19.31.14-1.99.03-3.98.07-6.03.1-13.16,0-21.92-1.4-32.14-10.22-.87-1.04-1.75-2.07-2.64-3.14-.9-1.03-1.8-2.07-2.73-3.13-4.74-7.37-3.88-15.61-3.74-24.05H0c3.89-4.31,8.16-6.92,13.14-9.86,10.13-6.32,16.92-13.74,23.5-23.6h3.19c.02,1.17.05,2.35.07,3.55.12,5.32.27,10.64.43,15.96.04,1.85.07,3.69.11,5.59q.08,2.66.17,5.38c.04,1.64.08,3.27.13,4.95.78,4.96,1.98,7.18,5.47,10.75,5.74,1.91,11.11,1.96,17.09,2.1,1.2.03,2.39.07,3.62.1,3.81.1,7.63.2,11.44.29,2.59.07,5.18.14,7.76.21,6.34.17,12.68.33,19.02.49-.03-1.08-.05-2.17-.08-3.28-.1-4.98-.16-9.96-.22-14.94-.04-1.7-.08-3.41-.12-5.16-.11-11.75.36-22.96,7.82-32.57q1.36-1.04,2.75-2.1t2.73-2.18c8.95-5.57,17.63-5.66,27.88-5.85,9.16-.34,17.29-1.81,24.26-8.3.62-.69,1.25-1.38,1.89-2.09Z"/>
  <path class="cls-1" d="M503.38,105.14h1.59v14.34c2.02-.07,4.04-.15,6.12-.22,17.81-.46,30.95-.65,44.66,11.87,9.66,10.66,10.65,19.79,10.32,33.94-1.18,11.39-6.26,18.7-14.9,26.1-9.01,6.49-14.56,8.17-25.61,8.12q-1.63,0-3.3,0c-3.47,0-6.95-.03-10.42-.05-2.36,0-4.71-.02-7.07-.02-5.77-.02-11.55-.05-17.32-.08v14.34q-4.78-1.59-6.54-4.73-.85-2-1.72-4.03c-6.04-12.7-14.76-22.25-26.78-29.47v-1.59q1.38-.01,2.79-.03c9.59-.1,19.17-.24,28.76-.39,3.58-.05,7.15-.1,10.73-.13,5.14-.05,10.29-.14,15.43-.23,1.6-.01,3.19-.02,4.84-.03q10.96-.16,20.28-5.56,2.64-4.47,3.19-9.56c-1.92-4.97-3.43-7.26-8.17-9.74-5.75-1.77-11.24-1.97-17.2-2.07-1.19-.03-2.38-.06-3.61-.09-3.78-.09-7.56-.17-11.34-.24-2.57-.06-5.15-.12-7.72-.19-6.29-.15-12.58-.29-18.86-.41,3.49-3.58,6.8-6.69,10.85-9.66,8.48-6.91,13.45-17.4,18.85-26.73q1.07-1.7,2.16-3.43Z"/>
  <path class="cls-1" d="M238.94,114.69h3.19c.07,12.21.13,24.43.17,36.64.02,5.67.04,11.35.08,17.02.04,6.54.06,13.07.07,19.61.02,2.02.03,4.03.05,6.11q0,28.22-9.62,38.4c-1.06,1.16-2.12,2.33-3.22,3.53-5.16,4.4-9.42,6.13-16.2,6.13v14.34c-4.33-4.33-6.71-7.83-9.76-13.04-5.63-9.05-12.3-15.33-20.51-22-1.05-1.05-2.1-2.1-3.19-3.19q2.82-.06,5.7-.12c2.48-.09,4.96-.18,7.44-.27,1.24-.02,2.48-.05,3.75-.07,1.2-.05,2.4-.1,3.64-.16,1.1-.03,2.2-.07,3.34-.1,4.92-1.33,6.63-3.07,9.58-7.24.96-4.73.96-9.39.97-14.21.03-1.37.05-2.74.08-4.15.08-4.37.11-8.73.14-13.1.04-2.96.09-5.93.14-8.89.12-7.26.2-14.51.26-21.77h-14.34c4.74-3.7,9.67-6.78,14.83-9.86,10.05-6.33,16.85-13.78,23.4-23.6Z"/>
  <path class="cls-1" d="M613.29,60.53h3.19v138.59h-25.49v-106.73h-14.34c2.83-1.89,5.69-3.72,8.63-5.43,11.16-6.66,22.04-14.49,28.01-26.43Z"/>
  <path class="cls-1" d="M611.7,0c3.24,2.92,5.32,5.63,7.67,9.36,3.88,5.54,7.78,8.76,13.04,12.94v1.59c-1.42.1-2.84.19-4.31.29q-2.8.2-5.65.4c-1.85.13-3.7.26-5.6.39-4.05.4-7.64.95-11.52,2.1q-.53,3.78,0,7.96c4.86,4.76,8.87,5.48,15.53,5.87q2.35.16,4.75.32c1.19.06,2.38.12,3.61.18,1.58,4.73,3.15,9.46,4.78,14.34h-41.42v9.56c-3.6-3.43-6.54-7.02-9.46-11.05-3.45-4.67-6.97-8.89-11.25-12.84h15.93c-.07-1.15-.15-2.31-.22-3.5-.36-9.77-.37-16.05,6.6-23.58,5.91-4.66,10.08-5.3,17.52-4.78V0Z"/>
  <path class="cls-1" d="M62.27,208.53c3.92,2.25,6.69,4.94,9.81,8.21,1.13,1.17,2.25,2.34,3.41,3.54.85.9,1.69,1.8,2.56,2.73,6.48-2.8,10.09-6.95,14.69-12.17q2.84-2.17,5.85-2.21c4.87,2.36,7.98,5.81,11.72,9.69,1.42,1.46,2.84,2.93,4.31,4.44,1.08,1.13,2.15,2.26,3.26,3.43-6.3,7.81-12.95,14.34-20.71,20.71l-15.93-15.93c-5.84,2.92-8.71,5.18-13.14,9.76-1.13,1.15-2.25,2.31-3.41,3.5-.85.88-1.69,1.77-2.56,2.68-7.77-6.28-14.43-12.93-20.71-20.71,2.76-2.98,5.55-5.93,8.36-8.86q1.17-1.27,2.37-2.57,5.85-6.05,10.12-6.24Z"/>
  <path class="cls-1" d="M520.9,68.5c5.86,2.45,9.54,6.02,13.94,10.55,1.27,1.3,2.55,2.6,3.86,3.95.96,1,1.92,2,2.91,3.02-2.44,5.71-5.84,9.6-10.16,14.04-1.23,1.29-2.46,2.58-3.72,3.91q-3.65,2.76-6.77,2.88c-4.73-2.5-7.91-5.94-11.61-9.78-1.42-1.46-2.84-2.93-4.31-4.44-1.08-1.13-2.15-2.26-3.26-3.43,6.06-7.26,12.34-14.1,19.12-20.71Z"/>
</svg>