
          <svg data-logo="logo" xmlns="http://www.w3.org/2000/svg" viewBox="0 0 183 43">
            <g id="logogram" transform="translate(0, 1) rotate(0)"><path d="M13.0832 0.429993L23.4173 9.25886C24.0309 9.78301 24.3845 10.5522 24.3845 11.3623V18.0162L14.0503 9.18733C13.4368 8.66319 13.0832 7.894 13.0832 7.08386V0.429993Z" fill="#7B19D8"/><path d="M13.0832 40.43L23.4173 31.6011C24.0309 31.077 24.3845 30.3078 24.3845 29.4977V22.8438L14.0503 31.6727C13.4368 32.1968 13.0832 32.966 13.0832 33.7761V40.43Z" fill="#7B19D8"/><path d="M0.754395 9.74034L10.948 18.4005C11.4422 18.8204 12.0681 19.0507 12.7147 19.0507H20.9354L10.7669 10.3925C10.2723 9.9714 9.64557 9.74034 8.99786 9.74034H0.754395Z" fill="#7B19D8"/><path d="M0.754395 31.1196L10.8853 22.4645C11.3804 22.0415 12.0086 21.8093 12.6578 21.8093H20.9599L10.7663 30.4694C10.2721 30.8893 9.64625 31.1196 8.99957 31.1196H0.754395Z" fill="#7B19D8"/><path d="M38.4256 0.429993L28.0914 9.25886C27.4779 9.78301 27.1243 10.5522 27.1243 11.3623V18.0162L37.4584 9.18733C38.072 8.66319 38.4256 7.894 38.4256 7.08386V0.429993Z" fill="#7B19D8"/><path d="M38.4256 40.43L28.0914 31.6011C27.4779 31.077 27.1243 30.3078 27.1243 29.4977V22.8438L37.4584 31.6727C38.072 32.1968 38.4256 32.966 38.4256 33.7761V40.43Z" fill="#7B19D8"/><path d="M50.7544 9.74034L40.5608 18.4005C40.0666 18.8204 39.4407 19.0507 38.7941 19.0507H30.5733L40.7419 10.3925C41.2364 9.9714 41.8632 9.74034 42.5109 9.74034H50.7544Z" fill="#7B19D8"/><path d="M50.7544 31.1196L40.6235 22.4645C40.1284 22.0415 39.5002 21.8093 38.851 21.8093H30.5489L40.7425 30.4694C41.2367 30.8893 41.8625 31.1196 42.5092 31.1196H50.7544Z" fill="#7B19D8"/></g>
            <g id="logotype" transform="translate(57, 8)"><path fill="#6b1dc3" d="M12.60 27L6.84 27L15.54 1.54L22.37 1.54L31.29 27L25.50 27L21.42 14.71Q20.68 12.34 19.92 9.51Q19.16 6.68 18.32 3.33L18.32 3.33L19.45 3.33Q18.65 6.70 17.94 9.54Q17.23 12.39 16.53 14.71L16.53 14.71L12.60 27ZM25.86 21.09L12.27 21.09L12.27 17.00L25.86 17.00L25.86 21.09ZM39.03 27.32L39.03 27.32Q36.83 27.32 35.06 26.19Q33.29 25.05 32.27 22.86Q31.24 20.66 31.24 17.48L31.24 17.48Q31.24 14.22 32.30 12.03Q33.36 9.84 35.12 8.75Q36.88 7.65 39.00 7.65L39.00 7.65Q40.62 7.65 41.70 8.20Q42.78 8.75 43.44 9.55Q44.11 10.35 44.43 11.11L44.43 11.11L44.60 11.11L44.60 1.54L49.73 1.54L49.73 27L44.69 27L44.69 23.94L44.43 23.94Q44.09 24.71 43.42 25.49Q42.74 26.27 41.66 26.79Q40.59 27.32 39.03 27.32ZM40.60 23.21L40.60 23.21Q41.90 23.21 42.83 22.49Q43.75 21.77 44.23 20.48Q44.71 19.19 44.71 17.46L44.71 17.46Q44.71 15.72 44.24 14.45Q43.77 13.17 42.84 12.47Q41.92 11.76 40.60 11.76L40.60 11.76Q39.25 11.76 38.34 12.49Q37.43 13.23 36.96 14.51Q36.50 15.79 36.50 17.46L36.50 17.46Q36.50 19.14 36.97 20.44Q37.44 21.74 38.36 22.47Q39.27 23.21 40.60 23.21ZM56.96 15.94L56.96 15.94L56.96 27L51.83 27L51.83 1.54L56.86 1.54L56.86 12.66L56.45 12.66Q57.20 10.27 58.73 8.96Q60.26 7.65 62.68 7.65L62.68 7.65Q64.67 7.65 66.14 8.52Q67.62 9.38 68.43 11.00Q69.25 12.61 69.25 14.85L69.25 14.85L69.25 27L64.12 27L64.12 15.74Q64.12 13.96 63.20 12.95Q62.29 11.94 60.67 11.94L60.67 11.94Q59.59 11.94 58.74 12.41Q57.90 12.88 57.43 13.77Q56.96 14.66 56.96 15.94ZM79.48 17.48L75.99 21.41L75.99 15.24L76.76 15.24L83.02 7.89L88.95 7.89L80.69 17.48L79.48 17.48ZM76.47 27L71.35 27L71.35 1.54L76.47 1.54L76.47 27ZM89.31 27L83.27 27L77.53 18.63L80.97 14.99L89.31 27ZM94.71 27.38L94.71 27.38Q92.89 27.38 91.45 26.74Q90.01 26.09 89.18 24.82Q88.35 23.55 88.35 21.65L88.35 21.65Q88.35 20.06 88.94 18.98Q89.53 17.91 90.54 17.26Q91.56 16.61 92.85 16.27Q94.14 15.93 95.56 15.79L95.56 15.79Q97.22 15.62 98.23 15.47Q99.25 15.33 99.72 15.01Q100.19 14.70 100.19 14.08L100.19 14.08L100.19 13.99Q100.19 13.17 99.85 12.61Q99.51 12.05 98.84 11.75Q98.17 11.45 97.20 11.45L97.20 11.45Q96.21 11.45 95.47 11.75Q94.74 12.05 94.28 12.54Q93.82 13.04 93.59 13.65L93.59 13.65L88.89 12.87Q89.39 11.21 90.54 10.05Q91.68 8.88 93.38 8.27Q95.08 7.65 97.20 7.65L97.20 7.65Q98.76 7.65 100.21 8.02Q101.66 8.39 102.81 9.16Q103.97 9.93 104.64 11.16Q105.32 12.39 105.32 14.13L105.32 14.13L105.32 27L100.46 27L100.46 24.35L100.29 24.35Q99.83 25.24 99.06 25.91Q98.29 26.59 97.21 26.98Q96.12 27.38 94.71 27.38ZM96.16 23.77L96.16 23.77Q97.37 23.77 98.29 23.29Q99.20 22.81 99.71 21.99Q100.23 21.17 100.23 20.16L100.23 20.16L100.23 18.10Q100.00 18.27 99.54 18.40Q99.08 18.54 98.52 18.64Q97.95 18.75 97.41 18.83Q96.86 18.92 96.43 18.97L96.43 18.97Q95.49 19.10 94.77 19.41Q94.06 19.72 93.66 20.22Q93.27 20.73 93.27 21.51L93.27 21.51Q93.27 22.25 93.65 22.75Q94.02 23.26 94.66 23.51Q95.30 23.77 96.16 23.77ZM112.54 27L107.42 27L107.42 7.89L112.37 7.89L112.37 11.23L112.58 11.23Q113.11 9.45 114.35 8.54Q115.59 7.64 117.19 7.64L117.19 7.64Q117.59 7.64 118.04 7.68Q118.49 7.72 118.85 7.81L118.85 7.81L118.85 12.39Q118.51 12.27 117.86 12.20Q117.21 12.13 116.63 12.13L116.63 12.13Q115.47 12.13 114.53 12.64Q113.59 13.14 113.07 14.04Q112.54 14.93 112.54 16.13L112.54 16.13L112.54 27ZM124.52 27L119.40 27L119.40 7.89L124.52 7.89L124.52 27ZM121.96 5.40L121.96 5.40Q120.80 5.40 119.98 4.63Q119.16 3.86 119.16 2.77L119.16 2.77Q119.16 1.67 119.98 0.90Q120.80 0.13 121.96 0.13L121.96 0.13Q123.12 0.13 123.95 0.90Q124.78 1.66 124.78 2.77L124.78 2.77Q124.78 3.86 123.95 4.63Q123.12 5.40 121.96 5.40Z"/></g>
            
          </svg>
        