<svg xmlns="http://www.w3.org/2000/svg" width="512" height="512"><path fill="#030200" d="M171.375 88.375c1.84 1.532 1.84 1.532 3.625 2.625 2.915-.355 4.244-1.43 6.543-3.164 8.422-6.283 17.763-8.428 28.25-7.621 11.429 1.692 21.115 7.13 28.152 16.328 8.455 12.541 10.195 26.135 7.399 40.93C239.428 156.825 224.582 169.946 210 183l3.563 1.188 2.511.847c2.057.679 4.123 1.33 6.196 1.961 8.475 2.654 16.342 6.01 24.296 9.97 5.473 2.91 5.473 2.91 11.434 4.034a62 62 0 0 0 6.563-3.5c18.11-10.276 40.563-16.576 61.398-16.703l2.27-.017q2.37-.014 4.744-.02c2.359-.01 4.717-.04 7.076-.072 14.037-.1 27.446 1.824 40.887 6l2.506.77C403.884 193.96 421.61 204.286 438 218l2.629 2.195c4.926 4.252 9.254 8.773 13.371 13.805l2.527 3.02c13.229 16.085 22.588 34.052 28.723 53.917l.71 2.271c3.923 13.368 5.548 26.636 5.431 40.521-.016 2.271 0 4.54.02 6.81.02 13.82-1.99 27.175-6.099 40.399l-.77 2.506C478.04 403.884 467.714 421.61 454 438l-2.195 2.629c-4.252 4.926-8.773 9.254-13.805 13.371l-3.02 2.527c-16.085 13.229-34.052 22.588-53.918 28.723l-2.27.71c-13.368 3.923-26.636 5.548-40.521 5.431-2.271-.016-4.54 0-6.81.02-24.45.035-50.232-6.441-71.094-19.407-3.094-1.312-4.177-1.078-7.367-.004-3.003 1.33-5.935 2.787-8.875 4.25-17.956 8.682-37.988 14.83-58.086 14.953l-2.27.017q-2.37.014-4.744.02c-2.359.01-4.717.04-7.076.072-14.037.1-27.446-1.824-40.887-6l-2.506-.77C108.116 478.04 90.39 467.714 74 454l-2.629-2.195C66.445 447.553 62.117 443.032 58 438l-2.527-3.02c-20.1-24.44-34.481-56.922-34.676-88.94l-.017-2.27q-.014-2.373-.02-4.745c-.01-2.359-.04-4.717-.073-7.076-.28-40.096 17.18-77.203 44.876-105.574L68 224l1.55-1.687C87.33 203.429 111.74 192.749 136 185q3-.995 6-2l-1.402-1.278c-33.224-30.426-33.224-30.426-34.775-48.822-.449-16.441 1.152-29.142 12.833-41.677 14.266-13.223 37.34-15.457 52.719-2.848m-68.93 181.871C82.585 292.613 76.716 318.81 78 348c1.963 23.036 13.884 43.103 30 59l2.46 2.492c10.937 10.5 24.19 17.03 38.54 21.508l3.207 1.031c17.286 4.604 41.732 4.927 57.793-4.031q-.998-1.814-2-3.625l-1.387-2.516a247 247 0 0 0-3.445-5.906c-14.583-24.506-21.614-50.733-21.606-79.203l-.003-2.38c.06-30.179 8.413-60.13 25.735-85.082.956-1.394 1.839-2.837 2.706-4.288-.881-2.343-.881-2.343-3.95-3.035l-3.738-1.028-3.699-1.035c-35.58-8.885-71.201 4.712-96.168 30.344M302 244q.998 1.814 2 3.625l1.379 2.496a345 345 0 0 0 3.523 6.102c19.287 32.692 27.933 75.211 18.641 112.69L327 371l-.602 2.376c-4.435 17.055-11.145 32.674-20.515 47.585-1.436 2.317-2.73 4.575-3.883 7.039 18.986 9.493 44.22 8.522 64 2 25.763-8.818 46.046-26.824 58.75-50.75 11.452-23.757 12.705-51.29 4.352-76.211C423.748 288.019 415.283 276.13 404 265l-2.46-2.492c-10.937-10.5-24.19-17.03-38.54-21.508l-3.207-1.031c-17.286-4.604-41.732-4.927-57.793 4.031m-47 36c-6.649 8.745-10.722 18.602-14 29l-1.035 3.215c-4.546 17.107-3.617 37.061 2.035 53.785l.666 1.986C245.676 376.69 249.7 384.458 255 392c5.057-1.686 6.715-6.582 9.09-11.146 11.94-24.33 13.641-52.281 4.958-77.922-2.934-8.2-6.759-15.975-12.048-22.932z"/><path fill="#FDD72D" d="m207 194 2.21.504c28.692 6.711 28.692 6.711 36.79 15.496l-2.492 2.09c-12.1 9.56-12.1 9.56-22.602 20.664L219 235c-5.642.12-11.022-2.194-16.328-3.965-25.453-7.175-53.424-3.33-76.672 8.965l-1.92 1c-10.018 5.318-18.148 11.935-26.08 20l-2.527 2.531C89.583 269.733 85.183 276.561 81 284l-1.691 3.004C75.379 294.402 73.09 301.914 71 310c-.345 1.128-.69 2.256-1.047 3.418-7.01 26.347.019 55.27 13.152 78.504 15.328 24.903 38.817 42.307 67.235 49.289L154 442l2.26.53c16.43 3.653 33.72 2.287 49.74-2.53l2.174-.633c26.869-8.014 49.496-26.674 62.87-51.287 4.33-8.35 7.607-16.966 9.956-26.08.3-1.1.598-2.202.906-3.336 6.576-27.581.371-55.244-13.719-79.351l-1.707-2.762c-1.428-2.462-2.495-4.885-3.48-7.551 5.478-6.058 11.092-11.051 17.875-15.562.642-.43 1.284-.859 1.946-1.3 3.033-1.965 5.651-3.392 9.179-4.138 23.16 32.08 34.187 71.555 28.063 111.063C316.704 377.49 309.899 396.093 300 412l-1.109 1.785C292.44 423.971 284.5 432.5 276 441l-1.527 1.668C265.239 452.618 252.89 459.684 241 466l-2.89 1.582c-33.241 16.842-73.655 17.552-108.597 6.28-6.376-2.187-12.46-4.91-18.513-7.862l-2.937-1.426C96.208 458.457 85.592 450.216 76 441l-1.429-1.334c-25.597-23.94-42.188-59.544-43.699-94.637C30.54 331.354 30.815 318.326 34 305l.879-3.84C40.998 276.352 53.344 254.41 71 236l2.633-2.86C86.492 219.449 102.192 210.109 119 202l2.754-1.332C147.79 189.302 179.56 187.533 207 194"/><path fill="#FABC00" d="M428.668 224.21c2.505 2.207 4.925 4.477 7.332 6.79l1.429 1.334C457.232 250.856 470.235 274.87 477 301l1.035 3.469c4.825 17.658 4.75 38.732.965 56.531l-.555 3.184C473.32 391.556 460.23 415.986 441 436l-1.334 1.429C415.364 463.412 379.553 479.729 344 481c-27.155.827-54.556-3.303-78-18 3.916-4.043 8.08-7.68 12.375-11.312 4.896-4.152 9.334-8.193 13.035-13.493C293 437 293 437 295.621 437.148c4.946 1.247 9.846 2.62 14.746 4.036 26.185 7.45 55.656 2.03 79.295-10.95 26.565-15.326 43.82-39.74 51.819-69.11 6.594-26.971 2.074-56.296-11.91-80.243-4.983-8.189-10.77-15.156-17.571-21.881l-2.613-2.645c-20.774-20.035-49.252-28.765-77.589-28.726-9.313.181-17.903 1.656-26.798 4.371l-2.08.633C288.212 237.286 275.723 245.046 264 255l-2.508 1.926C244.958 270.687 234.546 293.426 230 314l-.54 2.273c-1.432 6.416-1.775 12.54-1.71 19.102l.027 3.09c.351 22.754 8.49 43.818 21.223 62.535-3.57 7.908-10.742 12.738-17.75 17.438l-1.97 1.324c-3.067 2.003-5.7 3.488-9.28 4.238-7.72-10.781-13.668-21.87-19-34l-1.344-3.008c-2.614-6.16-4.262-12.457-5.656-18.992l-.852-3.781c-3.987-19.295-3.809-40.075.852-59.219l.879-3.832c4.957-20.141 13.96-39.111 27.121-55.168l1.305-1.625c22.905-28.468 57.258-48.336 93.726-52.804 40.52-4.138 80.115 6.518 111.637 32.64"/><path fill="#EA6284" d="M160.852 93.8c5.484 3.062 9.288 7.318 13.148 12.2 2.329-.045 2.329-.045 5-1a161 161 0 0 0 3.344-4.238c4.5-4.788 11.563-9.377 18.187-10 9.013-.226 17 1.242 24.281 6.863 8.046 7.658 11.126 16.845 11.625 27.625-.293 16.879-12.501 30.119-23.997 41.262-3.417 3.233-6.907 6.38-10.44 9.488l-1.274 1.62c-3.429 3.896-6.631 4.766-11.783 5.176-3.227.147-6.444.177-9.675.151-2.5-.01-4.991.06-7.49.137-9.482.115-15.388-.745-22.475-7.649L147 173a401 401 0 0 0-4.293-3.809c-12.344-11.397-25.433-23.612-26.98-41.32-.317-10.718 1.926-20.334 9.46-28.34 10.517-8.884 22.866-11.633 35.665-5.73"/><path fill="#FC6D69" d="M397.5 23c7.832 4.632 12.644 11.447 15.5 20 2.84 12.399 1.348 26.548.25 39.125l-.187 2.49c-.496 4.919-1.4 7.793-5.063 11.385-12.07 6.035-37.136 4.939-50.187 1.875C349.163 94.96 342.633 89.883 338 82c-3.165-6.427-2.933-14.248-1.57-21.187 2.18-5.816 6.707-11.262 12.144-14.208C352.181 45.115 355.074 44 359 44l.297-1.758C360.936 33.68 364.814 27.96 372 23c7.462-3.756 17.965-3.438 25.5 0"/><path fill="#020101" d="M464.48 94.914c4.383 2.549 7.118 5.57 9.52 10.086l.297 2.031c.546 2.182.546 2.182 2.848 3.278l2.668 1.129c5.643 2.624 8.805 5.783 11.187 11.562.656 6.598 1.168 13.53-3 19-6.048 6.545-11.752 9.704-20.672 10.207-23.62.468-23.62.468-30.328-3.207-4.023-5.23-3.776-10.633-4-17l-.083-2.168c-.69-20.49-.69-20.49 6.396-29.207 6.771-7.038 15.745-9.183 25.167-5.71"/><path fill="#030101" d="M397.5 23c7.832 4.632 12.644 11.447 15.5 20 2.84 12.399 1.348 26.548.25 39.125l-.187 2.49c-.496 4.919-1.4 7.793-5.063 11.385-12.07 6.035-37.136 4.939-50.187 1.875C349.163 94.96 342.633 89.883 338 82c-3.165-6.427-2.933-14.248-1.57-21.187 2.18-5.816 6.707-11.262 12.144-14.208C352.181 45.115 355.074 44 359 44l.297-1.758C360.936 33.68 364.814 27.96 372 23c7.462-3.756 17.965-3.438 25.5 0m-25.812 14c-2.29 4.07-2.267 7.74-2.415 12.355C369 52 369 52 367 54c-1.892.15-3.79.221-5.687.25-5.368.354-8.165 1.363-12.008 5.082-2.887 3.69-3.769 6.772-3.61 11.52.848 5.98 3.645 9.942 8.368 13.585 4.33 3.051 7.63 3.69 12.898 3.696l3.621.004 3.793-.012 3.676.012A264 264 0 0 0 402 87c.825-9.473 1.184-18.929 1.313-28.437l.09-3.373c.052-7.295-.647-13.256-5.851-18.707-4.94-4.323-8.84-5.959-15.306-5.8-4.543.64-7.217 3.427-10.558 6.317"/><path fill="#E86183" d="M458 104c4.632 2.265 4.632 2.265 6 5 .27 2.3.445 4.598.621 6.906.212 2.307.212 2.307 2.379 4.094 2.04.274 2.04.274 4.313.313 3.487.343 4.741.722 7.812 2.687 2.29 3.664 2.378 5.66 1.66 9.844-1.355 3.722-3.481 5.042-6.785 7.156-3.218 1.073-5.563 1.13-8.945 1.133l-3.512.004-3.668-.012-3.691.012-3.504-.004-3.227-.004C445 141 445 141 444 140c-.368-4.533-.372-9.08-.437-13.625l-.14-3.855c-.126-10.566-.126-10.566 3.48-14.856 3.585-3.44 6.096-4.056 11.097-3.664"/><path d="M269 31c2 2 2 2 2.563 4.625-.867 5.198-3.923 7.712-7.563 11.375l-3.29 3.367c-10.384 10.55-10.384 10.55-14.71 10.82C243 61 243 61 241 59c-.652-3.043-.612-5.054 1.11-7.715 1.875-2.196 3.854-4.236 5.89-6.285l3.29-3.367C262.175 30.573 262.175 30.573 269 31M85.625 30.438C90.823 31.304 93.337 34.36 97 38l3.367 3.29c10.55 10.384 10.55 10.384 10.82 14.71C111 59 111 59 109 61c-3.043.652-5.054.612-7.715-1.11C99.09 58.016 97.05 56.037 95 54l-3.367-3.29C81.083 40.327 81.083 40.327 80.813 36c.244-3.91.994-4.744 4.812-5.562M278.813 90.734l3.507-.007 3.68.023 3.68-.023 3.507.007 3.231.007C299 91 299 91 301 93c.25 3 .25 3 0 6-2.685 2.685-4.065 2.258-7.812 2.266l-3.508.007-3.68-.023-3.68.023-3.507-.007-3.231-.007C273 101 273 101 271 99c-.25-3-.25-3 0-6 2.685-2.685 4.065-2.258 7.813-2.266M176 20.75c3 .25 3 .25 5 2.25.259 2.582.259 2.582.266 5.813l.007 3.507-.023 3.68.023 3.68-.007 3.508-.007 3.23C181 49 181 49 179 51c-3 .25-3 .25-6 0-2.685-2.685-2.258-4.065-2.266-7.812l-.007-3.508.023-3.68-.023-3.68.007-3.508.007-3.23c.39-3.883 1.43-4.513 5.259-4.832M67.438 90.813l3.26-.038 3.11-.005 2.87-.013C79 91 79 91 81 93c.25 3 .25 3 0 6-3.048 3.048-6.088 2.293-10.254 2.322l-3.246-.01-3.246.05-3.098.001-2.85.01L56 101c-2-3-2-3-1.687-6.125 1.475-6.17 7.719-4.06 13.124-4.062"/></svg>