<svg xmlns="http://www.w3.org/2000/svg" width="512" height="512"><path fill="#EBEAEA" d="M293.21 158.84c33.426-.834 64.045 11.225 88.214 34.188 6.866 6.71 12.641 13.704 17.576 21.972l1.151 1.917c11.204 19.004 16.258 38.79 16.161 60.833l-.005 1.999c-.047 10.125-.57 19.486-3.307 29.251l-.96 3.617C407.227 328.757 398.797 343.17 388 356l-1.68 2.102c-3.655 4.484-7.887 8.196-12.32 11.898l1.426 2.86c8.72 17.81 11.34 34.459 5.84 53.71a70 70 0 0 1-3.345 7.644l-1.09 2.157L376 438c-40.8.252-81.599.446-122.399.562l-14.46.042-2.908.009c-15.524.048-31.048.135-46.571.236q-23.905.154-47.81.186c-9.83.015-19.657.063-29.486.152-6.746.058-13.491.076-20.237.062-3.89-.008-7.776.003-11.664.062-26.96.39-26.96.39-34.612-6.592C43.21 429.826 43.21 429.826 41 427a528 528 0 0 0-4.687-4.75C17.209 399.992 8.712 373.17 10 344c1.697-22.013 9.935-42.054 24-59l2.113-2.61C49.266 266.907 67.52 256.28 87 251l3.395-.965c25.495-6.21 54.23-2.152 76.742 11.383 8.762 5.48 8.762 5.48 10.863 7.582l.364-2.041c6.317-34.872 20.204-65.49 50.075-86.37 19.564-13.135 41.164-20.572 64.772-21.75"/><path fill="#F3B725" d="M372.879 185.246C383.052 194.086 392.06 203.373 399 215l1.151 1.917c11.204 19.004 16.258 38.79 16.161 60.833l-.005 1.999c-.047 10.125-.57 19.486-3.307 29.251l-.96 3.617C407.227 328.757 398.797 343.17 388 356l-1.68 2.102c-3.592 4.408-7.654 8.625-12.32 11.898-3 0-3 0-4.543-1.504l-1.644-2.058C360.557 357.885 353.399 353.3 343 349l-2.52-1.105c-11.947-4.31-29.81-3.585-41.48 1.105l-.375-3.156C296.455 329.97 290.733 317.177 279 306l-1.703-1.727c-7.46-7.061-17.485-10.802-27.297-13.273l-1.79-.555c-14.311-2.882-28.743.689-41.32 7.602C205 299 205 299 203 299a115 115 0 0 1-4.125-5.937c-4.808-7.146-9.664-13.968-16.937-18.75-2.41-2.03-2.89-2.96-3.325-6.125 1.284-31.692 18.394-59.117 40.7-80.375 42.625-37.682 109.605-38.352 153.566-2.567"/><path fill="#F6C95B" d="M301 66c2.82 2.009 4.687 3.606 5.467 7.08.196 2.56.226 5.072.197 7.639l.015 2.835q.005 2.96-.027 5.92c-.027 3.017 0 6.03.032 9.046q-.005 2.88-.02 5.761l.03 2.725c-.082 4.454-.254 6.412-3.017 10.062C301 119 301 119 297.5 119.625c-4.525-.808-5.73-1.976-8.5-5.625-.706-3.173-.654-6.26-.594-9.5v-2.768q.008-2.89.052-5.779c.042-2.943.041-5.884.034-8.828q.015-2.812.04-5.625v-2.658c.091-4.741.36-8.008 3.468-11.842 3.139-1.57 5.539-1.352 9-1M419 388c6.603 4.737 12.222 11.067 17.948 16.818q2.262 2.268 4.534 4.528a6021 6021 0 0 1 5.512 5.519c2.608 2.776 2.962 3.659 3.318 7.51-.312 3.625-.312 3.625-1.937 6-2.938 2.01-4.815 2.552-8.375 2.625-4.536-2.214-7.827-5.505-11.36-9.023l-1.787-1.768q-1.86-1.845-3.71-3.696a904 904 0 0 0-5.702-5.622q-1.808-1.8-3.613-3.602c-.57-.555-1.14-1.11-1.726-1.683-3.017-3.052-4.923-5.228-5.102-9.606.776-2.964 1.622-4.609 3.75-6.812 3.188-1.683 4.67-1.877 8.25-1.188M470.875 269.504l2.914-.005q3.045.004 6.092.034c3.108.03 6.214.021 9.322.008q2.961.01 5.922.025l2.816-.008c6.424.093 6.424.093 9.63 1.852 2.18 2.425 2.344 4.419 2.6 7.586-.28 3.265-1.822 4.85-4.171 7.004-3.877 1.292-7.571 1.182-11.613 1.203l-2.567.017q-2.69.014-5.38.02c-2.732.01-5.464.04-8.196.072q-2.616.01-5.232.016l-2.463.038c-4.914-.02-8.293-.633-12.549-3.366-1.565-3.13-1.697-6.61-1-10 3.535-5.263 8.117-4.566 13.875-4.496M155.64 125.551c4.258.81 6.636 3.498 9.547 6.547l1.905 1.9a346 346 0 0 1 3.922 4.008 380 380 0 0 0 6.029 6.07q1.92 1.945 3.832 3.897l1.821 1.812c3.701 3.893 5.243 6.622 5.304 12.215-1.346 2.948-2.086 4.543-5 6-3.332.533-5.844.792-8.726-1.182-5.555-5.064-10.92-10.31-16.222-15.636q-2.263-2.268-4.534-4.528l-2.89-2.892-2.622-2.627c-2.375-2.528-2.936-3.502-3.319-6.947.707-7.204 4.382-8.813 10.952-8.637M446 126c2.5 1.5 2.5 1.5 4 4 .862 6.555.862 6.555-1.115 9.87-1.633 1.936-3.352 3.706-5.166 5.474l-1.96 1.983a410 410 0 0 1-4.137 4.094c-2.116 2.073-4.186 4.185-6.255 6.306q-2.008 2-4.023 3.992l-1.864 1.912c-3.163 3.03-5.303 4.755-9.787 4.867C412 168 412 168 409.563 166.313c-1.763-2.608-2.41-4.17-2.563-7.313 1.357-4.992 4.443-7.848 8.031-11.36l1.793-1.787a944 944 0 0 1 3.753-3.71q2.882-2.841 5.747-5.702 1.822-1.808 3.645-3.613l1.74-1.726c4.659-4.576 7.676-6.004 14.291-5.102"/></svg>