<?xml version="1.0" standalone="no"?><svg xmlns:xlink="http://www.w3.org/1999/xlink" xmlns="http://www.w3.org/2000/svg" viewBox="0 0 1920 383.99999999999994" preserveAspectRatio="xMaxYMax slice"><g transform="scale(1.7051509769094138)"><rect x="0" y="0" width="1126" height="225.2" fill="#ffffff"/><path d="M 0 75.07 A 75.07 75.07 0 0 1  75.07 0 L 0 75.07 A 75.07 75.07 0 0 0 75.07 0" fill="#d2e8ff"/><path d="M 75.07 0 A 75.07 75.07 0 0 1  150.14 75.07 L 75.07 0 A 75.07 75.07 0 0 0 150.14 75.07" fill="#6bb2fe"/><path d="M 150.13 0 A 75.07 75.07 0 0 1  225.2 75.07 L 150.13 0 A 75.07 75.07 0 0 0 225.2 75.07" fill="#511ce2"/><rect x="300.26666666666665" y="0" width="75.06666666666666" height="75.06666666666666" fill="#ffffff"/><g transform="translate(300.27,0) scale(1.8765) rotate(0)"><path fill-rule="evenodd" clip-rule="evenodd" d="M10 20C15.5228 20 20 15.5228 20 10C20 4.47715 15.5228 0 10 0C4.47715 0 0 4.47715 0 10C0 15.5228 4.47715 20 10 20ZM10 17C13.866 17 17 13.866 17 10C17 6.13401 13.866 3 10 3C6.13401 3 3 6.13401 3 10C3 13.866 6.13401 17 10 17Z" fill="#65affe"/></g><path d="M 337.8 0 A 37.53 37.53 0 0 1  375.33000000000004 37.53 L 337.8 0 A 37.53 37.53 0 0 0 375.33000000000004 37.53" fill="#d2c4f8"/><g transform="translate(300.27,37.53) scale(1.8765) rotate(0)"><path fill-rule="evenodd" clip-rule="evenodd" d="M10 20C15.5228 20 20 15.5228 20 10C20 4.47715 15.5228 0 10 0C4.47715 0 0 4.47715 0 10C0 15.5228 4.47715 20 10 20ZM10 17C13.866 17 17 13.866 17 10C17 6.13401 13.866 3 10 3C6.13401 3 3 6.13401 3 10C3 13.866 6.13401 17 10 17Z" fill="#5cabfe"/></g><path d="M 337.8 75.06 A 37.53 37.53 0 0 1  375.33000000000004 37.53 L 337.8 75.06 A 37.53 37.53 0 0 0 375.33000000000004 37.53" fill="#51a5fe"/><rect x="375.3333333333333" y="0" width="75.06666666666666" height="75.06666666666666" fill="#ffffff"/><g transform="translate(375.33,0) scale(1.8765) rotate(0)"><path fill-rule="evenodd" clip-rule="evenodd" d="M10 20C15.5228 20 20 15.5228 20 10C20 4.47715 15.5228 0 10 0C4.47715 0 0 4.47715 0 10C0 15.5228 4.47715 20 10 20ZM10 17C13.866 17 17 13.866 17 10C17 6.13401 13.866 3 10 3C6.13401 3 3 6.13401 3 10C3 13.866 6.13401 17 10 17Z" fill="#855feb"/></g><circle cx="431.635" cy="18.765" r="18.765" fill="#825ceb"/><path d="M 375.33 37.53 A 37.53 37.53 0 0 1  412.86 75.06 L 375.33 37.53 A 37.53 37.53 0 0 0 412.86 75.06" fill="#5723e3"/><g transform="translate(412.87,37.53) scale(1.8765) rotate(0)"><path fill-rule="evenodd" clip-rule="evenodd" d="M10 20C15.5228 20 20 15.5228 20 10C20 4.47715 15.5228 0 10 0C4.47715 0 0 4.47715 0 10C0 15.5228 4.47715 20 10 20ZM10 17C13.866 17 17 13.866 17 10C17 6.13401 13.866 3 10 3C6.13401 3 3 6.13401 3 10C3 13.866 6.13401 17 10 17Z" fill="#9b7def"/></g><rect x="450.4" y="0" width="75.06666666666666" height="75.06666666666666" fill="#ffffff"/><g transform="translate(487.93,0) scale(1.8765) rotate(0)"><path fill-rule="evenodd" clip-rule="evenodd" d="M10 20C15.5228 20 20 15.5228 20 10C20 4.47715 15.5228 0 10 0C4.47715 0 0 4.47715 0 10C0 15.5228 4.47715 20 10 20ZM10 17C13.866 17 17 13.866 17 10C17 6.13401 13.866 3 10 3C6.13401 3 3 6.13401 3 10C3 13.866 6.13401 17 10 17Z" fill="#55a7fe"/></g><g transform="translate(487.93,37.53) scale(1.8765) rotate(0)"><path fill-rule="evenodd" clip-rule="evenodd" d="M10 20C15.5228 20 20 15.5228 20 10C20 4.47715 15.5228 0 10 0C4.47715 0 0 4.47715 0 10C0 15.5228 4.47715 20 10 20ZM10 17C13.866 17 17 13.866 17 10C17 6.13401 13.866 3 10 3C6.13401 3 3 6.13401 3 10C3 13.866 6.13401 17 10 17Z" fill="#6a3de7"/></g><circle cx="563.005" cy="37.535" r="37.535" fill="#e4dbfb"/><path d="M 600.53 0 A 75.07 75.07 0 0 1  675.5999999999999 75.07 L 600.53 0 A 75.07 75.07 0 0 0 675.5999999999999 75.07" fill="#b5d9ff"/><rect x="675.5999999999999" y="0" width="75.06666666666666" height="75.06666666666666" fill="#ffffff"/><path d="M 675.6 37.53 A 37.53 37.53 0 0 1  713.13 0 L 675.6 37.53 A 37.53 37.53 0 0 0 713.13 0" fill="#6b3de7"/><g transform="translate(713.13,0) scale(1.8765) rotate(0)"><path fill-rule="evenodd" clip-rule="evenodd" d="M10 20C15.5228 20 20 15.5228 20 10C20 4.47715 15.5228 0 10 0C4.47715 0 0 4.47715 0 10C0 15.5228 4.47715 20 10 20ZM10 17C13.866 17 17 13.866 17 10C17 6.13401 13.866 3 10 3C6.13401 3 3 6.13401 3 10C3 13.866 6.13401 17 10 17Z" fill="#a083ef"/></g><g transform="translate(675.6,37.53) scale(1.8765) rotate(0)"><path fill-rule="evenodd" clip-rule="evenodd" d="M10 20C15.5228 20 20 15.5228 20 10C20 4.47715 15.5228 0 10 0C4.47715 0 0 4.47715 0 10C0 15.5228 4.47715 20 10 20ZM10 17C13.866 17 17 13.866 17 10C17 6.13401 13.866 3 10 3C6.13401 3 3 6.13401 3 10C3 13.866 6.13401 17 10 17Z" fill="#7dbcfe"/></g><g transform="translate(713.13,37.53) scale(1.8765) rotate(0)"><path fill-rule="evenodd" clip-rule="evenodd" d="M10 20C15.5228 20 20 15.5228 20 10C20 4.47715 15.5228 0 10 0C4.47715 0 0 4.47715 0 10C0 15.5228 4.47715 20 10 20ZM10 17C13.866 17 17 13.866 17 10C17 6.13401 13.866 3 10 3C6.13401 3 3 6.13401 3 10C3 13.866 6.13401 17 10 17Z" fill="#3e9bfe"/></g><circle cx="788.2049999999999" cy="37.535" r="37.535" fill="#9676ee"/><rect x="825.7333333333333" y="0" width="75.06666666666666" height="75.06666666666666" fill="#ffffff"/><circle cx="844.495" cy="18.765" r="18.765" fill="#87c1fe"/><g transform="translate(863.27,0) scale(1.8765) rotate(0)"><path fill-rule="evenodd" clip-rule="evenodd" d="M10 20C15.5228 20 20 15.5228 20 10C20 4.47715 15.5228 0 10 0C4.47715 0 0 4.47715 0 10C0 15.5228 4.47715 20 10 20ZM10 17C13.866 17 17 13.866 17 10C17 6.13401 13.866 3 10 3C6.13401 3 3 6.13401 3 10C3 13.866 6.13401 17 10 17Z" fill="#fcfeff"/></g><circle cx="882.035" cy="56.295" r="18.765" fill="#4fa4fe"/><rect x="900.8" y="0" width="75.06666666666666" height="75.06666666666666" fill="#ffffff"/><circle cx="919.5649999999999" cy="18.765" r="18.765" fill="#7abafe"/><g transform="translate(938.33,0) scale(1.8765) rotate(0)"><path fill-rule="evenodd" clip-rule="evenodd" d="M10 20C15.5228 20 20 15.5228 20 10C20 4.47715 15.5228 0 10 0C4.47715 0 0 4.47715 0 10C0 15.5228 4.47715 20 10 20ZM10 17C13.866 17 17 13.866 17 10C17 6.13401 13.866 3 10 3C6.13401 3 3 6.13401 3 10C3 13.866 6.13401 17 10 17Z" fill="#c5b4f6"/></g><rect x="0" y="75.06666666666666" width="75.06666666666666" height="75.06666666666666" fill="#ffffff"/><g transform="translate(37.53,112.6) scale(1.8765) rotate(0)"><path fill-rule="evenodd" clip-rule="evenodd" d="M10 20C15.5228 20 20 15.5228 20 10C20 4.47715 15.5228 0 10 0C4.47715 0 0 4.47715 0 10C0 15.5228 4.47715 20 10 20ZM10 17C13.866 17 17 13.866 17 10C17 6.13401 13.866 3 10 3C6.13401 3 3 6.13401 3 10C3 13.866 6.13401 17 10 17Z" fill="#a78cf1"/></g><rect x="75.06666666666666" y="75.06666666666666" width="75.06666666666666" height="75.06666666666666" fill="#ffffff"/><path d="M 112.6 75.07 A 37.53 37.53 0 0 1  150.13 112.6 L 112.6 75.07 A 37.53 37.53 0 0 0 150.13 112.6" fill="#855feb"/><path d="M 75.07 150.13 A 37.53 37.53 0 0 1  112.6 112.6 L 75.07 150.13 A 37.53 37.53 0 0 0 112.6 112.6" fill="#70b5fe"/><circle cx="131.365" cy="131.365" r="18.765" fill="#e7e0fb"/><rect x="225.2" y="75.06666666666666" width="75.06666666666666" height="75.06666666666666" fill="#ffffff"/><circle cx="243.96499999999997" cy="93.835" r="18.765" fill="#c2b0f5"/><path d="M 225.2 112.6 A 37.53 37.53 0 0 1  262.73 150.13 L 225.2 112.6 A 37.53 37.53 0 0 0 262.73 150.13" fill="#5facfe"/><rect x="300.26666666666665" y="75.06666666666666" width="75.06666666666666" height="75.06666666666666" fill="#ffffff"/><g transform="translate(337.8,112.6) scale(1.8765) rotate(0)"><path fill-rule="evenodd" clip-rule="evenodd" d="M10 20C15.5228 20 20 15.5228 20 10C20 4.47715 15.5228 0 10 0C4.47715 0 0 4.47715 0 10C0 15.5228 4.47715 20 10 20ZM10 17C13.866 17 17 13.866 17 10C17 6.13401 13.866 3 10 3C6.13401 3 3 6.13401 3 10C3 13.866 6.13401 17 10 17Z" fill="#4ba2fe"/></g><g transform="translate(525.47,75.07) scale(3.7535) rotate(0)"><path fill-rule="evenodd" clip-rule="evenodd" d="M10 20C15.5228 20 20 15.5228 20 10C20 4.47715 15.5228 0 10 0C4.47715 0 0 4.47715 0 10C0 15.5228 4.47715 20 10 20ZM10 17C13.866 17 17 13.866 17 10C17 6.13401 13.866 3 10 3C6.13401 3 3 6.13401 3 10C3 13.866 6.13401 17 10 17Z" fill="#97c9fe"/></g><rect x="750.6666666666666" y="75.06666666666666" width="75.06666666666666" height="75.06666666666666" fill="#ffffff"/><path d="M 750.67 112.6 A 37.53 37.53 0 0 1  788.1999999999999 75.07 L 750.67 112.6 A 37.53 37.53 0 0 0 788.1999999999999 75.07" fill="#e0d7fa"/><g transform="translate(788.2,75.07) scale(1.8765) rotate(0)"><path fill-rule="evenodd" clip-rule="evenodd" d="M10 20C15.5228 20 20 15.5228 20 10C20 4.47715 15.5228 0 10 0C4.47715 0 0 4.47715 0 10C0 15.5228 4.47715 20 10 20ZM10 17C13.866 17 17 13.866 17 10C17 6.13401 13.866 3 10 3C6.13401 3 3 6.13401 3 10C3 13.866 6.13401 17 10 17Z" fill="#d9cdf9"/></g><circle cx="769.435" cy="131.365" r="18.765" fill="#7dbcfe"/><rect x="825.7333333333333" y="75.06666666666666" width="75.06666666666666" height="75.06666666666666" fill="#ffffff"/><g transform="translate(863.27,75.07) scale(1.8765) rotate(0)"><path fill-rule="evenodd" clip-rule="evenodd" d="M10 20C15.5228 20 20 15.5228 20 10C20 4.47715 15.5228 0 10 0C4.47715 0 0 4.47715 0 10C0 15.5228 4.47715 20 10 20ZM10 17C13.866 17 17 13.866 17 10C17 6.13401 13.866 3 10 3C6.13401 3 3 6.13401 3 10C3 13.866 6.13401 17 10 17Z" fill="#e1efff"/></g><path d="M 825.73 112.6 A 37.53 37.53 0 0 1  863.26 150.13 L 825.73 112.6 A 37.53 37.53 0 0 0 863.26 150.13" fill="#bba6f4"/><g transform="translate(975.87,75.07) scale(3.7535) rotate(0)"><path fill-rule="evenodd" clip-rule="evenodd" d="M10 20C15.5228 20 20 15.5228 20 10C20 4.47715 15.5228 0 10 0C4.47715 0 0 4.47715 0 10C0 15.5228 4.47715 20 10 20ZM10 17C13.866 17 17 13.866 17 10C17 6.13401 13.866 3 10 3C6.13401 3 3 6.13401 3 10C3 13.866 6.13401 17 10 17Z" fill="#dacff9"/></g><g transform="translate(0,150.13) scale(3.7535) rotate(0)"><path fill-rule="evenodd" clip-rule="evenodd" d="M10 20C15.5228 20 20 15.5228 20 10C20 4.47715 15.5228 0 10 0C4.47715 0 0 4.47715 0 10C0 15.5228 4.47715 20 10 20ZM10 17C13.866 17 17 13.866 17 10C17 6.13401 13.866 3 10 3C6.13401 3 3 6.13401 3 10C3 13.866 6.13401 17 10 17Z" fill="#e4dbfb"/></g><g transform="translate(75.07,150.13) scale(3.7535) rotate(0)"><path fill-rule="evenodd" clip-rule="evenodd" d="M10 20C15.5228 20 20 15.5228 20 10C20 4.47715 15.5228 0 10 0C4.47715 0 0 4.47715 0 10C0 15.5228 4.47715 20 10 20ZM10 17C13.866 17 17 13.866 17 10C17 6.13401 13.866 3 10 3C6.13401 3 3 6.13401 3 10C3 13.866 6.13401 17 10 17Z" fill="#5f2ee5"/></g><circle cx="187.665" cy="187.665" r="37.535" fill="#8b67ec"/><g transform="translate(225.2,150.13) scale(3.7535) rotate(0)"><path fill-rule="evenodd" clip-rule="evenodd" d="M10 20C15.5228 20 20 15.5228 20 10C20 4.47715 15.5228 0 10 0C4.47715 0 0 4.47715 0 10C0 15.5228 4.47715 20 10 20ZM10 17C13.866 17 17 13.866 17 10C17 6.13401 13.866 3 10 3C6.13401 3 3 6.13401 3 10C3 13.866 6.13401 17 10 17Z" fill="#5420e3"/></g><circle cx="337.80499999999995" cy="187.665" r="37.535" fill="#c8e3ff"/><path d="M 450.4 150.13 A 75.07 75.07 0 0 1  525.47 225.2 L 450.4 150.13 A 75.07 75.07 0 0 0 525.47 225.2" fill="#693be6"/><path d="M 600.53 150.13 A 75.07 75.07 0 0 1  675.5999999999999 225.2 L 600.53 150.13 A 75.07 75.07 0 0 0 675.5999999999999 225.2" fill="#8fc5fe"/><path d="M 750.67 225.2 A 75.07 75.07 0 0 1  825.74 150.13 L 750.67 225.2 A 75.07 75.07 0 0 0 825.74 150.13" fill="#5d2be4"/><circle cx="863.265" cy="187.665" r="37.535" fill="#5dabfe"/><path d="M 900.8 225.2 A 75.07 75.07 0 0 1  975.8699999999999 150.13 L 900.8 225.2 A 75.07 75.07 0 0 0 975.8699999999999 150.13" fill="#ab92f1"/></g></svg>