<?xml version="1.0" standalone="no"?><svg xmlns:xlink="http://www.w3.org/1999/xlink" xmlns="http://www.w3.org/2000/svg" viewBox="0 0 1920 404.20603907637656" preserveAspectRatio="xMaxYMax slice"><g transform="scale(1.7051509769094138)"><rect x="0" y="0" width="1126" height="237.05263157894737" fill="#fcfbfe"/><rect x="0" y="0" width="59.26315789473684" height="59.26315789473684" fill="#fcfbfe"/><rect x="0" y="0" width="29.63" height="29.63" fill="#a439de"/><g transform="translate(0,0) scale(1.4815) rotate(0)"><path d="M10 0H20V10L10 20H0V10L10 0Z" fill="#c27ce9"/></g><rect x="29.63" y="0" width="29.63" height="29.63" fill="#c1a0e6"/><g transform="translate(29.63,0) scale(1.4815) rotate(0)"><path d="M10 0L20 10L10 20L0 10L10 0Z" fill="#991fda"/></g><rect x="0" y="29.63" width="29.63" height="29.63" fill="#f7f1fc"/><circle cx="14.815" cy="44.445" r="14.815" fill="#b258e3"/><rect x="29.63" y="29.63" width="29.63" height="29.63" fill="#b58ee1"/><g transform="translate(29.63,29.63) scale(1.4815) rotate(0)"><path d="M13 0H20V7L7 20H0V13L13 0Z" fill="#fcfbfe"/></g><rect x="59.26" y="0" width="59.26" height="59.26" fill="#e2d3f3"/><g transform="translate(59.26,0) scale(2.963) rotate(0)"><path d="M5 0H10L5 5L0 10V5L5 0Z" fill="#f1ebfa"/><path d="M20 15V20H15L20 15Z" fill="#f1ebfa"/><path d="M20 5V10L15 15L10 20H5L20 5Z" fill="#f1ebfa"/><path d="M15 0H20L5 15.0002L0 20.0002V15.0002L15 0Z" fill="#f1ebfa"/></g><rect x="118.52631578947368" y="0" width="59.26315789473684" height="59.26315789473684" fill="#fcfbfe"/><rect x="118.53" y="0" width="29.63" height="29.63" fill="#d3a1ef"/><g transform="translate(118.53,0) scale(1.4815) rotate(0)"><path fill-rule="evenodd" clip-rule="evenodd" d="M10 20C15.5228 20 20 15.5228 20 10C20 4.47715 15.5228 0 10 0C4.47715 0 0 4.47715 0 10C0 15.5228 4.47715 20 10 20ZM10 17C13.866 17 17 13.866 17 10C17 6.13401 13.866 3 10 3C6.13401 3 3 6.13401 3 10C3 13.866 6.13401 17 10 17Z" fill="#c785ea"/></g><rect x="148.16" y="0" width="29.63" height="29.63" fill="#e4c5f5"/><polygon points="148.16,0 177.79,29.63 148.16,29.63" fill="#b052e2"/><rect x="118.53" y="29.63" width="29.63" height="29.63" fill="#b994e3"/><g transform="translate(118.53,29.63) scale(1.4815) rotate(0)"><path d="M13 0H20V7L7 20H0V13L13 0Z" fill="#d4a3ef"/></g><rect x="148.16" y="29.63" width="29.63" height="29.63" fill="#8e52d1"/><g transform="translate(148.16,29.63) scale(1.4815) rotate(0)"><path d="M10 5L5 0L0 5L5 10L0 15L5 20L10 15L15 20L20 15L15 10L20 5L15 0L10 5Z" fill="#e8dcf6"/></g><rect x="177.79" y="0" width="59.26" height="59.26" fill="#ca8cec"/><g transform="translate(177.79,0) scale(2.963) rotate(0)"><path d="M5 0H10L5 5L0 10V5L5 0Z" fill="#b359e3"/><path d="M20 15V20H15L20 15Z" fill="#b359e3"/><path d="M20 5V10L15 15L10 20H5L20 5Z" fill="#b359e3"/><path d="M15 0H20L5 15.0002L0 20.0002V15.0002L15 0Z" fill="#b359e3"/></g><rect x="237.05263157894737" y="0" width="59.26315789473684" height="59.26315789473684" fill="#fcfbfe"/><rect x="237.05" y="0" width="29.63" height="29.63" fill="#b155e2"/><g transform="translate(237.05,0) scale(1.4815) rotate(0)"><path d="M13 0H20V7L7 20H0V13L13 0Z" fill="#fcfafe"/></g><rect x="266.68" y="0" width="29.63" height="29.63" fill="#9314d8"/><g transform="translate(266.68,0) scale(1.4815) rotate(0)"><path d="M10 0H20V10L10 20H0V10L10 0Z" fill="#dccaf1"/></g><rect x="237.05" y="29.63" width="29.63" height="29.63" fill="#f7f0fc"/><g transform="translate(237.05,29.63) scale(1.4815) rotate(0)"><rect width="20" height="2" fill="#a06ed9"/><rect y="4" width="20" height="2" fill="#a06ed9"/><rect y="8" width="20" height="2" fill="#a06ed9"/><rect y="12" width="20" height="2" fill="#a06ed9"/><rect y="16" width="20" height="2" fill="#a06ed9"/></g><rect x="266.68" y="29.63" width="29.63" height="29.63" fill="#9313d7"/><g transform="translate(266.68,29.63) scale(1.4815) rotate(0)"><rect width="2" height="20" fill="#c47ee9"/><rect x="4" width="2" height="20" fill="#c47ee9"/><rect x="8" width="2" height="20" fill="#c47ee9"/><rect x="12" width="2" height="20" fill="#c47ee9"/><rect x="16" width="2" height="20" fill="#c47ee9"/></g><rect x="296.3157894736842" y="0" width="59.26315789473684" height="59.26315789473684" fill="#fcfbfe"/><rect x="296.32" y="0" width="29.63" height="29.63" fill="#d6c1ef"/><g transform="translate(296.32,0) scale(1.4815) rotate(0)"><rect width="2" height="20" fill="#d8acf1"/><rect x="4" width="2" height="20" fill="#d8acf1"/><rect x="8" width="2" height="20" fill="#d8acf1"/><rect x="12" width="2" height="20" fill="#d8acf1"/><rect x="16" width="2" height="20" fill="#d8acf1"/></g><rect x="325.95" y="0" width="29.63" height="29.63" fill="#884acf"/><g transform="translate(325.95,0) scale(1.4815) rotate(0)"><path fill-rule="evenodd" clip-rule="evenodd" d="M10 20C15.5228 20 20 15.5228 20 10C20 4.47715 15.5228 0 10 0C4.47715 0 0 4.47715 0 10C0 15.5228 4.47715 20 10 20ZM10 17C13.866 17 17 13.866 17 10C17 6.13401 13.866 3 10 3C6.13401 3 3 6.13401 3 10C3 13.866 6.13401 17 10 17Z" fill="#e4c6f5"/></g><rect x="296.32" y="29.63" width="29.63" height="29.63" fill="#9b25db"/><g transform="translate(296.32,29.63) scale(1.4815) rotate(0)"><path fill-rule="evenodd" clip-rule="evenodd" d="M10 20C15.5228 20 20 15.5228 20 10C20 4.47715 15.5228 0 10 0C4.47715 0 0 4.47715 0 10C0 15.5228 4.47715 20 10 20ZM10 17C13.866 17 17 13.866 17 10C17 6.13401 13.866 3 10 3C6.13401 3 3 6.13401 3 10C3 13.866 6.13401 17 10 17Z" fill="#9e2cdc"/></g><rect x="325.95" y="29.63" width="29.63" height="29.63" fill="#a87adc"/><g transform="translate(325.95,29.63) scale(1.4815) rotate(0)"><rect width="20" height="2" fill="#7831c8"/><rect y="4" width="20" height="2" fill="#7831c8"/><rect y="8" width="20" height="2" fill="#7831c8"/><rect y="12" width="20" height="2" fill="#7831c8"/><rect y="16" width="20" height="2" fill="#7831c8"/></g><rect x="355.58" y="0" width="59.26" height="59.26" fill="#d6c0ee"/><g transform="translate(355.58,0) scale(2.963) rotate(0)"><path d="M10 5L5 0L0 5L5 10L0 15L5 20L10 15L15 20L20 15L15 10L20 5L15 0L10 5Z" fill="#aa7ddc"/></g><rect x="414.84" y="0" width="59.26" height="59.26" fill="#d8c3ef"/><circle cx="444.46999999999997" cy="29.63" r="29.63" fill="#7c38ca"/><rect x="474.10526315789474" y="0" width="59.26315789473684" height="59.26315789473684" fill="#fcfbfe"/><rect x="474.11" y="0" width="29.63" height="29.63" fill="#d7aaf1"/><g transform="translate(474.11,0) scale(1.4815) rotate(0)"><path d="M10 0H20V10L10 20H0V10L10 0Z" fill="#945bd4"/></g><rect x="503.74" y="0" width="29.63" height="29.63" fill="#a372da"/><g transform="translate(503.74,0) scale(1.4815) rotate(0)"><rect width="20" height="2" fill="#a53ade"/><rect y="4" width="20" height="2" fill="#a53ade"/><rect y="8" width="20" height="2" fill="#a53ade"/><rect y="12" width="20" height="2" fill="#a53ade"/><rect y="16" width="20" height="2" fill="#a53ade"/></g><rect x="474.11" y="29.63" width="29.63" height="29.63" fill="#d29eee"/><path d="M 474.11 29.63 A 29.63 29.63 0 0 1  503.74 59.26 L 474.11 29.63 A 29.63 29.63 0 0 0 503.74 59.26" fill="#e9def6"/><rect x="503.74" y="29.63" width="29.63" height="29.63" fill="#c98aeb"/><g transform="translate(503.74,29.63) scale(1.4815) rotate(0)"><rect width="20" height="2" fill="#decdf2"/><rect y="4" width="20" height="2" fill="#decdf2"/><rect y="8" width="20" height="2" fill="#decdf2"/><rect y="12" width="20" height="2" fill="#decdf2"/><rect y="16" width="20" height="2" fill="#decdf2"/></g><rect x="533.37" y="0" width="59.26" height="59.26" fill="#e7cdf6"/><g transform="translate(533.37,0) scale(2.963) rotate(0)"><path d="M10 5L5 0L0 5L5 10L0 15L5 20L10 15L15 20L20 15L15 10L20 5L15 0L10 5Z" fill="#e4d7f4"/></g><rect x="592.6315789473684" y="0" width="59.26315789473684" height="59.26315789473684" fill="#fcfbfe"/><rect x="592.63" y="0" width="29.63" height="29.63" fill="#eddaf9"/><g transform="translate(592.63,0) scale(1.4815) rotate(0)"><path fill-rule="evenodd" clip-rule="evenodd" d="M10 20C15.5228 20 20 15.5228 20 10C20 4.47715 15.5228 0 10 0C4.47715 0 0 4.47715 0 10C0 15.5228 4.47715 20 10 20ZM10 17C13.866 17 17 13.866 17 10C17 6.13401 13.866 3 10 3C6.13401 3 3 6.13401 3 10C3 13.866 6.13401 17 10 17Z" fill="#b661e4"/></g><rect x="622.26" y="0" width="29.63" height="29.63" fill="#d8c3ef"/><path d="M 622.26 29.63 A 29.63 29.63 0 0 1  651.89 0 L 622.26 29.63 A 29.63 29.63 0 0 0 651.89 0" fill="#7c37ca"/><rect x="592.63" y="29.63" width="29.63" height="29.63" fill="#efdff9"/><polygon points="592.63,29.63 622.26,29.63 592.63,59.26" fill="#9619d8"/><rect x="622.26" y="29.63" width="29.63" height="29.63" fill="#8443cd"/><g transform="translate(622.26,29.63) scale(1.4815) rotate(0)"><rect width="2" height="20" fill="#e2c2f5"/><rect x="4" width="2" height="20" fill="#e2c2f5"/><rect x="8" width="2" height="20" fill="#e2c2f5"/><rect x="12" width="2" height="20" fill="#e2c2f5"/><rect x="16" width="2" height="20" fill="#e2c2f5"/></g><rect x="651.8947368421053" y="0" width="59.26315789473684" height="59.26315789473684" fill="#fcfbfe"/><rect x="651.89" y="0" width="29.63" height="29.63" fill="#ba95e3"/><g transform="translate(651.89,0) scale(1.4815) rotate(0)"><path d="M5 0H10L5 5L0 10V5L5 0Z" fill="#a132dd"/><path d="M20 15V20H15L20 15Z" fill="#a132dd"/><path d="M20 5V10L15 15L10 20H5L20 5Z" fill="#a132dd"/><path d="M15 0H20L5 15.0002L0 20.0002V15.0002L15 0Z" fill="#a132dd"/></g><rect x="681.53" y="0" width="29.63" height="29.63" fill="#9c26db"/><g transform="translate(681.53,0) scale(1.4815) rotate(0)"><path fill-rule="evenodd" clip-rule="evenodd" d="M10 20C15.5228 20 20 15.5228 20 10C20 4.47715 15.5228 0 10 0C4.47715 0 0 4.47715 0 10C0 15.5228 4.47715 20 10 20ZM10 17C13.866 17 17 13.866 17 10C17 6.13401 13.866 3 10 3C6.13401 3 3 6.13401 3 10C3 13.866 6.13401 17 10 17Z" fill="#ebd6f8"/></g><rect x="651.89" y="29.63" width="29.63" height="29.63" fill="#d3a0ef"/><g transform="translate(651.89,29.63) scale(1.4815) rotate(0)"><rect width="20" height="2" fill="#e9def6"/><rect y="4" width="20" height="2" fill="#e9def6"/><rect y="8" width="20" height="2" fill="#e9def6"/><rect y="12" width="20" height="2" fill="#e9def6"/><rect y="16" width="20" height="2" fill="#e9def6"/></g><rect x="681.53" y="29.63" width="29.63" height="29.63" fill="#ad82de"/><g transform="translate(681.53,29.63) scale(1.4815) rotate(0)"><rect width="20" height="2" fill="#9d28db"/><rect y="4" width="20" height="2" fill="#9d28db"/><rect y="8" width="20" height="2" fill="#9d28db"/><rect y="12" width="20" height="2" fill="#9d28db"/><rect y="16" width="20" height="2" fill="#9d28db"/></g><rect x="711.16" y="0" width="59.26" height="59.26" fill="#e4d7f4"/><g transform="translate(711.16,0) scale(2.963) rotate(0)"><path d="M5 0H10L5 5L0 10V5L5 0Z" fill="#935ad3"/><path d="M20 15V20H15L20 15Z" fill="#935ad3"/><path d="M20 5V10L15 15L10 20H5L20 5Z" fill="#935ad3"/><path d="M15 0H20L5 15.0002L0 20.0002V15.0002L15 0Z" fill="#935ad3"/></g><rect x="770.421052631579" y="0" width="59.26315789473684" height="59.26315789473684" fill="#fcfbfe"/><rect x="770.42" y="0" width="29.63" height="29.63" fill="#d6c1ef"/><g transform="translate(770.42,0) scale(1.4815) rotate(0)"><path d="M10 5L5 0L0 5L5 10L0 15L5 20L10 15L15 20L20 15L15 10L20 5L15 0L10 5Z" fill="#8747ce"/></g><rect x="800.05" y="0" width="29.63" height="29.63" fill="#f2e4fa"/><g transform="translate(800.05,0) scale(1.4815) rotate(0)"><path d="M5 0H10L5 5L0 10V5L5 0Z" fill="#dbb2f2"/><path d="M20 15V20H15L20 15Z" fill="#dbb2f2"/><path d="M20 5V10L15 15L10 20H5L20 5Z" fill="#dbb2f2"/><path d="M15 0H20L5 15.0002L0 20.0002V15.0002L15 0Z" fill="#dbb2f2"/></g><rect x="770.42" y="29.63" width="29.63" height="29.63" fill="#c37ce9"/><g transform="translate(770.42,29.63) scale(1.4815) rotate(0)"><rect width="2" height="20" fill="#9e6cd8"/><rect x="4" width="2" height="20" fill="#9e6cd8"/><rect x="8" width="2" height="20" fill="#9e6cd8"/><rect x="12" width="2" height="20" fill="#9e6cd8"/><rect x="16" width="2" height="20" fill="#9e6cd8"/></g><rect x="800.05" y="29.63" width="29.63" height="29.63" fill="#d29dee"/><g transform="translate(800.05,29.63) scale(1.4815) rotate(0)"><path d="M10 0L20 10L10 20L0 10L10 0Z" fill="#955ed4"/></g><rect x="829.6842105263158" y="0" width="59.26315789473684" height="59.26315789473684" fill="#fcfbfe"/><rect x="829.68" y="0" width="29.63" height="29.63" fill="#c889eb"/><g transform="translate(829.68,0) scale(1.4815) rotate(0)"><rect width="2" height="20" fill="#9312d7"/><rect x="4" width="2" height="20" fill="#9312d7"/><rect x="8" width="2" height="20" fill="#9312d7"/><rect x="12" width="2" height="20" fill="#9312d7"/><rect x="16" width="2" height="20" fill="#9312d7"/></g><rect x="859.32" y="0" width="29.63" height="29.63" fill="#eedbf9"/><g transform="translate(859.32,0) scale(1.4815) rotate(0)"><path d="M10 5L5 0L0 5L5 10L0 15L5 20L10 15L15 20L20 15L15 10L20 5L15 0L10 5Z" fill="#e6daf5"/></g><rect x="829.68" y="29.63" width="29.63" height="29.63" fill="#ae4ee1"/><g transform="translate(829.68,29.63) scale(1.4815) rotate(0)"><path d="M10 0H20V10L10 20H0V10L10 0Z" fill="#e4c7f5"/></g><rect x="859.32" y="29.63" width="29.63" height="29.63" fill="#dac7f0"/><g transform="translate(859.32,29.63) scale(1.4815) rotate(0)"><rect width="20" height="2" fill="#d6c1ef"/><rect y="4" width="20" height="2" fill="#d6c1ef"/><rect y="8" width="20" height="2" fill="#d6c1ef"/><rect y="12" width="20" height="2" fill="#d6c1ef"/><rect y="16" width="20" height="2" fill="#d6c1ef"/></g><rect x="888.95" y="0" width="59.26" height="59.26" fill="#c27ce9"/><g transform="translate(888.95,0) scale(2.963) rotate(0)"><path d="M13 0H20V7L7 20H0V13L13 0Z" fill="#b054e2"/></g><rect x="948.21" y="0" width="59.26" height="59.26" fill="#a170d9"/><g transform="translate(948.21,0) scale(2.963) rotate(0)"><path fill-rule="evenodd" clip-rule="evenodd" d="M10 20C15.5228 20 20 15.5228 20 10C20 4.47715 15.5228 0 10 0C4.47715 0 0 4.47715 0 10C0 15.5228 4.47715 20 10 20ZM10 17C13.866 17 17 13.866 17 10C17 6.13401 13.866 3 10 3C6.13401 3 3 6.13401 3 10C3 13.866 6.13401 17 10 17Z" fill="#f7f0fc"/></g><rect x="1007.4736842105264" y="0" width="59.26315789473684" height="59.26315789473684" fill="#fcfbfe"/><rect x="1007.47" y="0" width="29.63" height="29.63" fill="#b762e5"/><path d="M 1007.47 0 A 29.63 29.63 0 0 1  1037.1000000000001 29.63 L 1007.47 0 A 29.63 29.63 0 0 0 1037.1000000000001 29.63" fill="#9b24da"/><rect x="1037.11" y="0" width="29.63" height="29.63" fill="#bc6de7"/><g transform="translate(1037.11,0) scale(1.4815) rotate(0)"><path d="M10 0H20V10L10 20H0V10L10 0Z" fill="#bd6fe7"/></g><rect x="1007.47" y="29.63" width="29.63" height="29.63" fill="#e1bff4"/><g transform="translate(1007.47,29.63) scale(1.4815) rotate(0)"><path d="M10 0H20L0 20V10L10 0Z" fill="#a271d9"/><path d="M20 10V20H10L20 10Z" fill="#a271d9"/></g><rect x="1037.11" y="29.63" width="29.63" height="29.63" fill="#e7cdf6"/><g transform="translate(1037.11,29.63) scale(1.4815) rotate(0)"><path d="M10 0L20 10L10 20L0 10L10 0Z" fill="#e7cdf6"/></g><rect x="1066.7368421052631" y="0" width="59.26315789473684" height="59.26315789473684" fill="#fcfbfe"/><rect x="1066.74" y="0" width="29.63" height="29.63" fill="#7e3bcb"/><g transform="translate(1066.74,0) scale(1.4815) rotate(0)"><path d="M10 5L5 0L0 5L5 10L0 15L5 20L10 15L15 20L20 15L15 10L20 5L15 0L10 5Z" fill="#971bd9"/></g><rect x="1096.37" y="0" width="29.63" height="29.63" fill="#fbfafe"/><g transform="translate(1096.37,0) scale(1.4815) rotate(0)"><path d="M13 0H20V7L7 20H0V13L13 0Z" fill="#c98beb"/></g><rect x="1066.74" y="29.63" width="29.63" height="29.63" fill="#ae4ee1"/><g transform="translate(1066.74,29.63) scale(1.4815) rotate(0)"><path d="M10 5L5 0L0 5L5 10L0 15L5 20L10 15L15 20L20 15L15 10L20 5L15 0L10 5Z" fill="#7c37ca"/></g><rect x="1096.37" y="29.63" width="29.63" height="29.63" fill="#9b24da"/><circle cx="1111.185" cy="44.445" r="14.815" fill="#f1e2fa"/><rect x="0" y="59.26" width="59.26" height="59.26" fill="#910ed7"/><g transform="translate(0,59.26) scale(2.963) rotate(0)"><path d="M13 0H20V7L7 20H0V13L13 0Z" fill="#f8f3fd"/></g><rect x="59.26" y="59.26" width="59.26" height="59.26" fill="#d4a3ef"/><g transform="translate(59.26,59.26) scale(2.963) rotate(0)"><path d="M10 5L5 0L0 5L5 10L0 15L5 20L10 15L15 20L20 15L15 10L20 5L15 0L10 5Z" fill="#f3e8fb"/></g><rect x="118.52631578947368" y="59.26315789473684" width="59.26315789473684" height="59.26315789473684" fill="#fcfbfe"/><rect x="118.53" y="59.26" width="29.63" height="29.63" fill="#6e22c4"/><g transform="translate(118.53,59.26) scale(1.4815) rotate(0)"><path fill-rule="evenodd" clip-rule="evenodd" d="M10 20C15.5228 20 20 15.5228 20 10C20 4.47715 15.5228 0 10 0C4.47715 0 0 4.47715 0 10C0 15.5228 4.47715 20 10 20ZM10 17C13.866 17 17 13.866 17 10C17 6.13401 13.866 3 10 3C6.13401 3 3 6.13401 3 10C3 13.866 6.13401 17 10 17Z" fill="#c1a1e6"/></g><rect x="148.16" y="59.26" width="29.63" height="29.63" fill="#a942df"/><g transform="translate(148.16,59.26) scale(1.4815) rotate(0)"><rect width="20" height="2" fill="#7f3ccb"/><rect y="4" width="20" height="2" fill="#7f3ccb"/><rect y="8" width="20" height="2" fill="#7f3ccb"/><rect y="12" width="20" height="2" fill="#7f3ccb"/><rect y="16" width="20" height="2" fill="#7f3ccb"/></g><rect x="118.53" y="88.89" width="29.63" height="29.63" fill="#b289e0"/><polygon points="118.53,88.89 148.16,88.89 148.16,118.52" fill="#efdff9"/><rect x="148.16" y="88.89" width="29.63" height="29.63" fill="#b68fe1"/><g transform="translate(148.16,88.89) scale(1.4815) rotate(0)"><path fill-rule="evenodd" clip-rule="evenodd" d="M10 20C15.5228 20 20 15.5228 20 10C20 4.47715 15.5228 0 10 0C4.47715 0 0 4.47715 0 10C0 15.5228 4.47715 20 10 20ZM10 17C13.866 17 17 13.866 17 10C17 6.13401 13.866 3 10 3C6.13401 3 3 6.13401 3 10C3 13.866 6.13401 17 10 17Z" fill="#a132dd"/></g><rect x="177.79" y="59.26" width="59.26" height="59.26" fill="#b792e2"/><g transform="translate(177.79,59.26) scale(2.963) rotate(0)"><path d="M10 0H20V10L10 20H0V10L10 0Z" fill="#dfbcf3"/></g><rect x="237.05" y="59.26" width="59.26" height="59.26" fill="#c480ea"/><g transform="translate(237.05,59.26) scale(2.963) rotate(0)"><path d="M10 0H20L0 20V10L10 0Z" fill="#bd70e7"/><path d="M20 10V20H10L20 10Z" fill="#bd70e7"/></g><rect x="296.3157894736842" y="59.26315789473684" width="59.26315789473684" height="59.26315789473684" fill="#fcfbfe"/><rect x="296.32" y="59.26" width="29.63" height="29.63" fill="#d7c3ef"/><g transform="translate(296.32,59.26) scale(1.4815) rotate(0)"><rect width="20" height="2" fill="#7e39cb"/><rect y="4" width="20" height="2" fill="#7e39cb"/><rect y="8" width="20" height="2" fill="#7e39cb"/><rect y="12" width="20" height="2" fill="#7e39cb"/><rect y="16" width="20" height="2" fill="#7e39cb"/></g><rect x="325.95" y="59.26" width="29.63" height="29.63" fill="#c37ce9"/><g transform="translate(325.95,59.26) scale(1.4815) rotate(0)"><path fill-rule="evenodd" clip-rule="evenodd" d="M10 20C15.5228 20 20 15.5228 20 10C20 4.47715 15.5228 0 10 0C4.47715 0 0 4.47715 0 10C0 15.5228 4.47715 20 10 20ZM10 17C13.866 17 17 13.866 17 10C17 6.13401 13.866 3 10 3C6.13401 3 3 6.13401 3 10C3 13.866 6.13401 17 10 17Z" fill="#e1d1f3"/></g><rect x="296.32" y="88.89" width="29.63" height="29.63" fill="#c7a9e8"/><path d="M 296.32 88.89 A 29.63 29.63 0 0 1  325.95 118.52 L 296.32 88.89 A 29.63 29.63 0 0 0 325.95 118.52" fill="#c37ee9"/><rect x="325.95" y="88.89" width="29.63" height="29.63" fill="#f5f0fb"/><circle cx="340.765" cy="103.705" r="14.815" fill="#b893e2"/><rect x="355.57894736842104" y="59.26315789473684" width="59.26315789473684" height="59.26315789473684" fill="#fcfbfe"/><rect x="355.58" y="59.26" width="29.63" height="29.63" fill="#971bd9"/><g transform="translate(355.58,59.26) scale(1.4815) rotate(0)"><path fill-rule="evenodd" clip-rule="evenodd" d="M10 20C15.5228 20 20 15.5228 20 10C20 4.47715 15.5228 0 10 0C4.47715 0 0 4.47715 0 10C0 15.5228 4.47715 20 10 20ZM10 17C13.866 17 17 13.866 17 10C17 6.13401 13.866 3 10 3C6.13401 3 3 6.13401 3 10C3 13.866 6.13401 17 10 17Z" fill="#c889eb"/></g><rect x="385.21" y="59.26" width="29.63" height="29.63" fill="#a53bde"/><g transform="translate(385.21,59.26) scale(1.4815) rotate(0)"><path d="M10 0H20L0 20V10L10 0Z" fill="#d4a3ef"/><path d="M20 10V20H10L20 10Z" fill="#d4a3ef"/></g><rect x="355.58" y="88.89" width="29.63" height="29.63" fill="#d3a1ef"/><g transform="translate(355.58,88.89) scale(1.4815) rotate(0)"><rect width="20" height="2" fill="#e6d9f5"/><rect y="4" width="20" height="2" fill="#e6d9f5"/><rect y="8" width="20" height="2" fill="#e6d9f5"/><rect y="12" width="20" height="2" fill="#e6d9f5"/><rect y="16" width="20" height="2" fill="#e6d9f5"/></g><rect x="385.21" y="88.89" width="29.63" height="29.63" fill="#d4bdee"/><g transform="translate(385.21,88.89) scale(1.4815) rotate(0)"><path d="M10 0L20 10L10 20L0 10L10 0Z" fill="#8e53d1"/></g><rect x="414.8421052631579" y="59.26315789473684" width="59.26315789473684" height="59.26315789473684" fill="#fcfbfe"/><rect x="414.84" y="59.26" width="29.63" height="29.63" fill="#8444cd"/><g transform="translate(414.84,59.26) scale(1.4815) rotate(0)"><path d="M5 0H10L5 5L0 10V5L5 0Z" fill="#eee6f8"/><path d="M20 15V20H15L20 15Z" fill="#eee6f8"/><path d="M20 5V10L15 15L10 20H5L20 5Z" fill="#eee6f8"/><path d="M15 0H20L5 15.0002L0 20.0002V15.0002L15 0Z" fill="#eee6f8"/></g><rect x="444.47" y="59.26" width="29.63" height="29.63" fill="#9c26db"/><g transform="translate(444.47,59.26) scale(1.4815) rotate(0)"><path d="M10 5L5 0L0 5L5 10L0 15L5 20L10 15L15 20L20 15L15 10L20 5L15 0L10 5Z" fill="#8b4dd0"/></g><rect x="414.84" y="88.89" width="29.63" height="29.63" fill="#a841df"/><g transform="translate(414.84,88.89) scale(1.4815) rotate(0)"><path fill-rule="evenodd" clip-rule="evenodd" d="M10 20C15.5228 20 20 15.5228 20 10C20 4.47715 15.5228 0 10 0C4.47715 0 0 4.47715 0 10C0 15.5228 4.47715 20 10 20ZM10 17C13.866 17 17 13.866 17 10C17 6.13401 13.866 3 10 3C6.13401 3 3 6.13401 3 10C3 13.866 6.13401 17 10 17Z" fill="#f7f0fc"/></g><rect x="444.47" y="88.89" width="29.63" height="29.63" fill="#c98beb"/><g transform="translate(444.47,88.89) scale(1.4815) rotate(0)"><path d="M10 0H20V10L10 20H0V10L10 0Z" fill="#d19cee"/></g><rect x="474.11" y="59.26" width="59.26" height="59.26" fill="#ba96e3"/><g transform="translate(474.11,59.26) scale(2.963) rotate(0)"><path d="M10 0H20V10L10 20H0V10L10 0Z" fill="#cbafea"/></g><rect x="533.37" y="59.26" width="59.26" height="59.26" fill="#7f3ccb"/><g transform="translate(533.37,59.26) scale(2.963) rotate(0)"><path d="M10 0H20L0 20V10L10 0Z" fill="#f0e8f9"/><path d="M20 10V20H10L20 10Z" fill="#f0e8f9"/></g><rect x="592.6315789473684" y="59.26315789473684" width="59.26315789473684" height="59.26315789473684" fill="#fcfbfe"/><rect x="592.63" y="59.26" width="29.63" height="29.63" fill="#be9be5"/><g transform="translate(592.63,59.26) scale(1.4815) rotate(0)"><path fill-rule="evenodd" clip-rule="evenodd" d="M10 20C15.5228 20 20 15.5228 20 10C20 4.47715 15.5228 0 10 0C4.47715 0 0 4.47715 0 10C0 15.5228 4.47715 20 10 20ZM10 17C13.866 17 17 13.866 17 10C17 6.13401 13.866 3 10 3C6.13401 3 3 6.13401 3 10C3 13.866 6.13401 17 10 17Z" fill="#c27ae9"/></g><rect x="622.26" y="59.26" width="29.63" height="29.63" fill="#7832c8"/><path d="M 622.26 59.26 A 29.63 29.63 0 0 1  651.89 88.89 L 622.26 59.26 A 29.63 29.63 0 0 0 651.89 88.89" fill="#ad82de"/><rect x="592.63" y="88.89" width="29.63" height="29.63" fill="#9a23da"/><g transform="translate(592.63,88.89) scale(1.4815) rotate(0)"><path d="M10 0H20L0 20V10L10 0Z" fill="#b257e3"/><path d="M20 10V20H10L20 10Z" fill="#b257e3"/></g><rect x="622.26" y="88.89" width="29.63" height="29.63" fill="#f9f4fd"/><polygon points="622.26,88.89 651.89,88.89 622.26,118.52" fill="#d099ee"/><rect x="651.8947368421053" y="59.26315789473684" width="59.26315789473684" height="59.26315789473684" fill="#fcfbfe"/><rect x="651.89" y="59.26" width="29.63" height="29.63" fill="#be72e7"/><g transform="translate(651.89,59.26) scale(1.4815) rotate(0)"><path d="M10 0H20L0 20V10L10 0Z" fill="#e6d9f5"/><path d="M20 10V20H10L20 10Z" fill="#e6d9f5"/></g><rect x="681.53" y="59.26" width="29.63" height="29.63" fill="#d0b8ec"/><g transform="translate(681.53,59.26) scale(1.4815) rotate(0)"><rect width="2" height="20" fill="#9258d3"/><rect x="4" width="2" height="20" fill="#9258d3"/><rect x="8" width="2" height="20" fill="#9258d3"/><rect x="12" width="2" height="20" fill="#9258d3"/><rect x="16" width="2" height="20" fill="#9258d3"/></g><rect x="651.89" y="88.89" width="29.63" height="29.63" fill="#c785ea"/><g transform="translate(651.89,88.89) scale(1.4815) rotate(0)"><rect width="2" height="20" fill="#f6f2fc"/><rect x="4" width="2" height="20" fill="#f6f2fc"/><rect x="8" width="2" height="20" fill="#f6f2fc"/><rect x="12" width="2" height="20" fill="#f6f2fc"/><rect x="16" width="2" height="20" fill="#f6f2fc"/></g><rect x="681.53" y="88.89" width="29.63" height="29.63" fill="#debaf3"/><polygon points="681.53,88.89 711.16,88.89 711.16,118.52" fill="#aa45e0"/><rect x="711.16" y="59.26" width="59.26" height="59.26" fill="#9055d2"/><g transform="translate(711.16,59.26) scale(2.963) rotate(0)"><path d="M10 0H20L0 20V10L10 0Z" fill="#deb8f3"/><path d="M20 10V20H10L20 10Z" fill="#deb8f3"/></g><rect x="770.421052631579" y="59.26315789473684" width="59.26315789473684" height="59.26315789473684" fill="#fcfbfe"/><rect x="770.42" y="59.26" width="29.63" height="29.63" fill="#a63edf"/><g transform="translate(770.42,59.26) scale(1.4815) rotate(0)"><path d="M13 0H20V7L7 20H0V13L13 0Z" fill="#9b25da"/></g><rect x="800.05" y="59.26" width="29.63" height="29.63" fill="#a06ed8"/><g transform="translate(800.05,59.26) scale(1.4815) rotate(0)"><rect width="2" height="20" fill="#e6d9f5"/><rect x="4" width="2" height="20" fill="#e6d9f5"/><rect x="8" width="2" height="20" fill="#e6d9f5"/><rect x="12" width="2" height="20" fill="#e6d9f5"/><rect x="16" width="2" height="20" fill="#e6d9f5"/></g><rect x="770.42" y="88.89" width="29.63" height="29.63" fill="#c786eb"/><g transform="translate(770.42,88.89) scale(1.4815) rotate(0)"><path d="M13 0H20V7L7 20H0V13L13 0Z" fill="#ecd8f8"/></g><rect x="800.05" y="88.89" width="29.63" height="29.63" fill="#a272da"/><circle cx="814.865" cy="103.705" r="14.815" fill="#f2e6fa"/><rect x="829.6842105263158" y="59.26315789473684" width="59.26315789473684" height="59.26315789473684" fill="#fcfbfe"/><rect x="829.68" y="59.26" width="29.63" height="29.63" fill="#803dcc"/><g transform="translate(829.68,59.26) scale(1.4815) rotate(0)"><path d="M10 0L20 10L10 20L0 10L10 0Z" fill="#8342cd"/></g><rect x="859.32" y="59.26" width="29.63" height="29.63" fill="#d3bced"/><g transform="translate(859.32,59.26) scale(1.4815) rotate(0)"><rect width="2" height="20" fill="#9c26db"/><rect x="4" width="2" height="20" fill="#9c26db"/><rect x="8" width="2" height="20" fill="#9c26db"/><rect x="12" width="2" height="20" fill="#9c26db"/><rect x="16" width="2" height="20" fill="#9c26db"/></g><rect x="829.68" y="88.89" width="29.63" height="29.63" fill="#ce94ed"/><g transform="translate(829.68,88.89) scale(1.4815) rotate(0)"><path d="M5 0H10L5 5L0 10V5L5 0Z" fill="#fbf8fe"/><path d="M20 15V20H15L20 15Z" fill="#fbf8fe"/><path d="M20 5V10L15 15L10 20H5L20 5Z" fill="#fbf8fe"/><path d="M15 0H20L5 15.0002L0 20.0002V15.0002L15 0Z" fill="#fbf8fe"/></g><rect x="859.32" y="88.89" width="29.63" height="29.63" fill="#dcb5f2"/><g transform="translate(859.32,88.89) scale(1.4815) rotate(0)"><path d="M10 5L5 0L0 5L5 10L0 15L5 20L10 15L15 20L20 15L15 10L20 5L15 0L10 5Z" fill="#9862d5"/></g><rect x="888.9473684210526" y="59.26315789473684" width="59.26315789473684" height="59.26315789473684" fill="#fcfbfe"/><rect x="888.95" y="59.26" width="29.63" height="29.63" fill="#9157d2"/><g transform="translate(888.95,59.26) scale(1.4815) rotate(0)"><path d="M10 0L20 10L10 20L0 10L10 0Z" fill="#965fd5"/></g><rect x="918.58" y="59.26" width="29.63" height="29.63" fill="#d7c3ef"/><circle cx="933.3950000000001" cy="74.075" r="14.815" fill="#9b24da"/><rect x="888.95" y="88.89" width="29.63" height="29.63" fill="#a53ade"/><circle cx="903.7650000000001" cy="103.705" r="14.815" fill="#a576db"/><rect x="918.58" y="88.89" width="29.63" height="29.63" fill="#b864e5"/><g transform="translate(918.58,88.89) scale(1.4815) rotate(0)"><path d="M13 0H20V7L7 20H0V13L13 0Z" fill="#9d69d7"/></g><rect x="948.21" y="59.26" width="59.26" height="59.26" fill="#9259d3"/><path d="M 948.21 59.26 A 59.26 59.26 0 0 1  1007.47 118.52 L 948.21 59.26 A 59.26 59.26 0 0 0 1007.47 118.52" fill="#9f6dd8"/><rect x="1007.4736842105264" y="59.26315789473684" width="59.26315789473684" height="59.26315789473684" fill="#fcfbfe"/><rect x="1007.47" y="59.26" width="29.63" height="29.63" fill="#ecd8f8"/><g transform="translate(1007.47,59.26) scale(1.4815) rotate(0)"><path d="M13 0H20V7L7 20H0V13L13 0Z" fill="#9c28db"/></g><rect x="1037.11" y="59.26" width="29.63" height="29.63" fill="#9c27db"/><g transform="translate(1037.11,59.26) scale(1.4815) rotate(0)"><path fill-rule="evenodd" clip-rule="evenodd" d="M10 20C15.5228 20 20 15.5228 20 10C20 4.47715 15.5228 0 10 0C4.47715 0 0 4.47715 0 10C0 15.5228 4.47715 20 10 20ZM10 17C13.866 17 17 13.866 17 10C17 6.13401 13.866 3 10 3C6.13401 3 3 6.13401 3 10C3 13.866 6.13401 17 10 17Z" fill="#cdb3eb"/></g><rect x="1007.47" y="88.89" width="29.63" height="29.63" fill="#b762e5"/><g transform="translate(1007.47,88.89) scale(1.4815) rotate(0)"><path d="M10 0L20 10L10 20L0 10L10 0Z" fill="#bc99e4"/></g><rect x="1037.11" y="88.89" width="29.63" height="29.63" fill="#752cc7"/><circle cx="1051.925" cy="103.705" r="14.815" fill="#a06dd8"/><rect x="1066.7368421052631" y="59.26315789473684" width="59.26315789473684" height="59.26315789473684" fill="#fcfbfe"/><rect x="1066.74" y="59.26" width="29.63" height="29.63" fill="#be9de5"/><g transform="translate(1066.74,59.26) scale(1.4815) rotate(0)"><path d="M10 5L5 0L0 5L5 10L0 15L5 20L10 15L15 20L20 15L15 10L20 5L15 0L10 5Z" fill="#c786eb"/></g><rect x="1096.37" y="59.26" width="29.63" height="29.63" fill="#7c37ca"/><g transform="translate(1096.37,59.26) scale(1.4815) rotate(0)"><path d="M10 0L20 10L10 20L0 10L10 0Z" fill="#884acf"/></g><rect x="1066.74" y="88.89" width="29.63" height="29.63" fill="#a944e0"/><g transform="translate(1066.74,88.89) scale(1.4815) rotate(0)"><path fill-rule="evenodd" clip-rule="evenodd" d="M10 20C15.5228 20 20 15.5228 20 10C20 4.47715 15.5228 0 10 0C4.47715 0 0 4.47715 0 10C0 15.5228 4.47715 20 10 20ZM10 17C13.866 17 17 13.866 17 10C17 6.13401 13.866 3 10 3C6.13401 3 3 6.13401 3 10C3 13.866 6.13401 17 10 17Z" fill="#c27ce9"/></g><rect x="1096.37" y="88.89" width="29.63" height="29.63" fill="#ac80dd"/><path d="M 1096.37 118.52 A 29.63 29.63 0 0 1  1126 88.89 L 1096.37 118.52 A 29.63 29.63 0 0 0 1126 88.89" fill="#a63ddf"/><rect x="0" y="118.52631578947368" width="59.26315789473684" height="59.26315789473684" fill="#fcfbfe"/><rect x="0" y="118.53" width="29.63" height="29.63" fill="#c47fe9"/><g transform="translate(0,118.53) scale(1.4815) rotate(0)"><path d="M10 5L5 0L0 5L5 10L0 15L5 20L10 15L15 20L20 15L15 10L20 5L15 0L10 5Z" fill="#e4d7f4"/></g><rect x="29.63" y="118.53" width="29.63" height="29.63" fill="#f0e1fa"/><g transform="translate(29.63,118.53) scale(1.4815) rotate(0)"><path d="M10 0H20L0 20V10L10 0Z" fill="#ac4be1"/><path d="M20 10V20H10L20 10Z" fill="#ac4be1"/></g><rect x="0" y="148.16" width="29.63" height="29.63" fill="#7d38ca"/><g transform="translate(0,148.16) scale(1.4815) rotate(0)"><path fill-rule="evenodd" clip-rule="evenodd" d="M10 20C15.5228 20 20 15.5228 20 10C20 4.47715 15.5228 0 10 0C4.47715 0 0 4.47715 0 10C0 15.5228 4.47715 20 10 20ZM10 17C13.866 17 17 13.866 17 10C17 6.13401 13.866 3 10 3C6.13401 3 3 6.13401 3 10C3 13.866 6.13401 17 10 17Z" fill="#e2c3f5"/></g><rect x="29.63" y="148.16" width="29.63" height="29.63" fill="#e5c7f5"/><g transform="translate(29.63,148.16) scale(1.4815) rotate(0)"><path fill-rule="evenodd" clip-rule="evenodd" d="M10 20C15.5228 20 20 15.5228 20 10C20 4.47715 15.5228 0 10 0C4.47715 0 0 4.47715 0 10C0 15.5228 4.47715 20 10 20ZM10 17C13.866 17 17 13.866 17 10C17 6.13401 13.866 3 10 3C6.13401 3 3 6.13401 3 10C3 13.866 6.13401 17 10 17Z" fill="#e3c4f5"/></g><rect x="59.26" y="118.53" width="59.26" height="59.26" fill="#dccaf1"/><circle cx="88.89" cy="148.16" r="29.63" fill="#f1eaf9"/><rect x="118.52631578947368" y="118.52631578947368" width="59.26315789473684" height="59.26315789473684" fill="#fcfbfe"/><rect x="118.53" y="118.53" width="29.63" height="29.63" fill="#b38ce0"/><polygon points="148.16,118.53 148.16,148.16 118.53,148.16" fill="#edd9f8"/><rect x="148.16" y="118.53" width="29.63" height="29.63" fill="#fcfbfe"/><g transform="translate(148.16,118.53) scale(1.4815) rotate(0)"><path d="M5 0H10L5 5L0 10V5L5 0Z" fill="#a944e0"/><path d="M20 15V20H15L20 15Z" fill="#a944e0"/><path d="M20 5V10L15 15L10 20H5L20 5Z" fill="#a944e0"/><path d="M15 0H20L5 15.0002L0 20.0002V15.0002L15 0Z" fill="#a944e0"/></g><rect x="118.53" y="148.16" width="29.63" height="29.63" fill="#b087df"/><g transform="translate(118.53,148.16) scale(1.4815) rotate(0)"><path fill-rule="evenodd" clip-rule="evenodd" d="M10 20C15.5228 20 20 15.5228 20 10C20 4.47715 15.5228 0 10 0C4.47715 0 0 4.47715 0 10C0 15.5228 4.47715 20 10 20ZM10 17C13.866 17 17 13.866 17 10C17 6.13401 13.866 3 10 3C6.13401 3 3 6.13401 3 10C3 13.866 6.13401 17 10 17Z" fill="#8849cf"/></g><rect x="148.16" y="148.16" width="29.63" height="29.63" fill="#9157d2"/><g transform="translate(148.16,148.16) scale(1.4815) rotate(0)"><path d="M13 0H20V7L7 20H0V13L13 0Z" fill="#f0e8f9"/></g><rect x="177.78947368421052" y="118.52631578947368" width="59.26315789473684" height="59.26315789473684" fill="#fcfbfe"/><rect x="177.79" y="118.53" width="29.63" height="29.63" fill="#991fda"/><polygon points="177.79,118.53 207.42,118.53 177.79,148.16" fill="#d19bee"/><rect x="207.42" y="118.53" width="29.63" height="29.63" fill="#971bd9"/><g transform="translate(207.42,118.53) scale(1.4815) rotate(0)"><path fill-rule="evenodd" clip-rule="evenodd" d="M10 20C15.5228 20 20 15.5228 20 10C20 4.47715 15.5228 0 10 0C4.47715 0 0 4.47715 0 10C0 15.5228 4.47715 20 10 20ZM10 17C13.866 17 17 13.866 17 10C17 6.13401 13.866 3 10 3C6.13401 3 3 6.13401 3 10C3 13.866 6.13401 17 10 17Z" fill="#813fcc"/></g><rect x="177.79" y="148.16" width="29.63" height="29.63" fill="#dbc8f0"/><g transform="translate(177.79,148.16) scale(1.4815) rotate(0)"><rect width="20" height="2" fill="#752dc7"/><rect y="4" width="20" height="2" fill="#752dc7"/><rect y="8" width="20" height="2" fill="#752dc7"/><rect y="12" width="20" height="2" fill="#752dc7"/><rect y="16" width="20" height="2" fill="#752dc7"/></g><rect x="207.42" y="148.16" width="29.63" height="29.63" fill="#e7cbf6"/><g transform="translate(207.42,148.16) scale(1.4815) rotate(0)"><path d="M13 0H20V7L7 20H0V13L13 0Z" fill="#bf75e8"/></g><rect x="237.05" y="118.53" width="59.26" height="59.26" fill="#f0e9f9"/><g transform="translate(237.05,118.53) scale(2.963) rotate(0)"><path d="M10 0H20V10L10 20H0V10L10 0Z" fill="#e6d9f5"/></g><rect x="296.3157894736842" y="118.52631578947368" width="59.26315789473684" height="59.26315789473684" fill="#fcfbfe"/><rect x="296.32" y="118.53" width="29.63" height="29.63" fill="#d5a4f0"/><g transform="translate(296.32,118.53) scale(1.4815) rotate(0)"><rect width="20" height="2" fill="#cc90ec"/><rect y="4" width="20" height="2" fill="#cc90ec"/><rect y="8" width="20" height="2" fill="#cc90ec"/><rect y="12" width="20" height="2" fill="#cc90ec"/><rect y="16" width="20" height="2" fill="#cc90ec"/></g><rect x="325.95" y="118.53" width="29.63" height="29.63" fill="#b35ae3"/><g transform="translate(325.95,118.53) scale(1.4815) rotate(0)"><rect width="20" height="2" fill="#894acf"/><rect y="4" width="20" height="2" fill="#894acf"/><rect y="8" width="20" height="2" fill="#894acf"/><rect y="12" width="20" height="2" fill="#894acf"/><rect y="16" width="20" height="2" fill="#894acf"/></g><rect x="296.32" y="148.16" width="29.63" height="29.63" fill="#b660e4"/><polygon points="296.32,148.16 325.95,148.16 296.32,177.79" fill="#b68fe1"/><rect x="325.95" y="148.16" width="29.63" height="29.63" fill="#d0b7ec"/><g transform="translate(325.95,148.16) scale(1.4815) rotate(0)"><path d="M5 0H10L5 5L0 10V5L5 0Z" fill="#e4c6f5"/><path d="M20 15V20H15L20 15Z" fill="#e4c6f5"/><path d="M20 5V10L15 15L10 20H5L20 5Z" fill="#e4c6f5"/><path d="M15 0H20L5 15.0002L0 20.0002V15.0002L15 0Z" fill="#e4c6f5"/></g><rect x="355.58" y="118.53" width="59.26" height="59.26" fill="#c4a5e7"/><g transform="translate(355.58,118.53) scale(2.963) rotate(0)"><rect width="2" height="20" fill="#8849cf"/><rect x="4" width="2" height="20" fill="#8849cf"/><rect x="8" width="2" height="20" fill="#8849cf"/><rect x="12" width="2" height="20" fill="#8849cf"/><rect x="16" width="2" height="20" fill="#8849cf"/></g><rect x="414.84" y="118.53" width="59.26" height="59.26" fill="#b48de1"/><g transform="translate(414.84,118.53) scale(2.963) rotate(0)"><rect width="2" height="20" fill="#d6c0ee"/><rect x="4" width="2" height="20" fill="#d6c0ee"/><rect x="8" width="2" height="20" fill="#d6c0ee"/><rect x="12" width="2" height="20" fill="#d6c0ee"/><rect x="16" width="2" height="20" fill="#d6c0ee"/></g><rect x="474.11" y="118.53" width="59.26" height="59.26" fill="#fcfbfe"/><g transform="translate(474.11,118.53) scale(2.963) rotate(0)"><path d="M10 0H20L0 20V10L10 0Z" fill="#8646ce"/><path d="M20 10V20H10L20 10Z" fill="#8646ce"/></g><rect x="533.37" y="118.53" width="59.26" height="59.26" fill="#c37de9"/><g transform="translate(533.37,118.53) scale(2.963) rotate(0)"><rect width="20" height="2" fill="#bc6de6"/><rect y="4" width="20" height="2" fill="#bc6de6"/><rect y="8" width="20" height="2" fill="#bc6de6"/><rect y="12" width="20" height="2" fill="#bc6de6"/><rect y="16" width="20" height="2" fill="#bc6de6"/></g><rect x="592.6315789473684" y="118.52631578947368" width="59.26315789473684" height="59.26315789473684" fill="#fcfbfe"/><rect x="592.63" y="118.53" width="29.63" height="29.63" fill="#b58ee1"/><g transform="translate(592.63,118.53) scale(1.4815) rotate(0)"><path d="M13 0H20V7L7 20H0V13L13 0Z" fill="#c27be9"/></g><rect x="622.26" y="118.53" width="29.63" height="29.63" fill="#9a22da"/><g transform="translate(622.26,118.53) scale(1.4815) rotate(0)"><rect width="20" height="2" fill="#d9c5f0"/><rect y="4" width="20" height="2" fill="#d9c5f0"/><rect y="8" width="20" height="2" fill="#d9c5f0"/><rect y="12" width="20" height="2" fill="#d9c5f0"/><rect y="16" width="20" height="2" fill="#d9c5f0"/></g><rect x="592.63" y="148.16" width="29.63" height="29.63" fill="#ede4f8"/><g transform="translate(592.63,148.16) scale(1.4815) rotate(0)"><path d="M5 0H10L5 5L0 10V5L5 0Z" fill="#8f0ad6"/><path d="M20 15V20H15L20 15Z" fill="#8f0ad6"/><path d="M20 5V10L15 15L10 20H5L20 5Z" fill="#8f0ad6"/><path d="M15 0H20L5 15.0002L0 20.0002V15.0002L15 0Z" fill="#8f0ad6"/></g><rect x="622.26" y="148.16" width="29.63" height="29.63" fill="#cd93ed"/><path d="M 622.26 148.16 A 29.63 29.63 0 0 1  651.89 177.79 L 622.26 148.16 A 29.63 29.63 0 0 0 651.89 177.79" fill="#6c1fc3"/><rect x="651.89" y="118.53" width="59.26" height="59.26" fill="#c27ae9"/><path d="M 651.89 118.53 A 59.26 59.26 0 0 1  711.15 177.79 L 651.89 118.53 A 59.26 59.26 0 0 0 711.15 177.79" fill="#e0d1f3"/><rect x="711.1578947368421" y="118.52631578947368" width="59.26315789473684" height="59.26315789473684" fill="#fcfbfe"/><rect x="711.16" y="118.53" width="29.63" height="29.63" fill="#d8abf1"/><g transform="translate(711.16,118.53) scale(1.4815) rotate(0)"><path d="M10 0L20 10L10 20L0 10L10 0Z" fill="#c582ea"/></g><rect x="740.79" y="118.53" width="29.63" height="29.63" fill="#ab7fdd"/><g transform="translate(740.79,118.53) scale(1.4815) rotate(0)"><path d="M10 0H20L0 20V10L10 0Z" fill="#9c26db"/><path d="M20 10V20H10L20 10Z" fill="#9c26db"/></g><rect x="711.16" y="148.16" width="29.63" height="29.63" fill="#9210d7"/><g transform="translate(711.16,148.16) scale(1.4815) rotate(0)"><path d="M10 5L5 0L0 5L5 10L0 15L5 20L10 15L15 20L20 15L15 10L20 5L15 0L10 5Z" fill="#9b25da"/></g><rect x="740.79" y="148.16" width="29.63" height="29.63" fill="#d8abf1"/><g transform="translate(740.79,148.16) scale(1.4815) rotate(0)"><path d="M10 5L5 0L0 5L5 10L0 15L5 20L10 15L15 20L20 15L15 10L20 5L15 0L10 5Z" fill="#752cc7"/></g><rect x="770.42" y="118.53" width="59.26" height="59.26" fill="#a131dc"/><g transform="translate(770.42,118.53) scale(2.963) rotate(0)"><path d="M10 0H20L0 20V10L10 0Z" fill="#e3d5f4"/><path d="M20 10V20H10L20 10Z" fill="#e3d5f4"/></g><rect x="829.6842105263158" y="118.52631578947368" width="59.26315789473684" height="59.26315789473684" fill="#fcfbfe"/><rect x="829.68" y="118.53" width="29.63" height="29.63" fill="#bd9ae4"/><polygon points="829.68,118.53 859.31,118.53 859.31,148.16" fill="#9c26db"/><rect x="859.32" y="118.53" width="29.63" height="29.63" fill="#7f3ccb"/><path d="M 859.32 148.16 A 29.63 29.63 0 0 1  888.95 118.53 L 859.32 148.16 A 29.63 29.63 0 0 0 888.95 118.53" fill="#8a4dd0"/><rect x="829.68" y="148.16" width="29.63" height="29.63" fill="#e1bef4"/><g transform="translate(829.68,148.16) scale(1.4815) rotate(0)"><path d="M5 0H10L5 5L0 10V5L5 0Z" fill="#ca8dec"/><path d="M20 15V20H15L20 15Z" fill="#ca8dec"/><path d="M20 5V10L15 15L10 20H5L20 5Z" fill="#ca8dec"/><path d="M15 0H20L5 15.0002L0 20.0002V15.0002L15 0Z" fill="#ca8dec"/></g><rect x="859.32" y="148.16" width="29.63" height="29.63" fill="#f6edfc"/><g transform="translate(859.32,148.16) scale(1.4815) rotate(0)"><path d="M5 0H10L5 5L0 10V5L5 0Z" fill="#762ec8"/><path d="M20 15V20H15L20 15Z" fill="#762ec8"/><path d="M20 5V10L15 15L10 20H5L20 5Z" fill="#762ec8"/><path d="M15 0H20L5 15.0002L0 20.0002V15.0002L15 0Z" fill="#762ec8"/></g><rect x="888.95" y="118.53" width="59.26" height="59.26" fill="#9e2cdc"/><g transform="translate(888.95,118.53) scale(2.963) rotate(0)"><path d="M10 0L20 10L10 20L0 10L10 0Z" fill="#dccaf1"/></g><rect x="948.2105263157895" y="118.52631578947368" width="59.26315789473684" height="59.26315789473684" fill="#fcfbfe"/><rect x="948.21" y="118.53" width="29.63" height="29.63" fill="#910ed7"/><g transform="translate(948.21,118.53) scale(1.4815) rotate(0)"><path d="M10 0L20 10L10 20L0 10L10 0Z" fill="#a779db"/></g><rect x="977.84" y="118.53" width="29.63" height="29.63" fill="#d8acf1"/><g transform="translate(977.84,118.53) scale(1.4815) rotate(0)"><path d="M5 0H10L5 5L0 10V5L5 0Z" fill="#b791e2"/><path d="M20 15V20H15L20 15Z" fill="#b791e2"/><path d="M20 5V10L15 15L10 20H5L20 5Z" fill="#b791e2"/><path d="M15 0H20L5 15.0002L0 20.0002V15.0002L15 0Z" fill="#b791e2"/></g><rect x="948.21" y="148.16" width="29.63" height="29.63" fill="#8748cf"/><g transform="translate(948.21,148.16) scale(1.4815) rotate(0)"><path d="M5 0H10L5 5L0 10V5L5 0Z" fill="#e6caf6"/><path d="M20 15V20H15L20 15Z" fill="#e6caf6"/><path d="M20 5V10L15 15L10 20H5L20 5Z" fill="#e6caf6"/><path d="M15 0H20L5 15.0002L0 20.0002V15.0002L15 0Z" fill="#e6caf6"/></g><rect x="977.84" y="148.16" width="29.63" height="29.63" fill="#9314d8"/><g transform="translate(977.84,148.16) scale(1.4815) rotate(0)"><rect width="2" height="20" fill="#d6c1ef"/><rect x="4" width="2" height="20" fill="#d6c1ef"/><rect x="8" width="2" height="20" fill="#d6c1ef"/><rect x="12" width="2" height="20" fill="#d6c1ef"/><rect x="16" width="2" height="20" fill="#d6c1ef"/></g><rect x="1007.47" y="118.53" width="59.26" height="59.26" fill="#8241cd"/><g transform="translate(1007.47,118.53) scale(2.963) rotate(0)"><path d="M10 0H20L0 20V10L10 0Z" fill="#fcfafe"/><path d="M20 10V20H10L20 10Z" fill="#fcfafe"/></g><rect x="1066.7368421052631" y="118.52631578947368" width="59.26315789473684" height="59.26315789473684" fill="#fcfbfe"/><rect x="1066.74" y="118.53" width="29.63" height="29.63" fill="#cdb2eb"/><g transform="translate(1066.74,118.53) scale(1.4815) rotate(0)"><path d="M10 5L5 0L0 5L5 10L0 15L5 20L10 15L15 20L20 15L15 10L20 5L15 0L10 5Z" fill="#edd9f8"/></g><rect x="1096.37" y="118.53" width="29.63" height="29.63" fill="#e3c4f5"/><g transform="translate(1096.37,118.53) scale(1.4815) rotate(0)"><path d="M10 0H20L0 20V10L10 0Z" fill="#c2a2e6"/><path d="M20 10V20H10L20 10Z" fill="#c2a2e6"/></g><rect x="1066.74" y="148.16" width="29.63" height="29.63" fill="#900cd6"/><polygon points="1066.74,148.16 1096.3700000000001,148.16 1066.74,177.79" fill="#eae0f7"/><rect x="1096.37" y="148.16" width="29.63" height="29.63" fill="#f5ebfb"/><polygon points="1096.37,148.16 1126,177.79 1096.37,177.79" fill="#e2c0f4"/><rect x="0" y="177.78947368421052" width="59.26315789473684" height="59.26315789473684" fill="#fcfbfe"/><rect x="0" y="177.79" width="29.63" height="29.63" fill="#a87bdc"/><g transform="translate(0,177.79) scale(1.4815) rotate(0)"><rect width="2" height="20" fill="#7329c6"/><rect x="4" width="2" height="20" fill="#7329c6"/><rect x="8" width="2" height="20" fill="#7329c6"/><rect x="12" width="2" height="20" fill="#7329c6"/><rect x="16" width="2" height="20" fill="#7329c6"/></g><rect x="29.63" y="177.79" width="29.63" height="29.63" fill="#cc92ed"/><polygon points="59.26,177.79 59.26,207.42 29.63,207.42" fill="#cd94ed"/><rect x="0" y="207.42" width="29.63" height="29.63" fill="#ad4ce1"/><g transform="translate(0,207.42) scale(1.4815) rotate(0)"><rect width="20" height="2" fill="#ad81de"/><rect y="4" width="20" height="2" fill="#ad81de"/><rect y="8" width="20" height="2" fill="#ad81de"/><rect y="12" width="20" height="2" fill="#ad81de"/><rect y="16" width="20" height="2" fill="#ad81de"/></g><rect x="29.63" y="207.42" width="29.63" height="29.63" fill="#a170d9"/><g transform="translate(29.63,207.42) scale(1.4815) rotate(0)"><path fill-rule="evenodd" clip-rule="evenodd" d="M10 20C15.5228 20 20 15.5228 20 10C20 4.47715 15.5228 0 10 0C4.47715 0 0 4.47715 0 10C0 15.5228 4.47715 20 10 20ZM10 17C13.866 17 17 13.866 17 10C17 6.13401 13.866 3 10 3C6.13401 3 3 6.13401 3 10C3 13.866 6.13401 17 10 17Z" fill="#c179e8"/></g><rect x="59.26" y="177.79" width="59.26" height="59.26" fill="#f2e5fa"/><g transform="translate(59.26,177.79) scale(2.963) rotate(0)"><path d="M10 0H20L0 20V10L10 0Z" fill="#b45ce4"/><path d="M20 10V20H10L20 10Z" fill="#b45ce4"/></g><rect x="118.53" y="177.79" width="59.26" height="59.26" fill="#d3bced"/><g transform="translate(118.53,177.79) scale(2.963) rotate(0)"><path d="M10 0L20 10L10 20L0 10L10 0Z" fill="#8342cd"/></g><rect x="177.79" y="177.79" width="59.26" height="59.26" fill="#bd70e7"/><g transform="translate(177.79,177.79) scale(2.963) rotate(0)"><path d="M5 0H10L5 5L0 10V5L5 0Z" fill="#a944e0"/><path d="M20 15V20H15L20 15Z" fill="#a944e0"/><path d="M20 5V10L15 15L10 20H5L20 5Z" fill="#a944e0"/><path d="M15 0H20L5 15.0002L0 20.0002V15.0002L15 0Z" fill="#a944e0"/></g><rect x="237.05263157894737" y="177.78947368421052" width="59.26315789473684" height="59.26315789473684" fill="#fcfbfe"/><rect x="237.05" y="177.79" width="29.63" height="29.63" fill="#fcfafe"/><g transform="translate(237.05,177.79) scale(1.4815) rotate(0)"><path d="M5 0H10L5 5L0 10V5L5 0Z" fill="#bf75e8"/><path d="M20 15V20H15L20 15Z" fill="#bf75e8"/><path d="M20 5V10L15 15L10 20H5L20 5Z" fill="#bf75e8"/><path d="M15 0H20L5 15.0002L0 20.0002V15.0002L15 0Z" fill="#bf75e8"/></g><rect x="266.68" y="177.79" width="29.63" height="29.63" fill="#c2a2e6"/><g transform="translate(266.68,177.79) scale(1.4815) rotate(0)"><path d="M10 0H20L0 20V10L10 0Z" fill="#7127c6"/><path d="M20 10V20H10L20 10Z" fill="#7127c6"/></g><rect x="237.05" y="207.42" width="29.63" height="29.63" fill="#a474da"/><polygon points="237.05,207.42 266.68,207.42 266.68,237.04999999999998" fill="#b966e5"/><rect x="266.68" y="207.42" width="29.63" height="29.63" fill="#9a23da"/><g transform="translate(266.68,207.42) scale(1.4815) rotate(0)"><path fill-rule="evenodd" clip-rule="evenodd" d="M10 20C15.5228 20 20 15.5228 20 10C20 4.47715 15.5228 0 10 0C4.47715 0 0 4.47715 0 10C0 15.5228 4.47715 20 10 20ZM10 17C13.866 17 17 13.866 17 10C17 6.13401 13.866 3 10 3C6.13401 3 3 6.13401 3 10C3 13.866 6.13401 17 10 17Z" fill="#e1d2f3"/></g><rect x="296.32" y="177.79" width="59.26" height="59.26" fill="#d0b8ec"/><g transform="translate(296.32,177.79) scale(2.963) rotate(0)"><path d="M10 5L5 0L0 5L5 10L0 15L5 20L10 15L15 20L20 15L15 10L20 5L15 0L10 5Z" fill="#e3d4f4"/></g><rect x="355.57894736842104" y="177.78947368421052" width="59.26315789473684" height="59.26315789473684" fill="#fcfbfe"/><rect x="355.58" y="177.79" width="29.63" height="29.63" fill="#a576db"/><g transform="translate(355.58,177.79) scale(1.4815) rotate(0)"><path d="M13 0H20V7L7 20H0V13L13 0Z" fill="#d6a7f0"/></g><rect x="385.21" y="177.79" width="29.63" height="29.63" fill="#ccb2eb"/><g transform="translate(385.21,177.79) scale(1.4815) rotate(0)"><path d="M13 0H20V7L7 20H0V13L13 0Z" fill="#e5c8f6"/></g><rect x="355.58" y="207.42" width="29.63" height="29.63" fill="#900dd6"/><g transform="translate(355.58,207.42) scale(1.4815) rotate(0)"><path d="M10 5L5 0L0 5L5 10L0 15L5 20L10 15L15 20L20 15L15 10L20 5L15 0L10 5Z" fill="#a87bdc"/></g><rect x="385.21" y="207.42" width="29.63" height="29.63" fill="#bb6be6"/><g transform="translate(385.21,207.42) scale(1.4815) rotate(0)"><rect width="20" height="2" fill="#a97cdc"/><rect y="4" width="20" height="2" fill="#a97cdc"/><rect y="8" width="20" height="2" fill="#a97cdc"/><rect y="12" width="20" height="2" fill="#a97cdc"/><rect y="16" width="20" height="2" fill="#a97cdc"/></g><rect x="414.84" y="177.79" width="59.26" height="59.26" fill="#7831c8"/><g transform="translate(414.84,177.79) scale(2.963) rotate(0)"><path d="M13 0H20V7L7 20H0V13L13 0Z" fill="#8545ce"/></g><rect x="474.10526315789474" y="177.78947368421052" width="59.26315789473684" height="59.26315789473684" fill="#fcfbfe"/><rect x="474.11" y="177.79" width="29.63" height="29.63" fill="#bf74e8"/><g transform="translate(474.11,177.79) scale(1.4815) rotate(0)"><path d="M10 5L5 0L0 5L5 10L0 15L5 20L10 15L15 20L20 15L15 10L20 5L15 0L10 5Z" fill="#b966e5"/></g><rect x="503.74" y="177.79" width="29.63" height="29.63" fill="#c7a9e8"/><g transform="translate(503.74,177.79) scale(1.4815) rotate(0)"><path d="M10 0H20L0 20V10L10 0Z" fill="#ac4ae1"/><path d="M20 10V20H10L20 10Z" fill="#ac4ae1"/></g><rect x="474.11" y="207.42" width="29.63" height="29.63" fill="#a235dd"/><g transform="translate(474.11,207.42) scale(1.4815) rotate(0)"><path fill-rule="evenodd" clip-rule="evenodd" d="M10 20C15.5228 20 20 15.5228 20 10C20 4.47715 15.5228 0 10 0C4.47715 0 0 4.47715 0 10C0 15.5228 4.47715 20 10 20ZM10 17C13.866 17 17 13.866 17 10C17 6.13401 13.866 3 10 3C6.13401 3 3 6.13401 3 10C3 13.866 6.13401 17 10 17Z" fill="#9258d3"/></g><rect x="503.74" y="207.42" width="29.63" height="29.63" fill="#f7f3fc"/><g transform="translate(503.74,207.42) scale(1.4815) rotate(0)"><path fill-rule="evenodd" clip-rule="evenodd" d="M10 20C15.5228 20 20 15.5228 20 10C20 4.47715 15.5228 0 10 0C4.47715 0 0 4.47715 0 10C0 15.5228 4.47715 20 10 20ZM10 17C13.866 17 17 13.866 17 10C17 6.13401 13.866 3 10 3C6.13401 3 3 6.13401 3 10C3 13.866 6.13401 17 10 17Z" fill="#8e52d1"/></g><rect x="533.37" y="177.79" width="59.26" height="59.26" fill="#9d28db"/><g transform="translate(533.37,177.79) scale(2.963) rotate(0)"><path d="M10 0H20V10L10 20H0V10L10 0Z" fill="#f2e6fb"/></g><rect x="592.6315789473684" y="177.78947368421052" width="59.26315789473684" height="59.26315789473684" fill="#fcfbfe"/><rect x="592.63" y="177.79" width="29.63" height="29.63" fill="#981fd9"/><g transform="translate(592.63,177.79) scale(1.4815) rotate(0)"><path d="M10 5L5 0L0 5L5 10L0 15L5 20L10 15L15 20L20 15L15 10L20 5L15 0L10 5Z" fill="#7329c6"/></g><rect x="622.26" y="177.79" width="29.63" height="29.63" fill="#bc6fe7"/><g transform="translate(622.26,177.79) scale(1.4815) rotate(0)"><path d="M13 0H20V7L7 20H0V13L13 0Z" fill="#7c37ca"/></g><rect x="592.63" y="207.42" width="29.63" height="29.63" fill="#c480ea"/><g transform="translate(592.63,207.42) scale(1.4815) rotate(0)"><rect width="2" height="20" fill="#dccaf1"/><rect x="4" width="2" height="20" fill="#dccaf1"/><rect x="8" width="2" height="20" fill="#dccaf1"/><rect x="12" width="2" height="20" fill="#dccaf1"/><rect x="16" width="2" height="20" fill="#dccaf1"/></g><rect x="622.26" y="207.42" width="29.63" height="29.63" fill="#f5ecfc"/><g transform="translate(622.26,207.42) scale(1.4815) rotate(0)"><rect width="20" height="2" fill="#8f54d2"/><rect y="4" width="20" height="2" fill="#8f54d2"/><rect y="8" width="20" height="2" fill="#8f54d2"/><rect y="12" width="20" height="2" fill="#8f54d2"/><rect y="16" width="20" height="2" fill="#8f54d2"/></g><rect x="651.8947368421053" y="177.78947368421052" width="59.26315789473684" height="59.26315789473684" fill="#fcfbfe"/><rect x="651.89" y="177.79" width="29.63" height="29.63" fill="#a842df"/><g transform="translate(651.89,177.79) scale(1.4815) rotate(0)"><rect width="20" height="2" fill="#b38be0"/><rect y="4" width="20" height="2" fill="#b38be0"/><rect y="8" width="20" height="2" fill="#b38be0"/><rect y="12" width="20" height="2" fill="#b38be0"/><rect y="16" width="20" height="2" fill="#b38be0"/></g><rect x="681.53" y="177.79" width="29.63" height="29.63" fill="#f2ebfa"/><g transform="translate(681.53,177.79) scale(1.4815) rotate(0)"><path d="M10 0H20L0 20V10L10 0Z" fill="#f3edfa"/><path d="M20 10V20H10L20 10Z" fill="#f3edfa"/></g><rect x="651.89" y="207.42" width="29.63" height="29.63" fill="#bb6be6"/><g transform="translate(651.89,207.42) scale(1.4815) rotate(0)"><path d="M10 0L20 10L10 20L0 10L10 0Z" fill="#7126c6"/></g><rect x="681.53" y="207.42" width="29.63" height="29.63" fill="#ac4ae1"/><g transform="translate(681.53,207.42) scale(1.4815) rotate(0)"><path d="M10 0H20L0 20V10L10 0Z" fill="#eeddf9"/><path d="M20 10V20H10L20 10Z" fill="#eeddf9"/></g><rect x="711.16" y="177.79" width="59.26" height="59.26" fill="#b762e5"/><g transform="translate(711.16,177.79) scale(2.963) rotate(0)"><path d="M10 0L20 10L10 20L0 10L10 0Z" fill="#e1bff4"/></g><rect x="770.421052631579" y="177.78947368421052" width="59.26315789473684" height="59.26315789473684" fill="#fcfbfe"/><rect x="770.42" y="177.79" width="29.63" height="29.63" fill="#ba96e3"/><g transform="translate(770.42,177.79) scale(1.4815) rotate(0)"><path d="M10 0H20L0 20V10L10 0Z" fill="#c3a4e7"/><path d="M20 10V20H10L20 10Z" fill="#c3a4e7"/></g><rect x="800.05" y="177.79" width="29.63" height="29.63" fill="#9b66d6"/><g transform="translate(800.05,177.79) scale(1.4815) rotate(0)"><path d="M5 0H10L5 5L0 10V5L5 0Z" fill="#8b4fd0"/><path d="M20 15V20H15L20 15Z" fill="#8b4fd0"/><path d="M20 5V10L15 15L10 20H5L20 5Z" fill="#8b4fd0"/><path d="M15 0H20L5 15.0002L0 20.0002V15.0002L15 0Z" fill="#8b4fd0"/></g><rect x="770.42" y="207.42" width="29.63" height="29.63" fill="#bc98e4"/><polygon points="770.42,207.42 800.05,207.42 770.42,237.04999999999998" fill="#d7c3ef"/><rect x="800.05" y="207.42" width="29.63" height="29.63" fill="#efdff9"/><g transform="translate(800.05,207.42) scale(1.4815) rotate(0)"><path fill-rule="evenodd" clip-rule="evenodd" d="M10 20C15.5228 20 20 15.5228 20 10C20 4.47715 15.5228 0 10 0C4.47715 0 0 4.47715 0 10C0 15.5228 4.47715 20 10 20ZM10 17C13.866 17 17 13.866 17 10C17 6.13401 13.866 3 10 3C6.13401 3 3 6.13401 3 10C3 13.866 6.13401 17 10 17Z" fill="#f8f2fc"/></g><rect x="829.68" y="177.79" width="59.26" height="59.26" fill="#fbf9fe"/><g transform="translate(829.68,177.79) scale(2.963) rotate(0)"><path d="M10 5L5 0L0 5L5 10L0 15L5 20L10 15L15 20L20 15L15 10L20 5L15 0L10 5Z" fill="#ab47e0"/></g><rect x="888.95" y="177.79" width="59.26" height="59.26" fill="#eee6f8"/><g transform="translate(888.95,177.79) scale(2.963) rotate(0)"><path d="M13 0H20V7L7 20H0V13L13 0Z" fill="#cdb2eb"/></g><rect x="948.2105263157895" y="177.78947368421052" width="59.26315789473684" height="59.26315789473684" fill="#fcfbfe"/><rect x="948.21" y="177.79" width="29.63" height="29.63" fill="#c7a9e8"/><path d="M 948.21 177.79 A 29.63 29.63 0 0 1  977.84 207.42 L 948.21 177.79 A 29.63 29.63 0 0 0 977.84 207.42" fill="#d1b9ec"/><rect x="977.84" y="177.79" width="29.63" height="29.63" fill="#d5a4f0"/><path d="M 977.84 207.42 A 29.63 29.63 0 0 1  1007.47 177.79 L 977.84 207.42 A 29.63 29.63 0 0 0 1007.47 177.79" fill="#f0e1fa"/><rect x="948.21" y="207.42" width="29.63" height="29.63" fill="#fbfafe"/><g transform="translate(948.21,207.42) scale(1.4815) rotate(0)"><rect width="20" height="2" fill="#efdff9"/><rect y="4" width="20" height="2" fill="#efdff9"/><rect y="8" width="20" height="2" fill="#efdff9"/><rect y="12" width="20" height="2" fill="#efdff9"/><rect y="16" width="20" height="2" fill="#efdff9"/></g><rect x="977.84" y="207.42" width="29.63" height="29.63" fill="#f7f4fc"/><polygon points="1007.47,207.42 1007.47,237.04999999999998 977.84,237.04999999999998" fill="#e0d0f2"/><rect x="1007.4736842105264" y="177.78947368421052" width="59.26315789473684" height="59.26315789473684" fill="#fcfbfe"/><rect x="1007.47" y="177.79" width="29.63" height="29.63" fill="#9f2cdc"/><g transform="translate(1007.47,177.79) scale(1.4815) rotate(0)"><path d="M10 0H20V10L10 20H0V10L10 0Z" fill="#cbb0ea"/></g><rect x="1037.11" y="177.79" width="29.63" height="29.63" fill="#7228c6"/><g transform="translate(1037.11,177.79) scale(1.4815) rotate(0)"><rect width="20" height="2" fill="#f9f5fd"/><rect y="4" width="20" height="2" fill="#f9f5fd"/><rect y="8" width="20" height="2" fill="#f9f5fd"/><rect y="12" width="20" height="2" fill="#f9f5fd"/><rect y="16" width="20" height="2" fill="#f9f5fd"/></g><rect x="1007.47" y="207.42" width="29.63" height="29.63" fill="#d3a1ef"/><g transform="translate(1007.47,207.42) scale(1.4815) rotate(0)"><path d="M10 0H20V10L10 20H0V10L10 0Z" fill="#b359e3"/></g><rect x="1037.11" y="207.42" width="29.63" height="29.63" fill="#a133dd"/><g transform="translate(1037.11,207.42) scale(1.4815) rotate(0)"><path d="M13 0H20V7L7 20H0V13L13 0Z" fill="#be72e7"/></g><rect x="1066.74" y="177.79" width="59.26" height="59.26" fill="#fcfbfe"/><path d="M 1066.74 237.04999999999998 A 59.26 59.26 0 0 1  1126 177.79 L 1066.74 237.04999999999998 A 59.26 59.26 0 0 0 1126 177.79" fill="#c37ce9"/></g></svg>