<svg xmlns="http://www.w3.org/2000/svg" width="512" height="512"><path fill="#364679" d="M252.945 36.492C255 38 255 38 257.375 40.562c3.503 3.253 7.326 4.453 11.738 6.184 4.398 1.91 7.4 4.227 10.262 8.129 1.716 5.833.536 10.07-2.207 15.23C276 72 276 72 274.392 73.787c-1.823 2.899-1.487 4.187-.837 7.51l.604 3.133.716 3.32.698 3.392c1.618 7.385 3.754 14.171 7.19 20.91 1.938 3.829 2.763 6.652 2.237 10.948-3.165 3.258-6.87 5.165-11 7h-2l.402 1.906c1.102 5.339 2.174 10.652 2.598 16.094l.234 2.988c.36 8.165.36 8.165-2.421 12.137-7.2 4.799-14.4 5.043-22.813 4.875l.516 2.691.734 3.871.4 2.073a278 278 0 0 1 2.095 12.441c2.225 15.005 6.555 28.671 11.817 42.862q1.167 3.209 2.327 6.42A2193 2193 0 0 0 277 263c12.257-3.11 24.493-6.275 36.668-9.691l2.46-.69q6.046-1.697 12.086-3.417l4.47-1.26 2.064-.596c3.266-.916 5.819-1.346 9.252-1.346a875 875 0 0 1 2 4.375l1.125 2.46C348 255 348 255 348 257c6.412-3.206 10.7-8.374 13.406-14.97 1.34-4.582 1.03-9.443 1.033-14.178.095-4.086.244-6.33 2.409-9.895C367 216 367 216 370 215.313c3 .687 3 .687 5.25 3.25 3.382 6.642 4.19 13.11 4.75 20.437 8.978-6.548 14.963-15.964 21.352-24.889a629 629 0 0 1 2.498-3.464 553 553 0 0 0 3.212-4.487C409 204 409 204 411.095 203.098 413 203 413 203 415.5 204.375c7.387 7.756 7.968 17.988 7.773 28.207-.502 11.244-2.861 20.59-11.273 28.418-3.065 2.378-6.267 4.456-9.562 6.5l-2.668 1.69A712 712 0 0 1 392 274l-2.097 1.285C370.598 287 370.598 287 363 287l1.129 2.52 1.433 3.293 1.442 3.269C368 299 368 299 367 302c-2.331 1.283-2.331 1.283-5.457 2.566l-3.519 1.457-3.837 1.54-3.947 1.604c-17.515 7.072-35.26 13.5-53.365 18.896l-2.888.87c-5.986 1.722-11.771 2.67-17.987 3.067 1.231 10.628 2.538 18.588 10.926 25.676 6.962 4.444 14.67 5.672 22.637 7.387C335.73 370.898 365.203 378.34 386 396l2.04 1.703c6.108 5.563 10.124 12.544 10.554 20.883q-.001 2.895-.094 5.789l-.056 3.065c-.21 7.157-.836 13.835-3.444 20.56l-.996 2.582c-3.685 8.301-9.715 15.071-17.004 20.418l3.352.018q15.627.086 31.253.218c5.356.044 10.712.084 16.068.11q7.752.04 15.503.117 2.96.025 5.919.035c2.76.01 5.52.037 8.281.07l2.478-.005c3.288.055 5.73.215 8.658 1.777C470 475 470 475 470.437 478c-.437 3-.437 3-1.53 4.664-2.903 2.034-5.342 1.712-8.858 1.714l-2.167.013c-2.415.01-4.829 0-7.243-.01q-2.612.005-5.224.014a3163 3163 0 0 1-14.396-.003c-5.17-.007-10.34.004-15.51.012-10.133.013-20.266.01-30.4.002q-12.348-.01-24.698-.005l-3.545.002-7.129.003c-22.304.008-44.609-.002-66.913-.018q-28.732-.018-57.465.003a58649 58649 0 0 1-73.77.01l-3.531-.001q-12.34-.003-24.68.009-15.03.013-30.06-.01-7.674-.013-15.348-.001-7.017.013-14.034-.012a816 816 0 0 0-5.093.006c-2.298.009-4.594 0-6.892-.014l-3.876-.002C45 484 45 484 43.093 482.664c-1.736-2.642-1.54-4.597-1.093-7.664 2.817-2.696 4.824-3.38 8.677-3.432l2.79-.06 2.986-.02 3.077-.054c3.24-.054 6.48-.088 9.72-.122q3.297-.05 6.594-.103Q83.92 471.083 92 471l-1-2c-.04-2.333-.043-4.667 0-7l2.816-1.066c9.319-3.662 16.147-7.191 20.559-16.559 2.007-4.835 2.736-9.435 2.8-14.656.554-26.755.554-26.755 6.798-34.012 4.301-3.911 7.36-5.872 13.215-6.082l2.792-.148c3.122.54 4.233 1.211 6.709 3.056l1.886 1.392L150 395c-.62-14.655-1.97-29.23-3.359-43.83q-.611-6.441-1.209-12.884l-.414-4.45-.21-2.249q-1.391-14.95-2.811-29.897-.966-10.155-1.903-20.31a2371 2371 0 0 0-1.008-10.687c-3.205-33.13-1.9-64.413 19.883-91.474 3.462-4.147 6.966-8.251 10.88-11.98 5.823-5.552 10.3-11.695 14.776-18.364l2.254-3.207 2.098-3.113 1.908-2.798c1.428-2.772 1.428-2.772.39-5.9L190 131l-1.367-3.27-1.508-3.543c-2.592-6.265-4.299-12.504-5.72-19.125-.888-4.08-1.99-7.814-3.593-11.687-4.615-12.107-3.503-25.56 1.446-37.379 6.189-12.158 15.582-21.36 28.617-25.871 15.745-4.73 31.226-2.435 45.07 6.367"/><path fill="#EECF91" d="M252.945 36.492C255 38 255 38 257.375 40.562c3.503 3.253 7.326 4.453 11.738 6.184 4.398 1.91 7.4 4.227 10.262 8.129 1.716 5.833.536 10.07-2.207 15.23C276 72 276 72 274.392 73.787c-1.823 2.899-1.487 4.187-.837 7.51l.604 3.133.716 3.32.698 3.392c1.618 7.385 3.754 14.171 7.19 20.91 1.938 3.829 2.763 6.652 2.237 10.948-3.165 3.258-6.87 5.165-11 7h-2l.402 1.906c1.102 5.339 2.174 10.652 2.598 16.094l.234 2.988c.36 8.165.36 8.165-2.421 12.137-7.2 4.799-14.4 5.043-22.813 4.875l.621 3.078c1.637 8.301 2.914 16.456 3.379 24.922-26.03.733-49.134-3.629-68.953-21.691-3.35-3.287-6.44-6.4-9.047-10.309.284-4.216 1.97-6.749 4.45-10.09l2.068-2.877a770 770 0 0 1 4.375-5.93l2.056-2.88 1.917-2.602c1.454-2.648 1.454-2.648.41-5.743L190 131l-1.367-3.27-1.508-3.543c-2.592-6.265-4.299-12.504-5.72-19.125-.888-4.08-1.99-7.814-3.593-11.687-4.615-12.107-3.503-25.56 1.446-37.379 6.189-12.158 15.582-21.36 28.617-25.871 15.745-4.73 31.226-2.435 45.07 6.367"/><path fill="#BBEC23" d="M252.945 36.492C255 38 255 38 257.375 40.562c3.503 3.253 7.326 4.453 11.738 6.184 4.398 1.91 7.4 4.227 10.262 8.129 1.723 5.86.509 10.126-2.207 15.328-1.211 1.863-2.543 3.289-4.168 4.797-6-2-6-2-8.875-3.125-6.637-1.858-11.243-1.262-17.266 1.762-8.556 6.273-9.673 17.893-11.297 27.676-1.013 5.895-2.075 11.416-6.562 15.687-2.875 1.438-2.875 1.438-6 1-2.048-1.633-3.75-3.375-5.484-5.336-2.47-2.711-3.593-2.67-7.391-2.977-3.201.03-3.915.151-6.562 2.188-3.082 4.19-2.754 7.962-2.75 13l-.002 2.583c.055 6.66.733 13.03 2.189 19.542-3.62-2.641-5.987-4.974-8-9v-2l-3-1a65 65 0 0 1-3.375-6.812l-.925-2.132c-2.695-6.497-4.41-13.129-5.988-19.97-1.033-4.471-2.197-8.646-3.962-12.898-4.598-12.013-3.397-25.478 1.508-37.192 6.189-12.158 15.582-21.36 28.617-25.871 15.745-4.73 31.226-2.435 45.07 6.367"/><path fill="#191919" d="m53.04 471.622 2.16-.013c2.4-.01 4.799 0 7.199.01q2.6-.005 5.199-.014c4.772-.013 9.544-.006 14.316.003 5.142.007 10.285-.004 15.427-.012 10.078-.013 20.156-.01 30.234-.002q12.283.01 24.565.005l3.527-.002q3.547 0 7.093-.003c22.187-.008 44.374.002 66.562.018q28.576.018 57.153-.003a58034 58034 0 0 1 76.897-.009q12.273.003 24.545-.009 14.949-.013 29.898.01 7.632.013 15.264.001 6.98-.013 13.96.012 2.532.005 5.063-.006c2.286-.009 4.572 0 6.858.014l3.855.002c3.404.402 4.834.912 7.185 3.376.447 3.067.643 5.022-1.093 7.664-2.903 2.034-5.342 1.712-8.858 1.714l-2.167.013c-2.415.01-4.829 0-7.243-.01q-2.612.005-5.224.014a3163 3163 0 0 1-14.396-.003c-5.17-.007-10.34.004-15.51.012-10.133.013-20.266.01-30.4.002q-12.348-.01-24.698-.005l-3.545.002-7.129.003c-22.304.008-44.609-.002-66.913-.018q-28.732-.018-57.465.003a58649 58649 0 0 1-73.77.01l-3.531-.001q-12.34-.003-24.68.009-15.03.013-30.06-.01-7.674-.013-15.348-.001-7.017.013-14.034-.012a816 816 0 0 0-5.093.006c-2.298.009-4.594 0-6.892-.014l-3.876-.002C45 484 45 484 43.093 482.664c-1.736-2.642-1.54-4.597-1.093-7.664 3.332-3.493 6.374-3.376 11.04-3.378"/><path fill="#1C2E60" d="m175 162 3 3c-1.432 3.325-3.478 6.018-5.681 8.872C163.15 185.8 156.703 198.365 153 213l-.902 3.32c-2.43 9.829-3.34 20.408-1.624 30.459.576 3.526.875 7.01 1.14 10.573l.337 4.454.178 2.374c1.11 14.79 2.34 29.568 3.675 44.339q.255 2.817.507 5.636c.764 8.54 1.554 17.062 2.681 25.564 1.438 11.096 2.203 22.254 3.07 33.406q.39 4.989.785 9.978.245 3.078.481 6.157c.367 4.634.862 9.158 1.672 13.74q.098 3.436.063 6.875l-.028 3.492L165 416c23.472 2.539 49.995 2.688 73.024-3.548 13.817-3.16 30.39-.601 43.976 2.548q2.241.412 4.488.797l2.254.39q2.148.368 4.298.722c1.666.299 3.316.687 4.96 1.091l1 2c-6.918.818-13.724 1.155-20.687 1.125l-2.721.012c-4.975-.008-9.665-.39-14.592-1.137-15.742-.947-30.688 1.598-46.138 4.386-8.924 1.578-17.69 1.813-26.737 1.864l-3.498.028c-7.01-.026-14.214-.071-20.627-3.278l.027 1.625c-.42 11.088-5.622 23.021-13.382 30.957-2.072 1.787-4.182 3.224-6.645 4.418 1.773-5.466 1.773-5.466 2.883-8.074C152.46 438.286 155.94 420.72 154 406l-1.424-3.288c-2.381-6.224-2.636-12.811-3.218-19.395l-.42-4.443c-.378-4.006-.742-8.013-1.102-12.02q-.458-5.04-.925-10.077-1.101-11.907-2.174-23.815c-.735-8.15-1.487-16.3-2.248-24.447a8259 8259 0 0 1-1.939-21.079c-.38-4.183-.762-8.366-1.155-12.548q-.554-5.914-1.073-11.832a687 687 0 0 0-.398-4.299c-2.726-28.55 2.736-56.841 21.08-79.573C164.03 173.163 169.325 167.417 175 162"/><path fill="#CBCBCB" d="m377 51-1.172 1.469C368.243 62.232 363.696 72.393 365 85c1.915 10.961 7.076 21.114 16 28 10.555 6.401 21.787 9.087 34.035 6.313 5.599-1.89 10.318-4.578 15.09-8.043C432 110 432 110 435 109c-2.057 12.547-8.507 23.087-18.5 30.973-13.09 8.96-27.799 11.212-43.223 8.332-6.96-1.938-12.603-4.87-18.277-9.305-.614-.44-1.227-.88-1.86-1.332-9.672-7.426-15.225-19.836-17.14-31.668-1.05-15.038 2.3-28.626 12.188-40.187C353.782 59.932 368.084 46.543 377 51"/><path fill="#EFCF91" d="M410 203c3.372.182 4.714.714 7.125 3.125 7.252 11.12 7.43 24.632 4.784 37.321-2.464 10.733-7.69 16.53-16.924 22.474l-2.548 1.58-2.676 1.692A890 890 0 0 1 392 274l-2.033 1.269c-8.922 5.548-18.077 9.34-27.967 12.731-3.189-5.163-5.67-10.55-8.187-16.062l-1.405-3.01-1.326-2.9-1.212-2.634C349 261 349 261 349 257c1.574-1.57 1.574-1.57 3.688-3.125 5.269-4.466 8.8-9.023 9.547-16.102.202-3.365.332-6.713.314-10.085.03-4.05.14-6.176 2.29-9.72C367 216 367 216 370 215.314c3 .687 3 .687 5.25 3.25 3.382 6.642 4.19 13.11 4.75 20.437 7.76-5.66 12.96-13.296 18.53-20.979 2.189-3.009 4.422-5.984 6.658-8.958l2.167-2.903C409 204 409 204 410 203"/><path fill="#4D4D4D" d="M261.71 43.273c13.901 5.748 13.901 5.748 17.481 11.711 1.518 3.783 1.44 7.326.016 11.141-1.685 3.512-3.335 6.209-6.207 8.875-6-2-6-2-8.875-3.125-6.637-1.858-11.243-1.262-17.266 1.762-8.556 6.273-9.673 17.893-11.297 27.676-1.013 5.895-2.075 11.416-6.562 15.687-2.875 1.438-2.875 1.438-6 1-2.048-1.633-3.75-3.375-5.484-5.336-2.47-2.711-3.593-2.67-7.391-2.977-3.201.03-3.915.151-6.562 2.188-3.082 4.19-2.754 7.962-2.75 13l-.002 2.583c.055 6.66.733 13.03 2.189 19.542-3.62-2.641-5.987-4.974-8-9v-2l-3-1a70 70 0 0 1-3.437-7l-.922-2.137c-2.188-5.287-3.822-10.611-5.141-16.175l-.521-2.19c-.727-3.327-1.075-5.21.021-8.498a93 93 0 0 1 5.875-4.312q1.929-1.344 3.855-2.692l2.096-1.461c3.83-2.704 7.593-5.497 11.362-8.285l2.429-1.794q2.464-1.82 4.927-3.642c4.763-3.519 9.533-7.03 14.301-10.541a7128 7128 0 0 0 12.362-9.125l2.59-1.914q2.445-1.806 4.887-3.617a567 567 0 0 1 4.367-3.195 117 117 0 0 0 3.633-2.755c2.528-1.912 3.817-2.717 7.027-2.394"/><path fill="#EECF91" d="M143 390c5.071 2.12 8.147 5.526 10.5 10.438 5.214 15.874.543 38.792-6.25 53.687-5.142 8.74-13.803 15.337-23.25 18.875-5.431.688-10.728.576-16.187.375q-2.166-.045-4.33-.082A619 619 0 0 1 93 473c-2.13-3.79-2.167-6.657-2-11l2.816-1.066c9.319-3.662 16.147-7.191 20.559-16.559 2.007-4.835 2.736-9.435 2.8-14.656.554-26.755.554-26.755 6.798-34.012 6.051-5.502 10.853-6.821 19.027-5.707"/><path fill="#B2B2B2" d="M193 136h2c1.402 1.898 1.402 1.898 2.938 4.375 1.928 3.107 2.96 4.556 6.062 6.625l1 3c10.875 9.903 23.443 14.398 37.78 15.888 2.36.276 2.36.276 6.22 1.112 1.764 2.645 2.365 5.224 2.852 8.336l.39 2.476.383 2.563.406 2.54c.68 4.404 1.13 8.612.969 13.085-26.03.733-49.134-3.629-68.953-21.691-3.35-3.287-6.44-6.4-9.047-10.309.295-4.189 1.984-6.864 4.344-10.266l2.027-2.945 2.129-3.039 2.129-3.086c5.152-7.445 5.152-7.445 6.371-8.664"/><path fill="#1D1E1C" d="M259 43c2.875.75 2.875.75 5 2-3.995 4.27-8.355 7.574-13.125 10.938q-2.416 1.722-4.828 3.449l-2.514 1.794c-6.524 4.684-12.967 9.478-19.42 14.259a1021 1021 0 0 1-5.73 4.197C207.445 87.67 200.403 94.79 196 108c-.71 11.566-.615 21.077 6 31 .54 2.66.734 5.293 1 8-3.62-2.641-5.987-4.974-8-9v-2l-3-1a70 70 0 0 1-3.437-7l-.922-2.137c-2.188-5.287-3.822-10.611-5.141-16.175l-.521-2.19c-.727-3.327-1.075-5.21.021-8.498a93 93 0 0 1 5.875-4.312q1.929-1.344 3.855-2.692l2.096-1.461c3.83-2.704 7.593-5.497 11.362-8.285l2.429-1.794q2.464-1.82 4.927-3.642c4.763-3.519 9.533-7.03 14.301-10.541a7128 7128 0 0 0 12.362-9.125l2.59-1.914q2.445-1.806 4.887-3.617A867 867 0 0 1 253 47l1.771-1.31c1.592-1.135 1.592-1.135 4.229-2.69"/><path fill="#96CB0B" d="M257.232 41.34 259 42v2a104 104 0 0 1-5.812 4.25q-1.944 1.357-3.883 2.719l-2.115 1.48c-3.832 2.713-7.603 5.509-11.377 8.301l-7.357 5.436q-7.147 5.278-14.303 10.541-6.176 4.544-12.325 9.125l-2.576 1.914a1517 1517 0 0 0-4.848 3.617c-4.327 3.21-8.666 6.047-13.404 8.617-6.045-11.885-7.642-24.175-4.14-37.195C178.41 58.333 180.014 54.7 183 51l-.105 1.941c-.227 7.236.646 12.222 5.543 17.872 5.027 4.291 8.962 4.7 15.484 4.55 8.478-1 14.845-7.37 21.336-12.472 4.991-3.897 10.151-7.561 15.298-11.248l2.182-1.565 2.14-1.521a118 118 0 0 0 4.303-3.317l2.112-1.693 1.872-1.552C255 41 255 41 257.232 41.341"/><path fill="#B4B4B4" d="M341 76h2l-.437 1.695c-3.439 14.851-1.924 29.09 6.042 42.254C355.75 130.455 366.375 138.42 379 141c19.142 1.937 33.043-3.218 48-15-1.12 6.164-5.69 10.18-10.453 13.934-13.162 8.948-27.777 11.264-43.27 8.37-6.96-1.937-12.603-4.87-18.277-9.304-.614-.44-1.227-.88-1.86-1.332-9.672-7.426-15.225-19.836-17.14-31.668-.744-10.663.897-20.152 5-30"/><path fill="#1C2E60" d="M173 248c6.372 2.003 9.538 5.833 12.543 11.555q1.333 2.655 2.644 5.32c6.636 13.048 14.28 24.974 23.813 36.125l2.297 2.738c13.988 16.104 31.56 26.199 52.951 27.815 2.916.19 5.833.33 8.752.447v5c-24.186.774-42.362-6.66-60.36-23.016C197.343 296.8 181.774 273.543 173 250z"/><path fill="#E9BE7F" d="m419 248 1 2c-4.009 8.686-11.176 13.369-19.062 18.375l-2.25 1.434A950 950 0 0 1 392 274l-1.89 1.183C381.111 280.76 371.976 284.58 362 288c-3.189-5.163-5.67-10.55-8.187-16.062l-1.405-3.01-1.326-2.9-1.212-2.634C349 261 349 261 349 257l5-1 1.625 2.688c3.6 5.373 8.462 8.82 14.375 11.312 2.692.338 5.068.51 7.75.5l3.984.094c9.004-.688 16.968-7.162 24.141-12.156l2.508-1.71c3.855-2.658 7.474-5.216 10.617-8.728"/><path fill="#989899" d="M193 136h2l3 6-4 1c-2.99 11.054-3.087 20.974 2.195 31.348C201.343 182.203 209.64 185.46 218 189l2.582 1.094c10.55 3.914 22.302 4.273 33.418 4.906v1c-26.03.733-49.134-3.629-68.953-21.691-3.35-3.287-6.44-6.4-9.047-10.309.295-4.189 1.984-6.864 4.344-10.266l2.027-2.945 2.129-3.039 2.129-3.086c5.152-7.445 5.152-7.445 6.371-8.664"/><path fill="#E8BD80" d="M204 110c1.209 3.7.962 7.076.813 10.938-.174 11.746 2.972 21.473 11.187 30.062 3.828 3.632 8.155 5.978 13 8l2.715 1.14c12.057 4.233 24.682 3.23 37.285 2.86l1 2c-13.314 5.874-31.044 3.317-44.434-1.477-8.846-3.498-18.838-7.717-23.058-16.699-2.253-7.231-2.872-14.352-3.008-21.887l-.057-2.415c.06-5.42 1.15-8.297 4.557-12.522"/><path fill="#273359" d="m138 466 1 4c2.741.771 5.173 1.125 8.018 1.126l2.407.008 2.627-.007 2.804.005c3.108.004 6.217 0 9.325-.003l6.677.006q9.078.005 18.155 0c6.33-.003 12.659 0 18.989 0q16.972.004 33.945-.006 15.38-.006 30.76.001 17.863.01 35.727.005 9.454-.003 18.909.001 8.892.004 17.785-.005 3.264 0 6.527.002 4.456.002 8.912-.006l2.607.007c4.714-.016 9.176-.348 13.826-1.134-1.589 1.9-2.488 2.903-4.963 3.373l-2.28-.004-2.635.018-2.898-.026-3.076.008c-3.419.004-6.836-.012-10.254-.028h-7.331q-7.905.002-15.809-.024c-7.619-.024-15.237-.032-22.856-.036q-18.54-.01-37.081-.055a29276 29276 0 0 0-49.404-.075c-30.804-.031-61.609-.084-92.413-.151v-2a519 519 0 0 1 4.313-2.5l2.425-1.406C135 466 135 466 138 466"/><path fill="#CCC" d="M435.563 311.188C438 312 438 312 440 315a94 94 0 0 1 .25 7.938l.023 2.17c-.025 6.825-.025 6.825-2.273 9.892-2.437.875-2.437.875-5 1l-3-2c-.388-2.123-.388-2.123-.398-4.719l-.012-2.824.035-2.957-.035-2.957.012-2.824.01-2.596L430 313c3-2 3-2 5.563-1.812M436.688 347.688C439 349 439 349 440 352c.148 2.66.23 5.277.25 7.938l.063 2.17c.024 3.334-.082 5.51-1.829 8.396L437 372c-5.875-.875-5.875-.875-7-2a76 76 0 0 1-.098-4.691l.01-2.862.026-3.01.013-3.021q.018-3.708.049-7.416c3.664-2.086 3.664-2.086 6.688-1.312M104 80c3.563.25 3.563.25 7 1 1.627 3.255 1.226 6.802 1.25 10.375l.063 2.328c.039 5.707.039 5.707-1.829 8.836L109 104c-2.937-.375-2.937-.375-6-1-1.768-3.536-1.185-7.606-1.187-11.5l-.038-2.668-.005-2.55-.013-2.343C102 82 102 82 104 80M107.563 115.25C110 116 110 116 112 118c.226 2.835.324 5.54.313 8.375l.048 2.328c.003 3.584-.008 5.708-1.88 8.836L109 139c-2.937-.375-2.937-.375-6-1-1.77-3.54-1.227-7.6-1.25-11.5l-.062-2.668-.016-2.55-.028-2.343L102 117c3-2 3-2 5.563-1.75M416.438 336.75l2.97-.062 2.838-.016 2.615-.028L427 337c2 3 2 3 1.688 5.625C428 345 428 345 427 346c-3.471.278-6.956.232-10.437.25l-2.971.063-2.838.015-2.615.028L406 346c-2-3-2-3-1.687-5.625 1.56-5.391 7.327-3.6 12.125-3.625"/><path fill="#CBCBCB" d="m452.438 336.813 2.97-.038 2.838-.005 2.615-.013C463 337 463 337 465 339c.25 2.5.25 2.5 0 5-2 2-2 2-4.139 2.243l-2.615-.013-2.838-.005-2.97-.038-2.983-.001c-7.315-.046-7.315-.046-8.455-1.186-.125-3.5-.125-3.5 0-7 2.36-2.36 8.268-1.185 11.438-1.187"/><path fill="#CCC" d="m88.938 104.813 2.826-.038 2.7-.005 2.489-.013C99 105 99 105 101 107c.25 2.5.25 2.5 0 5-2.883 2.883-5.244 2.29-9.187 2.322l-2.813-.01-2.812.05-2.688.001-2.469.01L79 114c-2-3-2-3-1.687-5.625 1.534-5.302 6.892-3.56 11.624-3.562M118.656 104.867l2.848-.004 2.996.012 2.996-.012 2.848.004 2.63.004C135 105 135 105 136 106c.188 2.938.188 2.938 0 6-2 2-2 2-4.047 2.243l-2.488-.013-2.701-.005-2.826-.037-2.838-.002c-6.96-.046-6.96-.046-8.1-1.186-.125-3.5-.125-3.5 0-7 1.622-1.622 3.42-1.13 5.656-1.133"/><path fill="#203364" d="M368 301c-7.293 3.811-14.716 7.06-22.375 10.063l-3.583 1.405c-10.35 4.015-20.829 7.633-31.354 11.157l-2.372.8a1229 1229 0 0 1-6.742 2.24l-2.007.673c-4.205 1.367-8.196 2.15-12.567 2.662v-4l2.776-.502c9.087-1.72 17.799-3.99 26.599-6.873l1.952-.63c12.664-4.1 25.027-8.91 37.337-13.967l2.055-.836c1.842-.75 3.68-1.51 5.517-2.27C366 300 366 300 368 301"/><path fill="#D8B178" d="m143 457 2 1c-2.24 2.56-4.456 4.754-7 7l-2.492 2.246c-12.2 8.889-28.138 6.45-42.508 5.754v-1l3.734-.113c17.19-.63 32.74-3.383 46.266-14.887"/><path fill="#EBC180" d="M122 399c1.13 3.39.737 4.588 0 8q-.162 2.818-.21 5.64c-.03 1.072-.058 2.143-.087 3.247a992 992 0 0 0-.133 6.68c-.185 6.444-.578 12.596-3.57 18.433l-2 1 .477-2.766c.903-6.306.84-12.717.953-19.078.52-17.107.52-17.107 4.57-21.156"/><path fill="#1E2E5B" d="m138 466 .125 1.875L139 470c2.996 1.305 2.996 1.305 6 2v1h-19v-2a519 519 0 0 1 4.313-2.5l2.425-1.406C135 466 135 466 138 466"/><path fill="#EBC07D" d="M93 461c2 3 2 3 3.5 6.063 1.326 2.968 1.326 2.968 3.5 4.937-3.375.188-3.375.188-7 0-2.43-3.644-2.162-5.712-2-10z"/><path fill="#BABABA" d="M341 76h2l-2 10h-3z"/></svg>