<svg xmlns="http://www.w3.org/2000/svg" width="512" height="512"><path fill="#EDC06B" d="M167 29c3.204 1.295 4.59 2.52 6.813 5.125 2.574 6.232 1.422 12.222-1.049 18.303l-.952 2.26c-16 40.782-14.03 87.248 3.188 127.312 6.807 15.252 15.56 28.998 26 42l1.98 2.629 1.77 2.246 1.484 1.93c1.775 1.474 1.775 1.474 4.385.947 3.891-.865 7.527-2.159 11.236-3.588l2.25-.848q3.544-1.339 7.083-2.691c31.805-12.128 31.805-12.128 44.613-7.645 2.535 1.19 4.848 2.5 7.199 4.02l1.96 1.242c6.265 4.623 10.83 13.081 12.04 20.758.045 2.667.014 5.332 0 8l3.51-.063c4.376-.074 8.752-.12 13.128-.157q2.82-.03 5.638-.082c15.242-.276 29.474.714 43.161 8.114l2.004 1.045C372.792 264.33 379.515 270.14 386 277c16.978-4.72 32.738-12.908 46.763-23.56 4.033-2.98 7.071-4.25 12.237-4.44 4.542 1.463 8.266 3.005 11 7 1.452 6.133.932 11.147-1.187 17l-.799 2.281C447.577 292.897 438.93 309.761 428 325l-1.272 1.778C420.194 335.793 412.87 344.13 405 352c-.304 2.537-.304 2.537-.255 5.529l-.021 3.512.003 3.822q-.023 2.977-.047 5.953c-.038 4.893-.055 9.786-.06 14.678q-.007 4.11-.045 8.216a590 590 0 0 0-.02 7.72c-.141 12.666-2.997 23.946-11.555 33.57-7.412 7.004-16.67 11.15-26.86 11.098l-3.378-.01-3.512-.026-3.559-.013q-4.346-.018-8.691-.049l.048 1.845c.508 22.675.508 22.675-3.048 31.155l-.996 2.52c-6.057 13.644-17.68 23.156-31.305 28.535-4.085 1.43-7.568 2.078-11.907 2.154l-3.146.058c-4.736.058-9.471.107-14.207.138q-3.743.033-7.487.103c-3.605.067-7.21.094-10.815.113l-3.366.084c-6.182-.016-9.925-.588-14.471-4.926-3.632-4.97-3.579-9.694-3.527-15.608v-2.663c0-2.894.016-5.789.032-8.684l.008-6.032c.008-5.285.028-10.57.05-15.856.02-5.396.03-10.792.04-16.188q.032-15.874.097-31.748l-3.731-.4-4.902-.535-2.453-.262c-6.018-.66-11.895-1.59-17.789-2.99l-2.78-.654c-33.721-8.234-64.368-24.866-89.591-48.616a130 130 0 0 0-5.899-5.145c-3.744-3.145-6.712-6.668-9.855-10.398l-2.246-2.55C77.459 309.031 60.309 270.011 56 230l-.332-2.887C51.678 185.57 60.266 144.653 80 108l1.86-3.535C88.692 91.94 97.28 80.584 107 70.152c1.84-1.98 3.577-4.016 5.313-6.09C121.549 53.54 132.62 45.055 144 37l1.82-1.305c6.826-4.829 12.637-8.58 21.18-6.695"/><path fill="#DCEAFC" d="m283 221 1.96 1.242c6.265 4.623 10.83 13.081 12.04 20.758.045 2.667.014 5.332 0 8l3.51-.063c4.376-.074 8.752-.12 13.128-.157q2.82-.03 5.638-.082c15.242-.276 29.474.714 43.161 8.114l2.004 1.045C372.792 264.33 379.515 270.14 386 277c16.978-4.72 32.738-12.908 46.763-23.56 4.033-2.98 7.071-4.25 12.237-4.44 4.542 1.463 8.266 3.005 11 7 1.452 6.133.932 11.147-1.187 17l-.799 2.281C447.577 292.897 438.93 309.761 428 325l-1.272 1.778C420.194 335.793 412.87 344.13 405 352c-.304 2.537-.304 2.537-.255 5.529l-.021 3.512.003 3.822q-.023 2.977-.047 5.953c-.038 4.893-.055 9.786-.06 14.678q-.007 4.11-.045 8.216a590 590 0 0 0-.02 7.72c-.141 12.666-2.997 23.946-11.555 33.57-7.412 7.004-16.67 11.15-26.86 11.098l-3.378-.01-3.512-.026-3.559-.013q-4.346-.018-8.691-.049l.048 1.845c.508 22.675.508 22.675-3.048 31.155l-.996 2.52c-6.057 13.644-17.68 23.156-31.305 28.535-4.085 1.43-7.568 2.078-11.907 2.154l-3.146.058c-4.736.058-9.471.107-14.207.138q-3.743.033-7.487.103c-3.605.067-7.21.094-10.815.113l-3.366.084c-6.182-.016-9.925-.588-14.471-4.926-3.636-4.976-3.574-9.77-3.514-15.683l.004-2.72c.006-3.008.026-6.016.046-9.024q.012-3.236.019-6.471.02-6.97.056-13.94c.036-7.356.056-14.71.072-22.066q.074-31.374.209-62.748.075-17.325.103-34.65.02-10.956.089-21.91c.023-4.558.03-9.116.032-13.673q.006-3.156.034-6.312c.145-17.022-1.222-32.17-13.845-45.02-2.483-2.258-5.02-4.422-7.605-6.562a884 884 0 0 1-4.312-3.75l-1.926-1.684c-2.371-2.108-4.62-4.223-6.762-6.566v-2a7590 7590 0 0 1 16.486-6.244q2.798-1.058 5.594-2.121C267.32 210.86 267.32 210.86 283 221"/><path fill="#BED9FC" d="M454 253.063c2.908 4.27 3.454 8.83 2.706 13.953-.53 2.043-1.175 3.999-1.894 5.984l-.798 2.281C447.577 292.897 438.93 309.761 428 325l-1.272 1.778C420.194 335.793 412.87 344.13 405 352c-.304 2.537-.304 2.537-.255 5.529l-.021 3.512.003 3.822q-.023 2.977-.047 5.953c-.038 4.893-.055 9.786-.06 14.678q-.007 4.11-.045 8.216a590 590 0 0 0-.02 7.72c-.141 12.666-2.997 23.946-11.555 33.57-7.412 7.004-16.67 11.15-26.86 11.098l-3.378-.01-3.512-.026-3.559-.013q-4.346-.018-8.691-.049l.048 1.845c.508 22.675.508 22.675-3.048 31.155l-.996 2.52c-6.057 13.644-17.68 23.156-31.305 28.535-4.582 1.605-8.325 2.065-13.215 2.043l-3.789-.01-3.945-.025-3.992-.014q-4.879-.018-9.758-.049c2.973-1.982 5.164-2.708 8.563-3.687 8.496-2.757 15.528-7.606 21.437-14.313l1.676-1.781c8.165-9.372 10.628-21.472 12.16-33.496.667-4.662 1.804-7.405 5.164-10.723 3.872-2.668 8.212-2.444 12.75-2.625l2.402-.117c1.95-.094 3.899-.177 5.848-.258l-.027-2.782q-.12-12.978-.18-25.956c-.021-4.448-.05-8.896-.095-13.344q-.063-6.438-.078-12.877a567 567 0 0 0-.043-4.914 511 511 0 0 1-.031-6.88l-.027-3.957c.481-3.29.481-3.29 2.287-5.743C351 367 351 367 354.563 367c3.858 1.122 4.527 1.595 6.437 5 .399 2.949.399 2.949.432 6.42l.06 3.943.02 4.246q.025 2.178.054 4.355c.048 3.814.077 7.628.104 11.442.03 3.895.076 7.79.121 11.684q.127 11.454.209 22.91c3.213-2.516 5.834-4.733 8.125-8.125l1.445-2.07c3.732-7.32 4.876-14.582 4.818-22.714l.016-2.833c.013-3.06.005-6.12-.006-9.18q.003-3.225.01-6.448.005-6.742-.017-13.485c-.017-5.727-.007-11.454.01-17.18.012-4.438.008-8.875 0-13.312q-.004-3.165.008-6.33c.038-14.493-.094-28.544-7.159-41.635l-1.063-2.036C365.32 286.298 362.093 281.505 358 277l-1.98-2.258c-10.622-11.414-24.312-17.613-39.242-21.311l-3.278-.814L311 252l.034 2.548q.15 11.895.225 23.791c.026 4.077.061 8.154.118 12.231.055 3.936.084 7.871.097 11.807q.015 2.25.055 4.501c.036 2.105.04 4.207.039 6.312l.033 3.627c-.781 4.138-2.307 5.639-5.601 8.183-3.625.063-3.625.063-7-1-2.422-2.354-2.967-3.72-3.36-7.1l.02-3.688-.002-2.041c.002-2.219.025-4.437.049-6.655q.009-2.313.013-4.624c.011-4.051.04-8.102.074-12.152.03-4.136.044-8.272.06-12.408q.05-12.165.146-24.332 8.532-.149 17.065-.22 2.892-.03 5.784-.082c15.395-.272 29.729.621 43.589 8.114l2.003 1.045C372.792 264.33 379.515 270.14 386 277c17.108-4.757 32.716-13.112 47.027-23.56 7.214-5.244 13.464-5.54 20.973-.377"/><path fill="#E9A52E" d="M56 189h1l.212 1.658c6.998 53.874 31.896 104.453 75.185 138.559 3.484 2.667 7.02 5.25 10.603 7.783l1.775 1.256C174.525 358.975 207.519 368.814 243 374v37c-21.135-2.348-21.135-2.348-28.875-4.187l-2.78-.654c-33.721-8.234-64.368-24.866-89.591-48.616a130 130 0 0 0-5.899-5.145c-3.744-3.145-6.712-6.668-9.855-10.398l-2.246-2.55C77.459 309.031 60.309 270.011 56 230l-.332-2.887c-.69-7.177-.768-14.346-.793-21.55l-.014-2.873c.01-4.677.172-9.09 1.139-13.69M454 253.063c2.908 4.27 3.454 8.83 2.706 13.953-.53 2.043-1.175 3.999-1.894 5.984l-.798 2.281C447.577 292.897 438.93 309.761 428 325l-1.272 1.778C412.606 346.263 412.606 346.263 404 352l-.044-2.7q-.094-5.074-.218-10.148-.05-2.175-.084-4.349C403.304 313.37 398.01 296.014 386 278l1.957-.777c16.779-6.817 32.537-14.481 47.168-25.223 6.3-4.382 12.713-3.174 18.875 1.063"/><path fill="#8C818F" d="m401.113 50.762 2.444-.025q2.564-.02 5.127-.032c2.608-.017 5.214-.061 7.822-.105q2.49-.015 4.982-.026l2.356-.053c3.768.015 5.921.328 9.125 2.38 3.158 3.264 3.558 5.877 3.5 10.433-.965 5.484-4.414 9.868-7.469 14.416l-4.129 6.36-2.02 3.064c-2.335 3.566-4.577 7.183-6.788 10.826l-1.84 3-1.223 2 3.727.113q2.448.099 4.898.2l2.45.068c4.983.223 8.61.863 12.925 3.619 1.528 3.057 1.232 5.63 1 9-1.76 3.185-2.499 3.833-6 5-2.455.12-4.88.188-7.336.203l-2.17.017q-2.272.015-4.545.02c-2.309.01-4.617.041-6.926.073q-2.21.009-4.421.015l-2.081.038c-5.353-.025-8.41-1.473-12.334-4.991-1.874-3.75-1.8-7.263-1.187-11.375 1.392-3.251 3.297-6.042 5.313-8.937q1.644-2.476 3.285-4.954l1.703-2.537c2.763-4.184 5.354-8.47 7.949-12.76l2.766-4.542L414 68l-1.757-.028a694 694 0 0 1-7.93-.222l-2.764-.043c-4.305-.157-6.902-.308-10.631-2.605C388.624 62.588 388 61.405 388 58c2.968-7.349 5.742-7.169 13.113-7.238M267.43-.469l2.507-.023q2.625-.015 5.25-.009c2.672.001 5.34-.04 8.012-.085q2.553-.008 5.106-.008l2.412-.05c4.273.054 5.817.267 9.264 3.056 2.53 3.242 3.225 4.633 2.917 8.654-.701 5.546-3.161 9.33-6.273 13.872a3395 3395 0 0 0-3.258 4.953l-1.684 2.537c-2.743 4.193-5.337 8.474-7.933 12.76l-2.766 4.542c-.654 1.08-1.31 2.158-1.984 3.27l1.757-.048c2.643-.062 5.287-.101 7.93-.14l2.764-.076c8.558-.093 8.558-.093 12.549 3.264 1.427 2.853 1.31 4.835 1 8-1.487 2.658-1.487 2.658-4 5-3.033.508-5.496.703-8.527.664l-2.503.015q-2.616.005-5.232-.027c-2.664-.027-5.323 0-7.986.032q-2.546-.006-5.092-.02l-2.402.03c-4.185-.087-5.814-.348-9.225-3.009-2.096-2.768-3.127-4.912-3.361-8.407 1.24-8.599 8.825-17.41 13.453-24.59l1.84-2.877c2.968-4.634 5.962-9.247 9.035-13.811l-1.772-.06c-2.66-.096-5.319-.205-7.978-.315l-2.79-.094-2.694-.117-2.476-.095c-3.283-.457-5.55-1.369-7.603-4.006-1.006-3.385-.491-5.91.313-9.313 2.557-4.208 7.032-3.468 11.43-3.469M310.234 115.762l2.516-.025q2.643-.02 5.286-.032c2.69-.017 5.377-.061 8.066-.105q2.565-.015 5.132-.026l2.431-.053c3.978.016 5.88.189 9.32 2.38 3.019 3.144 3.44 5.44 3.372 9.811-.691 4.427-3.21 7.894-5.607 11.6l-1.614 2.59c-1.696 2.71-3.415 5.404-5.136 8.098a3648 3648 0 0 0-3.469 5.527Q326.293 162.281 322 169l1.848-.08c2.78-.104 5.559-.168 8.34-.232l2.908-.127c7.134-.124 7.134-.124 11.045 2.736 2.431 3.535 2.547 5.496 1.859 9.703-1.516 2.182-1.516 2.182-4 4-2.9.398-5.412.562-8.309.531l-2.435.012q-2.546.004-5.091-.022c-2.59-.02-5.178 0-7.769.026a1571 1571 0 0 1-4.955-.016l-2.336.025c-3.678-.064-5.891-.423-9.039-2.386-2.84-2.984-3.522-5.089-4.066-9.17 1.853-6.005 4.56-10.82 8.063-16q1.466-2.216 2.93-4.434l1.502-2.269c2.456-3.75 4.826-7.553 7.192-11.36l1.315-2.11q1.5-2.413 2.998-4.827l-1.757-.028a694 694 0 0 1-7.93-.222l-2.764-.043c-4.282-.156-6.906-.318-10.631-2.57-2.486-2.77-2.918-4.429-2.918-8.137 3.155-6.453 5.443-6.176 12.234-6.238"/><path fill="#EEBF69" d="M449 250c-17.253 34.901-17.253 34.901-25 42l-1.758-3.035c-3.997-6.824-7.91-13.086-13.242-18.965v-2l1.478-.791c8.858-4.766 17.442-9.468 25.358-15.713 4.512-3.12 7.846-2.416 13.164-1.496"/></svg>