<svg xmlns="http://www.w3.org/2000/svg" width="512" height="512"><path fill="#010101" d="m359.594-.531 3.842-.012q3.999-.006 7.997.022c3.386.022 6.77.01 10.156-.015 3.272-.018 6.545-.005 9.817.005l3.634-.025C407.558-.418 417.935 3.46 427.16 12c10.57 11.063 13.253 24.262 13.136 39.147-.191 6.752-.598 12.802-5.206 18.013C429.788 74 429.788 74 427 74v41l10.805-.14q5.218-.046 10.435-.08 3.608-.03 7.216-.082c3.47-.049 6.94-.071 10.411-.089l3.224-.062c10.43-.003 18.333 2.985 25.929 10.164 5.48 6.335 8.073 13.523 8.157 21.804l.039 3.348.022 3.602.025 3.713q.02 3.888.032 7.775c.017 3.966.061 7.93.105 11.897q.015 3.776.026 7.552l.053 3.596c-.022 8.185-.022 8.185-2.318 12.29C499 202 499 202 496 202v20l4 1c2.88 2.512 3.01 4.112 3.38 7.96q.026 2.475.008 4.95l.016 2.76c.014 3.057.007 6.114 0 9.172l.02 6.569c.019 5.955.018 11.91.012 17.864-.003 4.973.003 9.945.009 14.917.015 12.408.011 24.815 0 37.223-.01 10.76.002 21.518.026 32.277q.037 16.587.027 33.172a5608 5608 0 0 0 .017 18.611q.022 8.76-.008 17.52-.005 3.208.01 6.415c.121 26.78.121 26.78-9.517 36.59-11.013 9.243-22.309 9.429-36 9l.07 2.527c.28 17.498.28 17.498-5.578 24.97-4.418 4.452-9.618 6.282-15.742 6.753-6.54-.436-12.059-2.559-16.75-7.25-6.15-8.706-5-16.003-5-27h-79v17c-1.544 7.141-5.07 11.01-11 15-6.689 2.973-13.464 2.224-20.25-.125-5.135-3.501-8.915-7.88-10.75-13.875-.195-3.55-.195-3.55-.125-7.312l.055-3.801L294 482h-5l-.078 1.906c-.6 9.044-3.44 15.612-9.922 22.094-6.662 4.348-11.965 6.149-19.924 6.154l-2.474.013c-2.745.014-5.49.02-8.235.026l-5.894.025c-6.46.026-12.922.041-19.383.055l-6.674.017q-13.882.033-27.766.051-19.89.023-39.78.107-13.988.056-27.976.063c-5.568.004-11.136.016-16.704.048q-7.864.044-15.727.025-2.88 0-5.759.025c-11.467.1-20.127-.15-29.325-7.785-6.316-7.43-8.903-13.048-8.379-22.824l-2.309.105c-9.107.24-16.699-.845-24.058-6.527-6.734-6.508-9.65-14.048-9.924-23.263a669 669 0 0 1-.045-6.678l-.02-3.598q-.015-3.757-.015-7.516c-.004-3.812-.04-7.623-.078-11.435q-.009-3.663-.012-7.326l-.043-3.423c.057-10.14 2.571-18.185 9.567-25.648 5.948-5.193 12.37-6.825 20.125-6.753l3.855.027L45 380l-.14-2.266c-.297-8.086-.297-8.086 1.953-11.421C49 365 49 365 52 365v-20l-4-1c-2.082-1.562-2.887-2.41-3.38-4.984l-.008-2.302-.03-2.65.014-2.9-.02-3.061c-.02-3.35-.015-6.699-.01-10.048q-.007-3.493-.015-6.985-.013-7.332.003-14.663c.011-6.25-.009-12.501-.038-18.752a2884 2884 0 0 1-.012-14.439q0-3.455-.019-6.91c-.015-3.232-.004-6.462.013-9.693l-.029-2.863c.103-9.319 3.363-16.236 9.664-23.023 5.807-5.37 11.547-6.856 19.288-6.84h3.942l4.246.015 4.355.005q5.721.006 11.442.024 5.843.014 11.684.02 11.455.016 22.91.049l-.04-3.291-.03-4.338-.029-2.162c-.057-11.028 3.17-19.839 10.728-27.959 7.46-6.924 16.533-9.662 26.555-9.527 8.553.842 16.733 4.14 22.816 10.277 9.488 11.65 9 21.209 9 37h47l-.07-14.996q-.016-4.724-.028-9.447c-.012-4.99-.026-9.98-.053-14.97q-.032-6.04-.039-12.08-.004-2.295-.021-4.592c-.085-12.355.367-22.797 8.211-32.915 7.55-7.439 15.21-10.342 25.682-10.34l3.255.047 3.396.013c3.556.017 7.111.054 10.667.093q3.63.022 7.262.04c5.913.03 11.825.09 17.738.147V74l-5-2c-7.154-7.486-7.364-13.643-7.375-23.562l-.074-3.385C311.506 32.122 315.226 21.583 324 12 334.673 2.378 345.446-.627 359.594-.531M353 42a355 355 0 0 0-.342 11.592C352.461 59.487 351.581 64.204 348 69a85 85 0 0 1-4.105 2.651c-2.998 2.185-2.998 2.185-4.6 5.423-.219 2.456-.197 4.8-.076 7.262l.024 2.364c.042 2.893.153 5.784.257 8.675L340 115h71l.375-20.25.166-6.376q.026-2.507.045-5.015l.093-2.62c.002-2.395-.05-4.428-.679-6.739-2.776-2.526-2.776-2.526-6-4-5.58-5.89-6.291-12.053-6.562-19.812.254-4.99.254-4.99-1.438-9.188a57 57 0 0 0-4.045-.13l-2.599-.009-2.825.006-2.88-.003q-3.022 0-6.043.006-4.643.005-9.284-.007-2.928 0-5.855.004l-2.825-.006-2.6.01-2.298.002c-1.775-.062-1.775-.062-2.746 1.127M152.125 189.813C146.722 197.916 148 203.612 148 214h37c1.202-14.111 1.202-14.111-4.648-24.828-4.462-3.674-7.797-5.883-13.665-6.547-5.872.597-10.555 2.791-14.562 7.188"/><path fill="#7FE09C" d="m284.343 129.485 2.463-.02c2.71-.019 5.42-.009 8.13.002q2.922-.011 5.845-.027c5.283-.022 10.566-.02 15.85-.01 4.413.005 8.826-.002 13.24-.01q15.62-.023 31.24.004c10.736.017 21.472 0 32.209-.032q13.838-.039 27.674-.025c5.507.005 11.013.003 16.52-.018a1873 1873 0 0 1 15.535.012q2.847.008 5.694-.01c2.596-.017 5.19-.002 7.787.02l2.262-.035c5.752.101 9.758 2.04 14.208 5.664 3.706 4.75 5.117 8.288 5.158 14.25l.03 3.246.023 3.504.086 7.313q.063 5.776.104 11.554c.028 3.711.074 7.422.122 11.133l.01 3.504.05 3.246.025 2.86c.214 2.421.214 2.421 1.668 4.156 1.94 1.548 1.94 1.548 5.724 2.234v20l-6 3c-1.844 1.844-1.127 4.448-1.137 6.902l.006 2.592-.007 2.733q-.007 4.569-.004 9.138l-.01 6.523q-.011 7.044-.017 14.087-.01 11.137-.041 22.274l-.019 7.618-.01 3.855c-.042 17.294-.075 34.587-.087 51.88q-.011 17.48-.07 34.96-.032 9.255-.026 18.51.005 8.71-.037 17.42-.01 3.195 0 6.39c.009 2.912-.007 5.823-.029 8.735l.026 2.545c-.087 6.305-1.59 11.727-6.02 16.403-4.513 3.92-7.831 4.56-13.65 4.555l-3.887.004-4.275-.01h-4.494q-6.105-.001-12.21-.013-6.378-.007-12.756-.008-12.08-.005-24.16-.021-13.752-.016-27.504-.022-28.29-.016-56.582-.05l.034-2.21q.15-10.37.225-20.741c.026-3.554.061-7.107.118-10.66.065-4.096.09-8.191.111-12.287l.078-3.821c.003-8.362-1.162-15.746-7.209-21.973-2.17-3.692-1.765-7.403-1.729-11.608l-.011-2.885c-.01-3.198.002-6.396.014-9.594q-.003-3.435-.011-6.87-.013-7.401 0-14.802c.011-7.798 0-15.596-.017-23.394a21508 21508 0 0 1-.038-34.887 50002 50002 0 0 1 0-31.638v-2.099q0-17.316-.042-34.633a5533 5533 0 0 1 .001-23.269c.006-4.82-.005-9.639-.02-14.458q-.005-3.36.01-6.72c.013-3.05.002-6.1-.015-9.151l.03-2.704c-.048-4.911-.048-4.911-2.369-9.154-2.903-1.938-4.736-1.88-8.16-1.442l-3 2c-.306 3.02-.415 5.835-.399 8.858l-.02 2.814c-.019 3.131-.016 6.262-.013 9.393l-.031 6.71c-.028 6.089-.037 12.177-.043 18.266-.01 6.357-.036 12.713-.06 19.07q-.057 16.012-.088 32.025-.03 16.495-.084 32.989l-.006 2.053-.034 10.197c-.093 28.208-.164 56.416-.222 84.625h-12l-.011-5.362q-.056-25.028-.173-50.055c-.04-8.577-.072-17.155-.087-25.732q-.019-11.22-.084-22.438a1991 1991 0 0 1-.037-11.873q0-5.596-.05-11.194c-.012-2.009-.005-4.018.003-6.027-.104-9.134-1.747-15.932-6.686-23.631-4.803-4.49-10.501-7.176-16.875-8.688q-.176-14.07-.26-28.14c-.025-4.356-.06-8.712-.117-13.068-.055-4.208-.084-8.415-.097-12.624q-.015-2.4-.055-4.803c-.244-15.035-.244-15.035 3.769-20.813 5.367-4.732 10.039-6.144 17.103-6.067"/><path fill="#C9A39B" d="m60 313 1.685.416a85.4 85.4 0 0 0 15.377 2.209l3.973.227L84 316v8c-2.983 1.524-5.818 2.94-9 4-2.449 4.282-2.367 8.64-2.375 13.438l-.074 2.236c-.028 5.225.925 8.242 4.449 12.326 4.668 3.8 9.343 3.452 15.086 3.434l2.955.015q3.089.01 6.178-.003c3.138-.008 6.275.02 9.414.052q3.008.003 6.015-.002l2.826.034c6.023-.064 9.61-.983 14.526-4.53 2.935-4.313 3.409-7.842 3.375-13l.023-3.562c-.44-3.797-1.404-6.194-3.398-9.438-2.987-2.303-5.427-3.809-9-5v-8h84v8l-4.98 1.758c-3.05 1.876-5.253 4.158-7.02 7.242-.446 2.91-.619 5.126-.5 8l-.008 2.078c.09 4.688.897 8.028 3.508 11.922 5.239 4.52 9.589 4.589 16.184 4.531l2.95.012q3.08.004 6.16-.022c3.13-.02 6.258 0 9.388.026q3-.004 6.002-.016l2.816.025c6.005-.086 9.594-1.026 14.5-4.556 3.045-4.433 3.432-8.187 3.438-13.5l.058-3.844c-.58-4.271-1.748-6.366-4.496-9.656-2.06-1.505-2.06-1.505-4.25-2.375l-2.14-.96L249 324v-8l3.473-.148 4.59-.227c.752-.03 1.504-.062 2.279-.094l2.256-.117 2.047-.095c3.22-.436 6.24-1.408 9.355-2.319q.141 33.849.207 67.698c.02 10.478.049 20.955.095 31.433q.06 13.7.074 27.399c.006 4.835.018 9.67.047 14.506q.039 6.829.03 13.658 0 2.505.024 5.008c.02 2.284.015 4.567.004 6.85l.011 3.87c-.635 4.617-1.74 6.798-4.492 10.578-4.5 3.131-8.677 3.432-14.008 3.388l-2.391.016c-2.635.014-5.269.007-7.904 0l-5.678.02c-5.134.019-10.268.018-15.402.012-4.287-.003-8.574.003-12.86.009q-15.17.02-30.339.001c-10.432-.011-20.865.003-31.297.03q-13.44.032-26.877.022c-5.35-.003-10.7 0-16.05.017q-7.545.022-15.09-.008-2.767-.005-5.536.01c-2.52.013-5.04.002-7.56-.016l-2.21.03C70.746 497.456 67.91 496.138 64 493c-3.29-3.743-4.124-6.866-4.131-11.782l-.012-2.983.001-3.268-.01-3.445q-.012-3.708-.017-7.415-.011-5.862-.041-11.723l-.019-4.014-.01-2.03a8331 8331 0 0 1-.087-27.29c-.01-6.793-.04-13.585-.081-20.377a1385 1385 0 0 1-.015-7.78c.002-3.62-.02-7.24-.048-10.86l.02-3.268-.038-2.983-.007-2.594c-.327-2.343-.327-2.343-2.35-3.924C54.94 365.865 54.94 365.865 52 365v-20l6-3c1.832-1.832 1.239-4.757 1.316-7.223l.127-3.818.12-4.022.13-4.033q.16-4.951.307-9.904"/><path fill="#F3E1C0" d="m107.973 393.873 3.263-.009 3.612.007 3.778-.006q5.145-.004 10.29 0c3.581.003 7.163 0 10.744 0q9.024-.003 18.048.005 10.448.006 20.894-.002 8.955-.007 17.908-.003 5.355.003 10.71-.001c3.977-.004 7.955.001 11.932.007l3.612-.007 3.263.009 2.854.001C231 394 231 394 232 395c.104 1.8.139 3.603.145 5.406l.02 3.499.003 3.81.01 3.882q.009 4.075.007 8.149c0 3.485.014 6.97.031 10.455.014 3.317.013 6.634.014 9.951l.022 3.804-.01 3.509.005 3.1C232 453 232 453 230 455c-2.227.249-2.227.249-5.055.247l-3.242.013-3.572-.017-3.75.006q-5.098.003-10.196-.013c-3.55-.009-7.102-.007-10.653-.007q-8.944-.002-17.888-.023-10.355-.023-20.709-.02-9.945 0-19.89-.013-4.24-.006-8.48-.006c-3.942-.001-7.884-.011-11.825-.022l-3.578.002-3.234-.013-2.827-.005C103 455 103 455 102 454c-.1-1.836-.128-3.675-.13-5.514l-.009-3.57.006-3.885-.003-3.957q-.001-4.151.006-8.302.006-5.333-.004-10.664c-.004-3.38-.001-6.76.001-10.14l-.006-3.885.01-3.57.002-3.16c.231-4.287 2.314-3.478 6.1-3.48"/><path fill="#020201" d="m112.082 378.369 3.925-.022c3.533-.018 7.066-.005 10.6.014 3.708.017 7.417.008 11.127.003 6.227-.005 12.454.011 18.681.04 7.185.031 14.369.031 21.554.014 6.93-.016 13.86-.01 20.791.008q4.411.01 8.822-.002c4.113-.009 8.224.015 12.336.043l3.672-.02c6.937.078 11.52.8 17.41 4.553 4.58 4.82 6.245 8.58 6.29 15.202l.04 3.804.006 4.103.02 4.23q.017 4.433.015 8.867c0 3.77.027 7.54.061 11.31.022 2.914.026 5.827.025 8.741q.005 2.084.027 4.167c.08 7.94-.062 13.844-4.484 20.576-4.655 4.536-9.162 6.247-15.61 6.26l-3.386.022-3.685-.007-3.904.015c-3.527.014-7.054.014-10.58.012q-4.422 0-8.843.008-10.431.016-20.863.006c-7.168-.006-14.336.006-21.504.027q-9.242.026-18.482.02c-3.677-.001-7.354.001-11.03.015-4.101.015-8.201.006-12.302-.006l-3.68.023c-6.782-.042-11.79-.313-16.994-5.114l-1.45-1.781-1.488-1.781c-2.467-3.537-2.34-6.833-2.376-11.007l-.039-3.935q-.012-2.13-.022-4.261l-.013-2.172q-.03-5.693-.044-11.384c-.011-3.908-.046-7.816-.085-11.725-.027-3.014-.035-6.029-.038-9.044a452 452 0 0 0-.035-4.32C86.37 389.38 86.37 389.38 91 384c6.435-5.682 12.807-5.711 21.082-5.631M102 395c-.1 1.836-.128 3.675-.13 5.514l-.009 3.57.006 3.885-.003 3.957q-.001 4.151.006 8.302.006 5.333-.004 10.664c-.004 3.38-.001 6.76.001 10.14l-.006 3.885.01 3.57.002 3.16c-.138 2.31-.138 2.31 1.127 3.353 1.64.1 3.285.13 4.928.134l3.234.013 3.578-.002 3.744.01q5.1.012 10.197.012 4.25.002 8.499.008 10.023.012 20.046.01 10.353.001 20.706.026 8.877.019 17.753.018 5.307-.002 10.614.013c3.944.011 7.888.007 11.832 0 1.178.007 2.357.012 3.572.018l3.242-.013 2.828.002c2.431-.037 2.431-.037 4.227-2.249.3-2.542.3-2.542.243-5.535l.01-3.509-.023-3.804v-3.885q-.003-4.072-.024-8.143-.023-5.229-.02-10.459c0-3.317-.01-6.633-.018-9.95l-.003-3.81-.02-3.499-.011-3.097c.125-2.272.125-2.272-1.134-3.309a85 85 0 0 0-4.973-.127l-3.263-.009-3.612.007-3.778-.006q-5.145-.004-10.29 0c-3.581.003-7.163 0-10.744 0q-9.024-.003-18.048.005-10.448.007-20.894-.002-8.955-.007-17.908-.003-5.355.003-10.71-.001-5.966-.004-11.932.007l-3.612-.007-3.263.009-2.854.001c-2.104-.11-2.104-.11-3.119 1.126"/><path fill="#61A3FA" d="M125 229h83v72h-83z"/><path fill="#6ABC84" d="M276 130q38.712-.177 77.425-.26c11.983-.025 23.966-.06 35.95-.117q15.668-.076 31.335-.093c5.53-.007 11.06-.022 16.59-.059a1960 1960 0 0 1 15.621-.037q2.865 0 5.728-.03a530 530 0 0 1 7.834-.005l2.276-.044c5.772.08 9.778 2.003 14.241 5.645 3.706 4.75 5.117 8.288 5.158 14.25l.03 3.246.023 3.504.086 7.313q.063 5.776.104 11.554c.028 3.711.074 7.422.122 11.133l.01 3.504.05 3.246.025 2.86c.214 2.421.214 2.421 1.668 4.156 1.94 1.548 1.94 1.548 5.724 2.234v20l-6 3c-1.844 1.844-1.127 4.448-1.137 6.902l.006 2.592-.007 2.733q-.007 4.569-.004 9.138l-.01 6.523q-.011 7.044-.017 14.087-.01 11.137-.041 22.274l-.029 11.473c-.042 17.294-.075 34.587-.087 51.88q-.011 17.48-.07 34.96-.032 9.255-.026 18.51.005 8.71-.037 17.42-.01 3.195 0 6.39c.009 2.912-.007 5.823-.029 8.735l.026 2.545c-.087 6.305-1.59 11.727-6.02 16.403-4.18 3.631-7.293 4.568-12.705 4.498l-2.576-.034L465 462l1.072-1.732c4.061-7.187 4.638-13.069 4.556-21.223l.022-3.858c.019-3.508.006-7.015-.011-10.523-.013-3.793.002-7.586.014-11.379.018-7.42.01-14.839-.008-22.258a6270 6270 0 0 1-.015-18.093l.002-2.604.003-5.239c.008-15.426-.008-30.853-.038-46.28q-.044-22.44-.02-44.883a23271 23271 0 0 0-.006-56.722q-.006-9.036.005-18.07.011-11.01-.024-22.022c-.013-3.744-.02-7.487-.008-11.231.012-4.06-.007-8.12-.03-12.181l.026-3.576c-.07-6.888-1.034-11.19-4.54-17.126v-2H276z"/><path fill="#020403" d="M352.5 149.438c3.5.562 3.5.562 5.687 1.928 2.882 4.187 2.364 8.37 2.32 13.338l.02 3.343c.016 3.71.003 7.419-.01 11.129q.009 3.981.022 7.962c.018 6.469.014 12.937.002 19.406q-.013 7.885-.006 15.769l.002 2.266.004 4.556c.011 14.247-.002 28.493-.023 42.74q-.025 18.344.003 36.687a17946 17946 0 0 1 .014 47.125l-.002 2.256q-.003 7.876.012 15.753.017 9.597-.013 19.194a1482 1482 0 0 0-.001 9.796c.01 3.537-.003 7.073-.023 10.61l.027 3.14c-.076 6.897-.076 6.897-2.348 10.198-3.266 2.04-5.425 1.97-9.187 1.366-2.52-2.147-3.82-3.91-4.365-7.217-.153-2.85-.168-5.672-.143-8.525l-.019-3.319c-.016-3.676-.003-7.352.01-11.029q-.009-3.95-.022-7.899c-.018-6.413-.014-12.826-.002-19.24q.013-7.817.006-15.635l-.002-2.248-.004-4.52c-.011-14.13.002-28.26.023-42.389q.025-18.188-.003-36.375a17651 17651 0 0 1-.012-48.978q.003-7.809-.012-15.618a4144 4144 0 0 1 .02-21.018q.007-3.862-.006-7.725c-.01-3.508.003-7.015.023-10.523l-.027-3.106c.048-4.351.137-6.948 2.348-10.772C349 150 349 150 352.5 149.437"/><path fill="#000100" d="M402 150c2.187 1.365 2.187 1.365 4 4 .607 3.548.539 7.068.508 10.66l.019 3.328c.016 3.694.003 7.387-.01 11.08q.009 3.964.022 7.928c.018 6.441.014 12.882.002 19.323q-.013 7.85-.006 15.703l.002 2.256.004 4.538c.011 14.189-.002 28.378-.023 42.567q-.025 18.266.003 36.53a17796 17796 0 0 1 .012 49.179q-.003 7.842.012 15.684.017 9.557-.013 19.114-.016 4.877-.001 9.754c.01 3.523-.003 7.046-.023 10.57l.027 3.119c-.048 4.36-.133 6.971-2.348 10.802C402 428 402 428 398.5 428.625c-3.5-.625-3.5-.625-5.687-2.49-2.661-4.602-2.366-8.691-2.32-13.922l-.02-3.333c-.016-3.693-.003-7.385.01-11.078q-.009-3.966-.022-7.933c-.018-6.44-.014-12.882-.002-19.323q.013-7.851.006-15.702l-.002-2.256-.004-4.539c-.011-14.187.002-28.374.023-42.562a12250 12250 0 0 0-.003-36.53 17801 17801 0 0 1-.014-46.935l.002-2.247q.003-7.844-.012-15.687-.017-9.555.013-19.111.016-4.876.001-9.753c-.01-3.522.003-7.043.023-10.564l-.027-3.126c.076-6.867.076-6.867 2.348-10.169 3.236-2.02 5.457-1.898 9.187-1.365"/><path fill="#010201" d="M448 150c2.52 2.147 3.82 3.911 4.366 7.217.155 2.849.172 5.672.149 8.525l.02 3.319c.019 3.676.009 7.352-.002 11.029q.011 3.95.027 7.899c.021 6.413.021 12.826.013 19.24q-.008 7.817.001 15.635l.003 2.248.006 4.52c.016 14.13.007 28.26-.01 42.389-.014 12.93 0 25.858.03 38.788a13577 13577 0 0 1 .027 44.327l-.001 2.238q-.002 7.809.022 15.618c.02 7.006.012 14.012-.012 21.018q-.008 3.862.01 7.725c.017 3.508.002 7.015-.02 10.523l.035 3.106c-.062 4.702-.126 6.917-3.012 10.772C447 428 447 428 443.938 428.562c-3.8-.727-4.706-1.381-6.938-4.562-.611-3.562-.539-7.098-.508-10.704l-.019-3.343c-.016-3.71-.003-7.419.01-11.129q-.009-3.981-.022-7.962c-.018-6.469-.014-12.937-.002-19.406q.013-7.885.006-15.769l-.002-2.266-.004-4.556c-.011-14.247.002-28.493.023-42.74q.025-18.344-.003-36.687a17946 17946 0 0 1-.014-47.125l.002-2.256q.003-7.877-.012-15.753-.017-9.597.013-19.194a1482 1482 0 0 0 .001-9.796c-.01-3.537.003-7.073.023-10.61l-.027-3.14c.076-6.897.076-6.897 2.348-10.198 3.266-2.04 5.425-1.97 9.187-1.366"/><path fill="#A2837D" d="M273 313q.141 33.849.207 67.698c.02 10.478.049 20.955.095 31.433q.06 13.7.074 27.399c.006 4.835.018 9.67.047 14.506q.039 6.829.03 13.658 0 2.505.024 5.008c.02 2.284.015 4.567.004 6.85l.011 3.87c-.619 4.5-1.954 6.825-4.492 10.578-5.038 3.718-10.023 3.265-16 3l.857-1.507c3.526-6.89 3.703-12.99 3.641-20.628l.017-3.906q.018-4.179.001-8.358c-.015-4.41-.001-8.818.016-13.227.031-8.559.033-17.118.03-25.677a8706 8706 0 0 1 .05-32.717q.02-6.57.002-13.14-.005-3.1.006-6.203.011-3.775-.012-7.55c.035-5.869.225-9.966 3.392-15.087.508-3.679.508-3.679.438-7.5l.058-3.844c-.58-4.271-1.748-6.366-4.496-9.656-2.06-1.505-2.06-1.505-4.25-2.375l-2.14-.96L249 324v-8l3.543-.148 4.644-.227c.77-.03 1.538-.062 2.33-.094 4.68-.24 9.078-2.531 13.483-2.531"/><path fill="#5291F7" d="M249 229c16.347 0 16.347 0 21 4 2.489 3.562 3.378 5.99 3.404 10.322l.038 3.146-.008 3.368.015 3.493q.01 3.654-.003 7.308c-.008 3.718.02 7.434.052 11.152q.003 3.555-.002 7.11l.034 3.355c-.058 6.448-.518 10.592-4.53 15.746-5 3-5 3-20 3z"/><path fill="#60A1F7" d="M84 229v72c-15.889 0-15.889 0-20-4-3.3-3.755-4.122-6.905-4.161-11.835l-.03-2.974-.012-3.21-.017-3.308q-.014-3.465-.02-6.932c-.01-3.53-.041-7.058-.072-10.587q-.01-3.367-.016-6.736l-.038-3.192c.017-5.487.195-9.525 3.366-14.226 7.448-6.72 8.617-5 21-5"/><path fill="#7B8792" d="m353.924 14.807 3.036-.049c4.608-.044 9.216-.085 13.824-.108q3.63-.025 7.259-.082c3.505-.055 7.01-.077 10.516-.091l3.23-.07c8.526.024 16.835 1.834 23.46 7.525 6.333 6.574 9.243 14.11 9.249 23.177l-.06 2.766.021 2.836c-.063 6.769-.063 6.769-1.826 9.086C421 61 421 61 418.438 60.812 416 60 416 60 414 58c-.24-1.844-.24-1.844-.238-4.07l-.05-2.47q-.024-2.55-.015-5.1c-.152-6.266-1.656-10.516-5.697-15.36-4.798-3.819-8.526-5.101-14.55-5.177l-2.711-.039-2.91-.022-3.02-.025q-3.162-.02-6.325-.032a768 768 0 0 1-6.447-.062 892 892 0 0 0-9.334-.069l-2.886-.053c-6.794.022-12.432 1.201-17.446 6.057-4.097 4.71-4.017 9.616-3.933 15.61.085 9.077.085 9.077-2.301 12.43C334 61 334 61 331.375 60.937 329 60 329 60 327 57c-1.384-9.25-1.282-20.068 4-28l1.027-1.871c4.534-7.502 13.244-12.196 21.897-12.322"/><path fill="#60A1F6" d="M288 395c12.684 0 12.684 0 17 4 4.803 5.476 4.57 10.45 4.496 17.531l.005 3.362q-.004 3.51-.034 7.02c-.03 3.575-.021 7.148-.008 10.724q-.01 3.415-.025 6.832l.008 3.23c-.08 6.29-.428 11.308-5.133 15.98C298.096 467.65 296.286 467 288 467z"/><path fill="#61A3F9" d="M45 395v71c-12 0-12 0-16.187-2.875-3.364-3.388-3.942-5.556-4.006-10.306l-.049-3.277a3444 3444 0 0 1-.108-14.862 947 947 0 0 0-.082-7.839 1061 1061 0 0 1-.091-11.294l-.07-3.533c.024-9.05.024-9.05 2.876-12.673C33.556 393.937 35.678 395 45 395"/><path fill="#E19F2B" d="M99 229h11v95H99z"/><path fill="#E8A42C" d="M224 229h10v95h-10z"/><path fill="#5F9FF5" d="M249 229c5 1 5 1 6.75 3.313 1.867 4.013 2.378 7.358 2.427 11.772l.039 3.066.022 3.298.025 3.416q.02 3.58.032 7.16c.017 3.631.061 7.263.105 10.895q.015 3.483.026 6.967l.053 3.268c-.018 6.263-.33 12.797-4.479 17.845l-5 1z"/><path fill="#E9DA33" d="M211 339h36v6h-36z"/><path fill="#E8D933" d="M87 339h36v6H87z"/><path fill="#7B8792" d="M431 477h11q.118 3.906.188 7.813l.076 2.236c.073 5.42.073 5.42-1.55 7.974-2.959 1.686-5.542.74-8.714-.023-1.594-3.188-1.102-6.629-1.062-10.125l.013-2.285q.02-2.795.049-5.59"/><path fill="#78848E" d="m312.285 476.902 2.777.036 2.786.027L320 477q.08 4.188.125 8.375l.05 2.406c.018 2.074-.072 4.148-.175 6.219-2 2-2 2-4.937 2.375C312 496 312 496 310.324 494.425c-1.808-3.311-1.652-5.862-1.574-9.613l.047-3.792c.268-3.98.268-3.98 3.488-4.118"/><path fill="#C9A39B" d="M250 317h7v9c-4.75-.875-4.75-.875-7-2z"/></svg>