<svg xmlns="http://www.w3.org/2000/svg" width="512" height="512"><path fill="#030202" d="m74.063-.25 3.24-.062C88.039-.364 97.67 1.75 107.188 6.75l2.064 1.065C114.662 10.676 119.466 13.867 124 18l2.48 2.203C139.293 32.221 146.674 47.673 149 65c4.094-.54 6.298-1.752 9.5-4.312C168.609 53.43 179.767 51.753 192 53c9.24 1.67 15.975 5.799 22 13 3.385 5.33 4.948 10.653 6.15 16.816 1.268 6.478 1.268 6.478 5.522 11.227q3.136 1.455 6.351 2.723c7.312 3.032 10.75 9 14.032 15.902 3.302 8.147 3.123 17.854.382 26.144-3.632 8.556-7.985 13.43-16.125 17.903-4.1 2.585-6.018 4.268-7.398 9.037-.43 4.403-.22 8.777.024 13.185.101 2.988.167 5.976.214 8.965l.043 2.16c.031 9.08-3.462 15.987-9.125 22.887-4.045 4.007-9.225 8.051-15.07 8.051v25l6 2c3.624 2.687 6.787 5.838 10 9l1.965 1.926c6.072 6.406 10.796 13.849 15.691 21.16l1.574 2.245C236 285 236 285 237.477 287.847c2.716 4.71 4.713 7.664 10.107 9.122 4.49.46 8.967.293 13.47.148a764 764 0 0 1 5.006-.016c4.38-.01 8.758-.083 13.137-.174 7-.137 14-.194 21-.225 2.43-.022 4.858-.078 7.288-.139 9.4-.15 17.007.64 24.375 7.057 4.548 4.518 6.293 10.373 8.14 16.38l1.8-.443c2.733-.67 5.466-1.332 8.2-1.995l2.832-.697 2.793-.674 2.54-.618c6.296-1.272 12.48-1.737 18.894-1.776l2.265-.017q2.362-.014 4.727-.02c2.35-.01 4.699-.04 7.049-.072 25.124-.177 48.566 7.145 70.9 18.312v-35h50v215H0V247h50v90l10-5c5.588-2.055 10.564-2.268 16.434-2.195l2.66.008c2.781.011 5.562.036 8.344.062q2.843.016 5.685.027 6.938.035 13.877.098l-.203-3.945c.005-7.055 1.51-13.812 2.974-20.677.476-2.24.934-4.482 1.39-6.726 3.147-15.234 6.829-29.764 18.089-41.09 5.217-5.42 6.465-10.15 6.75-17.562l-2.02.14c-10.938.429-19.874-2.72-27.98-10.14-4-4.4-4-4.4-4-7l-3.875-.562c-7.739-1.755-13.951-6.288-18.5-12.75-1.962-3.206-3.337-6.413-4.625-9.938-1.464-3.934-2.893-5.794-6.352-8.305-7.762-6.806-10.973-17.117-11.89-27.074-.168-5.966.863-11.584 2.242-17.371l-3.25-.187C39.676 144.693 25.198 132.995 15 121 1.505 102.499-2.418 82.071.289 59.604c3.436-19.657 15.667-36.282 31.64-47.698C45.08 3.29 58.46-.177 74.064-.25"/><path fill="#020202" d="m262.022-.134 2.564-.014h2.833l2.997-.01q5.003-.015 10.007-.019l7.149-.02c7.167-.02 14.334-.03 21.501-.039q5.063-.007 10.124-.015a38628 38628 0 0 1 44.583-.046c11.723-.008 23.445-.033 35.167-.066q18.05-.049 36.1-.054c6.758-.002 13.514-.01 20.271-.036q9.535-.035 19.071-.018 3.501 0 7.001-.02c3.186-.017 6.37-.01 9.556.003l2.8-.033C499.676-.461 503.14.544 508 4c5.265 6.282 4.598 13.165 4.5 21.063.015 1.253.03 2.507.047 3.798-.037 8.584-.8 12.393-6.86 18.452C503 49 503 49 496 50v181l7 1c3.956 1.656 6.084 3.875 8.156 7.632 1.866 5.233 1.412 10.883 1.344 16.368.015 1.245.03 2.49.047 3.773-.03 6.868-.052 11.857-4.547 17.227-5.732 4.068-10.058 4.575-16.982 4.508l-2.998.019c-3.306.016-6.612.003-9.918-.01q-3.561.009-7.122.022c-5.773.016-11.547.014-17.32.002q-7.04-.013-14.08-.006l-2.026.002-4.075.004c-12.73.011-25.461-.002-38.192-.023a9846 9846 0 0 0-32.75.003 14328 14328 0 0 1-42.117.014l-2.018-.002q-7.029-.003-14.058.012-9.465.017-18.931-.02-3.474-.007-6.948.006c-3.161.01-6.322-.003-9.483-.023l-2.777.027c-5.904-.072-9.37-1.088-14.205-4.535-5.339-6.744-5.206-12.473-5.25-20.75l-.063-2.922c-.04-7.566.703-13.475 6-19.265C256 232 256 232 264 231V50l-7-1c-4.538-2.005-6.56-4.73-9-9-1.572-4.945-1.264-10.113-1.313-15.25l-.087-3.066c-.055-6.423.616-11.365 4.4-16.684 3.636-3.377 6.088-5.122 11.022-5.134"/><path fill="#DEB18A" d="m50 405 13 6c3.836.959 6.812 1.13 10.745 1.138l2.052.009q3.405.011 6.81.01l4.884.016q5.262.017 10.525.026c5.563.01 11.125.031 16.687.053 15.82.062 31.638.116 47.457.15q13.102.027 26.206.087 6.922.034 13.846.04 6.532.002 13.063.044 2.377.01 4.753.005c24.326-.044 44.049 6.751 65.587 17.732 10.457 5.307 20.684 9.14 32.072 11.94l2.016.496c17.414 3.986 36.857 3.594 54.36.567l2.622-.45c19.619-3.767 38.65-11.627 57.54-18.02q3.886-1.315 7.776-2.62 3.636-1.22 7.266-2.454l3.3-1.104 2.896-.977C458 417 458 417 462 417v78H50z"/><path fill="#FAD56F" d="M384.227 330.609c2.207.016 4.412 0 6.619-.02 13.652-.02 27.092 1.736 39.967 6.473l2.46.88c23.316 8.647 23.316 8.647 28.727 14.058.093 1.474.117 2.952.114 4.428v2.851l-.016 3.1-.005 3.157c-.005 3.342-.018 6.684-.03 10.026q-.008 3.39-.014 6.78-.017 8.329-.049 16.658c-19.969 6.885-39.951 13.737-60.014 20.346q-2.512.83-5.02 1.67c-15.827 5.295-30.62 8.541-47.466 8.359l-2.038-.012c-10.137-.07-19.66-.673-29.462-3.363l-3.027-.703c-9.638-2.53-18.42-7.164-27.325-11.543-8.37-4.104-16.691-8.044-25.585-10.879l-2.088-.723c-17.506-5.617-36.036-5.657-54.225-5.84q-3.476-.05-6.953-.103-8.399-.126-16.797-.209a847 847 0 0 1-.05-4.785l-.03-2.692c.316-10.016 6.835-19.151 13.08-26.523l1.754-2.121c1.707-1.778 2.968-2.936 5.246-3.879 3.874.378 7.163 2.179 10.681 3.752 7.401 2.893 14.898 2.74 22.721 2.752l4.464.03q4.657.026 9.316.022c3.956 0 7.91.04 11.865.092 3.069.034 6.137.04 9.206.038q2.186.006 4.371.04c8.906.13 16.523-.397 23.376-6.726 1.534-2.403 1.534-2.403 2.688-4.813 1.398-2.355 1.398-2.355 3.312-4.187 3.643-.647 7.11-.627 10.809-.648 4.635-.198 8.37-1.72 12.566-3.602 5.66-2.515 11.24-4.75 17.188-6.5l3.753-1.11c12.02-3.065 23.513-4.638 35.91-4.531"/><path fill="#F09CCE" d="M195.75 262.625c10.653 7.855 17.469 19.248 24.677 30.11 2.043 2.942 4.283 5.707 6.58 8.454.993 1.811.993 1.811.781 3.893-1.175 2.86-3.131 4.543-5.35 6.668l-2.504 2.422L218 316q1.404 1.659 2.813 3.313l1.582 1.863L224 323l1.45 1.793c1.464 1.409 1.464 1.409 3.382 1.127 3.151-1.337 4.357-3.721 6.406-6.44 3.57-4.02 6.68-5.788 12.06-6.384 6.306-.315 12.587-.057 18.89.216q3.321.084 6.642.15c5.393.121 10.78.305 16.17.538.116 4.396.187 8.79.25 13.188l.102 3.775.039 3.642.063 3.349c-.557 3.739-1.848 5.363-4.454 8.046-2.607 1.303-4.549 1.149-7.469 1.177l-3.47.039-3.776.022-3.88.025q-4.08.022-8.16.032c-3.455.011-6.911.045-10.367.085-3.323.033-6.645.037-9.968.046l-3.72.053c-12.547-.031-23.047-3.768-32.256-12.42-6.355-6.73-11.644-14.323-17.079-21.793-4.128-5.666-8.356-11.253-12.605-16.829l-2.096-2.759c-.644-.843-1.288-1.687-1.95-2.557-.572-.748-1.142-1.497-1.73-2.268-1.488-1.943-1.488-1.943-3.474-3.853l-11 8c.968 3.872 1.735 5.28 4.105 8.316l1.962 2.539 2.12 2.707a4908 4908 0 0 1 4.38 5.668l2.242 2.904c3.917 5.124 7.712 10.338 11.496 15.56A188 188 0 0 0 189 344c-1.644 3.485-3.576 5.833-6.25 8.625-9.653 10.627-15.864 23.903-16.75 38.375-12.438-1.937-23.196-12.806-30.406-22.55-12.754-19.6-13.363-38.868-8.652-61.163q.693-3.182 1.404-6.361a598 598 0 0 0 1.666-7.738c1.745-7.98 4.186-14.538 8.988-21.188l1.75-2.687c14.956-15.372 36.647-17.884 55-6.688"/><path fill="#68D4F2" d="M102 23c3.938 2.4 7.5 5 11 8l1.98 1.68C125.597 42.476 130.884 55.774 132 70l-3.5 1.563c-7.228 3.67-11.892 8.126-15.875 15.187-2.414 4.023-3.855 5.869-8.437 7.063l-2.575.542c-9.58 2.363-16.616 9.65-21.925 17.614-2.604 4.67-3.436 9.338-4.098 14.613-.668 2.74-1.344 3.75-3.59 5.418-10.552 1.606-22.45-4.279-31-10-11.223-8.767-20.391-20.498-23.602-34.652C15.816 74.05 15.515 61.002 22 49l1.492-2.793C31 33.039 41.778 24.382 56 19l2.61-1.098C72.9 14.1 89.073 16.05 102 23"/><path fill="#636B76" d="M193.512 70.95c4.132 2.42 6.224 4.797 8.488 9.05.67 2.783.67 2.783 1.113 5.781 1.336 11.201 1.336 11.201 6.435 20.791 3.843 2.216 8.138 2.717 12.452 3.428 4.593 2.443 7.338 6.107 9 11 .702 5.978.512 10.914-3 16-2.687 2.375-2.687 2.375-5 4l-.812-3.687c-.922-3.574-1.794-6.423-4.188-9.313-4.025-2.218-7.417-3.09-11.937-3.75-5.79-1.091-9.362-3.71-13.063-8.25-1.427-2.539-2.653-5.112-3.86-7.762-2.076-4.075-4.891-5.683-8.952-7.488-6.713-1.58-11.465-1.293-17.442 2.063-4.045 2.75-5.948 6.54-8.184 10.75-2.998 5.52-6.536 8.563-12.562 10.437-3.11.236-6.197.189-9.312.125l-2.534-.027c-2.051-.024-4.103-.06-6.154-.098l.316 3.727c.776 12.925.776 12.925-2.109 16.488-2.332 1.347-2.332 1.347-4.805 2.543-4.405 2.278-6.682 5.66-8.402 10.242-1.199 8.644-.688 15.613 4 23l1 3c1.846 1.116 1.846 1.116 4 2l1.86 1.035c4.79 2.603 8.702 3.577 14.14 3.965q.472 2.063.938 4.125l.527 2.32c1.274 6.083 1.662 11.735 1.597 17.93l-.013 2.52q-.02 3.053-.049 6.105c-9.73.623-9.73.623-14.437-1.687-4.37-3.944-7.17-7.928-9.563-13.313v-2l-2.344.246c-5.784.35-9.735.442-14.281-3.434-3.27-3.392-5.32-6.09-5.418-10.945-.085-2.456-.229-4.515-.957-6.867-1.833-1.627-3.694-2.628-5.863-3.762-4.465-2.587-7.315-6.52-9.512-11.113-1.424-7.122-1.244-13.69 2.375-20.125 2.576-3.44 5.359-6.683 8.719-9.379 4.954-4.068 4.964-8.184 5.676-14.36 1.205-6.492 4.927-11.237 10.105-15.198 6.707-4.229 12.756-4.311 20.5-4.063l.297-1.758C124.023 96.225 128.442 90.218 136 85c5.26-2.381 10.22-2.236 15.875-2.125l2.664.027c2.154.024 4.307.06 6.461.098l.894-1.9c2.48-4.707 7.834-7.352 12.293-9.975 6.28-1.853 13.087-2.533 19.325-.176"/><path fill="#EDCDB1" d="M171 116c2.297.148 2.297.148 5 1 1.703 2.477 1.703 2.477 3.25 5.625 4.549 8.316 10.777 13.384 19.75 16.375 2.33.358 4.663.695 7 1 .102 7.401.172 14.803.22 22.205q.03 3.774.082 7.547c.048 3.625.071 7.248.089 10.873l.062 3.388c.002 6.447-.5 11.697-4.453 16.987-5.396 4.295-9.961 5.5-16.727 5.5-6.336-.968-11.768-4.35-17.273-7.5l-.371 2.238c-.602 2.642-1.412 4.58-2.691 6.95-1.551 2.755-1.551 2.755-1.938 5.812q2.775 1.447 5.563 2.875l3.128 1.617c3.83 1.845 3.83 1.845 10.309 3.508v18l-4.566.184-5.996.254-3.002.119-2.94.127-2.682.11c-3.3.241-6.543.708-9.814 1.206l-.06-3.234c-.077-4.041-.166-8.082-.257-12.122a1501 1501 0 0 1-.105-5.202c-.264-14.263-.688-28.486-4.992-42.208C147 177 147 177 147 173l-1.68.08c-2.523.104-5.046.168-7.57.232l-2.645.127c-6.483.124-6.483.124-9.68-2.771-1.76-3.295-2.115-4.986-1.425-8.668 1.813-2.875 1.813-2.875 5-5 3.771-.418 7.185-.23 11 0v-17l4.5-.75c7.781-1.563 15.512-4.794 20.066-11.586 2.317-3.808 4.478-7.658 6.434-11.664"/><path fill="#E4E7EB" d="M421 50h58v112c-4.607-.921-8.058-2.317-12.125-4.5l-1.996-1.07c-6.235-3.451-11.606-7.638-16.879-12.43l-1.914-1.668c-14.307-13.23-23.89-34.448-25.261-53.805-.053-2.493-.05-4.979-.02-7.472l.006-2.412c.01-2.923.038-5.845.064-8.768z"/><path fill="#E5E8EC" d="M281 50h57l.188 20.563.082 6.388c.112 14.48-.86 27.765-7.52 40.924l-1.205 2.45c-2.926 5.8-6.162 10.86-10.545 15.675l-1.941 2.398C307.977 149.27 296.22 157.012 283 162h-2z"/><path fill="#67D1EF" d="m339.578 147.61 2.49.012c3.06.02 6.121.076 9.182.128L372 148v83h-34l-1-13c-3.915-17.243-13.911-31.732-28.64-41.527A391 391 0 0 0 301 172c3.113-2.594 6.336-4.918 9.688-7.187 6.024-4.18 12.495-8.959 16.853-14.92 3.787-2.914 7.39-2.39 12.037-2.284"/><path fill="#68D4F2" d="m388 149 20.75-.75 6.472-.331c14.45-.43 14.45-.43 19.556 3.603 2.124 2.017 3.982 4.183 5.81 6.467 3.084 3.85 6.501 6.214 10.662 8.761l2.004 1.281A386 386 0 0 0 458 171c-2.557 2.695-5.017 4.764-8.187 6.688-13.99 9.188-23.203 23.797-27.063 40-.767 4.409-1.256 8.864-1.75 13.312h-33z"/><path fill="#D29F6B" d="M264 248h231v16H264zM264 17h231v16H264z"/><path fill="#CF9E76" d="M17 265h16v230H17z"/><path fill="#FAD56F" d="M72.104 346.886h2.487l2.67.016 2.746.005c2.893.005 5.787.018 8.68.03q2.943.008 5.885.014 7.215.017 14.428.049l.603 1.83.803 2.423.79 2.392c5.378 15.762 13.712 27.765 25.714 39.273L139 395v1q-13.823.212-27.645.31c-4.28.032-8.56.074-12.839.143-4.137.065-8.273.1-12.41.116q-2.358.017-4.715.065c-9.424.188-16.838-.264-24.391-6.634-2.254-2.484-2.254-2.484-3.563-4.75l-1.378-2.297c-3.22-5.94-2.73-12.365-2.059-18.953 2.632-7.727 7.878-12.324 15-16 2.731-.91 4.299-1.122 7.104-1.114"/><path fill="#CF9E76" d="M479 314h16v181h-16z"/><path fill="#65CFEC" d="M355 49h17v83h-30c1.319-3.957 2.602-7.392 4.313-11.125 6.842-16.584 8.452-32.824 8.5-50.625q.034-3.116.076-6.23c.062-5.007.095-10.013.111-15.02"/><path fill="#66D0ED" d="M388 49h17l.044 3.693c.059 4.6.136 9.2.218 13.8q.05 2.964.084 5.928c.258 21.572 3.945 39.84 12.654 59.579h-30z"/><path fill="#050402" d="M393.324 386.992c2.724 1.638 3.03 3.918 3.926 6.883l1.016 3.242C399 400 399 400 399 403c-33.715 11.464-63.43 13.854-97 0 1.545-5.48 4.155-10.114 7-15 5.56.934 10.726 2.956 16.016 4.844 14.967 4.745 35.259 3.928 49.984-.844q3.193-1.029 6.389-2.048 2.124-.685 4.234-1.414c2.6-.866 4.948-1.537 7.701-1.546"/><path fill="#E4E7EB" d="M479 183v48h-41c0-14.312 4.441-24.973 14.063-35.687C459.28 188.507 469.069 183 479 183M281 183c12.592 1.799 22.918 7.666 31.145 17.453C318.979 209.834 322 219.47 322 231h-41z"/><path fill="#030708" d="M66 33h17c3.118 41.974 3.118 41.974-3.867 52.031C75.177 89.393 70.56 93.823 65 96c-4.116-.445-5.942-2.63-8.75-5.562l-2.422-2.504L52 86c1.545-4.063 4.227-5.836 7.55-8.52 4.404-4.025 6.138-7.404 6.654-13.361.152-4.277.097-8.53-.016-12.806q-.011-2.672-.006-5.342c.006-4.33-.09-8.639-.182-12.971"/><path fill="#070603" d="M427 376q1.255 3.435 2.5 6.875l.723 1.973C432 389.773 432 389.773 432 392q-3.404 1.259-6.812 2.5l-1.948.723C420.35 396.27 418.1 397 415 397a886 886 0 0 1-2-5.75l-1.125-3.234C411 385 411 385 411 381q3.435-1.255 6.875-2.5l1.973-.723C424.773 376 424.773 376 427 376"/><path fill="#ECCDB1" d="M306 314c10.088-.608 10.088-.608 14.188 2.125 2.159 3.425 2.638 4.909 1.812 8.875-1.812 2.875-1.812 2.875-5 5-3.771.418-7.185.23-11 0z"/></svg>