<svg xmlns="http://www.w3.org/2000/svg" width="512" height="512"><path fill="#817F7E" d="m395 8 3.137 1.063c21.07 7.932 35.86 22.888 45.586 42.843 1.131 2.741 1.836 5.173 2.277 8.094l2.64.297c20.547 2.58 37.266 10.655 50.712 26.469C510.959 101.98 513.374 117.34 512 136c-2.672 15.984-12.934 30.34-25.875 39.813-12.827 8.338-26.388 13.552-41.832 13.718L442 190c-1.227 1.801-1.227 1.801-2 4-10.39 14.526-26.463 22.056-43.55 25.457-2.384.298-2.384.298-3.45 1.543.006 1.73.057 3.46.125 5.188.062 17.547-6.8 33.352-19.125 45.812-11.949 10.591-26.366 17.373-42.34 18.574l-3.226.249L326 291c-6.364 16.714-12.43 33.525-18.367 50.394-2.248 6.389-4.505 12.775-6.76 19.161l-1.543 4.367a13099 13099 0 0 1-16.267 45.765l-1.226 3.432a6157 6157 0 0 1-5.688 15.875 1032 1032 0 0 0-4.349 12.36l-1.08 3.08a546 546 0 0 0-1.986 5.77l-.912 2.58-.777 2.258c-1.312 2.458-2.665 3.533-5.045 4.958-3.597.385-6.056.422-9.375-1.062-2.371-2.828-2.773-5.346-2.625-8.938 1.092-4.465 2.68-8.729 4.266-13.04q.698-1.95 1.394-3.905c1.252-3.504 2.523-7 3.796-10.496 1.334-3.671 2.65-7.348 3.968-11.025a6492 6492 0 0 1 6.473-17.955 6217 6217 0 0 0 8.302-23.087l2.408-6.731 1.172-3.275q2.299-6.417 4.605-12.831c7.257-20.2 14.439-40.427 21.616-60.655l-1.866-.39c-.809-.175-1.618-.348-2.451-.527l-2.429-.516c-3.686-.927-6.72-2.77-9.992-4.641-2.177-1.09-2.177-1.09-4.34-.762-2.268.986-3.592 2.17-5.36 3.899C265.07 299.913 241.959 307.205 220 308l-2.512.121c-15.459.393-31.165-2.287-45.488-8.121q-2.33 6.27-4.645 12.543-.788 2.132-1.58 4.262-1.14 3.07-2.271 6.144l-1.38 3.73c-.947 2.797-1.582 5.43-2.124 8.321l1.896.011c6.522.042 13.043.111 19.564.197q3.649.042 7.298.063c3.5.021 7 .068 10.5.12l3.286.003c6.118.119 9.793.522 14.456 4.606 2.89 3.245 4.247 6.732 4.438 11.063-.884 7.95-5.924 13.439-10.688 19.562l-4.352 5.652-2.227 2.89c-3.304 4.312-6.55 8.666-9.796 13.02a1029 1029 0 0 1-14.437 18.875c-5.364 6.847-10.551 13.805-15.684 20.826-4.594 6.265-9.328 12.41-14.123 18.523a707 707 0 0 0-13.225 17.465c-6.257 8.447-6.257 8.447-10.344 10.124-2.562 0-2.562 0-5.374-1.5-2.95-3.371-2.471-5.085-2.188-9.5a127 127 0 0 1 1.744-7.784l.562-2.254q.6-2.406 1.213-4.81.967-3.805 1.915-7.617 1.678-6.711 3.374-13.418 2.714-10.746 5.4-21.497.942-3.749 1.895-7.493l1.153-4.602.538-2.094c.881-3.552 1.403-6.77 1.206-10.431l-1.713-.018q-8.833-.098-17.666-.244-3.295-.051-6.59-.084c-3.16-.034-6.32-.086-9.48-.142l-2.971-.02c-8.62-.185-8.62-.185-12.58-3.492-2.567-4.2-1.878-7.289-1-12 .894-3.137 1.952-6.21 3.027-9.29l.924-2.694q1.487-4.323 2.987-8.641l2.043-5.94q2.531-7.357 5.076-14.708 2.086-6.037 4.162-12.079 3.38-9.826 6.781-19.648l-2.265.427c-6.714 1.201-13.166 1.93-19.985 1.885l-2.722-.01c-10.126-.163-19.564-1.93-29.262-4.861l-2.71-.818L52 292l-.645 1.81c-3.667 10.29-7.334 20.578-11.015 30.863l-.689 1.924-2.788 7.79a5514 5514 0 0 0-8.64 24.304 4965 4965 0 0 1-4.631 13.046q-1.09 3.069-2.165 6.142c-.995 2.843-2.006 5.68-3.02 8.516l-.873 2.53c-2.567 7.083-2.567 7.083-6.534 9.075-3.688.55-5.532.234-8.875-1.437-2.55-3.076-2.534-5.028-2.433-8.938.583-4.971 2.378-9.505 4.12-14.172l1.216-3.363c1.31-3.618 2.641-7.229 3.972-10.84q1.363-3.747 2.722-7.496 2.422-6.685 4.861-13.365c3.937-10.785 7.783-21.602 11.617-32.425q2.042-5.761 4.09-11.521Q34.147 289.222 36 284l-2.657-2.22-3.511-2.948-1.744-1.455C13.495 265.097 3.354 250.042 0 231c-1.54-22.976 1.761-42.006 17-60l1.426-1.828C32.782 151.216 56.738 141.649 79 139c6.006-.378 11.991-.261 18 0l.297-3.043c2.422-22.925 11.317-41.584 28.988-56.832C144.395 64.95 166.067 58.225 189 60c7.449.95 14.802 2.199 21.875 4.75 2.032.604 2.032.604 4.125.25 2.939-1.947 5.44-4.172 8.05-6.54C236.404 47.32 254.33 45.66 271 47c4.13.705 8.01 1.752 12 3 1.663.353 3.328.692 5 1l.563-2.375c6.891-17.38 23.24-30.394 39.828-37.94C349.073 1.801 373.671.452 395 8"/><path fill="#757474" d="M360 4c24.467-.957 47.799 5.168 66.297 22.172C434.885 35.39 444.07 47.237 446 60l2.64.297c20.547 2.58 37.266 10.655 50.712 26.469C510.959 101.98 513.374 117.34 512 136c-2.672 15.984-12.934 30.34-25.875 39.813-12.827 8.338-26.388 13.552-41.832 13.718L442 190c-1.227 1.801-1.227 1.801-2 4-10.39 14.526-26.463 22.056-43.55 25.457-2.384.298-2.384.298-3.45 1.543.006 1.73.057 3.46.125 5.188.062 17.547-6.8 33.352-19.125 45.812-11.949 10.591-26.366 17.373-42.34 18.574l-3.226.249L326 291c-6.364 16.714-12.43 33.525-18.367 50.394-2.248 6.389-4.505 12.775-6.76 19.161l-1.543 4.367a13099 13099 0 0 1-16.267 45.765l-1.226 3.432a6157 6157 0 0 1-5.688 15.875 1032 1032 0 0 0-4.349 12.36l-1.08 3.08a546 546 0 0 0-1.986 5.77l-.912 2.58-.777 2.258c-1.312 2.458-2.665 3.533-5.045 4.958-3.597.385-6.056.422-9.375-1.062-2.371-2.828-2.773-5.346-2.625-8.938 1.092-4.465 2.68-8.729 4.266-13.04q.698-1.95 1.394-3.905c1.252-3.504 2.523-7 3.796-10.496 1.334-3.671 2.65-7.348 3.968-11.025a6492 6492 0 0 1 6.473-17.955 6217 6217 0 0 0 8.302-23.087l2.408-6.731 1.172-3.275q2.299-6.417 4.605-12.831c7.257-20.2 14.439-40.427 21.616-60.655l-1.866-.39c-.809-.175-1.618-.348-2.451-.527l-2.429-.516c-3.686-.927-6.72-2.77-9.992-4.641-2.177-1.09-2.177-1.09-4.34-.762-2.268.986-3.592 2.17-5.36 3.899C269.638 295.8 252.942 303.682 237 306l-3-1c8-8 8-8 10.477-10.465C266.207 272.703 279.435 246.233 285 216l.59-3.191c1.739-16.147 1.379-33.03-2.59-48.809l-.52-2.093c-4.109-16.162-10.91-30.66-19.48-44.907 8.469-5.646 19.217-4.97 28.887-3.348 15.244 3.65 27.816 11.574 36.511 24.676 4.146 6.917 6.997 13.537 7.95 21.578.906 2.91 2.015 3.59 4.652 5.094 2.334.81 4.692 1.554 7.063 2.25 16.85 5.313 28.946 16.875 37.937 31.75 1.51 2.948 2.781 5.924 4 9a217 217 0 0 0 2 4c5.545-4.61 10.406-9.447 15-15l1.934-2.273C422.21 178.733 430.262 161.057 435 141l.75-3.07c5.991-29.208-2.986-60.112-19.102-84.57C402.1 32.036 382.433 17.342 360 5z"/><path fill="#9E9C9B" d="m369.125 8.813 2.51 1.501C379.249 14.966 386.232 20.2 393 26l2.988 2.527C415.166 45.318 429.158 68.192 435 93l.902 3.465c4.16 17.654 2.641 35.125-1.902 52.535l-.535 2.053C426.688 175.92 410.502 196.646 391 213l-.848-2.238C383.367 193.592 372.836 179.274 356 171c-3.74-1.538-7.54-2.864-11.402-4.062-6.797-2.123-6.797-2.123-8.598-4.938-.703-2.68-.703-2.68-1.25-5.875-3.237-15.184-11.668-25.81-24.367-34.11-4.632-2.759-9.219-4.534-14.383-6.015l-3.75-1.25c-6.682-1.57-15.08-1.597-21.77-.238-3.184.627-6.243.551-9.48.488l-.743-1.554C254.745 102.08 249.21 92.722 240 84l-1.98-2c-6.803-6.498-15.621-10.905-24.02-15 7.126-10.69 21.294-16.726 33.434-19.496C259.515 45.797 271.348 46.355 283 50c1.663.353 3.328.692 5 1l.563-2.375c7.232-18.237 24.52-31.285 41.976-38.895 13.172-5.355 25.979-8.665 38.586-.918"/><path fill="#FECE56" d="m123 264 1.97.6c4.72 1.426 9.434 2.824 14.218 4.025l2.855.727c5.608 1.23 11.028 1.772 16.766 1.746l3.76-.01 3.869-.026 3.95-.013q4.806-.018 9.612-.049c-.547 3.653-1.229 7.032-2.488 10.504l-.885 2.473-.94 2.586c-2.006 5.617-3.984 11.219-5.687 16.937-1.974 6.62-4.289 13.112-6.627 19.611l-.885 2.483-.795 2.209c-.75 2.378-1.22 4.75-1.693 7.197l1.896.011c6.522.042 13.043.111 19.564.197q3.649.042 7.298.063c3.5.021 7 .068 10.5.12l3.286.003c6.118.119 9.793.522 14.456 4.606 2.89 3.245 4.247 6.732 4.438 11.063-.884 7.95-5.924 13.439-10.688 19.562l-4.352 5.652-2.227 2.89c-3.304 4.312-6.55 8.666-9.796 13.02a1029 1029 0 0 1-14.437 18.875c-5.364 6.847-10.551 13.805-15.684 20.826-4.594 6.265-9.328 12.41-14.123 18.523a707 707 0 0 0-13.225 17.465c-6.257 8.447-6.257 8.447-10.344 10.124-2.562 0-2.562 0-5.374-1.5-2.95-3.371-2.471-5.085-2.188-9.5a127 127 0 0 1 1.744-7.784l.562-2.254q.6-2.406 1.213-4.81.967-3.805 1.915-7.617 1.678-6.711 3.374-13.418 2.714-10.746 5.4-21.497.941-3.749 1.895-7.493l1.153-4.602.538-2.094c.881-3.552 1.403-6.77 1.206-10.431l-1.713-.018q-8.833-.098-17.666-.244-3.295-.051-6.59-.084c-3.16-.034-6.32-.086-9.48-.142l-2.971-.02c-8.62-.185-8.62-.185-12.58-3.492-2.567-4.2-1.878-7.289-1-12 .894-3.137 1.952-6.21 3.027-9.29l.924-2.693q1.487-4.323 2.987-8.642l2.052-5.962q2.044-5.94 4.098-11.878a3870 3870 0 0 0 4.99-14.535l2.61-7.625 1.165-3.417c1.908-5.543 3.93-11.006 6.14-16.435 1.865-4.674 3.55-9.414 5.257-14.148l1.102-3.043A6435 6435 0 0 0 123 264"/><path fill="#FFCE56" d="M463.824 228.705q2.111-.018 4.222-.062c2.036-.042 4.07-.059 6.106-.069l3.688-.044c3.714.552 4.859 1.582 7.16 4.47-2.075 8.219-4.745 16.118-7.688 24.063q-1.228 3.328-2.449 6.66l-1.084 2.93c-.884 2.251-.884 2.251-.779 4.347l2.766.044q5.103.093 10.204.218 2.205.051 4.408.084c2.118.034 4.235.086 6.352.142l3.857.08c3.631.46 5.523 1.228 8.413 3.432 2.477 3.716 2.669 6.692 2 11-1.695 3.21-1.695 3.21-4.125 6.375l-1.34 1.778A447 447 0 0 1 501 300l-3.36 4.344a2117 2117 0 0 1-7.14 9.16c-3.668 4.693-7.244 9.45-10.804 14.226-5.007 6.707-10.088 13.357-15.178 20.002l-1.952 2.553-1.86 2.43c-1.552 2.08-3.021 4.194-4.48 6.34C454 362 454 362 450.813 363.063 448 363 448 363 446 361c-.225-6.985 1.797-14.034 3.504-20.75l.735-2.97c.768-3.095 1.545-6.187 2.323-9.28q1.17-4.683 2.334-9.366.721-2.903 1.453-5.803l.657-2.632.583-2.317c.482-1.887.482-1.887.411-3.882l-2.798-.028q-5.142-.067-10.282-.18-2.224-.042-4.45-.063a453 453 0 0 1-6.396-.12l-3.888-.063C427 303 427 303 424.996 301.399c-2.883-6.948 2.081-16.023 4.371-22.63l1.32-3.842q1.378-4.01 2.769-8.016c1.185-3.416 2.357-6.837 3.526-10.258a2498 2498 0 0 1 2.729-7.92q.968-2.806 1.925-5.616l1.203-3.45 1.048-3.031c1.106-2.62 2.203-4.534 4.113-6.636 5.09-1.696 10.497-1.265 15.824-1.295"/><path fill="#FFB947" d="M180 336q6.458-.149 12.915-.22 2.194-.03 4.388-.082c2.11-.049 4.22-.071 6.33-.089l3.84-.063c4.71.606 7.838 2.557 10.988 6.095 2.657 4.678 3.136 7.984 2.539 13.359-2.396 5.898-6.374 10.644-10.25 15.625l-4.352 5.652-2.227 2.89c-3.304 4.312-6.55 8.666-9.796 13.02a1029 1029 0 0 1-14.437 18.875c-5.364 6.847-10.551 13.805-15.684 20.826-4.594 6.265-9.328 12.41-14.123 18.523a707 707 0 0 0-13.225 17.465c-6.257 8.447-6.257 8.447-10.344 10.124-2.562 0-2.562 0-5.374-1.5-2.401-2.744-2.527-3.783-2.404-7.31 1.46-14.805 5.46-27.389 15.541-38.296 3.376-3.817 6.364-7.949 9.425-12.019l4.133-5.434a3127 3127 0 0 0 13.599-18.116 804 804 0 0 1 11.091-14.465A1453 1453 0 0 0 181 370l1.464-1.896c6.492-8.214 6.492-8.214 8.81-18.174-.645-4.547-2.416-7.158-5.774-10.18A293 293 0 0 0 180 336"/><path fill="#C5E1E8" d="M377.438 307.438C381 308 381 308 384 309.938c2.732 4.183 1.956 7.383 1 12.062-1.126 3.917-2.502 7.724-3.91 11.547l-1.209 3.355c-1.305 3.62-2.624 7.234-3.943 10.848q-1.379 3.808-2.752 7.62-2.435 6.75-4.882 13.497a4213 4213 0 0 0-10.362 28.974q-2.393 6.749-4.794 13.495l-.985 2.772a40895 40895 0 0 1-12.237 34.367l-2.54 7.133c-2.37 6.656-4.75 13.308-7.148 19.954q-1.64 4.56-3.268 9.125c-1.12 3.126-2.253 6.246-3.384 9.368l-1.257 3.537-1.187 3.251-1.036 2.878C319 506 319 506 316 508c-6.942.661-6.942.661-10.5-1.562-1.984-3.224-1.966-5.786-1.5-9.438.992-3.753 2.303-7.373 3.629-11.02l1.153-3.253c1.25-3.517 2.515-7.028 3.78-10.54q1.318-3.691 2.632-7.385c2.19-6.15 4.394-12.296 6.6-18.441a5852 5852 0 0 0 5.104-14.302q3.565-10.012 7.149-20.016c3.411-9.522 6.81-19.048 10.206-28.575q5.127-14.375 10.273-28.744 3.218-8.985 6.392-17.985 1.659-4.695 3.334-9.383.738-2.076 1.463-4.157c.647-1.856 1.31-3.708 1.973-5.558l1.074-3.046c2.068-4.335 3.89-6.374 8.676-7.158M308 288l17 2c-.662 3.97-1.187 6.922-2.509 10.563l-.94 2.615L320.52 306l-1.092 3.026q-1.179 3.266-2.365 6.53c-2.168 5.97-4.32 11.946-6.473 17.92l-1.378 3.817c-4.466 12.38-8.862 24.783-13.251 37.19q-2.428 6.862-4.866 13.721l-.69 1.947-2.742 7.714a9105 9105 0 0 0-8.473 23.943 4543 4543 0 0 1-4.714 13.28q-1.09 3.071-2.168 6.149c-.98 2.794-1.974 5.582-2.972 8.368l-.852 2.472c-2.528 6.957-2.528 6.957-6.484 8.923-3.597.385-6.056.422-9.375-1.062-2.371-2.828-2.773-5.346-2.625-8.938 1.092-4.465 2.68-8.729 4.266-13.04q.698-1.95 1.394-3.905c1.252-3.504 2.523-7 3.796-10.496 1.334-3.671 2.65-7.348 3.968-11.025a6492 6492 0 0 1 6.473-17.955 6217 6217 0 0 0 8.302-23.087l2.408-6.731 1.172-3.275q2.299-6.417 4.605-12.831c7.257-20.2 14.438-40.427 21.616-60.655M37 283a1322 1322 0 0 1 6.938 3.375l1.998.96c4.95 2.438 4.95 2.438 6.064 4.665-.525 2.05-.525 2.05-1.453 4.622l-1.049 2.942-1.178 3.229-1.21 3.376a2859 2859 0 0 1-3.297 9.123q-1.717 4.738-3.424 9.478-2.1 5.822-4.206 11.64a2869 2869 0 0 0-7.964 22.272 5558 5558 0 0 1-4.628 13.053q-1.089 3.07-2.164 6.145c-.995 2.843-2.006 5.679-3.02 8.515-.289.834-.576 1.67-.873 2.53-2.567 7.083-2.567 7.083-6.534 9.075-3.688.55-5.532.234-8.875-1.437-2.55-3.076-2.534-5.028-2.433-8.938.583-4.971 2.378-9.505 4.12-14.172l1.216-3.363c1.31-3.618 2.641-7.229 3.972-10.84q1.365-3.748 2.724-7.498a5595 5595 0 0 1 4.165-11.453 2532 2532 0 0 0 8.966-24.967l1.128-3.19q2.124-6.015 4.244-12.03 1.436-4.07 2.878-8.14l.853-2.428c1.928-5.43 1.928-5.43 3.042-6.544"/><path fill="#6E6D6C" d="M104.906 234.152c3.421.938 4.885 2.027 7.469 4.41C130.471 253.675 152.116 256.635 175 255c6.411-.825 12.387-2.247 18.438-4.5l3.496-1.281c2.96-1.118 2.96-1.118 5.257-2.352 3.016-1.446 5.536-1.218 8.809-.867 2.438 1.625 2.438 1.625 4 4 .563 2.938.563 2.938 0 6-7.52 10.632-25.342 13.272-37.307 15.6-4.686.696-9.339.697-14.068.65l-3.083-.025c-22.845-.34-45.112-8.105-61.823-24.092C97 246 97 246 96.063 242.25c1.395-4.84 3.406-8.383 8.843-8.098"/><path fill="#FEB948" d="M180 271c-.67 5.498-2.433 10.39-4.312 15.563-2.007 5.617-3.985 11.219-5.688 16.937-1.974 6.62-4.289 13.112-6.627 19.611-1.404 3.94-2.735 7.737-3.373 11.889l2 1h-30c-2-4-2-4-1.16-7.501a210 210 0 0 1 1.527-4.21l.819-2.294a880 880 0 0 1 2.689-7.37q.91-2.52 1.817-5.042 1.8-4.994 3.625-9.979c1.451-3.963 2.88-7.934 4.3-11.909 5.201-14.513 5.201-14.513 6.383-15.695 1.647-.158 3.3-.251 4.953-.316l3.067-.127 3.23-.12 3.184-.13c4.525-.181 9.036-.331 13.566-.307"/><path fill="#C5E1E8" d="M73.059 403.66C75 404 75 404 77.5 405.5c2.098 3.497 1.962 6.561 1.5 10.5-1.002 3.901-2.355 7.651-3.734 11.434l-1.181 3.33c-1.266 3.563-2.55 7.118-3.835 10.673l-2.62 7.33q-2.597 7.264-5.214 14.521a2271 2271 0 0 0-5.342 14.982 2831 2831 0 0 1-3.274 9.218q-.731 2.056-1.453 4.114a761 761 0 0 1-2 5.59l-1.093 3.068c-1.387 3.03-3.016 5.278-5.254 7.74-2.754.866-5.193.604-8 0-2.5-1.5-2.5-1.5-4-4-.945-7.961 2.027-14.773 4.715-22.156q.743-2.082 1.482-4.165c1.302-3.658 2.62-7.31 3.94-10.96 1.309-3.629 2.602-7.262 3.896-10.895 2.727-7.64 5.487-15.267 8.263-22.89q1.034-2.843 2.062-5.69a2308 2308 0 0 1 3.708-10.15l1.084-3.002 1.012-2.727.863-2.353c2.31-4.766 4.697-5.598 10.034-5.352"/><path fill="#FFB947" d="M485 272a822 822 0 0 1 9.188-.187l2.619-.077c4.884-.056 8.273-.002 12.193 3.264 2.477 3.716 2.669 6.692 2 11-1.695 3.21-1.695 3.21-4.125 6.375l-1.34 1.778A447 447 0 0 1 501 300l-3.36 4.344a2117 2117 0 0 1-7.14 9.16c-3.668 4.693-7.244 9.45-10.804 14.226-5.007 6.707-10.088 13.357-15.178 20.002l-1.952 2.553-1.86 2.43c-1.552 2.08-3.021 4.194-4.48 6.34C454 362 454 362 450.814 363.062 448 363 448 363 446 361c-.047-2.066-.047-2.066.25-4.562l.266-2.442L447 351l.241-2.002c1.12-6.99 4.56-11.401 8.947-16.81q2.183-2.775 4.363-5.551l2.244-2.83c3.439-4.378 6.758-8.841 10.08-13.307a1262 1262 0 0 1 15.367-20.164c2.659-3.533 3.091-5.897 3.051-10.367-.444-2.982-1.963-4.187-4.293-5.969z"/><path fill="#C5E1E8" d="M425 373c2.714 1.685 2.975 2.902 3.763 6.025.305 5.109-1 8.712-2.779 13.448l-.99 2.754a1189 1189 0 0 1-3.244 8.836q-1.11 3.039-2.214 6.081a3569 3569 0 0 1-4.446 12.145 1191 1191 0 0 0-5.465 15.246q-1.095 3.087-2.195 6.173c-.666 1.879-1.322 3.761-1.978 5.644l-1.218 3.375-1.024 2.893c-1.386 2.726-2.574 3.861-5.21 5.38-3.963.495-6.076.657-9.375-1.687-1.833-2.609-2.266-4.163-2.625-7.313.535-2.484.535-2.484 1.492-5.18l1.113-3.188 1.27-3.507 1.31-3.699q1.502-4.228 3.025-8.447c1.684-4.674 3.343-9.355 5-14.038 1.52-4.287 3.05-8.57 4.58-12.853q1.147-3.212 2.287-6.426 1.622-4.559 3.263-9.107l.984-2.79.934-2.57.803-2.245c1.045-2.17 2.085-3.423 3.939-4.95 3.55-1.183 5.4-.9 9 0M196 445c3 1.938 3 1.938 5 5 .35 6.77-2.207 13.317-4.457 19.582l-1.043 2.96q-1.088 3.075-2.192 6.143c-1.122 3.13-2.22 6.268-3.318 9.407q-1.065 2.996-2.135 5.99l-.988 2.835c-2.964 8.155-2.964 8.155-6.867 11.083-2.748.73-5.22.547-8 0-2.5-1.5-2.5-1.5-4-4-.638-6.986 1.176-12.41 3.578-18.922l1.115-3.098q1.165-3.226 2.35-6.444c1.206-3.283 2.385-6.575 3.562-9.868q1.14-3.14 2.286-6.277c.35-.983.702-1.965 1.064-2.977 2.803-7.543 4.95-12.85 14.045-11.414"/><path fill="#FFB948" d="M467 229c2.249-.108 4.5-.186 6.75-.25l3.797-.14c4.061.459 4.804 1.457 7.453 4.39-2.364 9.376-5.58 18.333-8.947 27.387l-1.19 3.238-1.084 2.914c-.93 2.508-.93 2.508-.779 5.461h-19c-1.4-4.2.215-7.06 1.71-11.027l.872-2.38a1503 1503 0 0 1 2.793-7.53q1.39-3.76 2.771-7.52.862-2.34 1.733-4.678c1.21-3.265 2.321-6.477 3.121-9.865"/><path fill="#565656" d="m323.875 147.938 2.664.013q3.23.02 6.461.049c1.925 5.338 3.399 10.35 4 16l-3.375-.14c-12.139-.346-22.352 1.313-33.883 5.253-4.026 1.302-7.16 1.614-11.055-.175-2.56-2.94-2.753-5.086-2.687-8.938 3.77-4.812 7.827-6.437 13.438-8.25l2.236-.773c7.493-2.531 14.333-3.117 22.201-3.04M316 243c1.938 1.125 1.938 1.125 3 3 1.78 11.95-6.297 25.157-12.785 34.598A140 140 0 0 1 302 286c-4.742-.593-8.993-2.435-13-5l-2-3 1.54-1.766c6.54-7.79 11.405-15.846 14.022-25.734.901-3.233 1.466-4.533 3.688-7.187 3.709-1.77 5.833-1.401 9.75-.313"/><path fill="#6D6D6D" d="M467 146c2.789 2.714 3.92 4.267 4.348 8.172-.822 10.304-2.346 24.063-8.348 32.828-1.777.793-1.777.793-3.937 1.188l-2.399.44c-4.541.633-9.091 1.047-13.664 1.372 1.413-3.71 3.094-7.173 4.938-10.687 3.78-7.552 6.025-14.174 6.5-22.625.24-3.894.429-5.468 2.5-8.875 3.59-3.156 5.468-3.1 10.062-1.813M446 60q3.438.463 6.875.938l3.867.527C460 62 460 62 462 63c3.578 10.138.688 23.764-3.418 33.29C457 99 457 99 454 101c-3.362-.18-6-.419-8.937-2.125-1.707-3.01-1.347-5.472-1.063-8.875l1.012-2.988c1.55-5.219 1.2-10.556 1.113-15.95l-.027-3.228Q446.062 63.916 446 60M99 125c12.943.43 25.924 2.906 37 10 1.444 2.889 1.377 4.796 1 8-2.062 2.938-2.062 2.938-5 5-5.5.112-10.431-2.156-15.578-3.945-6.033-1.86-12.214-2.936-18.422-4.055q-.04-2.906-.062-5.812l-.036-3.27C98 128 98 128 99 125"/></svg>