<svg xmlns="http://www.w3.org/2000/svg" width="512" height="512"><path fill="#333" d="M204.266 327.371q2.894 0 5.787-.007 6.025-.004 12.051.04c5.127.033 10.252.027 15.379.008 3.974-.01 7.947-.001 11.921.014q2.835.008 5.67-.002c12.191-.025 22.991.053 32.399 8.885 3.923 4.344 6.28 8.806 8.098 14.342l.813 2.465L297 355l3.325-.936 31.073-8.74q7.988-2.244 15.974-4.492a43303 43303 0 0 1 21.3-5.99q4.125-1.162 8.25-2.32l2.435-.687c24.662-6.916 24.662-6.916 35.819-.956L417 332l2.75 1.688c5.582 5.736 8.343 12.51 8.563 20.437-.155 10.547-5.05 18.477-12.313 25.875-3.866 3.406-7.996 6.476-12.115 9.566-3.141 2.39-6.193 4.887-9.26 7.372-7.079 5.692-14.322 11.146-21.613 16.562-2 1.491-3.992 2.994-5.98 4.5-29.878 22.614-61.317 45.179-95.094 61.563-1.213.59-1.213.59-2.45 1.194-11.543 5.402-22.104 7.926-34.863 7.743l-2.082-.015c-20.229-.163-40.377-2.26-60.497-4.193-4.112-.394-8.225-.778-12.338-1.163A8017 8017 0 0 1 127 480l-.907 2.874c-1.083 3.097-1.978 4.553-4.28 6.813l-1.668 1.7c-5.331 4.01-10.419 5.06-16.973 5.017l-2.27.02c-2.455.019-4.91.015-7.367.01q-2.58.007-5.159.015-5.394.013-10.79-.003c-4.594-.011-9.188.009-13.782.038-3.549.018-7.098.018-10.647.012q-2.54 0-5.08.019c-17.797.112-17.797.112-25.32-6.48l-1.632-1.973-1.68-1.964c-2.767-4.016-3.695-7.585-3.712-12.429l-.026-3.198.002-3.478-.02-3.687q-.023-4.997-.024-9.993-.001-3.125-.01-6.25-.028-10.917-.026-21.834c.002-6.77-.02-13.54-.051-20.31a3702 3702 0 0 1-.036-17.471c0-3.474-.005-6.947-.026-10.42-.023-3.878-.014-7.755-.002-11.633l-.034-3.46c.061-7.78 1.215-13.163 6.485-19.177l1.973-1.633 1.964-1.68c4.728-3.257 9.074-3.743 14.699-3.736l2.268-.02c2.467-.019 4.934-.023 7.4-.025l5.168-.02q5.413-.017 10.826-.015c4.61 0 9.22-.027 13.83-.061 3.557-.022 7.115-.026 10.672-.025a657 657 0 0 0 5.097-.027c18.033-.15 18.033-.15 25.38 6.52l1.633 2.026 1.68 2.036c1.208 1.59 2.337 3.24 3.445 4.902 9.731-2.629 18.466-6.397 27.438-10.937q2.75-1.39 5.511-2.761 2.507-1.247 5.006-2.513A321 321 0 0 1 170 333l2.858-1.303c10.51-4.328 20.189-4.414 31.408-4.326"/><path fill="#333332" d="M348 16c2.5 1.75 2.5 1.75 4 4v4l3.241-.063c3.973-.073 7.946-.119 11.92-.157a609 609 0 0 0 5.156-.082c2.473-.048 4.944-.071 7.417-.089l2.324-.062c3.58-.002 5.54.146 8.425 2.352 1.641 2.273 2.06 3.33 2.017 6.101l.031 2c-.803 3.025-2.045 4.098-4.531 6-2.89.35-5.386.468-8.266.39-.793-.005-1.586-.01-2.404-.017a670 670 0 0 1-7.58-.123q-2.574-.03-5.148-.055c-4.202-.04-8.4-.119-12.602-.195v16h7c6.586 1.788 11.213 6.503 15 12 1.852 3.9 2.333 7.247 2.563 11.543l.226 3.752.422 7.82.226 3.74.184 3.427c.12 2.861.12 2.861 2.379 4.718 2.912.373 2.912.373 6.32.414l3.809.117 3.996.094 4.02.117q4.928.142 9.855.258l-.094-3.25c.144-5.765 2.027-9.549 5.965-13.742 5.247-4.781 9.495-7.268 16.745-7.235h3.336l3.568.032 3.677.008c3.872.011 7.744.037 11.615.062q3.94.016 7.881.027 9.653.034 19.307.098l-.027-2.25q-.12-10.506-.18-21.012c-.021-3.6-.05-7.2-.095-10.801q-.063-5.213-.078-10.427a568 568 0 0 0-.073-5.909l-.001-3.64-.027-3.202c.601-3.449 1.773-4.614 4.481-6.759 2-.531 2-.531 4-.5l2-.031c3.006.798 4.096 2.077 6 4.531.392 2.751.538 5.102.503 7.852l.018 2.426c.015 2.698 0 5.396-.013 8.095q.007 2.921.019 5.843c.017 5.364.008 10.729-.004 16.094-.01 5.78.005 11.561.016 17.342.018 11.329.014 22.658.002 33.988q-.013 13.806-.006 27.614l.002 3.964.004 7.972c.012 24.229 0 48.457-.021 72.685q-.029 33.192.001 66.383a54963 54963 0 0 1 .014 82.488l-.002 3.949q-.003 13.795.012 27.592.017 16.804-.013 33.61c-.01 5.72-.015 11.439-.001 17.159q.017 7.844-.016 15.692a764 764 0 0 0 .007 5.693c.012 2.569 0 5.137-.019 7.707l.029 2.259c-.051 3.466-.285 5.274-2.438 8.05-2.271 1.673-3.309 2.087-6.094 2.043l-2 .031c-2.908-.772-4.093-2.239-6-4.531-.497-2.42-.497-2.42-.492-5.177l-.024-3.191.035-3.502-.01-3.723c-.006-3.412.007-6.822.027-10.234.017-3.678.011-7.357.008-11.035q-.002-9.56.033-19.12c.033-9.214.043-18.43.048-27.644q.015-22.425.073-44.85.056-21.784.082-43.57l.003-2.712.016-13.47c.041-37.258.112-74.515.201-111.772l-2.034.027c-7.008.089-14.016.149-21.025.193q-3.92.03-7.839.082c-3.763.048-7.526.071-11.29.089l-3.52.062c-7.96.002-13.38-1.024-19.534-6.418-5.15-6.222-6.844-9.825-6.758-18.035-4.48-.065-8.957-.04-13.437 0l-3.819-.059c-6.587.104-10.841.406-15.834 4.942l-1.953 2.121c-6.582 6.712-16.865 9.203-25.973 9.427-14.113.034-25.313-2.49-35.984-12.431l-1.469-1.715c-1.463-1.471-1.463-1.471-3.582-1.5-6.373.782-10.7 2.367-14.824 7.59-1.392 3.248-1.793 5.135-1.125 8.625 2.691 2.045 2.691 2.045 6 4 6.965 6.802 8.712 13.141 9.188 22.813-.149 8.5-1.712 15.555-7.758 21.812-3.929 3.664-7.178 5.303-12.43 6.375l1.438 3.438c3.247 8.8 3.109 16.985-.29 25.761-4.082 8.713-10.042 14.338-18.918 17.918-8.637 2.36-19.006 2.035-27.12-1.86-8.351-4.979-13.524-11.861-16.11-21.257-.725-8.557-.34-16.067 3-24l-1.723-.41c-6.21-1.732-10.49-4.292-14.277-9.59-3.268-5.978-3.488-11.2-3.437-17.937l-.061-2.881c.005-7.491 1.52-12.791 6.498-18.46l2-1.66 2-1.714c2.053-1.384 3.612-1.818 6-2.348l-.063-1.69c-.734-22.588 3.767-40.4 19.122-57.619 13.414-14.179 30.913-21.427 50.198-22.102q3.277-.088 6.554-.123l3.068-.06 2.768-.021c2.37-.227 2.37-.227 4.15-1.54 1.715-2.63 1.572-4.639 1.574-7.763l.053-3.553q.014-3.687.015-7.375c.132-8.327.97-14.056 6.526-20.396C323.919 57.83 326.999 56 335 56l1-16-7.734.14q-3.714.046-7.427.08-2.579.03-5.156.082c-2.473.048-4.944.071-7.417.089l-2.324.062c-3.58.002-5.54-.146-8.425-2.352-1.641-2.273-2.06-3.33-2.017-6.101l-.031-2c.803-3.025 2.045-4.098 4.531-6 2.89-.35 5.386-.468 8.266-.39.793.005 1.586.01 2.404.017 2.527.022 5.053.072 7.58.123q2.574.03 5.148.055c4.202.044 8.402.113 12.602.195l.313-2.875c1.326-6.03 6.374-6.002 11.687-5.125"/><path fill="#FEC59F" d="m195.93 343.725 2.338-.015c2.536-.014 5.071-.013 7.607-.01l5.312-.014q5.557-.01 11.116-.002c4.741.006 9.482-.01 14.223-.034 3.655-.015 7.31-.016 10.964-.013q2.622 0 5.243-.015c2.446-.013 4.891-.006 7.337.006l2.173-.023c5.326.055 9.46 1.251 13.402 4.93 4.189 5.478 4.977 8.651 4.355 15.465-1.825 5.273-4.607 7.797-9 11-3.457 1.152-6.147 1.132-9.795 1.142l-2.08.01q-2.235.011-4.469.017-3.537.012-7.073.041c-6.704.052-13.408.1-20.112.116-4.101.01-8.202.04-12.303.081q-2.344.02-4.688.015c-2.186-.002-4.37.02-6.556.048l-3.768.018c-3.733.606-4.926 1.506-7.156 4.512-.667 3-.667 3 0 6 2.226 2.997 3.416 3.906 7.14 4.508l3.749.01 2.076.02c2.264.018 4.526.007 6.789-.007l4.746.012q4.98.008 9.96-.022c4.227-.022 8.453-.01 12.68.015 3.272.014 6.544.01 9.815 0q2.335-.005 4.67.01c11.945.055 21.765-1.431 31.621-8.69 2.015-1.93 2.015-1.93 3.332-5.333 1.816-3.296 3.504-4.29 7.035-5.527a206 206 0 0 1 5.7-1.559l3.09-.869A589 589 0 0 1 315 367l2.958-.777c3.802-.995 7.604-1.984 11.412-2.954 7.74-1.983 15.356-4.283 22.983-6.657 7.84-2.418 15.74-4.522 23.69-6.54 5.215-1.33 10.34-2.778 15.457-4.447 5.619-1.767 9.762-2.903 15.313-.313 2.505 1.933 4 3.546 4.523 6.739.096 5.581-.535 8.605-4.336 12.949-6.94 6.997-14.853 12.813-22.7 18.738a619 619 0 0 0-11.363 8.824c-6.876 5.43-13.856 10.715-20.898 15.927q-1.965 1.456-3.922 2.92C320.094 432.353 289.577 454.822 257 468l-3.2 1.3c-7.32 2.621-14.209 3.168-21.898 2.882l-2.408-.09L227 472l-2.406-.08c-14.654-.5-29.147-1.763-43.719-3.358-17.614-1.916-35.185-3.298-52.875-4.562v-96l12-3c2.59-.905 5.156-1.88 7.688-2.938l2.073-.865c8.024-3.42 15.857-7.267 23.685-11.109l3.097-1.514 2.75-1.356c5.628-2.532 10.483-3.514 16.637-3.493"/><path fill="#E3EEF7" d="m43.914 351.353 2.047-.027c2.222-.021 4.442-.007 6.664.01q2.325-.005 4.65-.015 4.868-.009 9.735.027c4.153.029 8.305.012 12.458-.018 3.2-.018 6.4-.012 9.6 0q2.296.006 4.592-.011a340 340 0 0 1 6.426.034l3.689.012C107 352 107 352 109.894 353.84c3.133 4.702 2.79 8.853 2.721 14.39l.017 3.435c.012 3.748-.012 7.495-.038 11.242q-.003 3.906 0 7.812c0 5.458-.02 10.915-.052 16.372-.037 6.304-.046 12.607-.039 18.91.007 6.072-.004 12.144-.024 18.215q-.01 3.87-.009 7.741c-.002 3.606-.023 7.21-.05 10.815l.009 3.237c-.107 9.271-.107 9.271-3.429 12.992-3.39 1.13-6.021 1.155-9.595 1.193l-2.017.025q-3.3.035-6.599.055l-2.28.017q-5.97.039-11.94.06-4.94.02-9.877.082c-3.978.05-7.955.074-11.934.081q-2.27.01-4.543.046c-2.12.032-4.24.032-6.361.024l-3.653.025C37 480 37 480 34.112 478.171c-3.148-4.727-2.811-8.926-2.759-14.491l-.027-3.466c-.022-3.78-.007-7.559.01-11.339q-.005-3.94-.015-7.88c-.009-5.504.003-11.008.027-16.513.027-6.358.019-12.715-.009-19.074-.025-6.124-.023-12.247-.008-18.37q.005-3.905-.012-7.81c-.013-3.636.006-7.271.034-10.908l-.03-3.265c.066-4.664.157-7.274 2.785-11.222 3.54-2.244 5.628-2.466 9.806-2.48"/><path fill="#333332" d="M68 128c3.929 2.981 5.09 6.367 6.688 10.938 5.524 14.8 14.929 25.713 28.338 33.868 8.434 5.16 8.434 5.16 9.505 9.194l-.031 2 .031 2c-1.239 4.664-5.746 6.879-9.656 9.188C88.342 204.295 80.783 215.546 74 231c-3.62 7.81-3.62 7.81-6 9-7.227.583-7.227.583-10.05-1.547-2.453-3.086-3.818-6.39-5.263-10.016-6.52-15.506-15.064-26.232-29.769-34.613-6.44-4.026-6.44-4.026-7.45-7.824l.032-2-.031-2c1.239-4.664 5.746-6.879 9.656-9.187 16.444-10.305 24.79-24.578 32.016-42.168 1.998-3.825 7.09-3.42 10.859-2.645"/><path fill="#E3EEF7" d="m434.25 95.432 3.135.002 3.26.078 3.022.015c3.716.026 7.43.096 11.145.16L480 96v80l-25.188.312-7.93.138q-3.12.023-6.237.038l-3.26.078-3.136.002-2.712.033c-3.753-.89-5.22-2.567-7.537-5.601-.635-3.225-.635-3.225-.647-6.914l-.027-2.047c-.021-2.222-.007-4.442.01-6.664q-.004-2.325-.015-4.65-.009-4.868.027-9.735c.029-4.153.012-8.305-.018-12.458-.018-3.2-.012-6.4 0-9.6q.006-2.296-.011-4.592a340 340 0 0 1 .034-6.426l.012-3.689c1.19-6.04 4.837-8.868 10.884-8.793"/><path fill="#333332" d="M153.965 79.54c2.996.678 4.117 2.1 6.035 4.46 1.273 2.7 1.273 2.7 2.375 5.688 4.678 11.702 11.955 21.09 23.059 27.304C187 118 187 118 188 120c.588 7.292.588 7.292-1.687 10.031-2.437 2.075-4.96 3.823-7.625 5.594-9.15 6.59-13.37 15.21-17.688 25.375-2.73 5.865-2.73 5.865-5 7-7.26.585-7.26.585-10.113-1.672-2.08-2.565-3.066-4.796-4.2-7.89-4.827-12.01-11.13-20.464-22.43-27.032C117 130 117 130 116 128c-.698-7.097-.698-7.097 2.125-10.75C121 115 121 115 123.813 113.188c10.06-6.905 15.916-16.438 19.937-27.876 2.045-5.42 4.786-5.543 10.215-5.773"/><path fill="#FDC827" d="M362.688 109.563c6.698 4.762 11.164 11.546 13.312 19.437 1.323 10.726-1.122 20.16-7.562 28.875-5.845 6.21-14.67 9.592-23.016 10.363-9.376.26-16.224-2.639-23.567-8.398-6.357-6.304-10.131-14.715-10.23-23.59.106-6.345 1.035-10.87 4.375-16.25l1.285-2.113c10.666-15.776 29.671-17.72 45.402-8.324"/><path fill="#333" d="M187 252c12.724 9.31 17.51 20.752 20.586 35.883.521 3.926.675 7.785.726 11.742l.088 2.273c.04 3.392-.155 5.694-1.92 8.625-3.497 2.082-6.574 2.235-10.48 1.477-2.508-1.314-4.51-2.532-6.75-4.187-8.183-5.63-16.437-9.043-26-11.75-7.117-2.123-11.68-5.223-16.625-10.688-3.154-6.552-4.472-13.489-2.687-20.625 2.466-6.698 6.758-11.848 13.062-15.25 9.502-3.638 21.343-2.862 30 2.5M357.066 266.598c6.347 4.602 9.91 10.05 11.684 17.59.508 7.752-.948 14.07-6.02 20.07-5.75 5.789-12.22 7.519-19.937 9.582-8.966 2.545-17.68 7.101-24.992 12.906-2.092 1.456-3.273 1.687-5.801 1.692l-2 .058c-3.064-.76-4.159-1.943-6-4.496-.382-2.787-.523-5.1-.437-7.875l.042-2.282c.485-15.006 4.328-29.646 14.918-40.644 10.348-9.189 25.63-13.46 38.543-6.601"/><path fill="#333332" d="M81.965 15.54c2.993.677 4.12 2.101 6.035 4.46 1.203 2.629 1.203 2.629 2.25 5.563 4.045 10.081 9.499 17.323 18.746 23.097C111 50 111 50 112 52c.59 7.305.59 7.305-1.746 10.059-2.14 1.843-4.327 3.493-6.629 5.129-8.118 6.297-11.567 14.514-15.23 23.87C87 94 87 94 84 96c-7.141.68-7.141.68-10.105-1.668-2.11-2.596-3.115-4.888-4.27-8.02-3.588-8.936-7.57-15.088-15.477-20.707C51.84 63.88 49.882 62.187 48 60c-.454-3.178-.683-4.986 0-8 2.021-2.653 4.104-4.4 6.867-6.25 9.062-6.206 13.264-15.221 16.992-25.316 2.195-4.683 5.33-4.693 10.106-4.895"/><path fill="#FDC827" d="m298 120-.5 2.625c-1.425 10.222-.563 20.316 1.5 30.375l-1.652.445c-9.33 2.775-16.096 6.96-21.2 15.39-2.714 5.115-3.316 9.344-4.148 15.165h-32c-.58-17.813 2.357-32.244 14.188-46.25C265.975 125.27 281.144 119.442 298 120"/><path fill="#C3DBEF" d="M104 352c2.974.321 4.554.527 6.644 2.741 1.58 2.631 1.733 4.1 1.737 7.148l.026 2.978-.019 3.248.016 3.436c.013 3.752.005 7.505-.006 11.258q.003 3.907.01 7.816.006 8.195-.017 16.39c-.016 6.31-.01 12.622.006 18.933.015 6.076.013 12.152.004 18.228q-.004 3.874.008 7.75c.007 3.61-.004 7.22-.02 10.83l.018 3.241c-.08 9.283-.08 9.283-3.407 13.003-3.39 1.13-6.021 1.155-9.595 1.193l-2.017.025q-3.3.035-6.599.055l-2.28.017q-5.97.039-11.94.06-4.94.02-9.877.082c-3.978.05-7.955.074-11.934.081q-2.27.01-4.543.046c-2.12.032-4.24.032-6.361.024l-3.653.025c-4.134-.785-5.642-2.334-8.201-5.608v-3l2.275-.011q10.638-.057 21.274-.173c3.646-.04 7.29-.072 10.936-.087 3.521-.015 7.042-.05 10.563-.097 1.99-.022 3.981-.024 5.972-.026 8.779-.01 8.779-.01 15.98-4.606 4.612-5.405 4.58-9.907 4.546-16.687l.031-3.224c.03-3.507.031-7.012.032-10.519q.023-3.653.05-7.305a4295 4295 0 0 0 .08-19.205c.019-6.536.06-13.071.1-19.607q.112-19.226.161-38.453"/><path fill="#FBAD79" d="M404 345c2.465.53 3.804.832 5.75 2.5 1.915 3.83 1.876 7.305 1.25 11.5-4.795 10.462-17.733 17.967-26.7 24.738a619 619 0 0 0-11.363 8.825c-6.876 5.429-13.856 10.714-20.898 15.926q-1.965 1.456-3.922 2.92C320.094 432.353 289.577 454.822 257 468c-1.056.43-2.111.859-3.2 1.3-8.95 3.205-17.434 3.104-26.8 2.7v-1l2.06-.301c6.713-1.086 12.606-2.825 18.815-5.574l2.747-1.208c28.31-12.757 54.35-31.68 79.378-49.917l2.315-1.685c9.408-6.858 18.746-13.8 27.933-20.953 1.992-1.549 3.99-3.09 5.986-4.632 3.839-2.965 7.66-5.951 11.477-8.945a822 822 0 0 1 6.785-5.219C394.55 364.793 401.602 357.95 404 345"/><path fill="#FEC927" d="m241.125 199.336 3.575-.015q3.737-.005 7.474.027c3.813.027 7.623 0 11.435-.032q3.633.005 7.266.02l3.454-.03c7.877.116 7.877.116 11.892 3.038 2.203 3.289 2.39 5.221 2.279 9.156l-.031 3.344c-.513 3.45-1.352 5.4-3.469 8.156-2.977.992-5.015 1.15-8.126 1.193l-3.166.049c-4.768.044-9.536.085-14.304.108q-3.774.025-7.548.082c-3.626.055-7.252.077-10.88.091l-3.406.07c-7.781-.022-7.781-.022-11.777-2.915-2.286-3.415-2.462-5.589-2.418-9.678l-.04-3.625c1.915-9.728 9.6-9.112 17.79-9.04"/><path fill="#FCC827" d="M63 157h2c1.13 1.622 2.178 3.3 3.188 5 5.02 8.076 10.355 14.003 18.09 19.555L88 183v2a119 119 0 0 1-4.875 3.813C75.739 194.699 68.9 202.293 65 211h-2c-1.108-1.602-2.135-3.26-3.125-4.937-4.995-8.046-10.53-14.555-18.406-19.872L40 185v-2a119 119 0 0 1 4.875-3.812C52.261 173.3 59.1 165.707 63 157"/><path fill="#C3DBEF" d="M472 96h8v80l-25.187.313-7.93.137q-3.12.023-6.238.038l-3.26.078c-7.6.004-7.6.004-11.613-2.909C424 171 424 171 424 168h48z"/><path fill="#FDAE79" d="M272 346c7.57 5.924 7.57 5.924 8.3 11.148.027 5.043-.374 8.56-3.3 12.852-3.62 3.649-6.752 5.902-12.023 6.131l-3.756.01-2.075.011q-2.23.011-4.46.017-3.53.012-7.061.041c-6.693.052-13.385.1-20.078.116-4.095.01-8.19.04-12.285.081a502 502 0 0 1-4.676.015c-2.183-.002-4.365.02-6.548.048l-3.761.018c-3.828.598-5.508 1.869-8.277 4.512-.602-7.099-.602-7.099 1.738-10.604 4.277-4.087 10.415-3.039 15.938-2.962l3.755-.017c3.96-.017 7.92-.002 11.881.02 3.95.019 7.9.026 11.85.01q3.685-.013 7.37.03c8.031-.025 13.342-1.067 19.675-6.301 4.082-4.738 6.314-9.092 7.793-15.176"/><path fill="#E1ECF5" d="M246 240h20c7.087 12.993 7.087 12.993 6 20-1.859 5.266-4.603 7.794-9 11-4.07 1.357-7.744 1.525-12 1-5.304-2.702-9.098-6.295-11-12-1.018-8.002 2.19-13.016 6-20"/><path fill="#EAB000" d="M296 141h1l2 12-3.937 1.125C285.71 157.301 279.638 162.26 275 171c-1.893 4.507-2.282 7.975-3 13h-32v-8h24v-7c1.99-9.156 7.802-15.592 15.477-20.559 5.383-3.075 10.195-4.916 16.523-4.441zM280 200c2.906.314 4.544.544 6.645 2.645 1.768 3.072 1.754 5.263 1.73 8.792l.023 3.372c-.438 3.51-1.243 5.404-3.398 8.191-2.977.992-5.015 1.15-8.126 1.193l-3.166.049c-4.768.044-9.536.085-14.304.108q-3.774.025-7.548.082c-3.626.055-7.252.077-10.88.091l-3.406.07c-8.692-.024-8.692-.024-11.819-2.938C224 219 224 219 224 216l3.944-.044c4.842-.058 9.684-.136 14.525-.218q3.14-.051 6.28-.084c3.013-.034 6.027-.086 9.04-.142l2.823-.02c6.403-.144 10.937-1.04 15.638-5.742 2.077-3.264 2.867-5.998 3.75-9.75"/><path fill="#FEC927" d="M390 120h18v32h-19l1-4.625c1.681-9.228 1.322-18.123 0-27.375"/><path fill="#FDC827" d="m343.5 71.5 2.84-.008c4.964.07 8.69.188 12.66 3.508 1.502 3.003 1.093 5.79 1.063 9.125l-.028 3.883L360 91l-1.914-.437c-9.927-2.06-20.093-2.467-30.086-.563-.136-2.06-.232-4.124-.312-6.187l-.176-3.481C328 77 328 77 329.863 74.105c4.523-3.036 8.312-2.766 13.637-2.605"/><path fill="#E8AF01" d="M63 157h2c1.13 1.622 2.178 3.3 3.188 5 5.02 8.076 10.355 14.003 18.09 19.555L88 183v2a119 119 0 0 1-4.875 3.813C75.739 194.699 68.9 202.293 65 211h-2c-4.122-6.184-4.122-6.184-3.625-9.5C64.018 194.357 69.639 189.356 77 185h2v-2l-2.187-.73c-3.202-1.445-5.245-3.195-7.813-5.583l-2.617-2.421c-2.506-2.383-4.978-4.781-7.383-7.266l-2 1c1.813-3.777 3.907-7.373 6-11"/><path fill="#DEE9F2" d="M171.594 263.457c6.215 1.402 10.898 5.289 14.344 10.543 4.466 8.098 4.466 8.098 3.601 12.172L189 288l-1.984-.988c-5.082-2.434-9.881-4.344-15.391-5.574-7.701-1.808-7.701-1.808-10.625-5.438-1.125-3.437-1.125-3.437-1-7 3.046-4.772 6.175-5.877 11.594-5.543"/><path fill="#BFD6E9" d="M347 280c3.5 2.428 4.737 3.85 5.688 8-.748 3.264-1.699 4.841-4.391 6.848-3.682 1.847-7.617 2.734-11.6 3.694-5.268 1.276-9.844 3.074-14.697 5.458 1.014-8.371 3.48-14.926 9.855-20.672 4.726-3.358 9.417-4.678 15.145-3.328"/><path fill="#F9C528" d="M151 109c3.572 1.19 4.246 2.33 6.438 5.313 2.332 3.156 4.73 5.966 7.562 8.687-1.494 3.416-3.483 5.828-6 8.563-2.234 2.434-4.162 4.68-6 7.437-3.422-1.14-3.88-1.883-5.875-4.75-2.474-3.44-5.044-6.35-8.125-9.25 1.494-3.416 3.483-5.828 6-8.562 2.234-2.435 4.162-4.681 6-7.438"/><path fill="#E6AE02" d="M355 106c10.274 4.406 15.646 9.73 20 20 2.876 8.627 1.263 17.29-2.516 25.336-3.618 6.493-7.721 10.543-14.484 13.664l-2-1 1.172-1.398C365.54 152.12 367.947 141.195 367 128c-1.658-7.02-5.526-13.388-10-19l-2-1z"/><path fill="#363636" d="M459 144c3.375 2.125 3.375 2.125 5 5 .572 3.504.44 5.224-1.312 8.313-3.162 3.161-6.806 2.935-11.063 3.062-4.415-.04-6.158-.076-9.937-2.5-2.013-3.428-2.5-4.975-1.688-8.875 3.988-7.055 11.872-6.055 19-5"/><path fill="#363637" d="M458 112c4.65 2.3 4.65 2.3 6 5 .291 3.35.365 5.358-1.312 8.313-3.162 3.161-6.806 2.935-11.063 3.062-4.415-.04-6.158-.076-9.937-2.5-2.013-3.428-2.5-4.975-1.688-8.875 3.94-6.713 11.044-6.033 18-5"/><path fill="#E9B001" d="M390 120h7c4.42 10.683 4.42 21.317 0 32h-8l.438-1.914c2.06-9.927 2.466-20.093.562-30.086"/><path fill="#F6C428" d="M79 45c3.387 1.439 5.36 3.221 7.75 6l1.86 2.125C90 55 90 55 90 57a281 281 0 0 1-5 5 206 206 0 0 0-4 5c-3.482-1.16-4.016-2.069-6.062-5-2.018-3.016-2.018-3.016-4.938-5 1.444-3.239 3.258-5.62 5.625-8.25l1.914-2.14z"/><path fill="#BFD6EA" d="M259 240h7c7.128 12.729 7.128 12.729 6 20-1.857 5.263-4.533 7.873-9 11-2.875.813-2.875.813-5 1l.84-1.645 1.098-2.168 1.09-2.144c2.81-5.905 2.878-11.902 1.077-18.145A163 163 0 0 0 259 240"/><path fill="#DEE9F2" d="M347 280c2.563 2 2.563 2 4 4l-1 3a94 94 0 0 1-8.187 2.5c-5.29 1.398-9.933 2.953-14.813 5.5h-2c.422-4.785 2.596-7.781 6-11 4.822-3.898 9.858-5.233 16-4"/><path fill="#BCD3E6" d="M172 264c6.008 1.573 10.151 4.068 13.453 9.305 2.592 4.9 4.186 9.161 4.547 14.695l-10-4-.125-3.375c-.671-5.697-3.798-9.922-6.875-14.625z"/><path fill="#E5AD02" d="M350 72c6.446.487 6.446.487 8.719 2.594 1.768 3.32 1.572 5.92 1.469 9.656l-.083 3.828L360 91l-11-2 3-1a1593 1593 0 0 0-.437-6.312l-.247-3.551c-.203-3.163-.203-3.163-1.316-6.137"/></svg>